<?xml version="1.0" encoding="utf-8" standalone="no"?>
<!DOCTYPE svg PUBLIC "-//W3C//DTD SVG 1.1//EN"
  "http://www.w3.org/Graphics/SVG/1.1/DTD/svg11.dtd">
<svg xmlns:xlink="http://www.w3.org/1999/xlink" width="460.8pt" height="345.6pt" viewBox="0 0 460.8 345.6" xmlns="http://www.w3.org/2000/svg" version="1.1">
 <metadata>
  <rdf:RDF xmlns:dc="http://purl.org/dc/elements/1.1/" xmlns:cc="http://creativecommons.org/ns#" xmlns:rdf="http://www.w3.org/1999/02/22-rdf-syntax-ns#">
   <cc:Work>
    <dc:type rdf:resource="http://purl.org/dc/dcmitype/StillImage"/>
    <dc:date>2024-05-07T11:55:25.297527</dc:date>
    <dc:format>image/svg+xml</dc:format>
    <dc:creator>
     <cc:Agent>
      <dc:title>Matplotlib v3.8.4, https://matplotlib.org/</dc:title>
     </cc:Agent>
    </dc:creator>
   </cc:Work>
  </rdf:RDF>
 </metadata>
 <defs>
  <style type="text/css">*{stroke-linejoin: round; stroke-linecap: butt}</style>
 </defs>
 <g id="figure_1">
  <g id="patch_1">
   <path d="M 0 345.6 
L 460.8 345.6 
L 460.8 0 
L 0 0 
z
" style="fill: #ffffff"/>
  </g>
  <g id="axes_1">
   <g id="patch_2">
    <path d="M 57.6 307.584 
L 414.72 307.584 
L 414.72 41.472 
L 57.6 41.472 
z
" style="fill: #ffffff"/>
   </g>
   <g id="patch_3">
    <path d="M 366.727589 307.584 
L 368.712569 307.584 
L 368.712569 298.944 
L 366.727589 298.944 
z
" clip-path="url(#p1fd3fa0d8b)" style="fill: #1f77b4"/>
   </g>
   <g id="patch_4">
    <path d="M 368.712569 307.584 
L 370.697549 307.584 
L 370.697549 284.544 
L 368.712569 284.544 
z
" clip-path="url(#p1fd3fa0d8b)" style="fill: #1f77b4"/>
   </g>
   <g id="patch_5">
    <path d="M 370.697549 307.584 
L 372.68253 307.584 
L 372.68253 255.744 
L 370.697549 255.744 
z
" clip-path="url(#p1fd3fa0d8b)" style="fill: #1f77b4"/>
   </g>
   <g id="patch_6">
    <path d="M 372.68253 307.584 
L 374.66751 307.584 
L 374.66751 255.744 
L 372.68253 255.744 
z
" clip-path="url(#p1fd3fa0d8b)" style="fill: #1f77b4"/>
   </g>
   <g id="patch_7">
    <path d="M 374.66751 307.584 
L 376.65249 307.584 
L 376.65249 212.544 
L 374.66751 212.544 
z
" clip-path="url(#p1fd3fa0d8b)" style="fill: #1f77b4"/>
   </g>
   <g id="patch_8">
    <path d="M 376.65249 307.584 
L 378.63747 307.584 
L 378.63747 206.784 
L 376.65249 206.784 
z
" clip-path="url(#p1fd3fa0d8b)" style="fill: #1f77b4"/>
   </g>
   <g id="patch_9">
    <path d="M 378.63747 307.584 
L 380.622451 307.584 
L 380.622451 183.744 
L 378.63747 183.744 
z
" clip-path="url(#p1fd3fa0d8b)" style="fill: #1f77b4"/>
   </g>
   <g id="patch_10">
    <path d="M 380.622451 307.584 
L 382.607431 307.584 
L 382.607431 105.984 
L 380.622451 105.984 
z
" clip-path="url(#p1fd3fa0d8b)" style="fill: #1f77b4"/>
   </g>
   <g id="patch_11">
    <path d="M 382.607431 307.584 
L 384.592411 307.584 
L 384.592411 54.144 
L 382.607431 54.144 
z
" clip-path="url(#p1fd3fa0d8b)" style="fill: #1f77b4"/>
   </g>
   <g id="patch_12">
    <path d="M 384.592411 307.584 
L 386.577391 307.584 
L 386.577391 186.624 
L 384.592411 186.624 
z
" clip-path="url(#p1fd3fa0d8b)" style="fill: #1f77b4"/>
   </g>
   <g id="patch_13">
    <path d="M 386.577391 307.584 
L 388.562372 307.584 
L 388.562372 166.464 
L 386.577391 166.464 
z
" clip-path="url(#p1fd3fa0d8b)" style="fill: #1f77b4"/>
   </g>
   <g id="patch_14">
    <path d="M 388.562372 307.584 
L 390.547352 307.584 
L 390.547352 215.424 
L 388.562372 215.424 
z
" clip-path="url(#p1fd3fa0d8b)" style="fill: #1f77b4"/>
   </g>
   <g id="patch_15">
    <path d="M 390.547352 307.584 
L 392.532332 307.584 
L 392.532332 201.024 
L 390.547352 201.024 
z
" clip-path="url(#p1fd3fa0d8b)" style="fill: #1f77b4"/>
   </g>
   <g id="patch_16">
    <path d="M 392.532332 307.584 
L 394.517312 307.584 
L 394.517312 278.784 
L 392.532332 278.784 
z
" clip-path="url(#p1fd3fa0d8b)" style="fill: #1f77b4"/>
   </g>
   <g id="patch_17">
    <path d="M 394.517312 307.584 
L 396.502292 307.584 
L 396.502292 290.304 
L 394.517312 290.304 
z
" clip-path="url(#p1fd3fa0d8b)" style="fill: #1f77b4"/>
   </g>
   <g id="patch_18">
    <path d="M 396.502292 307.584 
L 398.487273 307.584 
L 398.487273 284.544 
L 396.502292 284.544 
z
" clip-path="url(#p1fd3fa0d8b)" style="fill: #1f77b4"/>
   </g>
   <g id="matplotlib.axis_1">
    <g id="xtick_1">
     <g id="line2d_1">
      <defs>
       <path id="mda29f42774" d="M 0 0 
L 0 3.5 
" style="stroke: #000000; stroke-width: 0.8"/>
      </defs>
      <g>
       <use xlink:href="#mda29f42774" x="73.832727" y="307.584" style="stroke: #000000; stroke-width: 0.8"/>
      </g>
     </g>
     <g id="text_1">
      <!-- 0 -->
      <g transform="translate(70.651477 322.182437) scale(0.1 -0.1)">
       <defs>
        <path id="DejaVuSans-30" d="M 2034 4250 
Q 1547 4250 1301 3770 
Q 1056 3291 1056 2328 
Q 1056 1369 1301 889 
Q 1547 409 2034 409 
Q 2525 409 2770 889 
Q 3016 1369 3016 2328 
Q 3016 3291 2770 3770 
Q 2525 4250 2034 4250 
z
M 2034 4750 
Q 2819 4750 3233 4129 
Q 3647 3509 3647 2328 
Q 3647 1150 3233 529 
Q 2819 -91 2034 -91 
Q 1250 -91 836 529 
Q 422 1150 422 2328 
Q 422 3509 836 4129 
Q 1250 4750 2034 4750 
z
" transform="scale(0.015625)"/>
       </defs>
       <use xlink:href="#DejaVuSans-30"/>
      </g>
     </g>
    </g>
    <g id="xtick_2">
     <g id="line2d_2">
      <g>
       <use xlink:href="#mda29f42774" x="117.943399" y="307.584" style="stroke: #000000; stroke-width: 0.8"/>
      </g>
     </g>
     <g id="text_2">
      <!-- 50 -->
      <g transform="translate(111.580899 322.182437) scale(0.1 -0.1)">
       <defs>
        <path id="DejaVuSans-35" d="M 691 4666 
L 3169 4666 
L 3169 4134 
L 1269 4134 
L 1269 2991 
Q 1406 3038 1543 3061 
Q 1681 3084 1819 3084 
Q 2600 3084 3056 2656 
Q 3513 2228 3513 1497 
Q 3513 744 3044 326 
Q 2575 -91 1722 -91 
Q 1428 -91 1123 -41 
Q 819 9 494 109 
L 494 744 
Q 775 591 1075 516 
Q 1375 441 1709 441 
Q 2250 441 2565 725 
Q 2881 1009 2881 1497 
Q 2881 1984 2565 2268 
Q 2250 2553 1709 2553 
Q 1456 2553 1204 2497 
Q 953 2441 691 2322 
L 691 4666 
z
" transform="scale(0.015625)"/>
       </defs>
       <use xlink:href="#DejaVuSans-35"/>
       <use xlink:href="#DejaVuSans-30" x="63.623047"/>
      </g>
     </g>
    </g>
    <g id="xtick_3">
     <g id="line2d_3">
      <g>
       <use xlink:href="#mda29f42774" x="162.054071" y="307.584" style="stroke: #000000; stroke-width: 0.8"/>
      </g>
     </g>
     <g id="text_3">
      <!-- 100 -->
      <g transform="translate(152.510321 322.182437) scale(0.1 -0.1)">
       <defs>
        <path id="DejaVuSans-31" d="M 794 531 
L 1825 531 
L 1825 4091 
L 703 3866 
L 703 4441 
L 1819 4666 
L 2450 4666 
L 2450 531 
L 3481 531 
L 3481 0 
L 794 0 
L 794 531 
z
" transform="scale(0.015625)"/>
       </defs>
       <use xlink:href="#DejaVuSans-31"/>
       <use xlink:href="#DejaVuSans-30" x="63.623047"/>
       <use xlink:href="#DejaVuSans-30" x="127.246094"/>
      </g>
     </g>
    </g>
    <g id="xtick_4">
     <g id="line2d_4">
      <g>
       <use xlink:href="#mda29f42774" x="206.164743" y="307.584" style="stroke: #000000; stroke-width: 0.8"/>
      </g>
     </g>
     <g id="text_4">
      <!-- 150 -->
      <g transform="translate(196.620993 322.182437) scale(0.1 -0.1)">
       <use xlink:href="#DejaVuSans-31"/>
       <use xlink:href="#DejaVuSans-35" x="63.623047"/>
       <use xlink:href="#DejaVuSans-30" x="127.246094"/>
      </g>
     </g>
    </g>
    <g id="xtick_5">
     <g id="line2d_5">
      <g>
       <use xlink:href="#mda29f42774" x="250.275415" y="307.584" style="stroke: #000000; stroke-width: 0.8"/>
      </g>
     </g>
     <g id="text_5">
      <!-- 200 -->
      <g transform="translate(240.731665 322.182437) scale(0.1 -0.1)">
       <defs>
        <path id="DejaVuSans-32" d="M 1228 531 
L 3431 531 
L 3431 0 
L 469 0 
L 469 531 
Q 828 903 1448 1529 
Q 2069 2156 2228 2338 
Q 2531 2678 2651 2914 
Q 2772 3150 2772 3378 
Q 2772 3750 2511 3984 
Q 2250 4219 1831 4219 
Q 1534 4219 1204 4116 
Q 875 4013 500 3803 
L 500 4441 
Q 881 4594 1212 4672 
Q 1544 4750 1819 4750 
Q 2544 4750 2975 4387 
Q 3406 4025 3406 3419 
Q 3406 3131 3298 2873 
Q 3191 2616 2906 2266 
Q 2828 2175 2409 1742 
Q 1991 1309 1228 531 
z
" transform="scale(0.015625)"/>
       </defs>
       <use xlink:href="#DejaVuSans-32"/>
       <use xlink:href="#DejaVuSans-30" x="63.623047"/>
       <use xlink:href="#DejaVuSans-30" x="127.246094"/>
      </g>
     </g>
    </g>
    <g id="xtick_6">
     <g id="line2d_6">
      <g>
       <use xlink:href="#mda29f42774" x="294.386087" y="307.584" style="stroke: #000000; stroke-width: 0.8"/>
      </g>
     </g>
     <g id="text_6">
      <!-- 250 -->
      <g transform="translate(284.842337 322.182437) scale(0.1 -0.1)">
       <use xlink:href="#DejaVuSans-32"/>
       <use xlink:href="#DejaVuSans-35" x="63.623047"/>
       <use xlink:href="#DejaVuSans-30" x="127.246094"/>
      </g>
     </g>
    </g>
    <g id="xtick_7">
     <g id="line2d_7">
      <g>
       <use xlink:href="#mda29f42774" x="338.496759" y="307.584" style="stroke: #000000; stroke-width: 0.8"/>
      </g>
     </g>
     <g id="text_7">
      <!-- 300 -->
      <g transform="translate(328.953009 322.182437) scale(0.1 -0.1)">
       <defs>
        <path id="DejaVuSans-33" d="M 2597 2516 
Q 3050 2419 3304 2112 
Q 3559 1806 3559 1356 
Q 3559 666 3084 287 
Q 2609 -91 1734 -91 
Q 1441 -91 1130 -33 
Q 819 25 488 141 
L 488 750 
Q 750 597 1062 519 
Q 1375 441 1716 441 
Q 2309 441 2620 675 
Q 2931 909 2931 1356 
Q 2931 1769 2642 2001 
Q 2353 2234 1838 2234 
L 1294 2234 
L 1294 2753 
L 1863 2753 
Q 2328 2753 2575 2939 
Q 2822 3125 2822 3475 
Q 2822 3834 2567 4026 
Q 2313 4219 1838 4219 
Q 1578 4219 1281 4162 
Q 984 4106 628 3988 
L 628 4550 
Q 988 4650 1302 4700 
Q 1616 4750 1894 4750 
Q 2613 4750 3031 4423 
Q 3450 4097 3450 3541 
Q 3450 3153 3228 2886 
Q 3006 2619 2597 2516 
z
" transform="scale(0.015625)"/>
       </defs>
       <use xlink:href="#DejaVuSans-33"/>
       <use xlink:href="#DejaVuSans-30" x="63.623047"/>
       <use xlink:href="#DejaVuSans-30" x="127.246094"/>
      </g>
     </g>
    </g>
    <g id="xtick_8">
     <g id="line2d_8">
      <g>
       <use xlink:href="#mda29f42774" x="382.607431" y="307.584" style="stroke: #000000; stroke-width: 0.8"/>
      </g>
     </g>
     <g id="text_8">
      <!-- 350 -->
      <g transform="translate(373.063681 322.182437) scale(0.1 -0.1)">
       <use xlink:href="#DejaVuSans-33"/>
       <use xlink:href="#DejaVuSans-35" x="63.623047"/>
       <use xlink:href="#DejaVuSans-30" x="127.246094"/>
      </g>
     </g>
    </g>
   </g>
   <g id="matplotlib.axis_2">
    <g id="ytick_1">
     <g id="line2d_9">
      <defs>
       <path id="m8ca608d453" d="M 0 0 
L -3.5 0 
" style="stroke: #000000; stroke-width: 0.8"/>
      </defs>
      <g>
       <use xlink:href="#m8ca608d453" x="57.6" y="307.584" style="stroke: #000000; stroke-width: 0.8"/>
      </g>
     </g>
     <g id="text_9">
      <!-- 0.00 -->
      <g transform="translate(28.334375 311.383219) scale(0.1 -0.1)">
       <defs>
        <path id="DejaVuSans-2e" d="M 684 794 
L 1344 794 
L 1344 0 
L 684 0 
L 684 794 
z
" transform="scale(0.015625)"/>
       </defs>
       <use xlink:href="#DejaVuSans-30"/>
       <use xlink:href="#DejaVuSans-2e" x="63.623047"/>
       <use xlink:href="#DejaVuSans-30" x="95.410156"/>
       <use xlink:href="#DejaVuSans-30" x="159.033203"/>
      </g>
     </g>
    </g>
    <g id="ytick_2">
     <g id="line2d_10">
      <g>
       <use xlink:href="#m8ca608d453" x="57.6" y="275.184" style="stroke: #000000; stroke-width: 0.8"/>
      </g>
     </g>
     <g id="text_10">
      <!-- 0.01 -->
      <g transform="translate(28.334375 278.983219) scale(0.1 -0.1)">
       <use xlink:href="#DejaVuSans-30"/>
       <use xlink:href="#DejaVuSans-2e" x="63.623047"/>
       <use xlink:href="#DejaVuSans-30" x="95.410156"/>
       <use xlink:href="#DejaVuSans-31" x="159.033203"/>
      </g>
     </g>
    </g>
    <g id="ytick_3">
     <g id="line2d_11">
      <g>
       <use xlink:href="#m8ca608d453" x="57.6" y="242.784" style="stroke: #000000; stroke-width: 0.8"/>
      </g>
     </g>
     <g id="text_11">
      <!-- 0.02 -->
      <g transform="translate(28.334375 246.583219) scale(0.1 -0.1)">
       <use xlink:href="#DejaVuSans-30"/>
       <use xlink:href="#DejaVuSans-2e" x="63.623047"/>
       <use xlink:href="#DejaVuSans-30" x="95.410156"/>
       <use xlink:href="#DejaVuSans-32" x="159.033203"/>
      </g>
     </g>
    </g>
    <g id="ytick_4">
     <g id="line2d_12">
      <g>
       <use xlink:href="#m8ca608d453" x="57.6" y="210.384" style="stroke: #000000; stroke-width: 0.8"/>
      </g>
     </g>
     <g id="text_12">
      <!-- 0.03 -->
      <g transform="translate(28.334375 214.183219) scale(0.1 -0.1)">
       <use xlink:href="#DejaVuSans-30"/>
       <use xlink:href="#DejaVuSans-2e" x="63.623047"/>
       <use xlink:href="#DejaVuSans-30" x="95.410156"/>
       <use xlink:href="#DejaVuSans-33" x="159.033203"/>
      </g>
     </g>
    </g>
    <g id="ytick_5">
     <g id="line2d_13">
      <g>
       <use xlink:href="#m8ca608d453" x="57.6" y="177.984" style="stroke: #000000; stroke-width: 0.8"/>
      </g>
     </g>
     <g id="text_13">
      <!-- 0.04 -->
      <g transform="translate(28.334375 181.783219) scale(0.1 -0.1)">
       <defs>
        <path id="DejaVuSans-34" d="M 2419 4116 
L 825 1625 
L 2419 1625 
L 2419 4116 
z
M 2253 4666 
L 3047 4666 
L 3047 1625 
L 3713 1625 
L 3713 1100 
L 3047 1100 
L 3047 0 
L 2419 0 
L 2419 1100 
L 313 1100 
L 313 1709 
L 2253 4666 
z
" transform="scale(0.015625)"/>
       </defs>
       <use xlink:href="#DejaVuSans-30"/>
       <use xlink:href="#DejaVuSans-2e" x="63.623047"/>
       <use xlink:href="#DejaVuSans-30" x="95.410156"/>
       <use xlink:href="#DejaVuSans-34" x="159.033203"/>
      </g>
     </g>
    </g>
    <g id="ytick_6">
     <g id="line2d_14">
      <g>
       <use xlink:href="#m8ca608d453" x="57.6" y="145.584" style="stroke: #000000; stroke-width: 0.8"/>
      </g>
     </g>
     <g id="text_14">
      <!-- 0.05 -->
      <g transform="translate(28.334375 149.383219) scale(0.1 -0.1)">
       <use xlink:href="#DejaVuSans-30"/>
       <use xlink:href="#DejaVuSans-2e" x="63.623047"/>
       <use xlink:href="#DejaVuSans-30" x="95.410156"/>
       <use xlink:href="#DejaVuSans-35" x="159.033203"/>
      </g>
     </g>
    </g>
    <g id="ytick_7">
     <g id="line2d_15">
      <g>
       <use xlink:href="#m8ca608d453" x="57.6" y="113.184" style="stroke: #000000; stroke-width: 0.8"/>
      </g>
     </g>
     <g id="text_15">
      <!-- 0.06 -->
      <g transform="translate(28.334375 116.983219) scale(0.1 -0.1)">
       <defs>
        <path id="DejaVuSans-36" d="M 2113 2584 
Q 1688 2584 1439 2293 
Q 1191 2003 1191 1497 
Q 1191 994 1439 701 
Q 1688 409 2113 409 
Q 2538 409 2786 701 
Q 3034 994 3034 1497 
Q 3034 2003 2786 2293 
Q 2538 2584 2113 2584 
z
M 3366 4563 
L 3366 3988 
Q 3128 4100 2886 4159 
Q 2644 4219 2406 4219 
Q 1781 4219 1451 3797 
Q 1122 3375 1075 2522 
Q 1259 2794 1537 2939 
Q 1816 3084 2150 3084 
Q 2853 3084 3261 2657 
Q 3669 2231 3669 1497 
Q 3669 778 3244 343 
Q 2819 -91 2113 -91 
Q 1303 -91 875 529 
Q 447 1150 447 2328 
Q 447 3434 972 4092 
Q 1497 4750 2381 4750 
Q 2619 4750 2861 4703 
Q 3103 4656 3366 4563 
z
" transform="scale(0.015625)"/>
       </defs>
       <use xlink:href="#DejaVuSans-30"/>
       <use xlink:href="#DejaVuSans-2e" x="63.623047"/>
       <use xlink:href="#DejaVuSans-30" x="95.410156"/>
       <use xlink:href="#DejaVuSans-36" x="159.033203"/>
      </g>
     </g>
    </g>
    <g id="ytick_8">
     <g id="line2d_16">
      <g>
       <use xlink:href="#m8ca608d453" x="57.6" y="80.784" style="stroke: #000000; stroke-width: 0.8"/>
      </g>
     </g>
     <g id="text_16">
      <!-- 0.07 -->
      <g transform="translate(28.334375 84.583219) scale(0.1 -0.1)">
       <defs>
        <path id="DejaVuSans-37" d="M 525 4666 
L 3525 4666 
L 3525 4397 
L 1831 0 
L 1172 0 
L 2766 4134 
L 525 4134 
L 525 4666 
z
" transform="scale(0.015625)"/>
       </defs>
       <use xlink:href="#DejaVuSans-30"/>
       <use xlink:href="#DejaVuSans-2e" x="63.623047"/>
       <use xlink:href="#DejaVuSans-30" x="95.410156"/>
       <use xlink:href="#DejaVuSans-37" x="159.033203"/>
      </g>
     </g>
    </g>
    <g id="ytick_9">
     <g id="line2d_17">
      <g>
       <use xlink:href="#m8ca608d453" x="57.6" y="48.384" style="stroke: #000000; stroke-width: 0.8"/>
      </g>
     </g>
     <g id="text_17">
      <!-- 0.08 -->
      <g transform="translate(28.334375 52.183219) scale(0.1 -0.1)">
       <defs>
        <path id="DejaVuSans-38" d="M 2034 2216 
Q 1584 2216 1326 1975 
Q 1069 1734 1069 1313 
Q 1069 891 1326 650 
Q 1584 409 2034 409 
Q 2484 409 2743 651 
Q 3003 894 3003 1313 
Q 3003 1734 2745 1975 
Q 2488 2216 2034 2216 
z
M 1403 2484 
Q 997 2584 770 2862 
Q 544 3141 544 3541 
Q 544 4100 942 4425 
Q 1341 4750 2034 4750 
Q 2731 4750 3128 4425 
Q 3525 4100 3525 3541 
Q 3525 3141 3298 2862 
Q 3072 2584 2669 2484 
Q 3125 2378 3379 2068 
Q 3634 1759 3634 1313 
Q 3634 634 3220 271 
Q 2806 -91 2034 -91 
Q 1263 -91 848 271 
Q 434 634 434 1313 
Q 434 1759 690 2068 
Q 947 2378 1403 2484 
z
M 1172 3481 
Q 1172 3119 1398 2916 
Q 1625 2713 2034 2713 
Q 2441 2713 2670 2916 
Q 2900 3119 2900 3481 
Q 2900 3844 2670 4047 
Q 2441 4250 2034 4250 
Q 1625 4250 1398 4047 
Q 1172 3844 1172 3481 
z
" transform="scale(0.015625)"/>
       </defs>
       <use xlink:href="#DejaVuSans-30"/>
       <use xlink:href="#DejaVuSans-2e" x="63.623047"/>
       <use xlink:href="#DejaVuSans-30" x="95.410156"/>
       <use xlink:href="#DejaVuSans-38" x="159.033203"/>
      </g>
     </g>
    </g>
   </g>
   <g id="line2d_18">
    <path d="M 73.832727 307.584 
L 74.714941 241.817119 
L 75.597154 307.584 
L 80.008221 307.584 
L 80.890435 257.869562 
L 81.772648 294.976356 
L 82.654862 305.709865 
L 83.537075 307.370776 
L 84.419289 307.563444 
L 86.183715 307.58386 
L 87.065929 270.003898 
L 87.948142 288.523283 
L 88.830356 302.3337 
L 89.712569 306.543089 
L 90.594783 307.417765 
L 91.476996 307.561293 
L 92.359209 307.581247 
L 93.241423 279.176189 
L 94.123636 285.971431 
L 95.00585 298.890311 
L 95.888063 305.125656 
L 96.770277 307.035636 
L 97.65249 307.481315 
L 98.534704 307.567221 
L 99.416917 286.107768 
L 100.29913 285.800566 
L 101.181344 296.059551 
L 102.063557 303.351104 
L 102.945771 306.371522 
L 103.827984 307.295496 
L 104.710198 307.524676 
L 105.592411 291.340733 
L 106.474625 286.999379 
L 108.239051 301.484621 
L 109.121265 305.450264 
L 110.003478 306.968107 
L 110.885692 307.43134 
L 111.767905 295.280197 
L 112.650119 288.906679 
L 113.532332 292.970087 
L 114.414545 299.74618 
L 115.296759 304.345295 
L 116.178972 306.484943 
L 117.061186 307.265147 
L 117.943399 298.227271 
L 118.825613 291.099583 
L 119.707826 292.605207 
L 120.59004 298.285525 
L 121.472253 303.152422 
L 122.354466 305.855435 
L 123.23668 307.009482 
L 125.001107 293.315505 
L 125.88332 292.83303 
L 127.647747 301.968324 
L 128.52996 305.108859 
L 129.412174 306.656765 
L 130.294387 301.980332 
L 131.176601 295.398344 
L 132.058814 293.491046 
L 132.941028 296.464094 
L 133.823241 300.876313 
L 134.705455 304.287597 
L 135.587668 306.209838 
L 136.469881 303.077909 
L 137.352095 297.26188 
L 138.234308 294.431212 
L 139.116522 296.110816 
L 140.880949 303.439776 
L 141.763162 305.681375 
L 142.645375 303.794765 
L 143.527589 298.865212 
L 144.409802 295.528685 
L 145.292016 296.080496 
L 147.938656 305.091859 
L 148.82087 304.208063 
L 150.585296 296.684072 
L 151.46751 296.315788 
L 152.349723 298.664895 
L 153.231937 301.848399 
L 154.11415 304.466809 
L 154.996364 304.381519 
L 156.760791 297.822252 
L 157.643004 296.75421 
L 158.525217 298.346043 
L 160.289644 303.833819 
L 161.171858 304.369418 
L 162.054071 302.080914 
L 162.936285 298.88962 
L 163.818498 297.334532 
L 164.700711 298.224988 
L 166.465138 303.219857 
L 167.347352 304.219006 
L 168.229565 302.677039 
L 169.111779 299.850761 
L 169.993992 298.000894 
L 170.876206 298.277778 
L 171.758419 300.210811 
L 172.640632 302.649084 
L 173.522846 303.971752 
L 174.405059 303.079528 
L 175.287273 300.685135 
L 176.169486 298.705156 
L 177.0517 298.474683 
L 177.933913 299.926651 
L 178.816126 302.141325 
L 179.69834 303.663902 
L 180.580553 303.318792 
L 182.34498 299.40795 
L 183.227194 298.783524 
L 184.109407 299.772488 
L 184.991621 301.711192 
L 185.873834 303.326638 
L 186.756047 303.425332 
L 187.638261 301.947629 
L 188.520474 300.078832 
L 189.402688 299.17229 
L 190.284901 299.737518 
L 192.049328 302.986084 
L 192.931542 303.428573 
L 193.813755 302.383077 
L 194.695968 300.69582 
L 195.578182 299.611065 
L 196.460395 299.806579 
L 197.342609 301.114945 
L 198.224822 302.663312 
L 199.107036 303.35598 
L 199.989249 302.702045 
L 200.871462 301.24457 
L 201.753676 300.073325 
L 202.635889 299.961882 
L 203.518103 300.951688 
L 204.400316 302.374445 
L 205.28253 303.232402 
L 206.164743 302.91926 
L 207.92917 300.536699 
L 208.811383 300.184535 
L 209.693597 300.8731 
L 210.57581 302.130893 
L 211.458024 303.079623 
L 212.340237 303.051068 
L 213.222451 302.111846 
L 214.104664 300.983298 
L 214.986877 300.455802 
L 215.869091 300.871179 
L 217.633518 302.916085 
L 218.515731 303.114304 
L 219.397945 302.430171 
L 220.280158 301.399702 
L 221.162372 300.758087 
L 222.044585 300.935771 
L 223.809012 302.75679 
L 224.691225 303.125398 
L 225.573439 302.677648 
L 226.455652 301.776705 
L 227.337866 301.075636 
L 228.220079 301.055459 
L 229.102292 301.724113 
L 229.984506 302.613347 
L 230.866719 303.0997 
L 231.748933 302.861899 
L 233.51336 301.394984 
L 234.395573 301.218352 
L 235.277787 301.696906 
L 236.16 302.494136 
L 237.042213 303.050993 
L 237.924427 302.99195 
L 239.688854 301.705186 
L 240.571067 301.412758 
L 241.453281 301.717801 
L 243.217708 302.991183 
L 244.099921 303.077496 
L 244.982134 302.632848 
L 245.864348 301.99786 
L 246.746561 301.62771 
L 247.628775 301.780667 
L 249.393202 302.930137 
L 250.275415 303.128282 
L 251.157628 302.827739 
L 252.039842 302.267083 
L 252.922055 301.853363 
L 253.804269 301.878535 
L 256.450909 303.153624 
L 257.333123 302.982898 
L 259.097549 302.081246 
L 259.979763 302.004091 
L 260.861976 302.33168 
L 261.74419 302.833474 
L 262.626403 303.162047 
L 263.508617 303.103451 
L 265.273043 302.304406 
L 266.155257 302.150095 
L 267.03747 302.36916 
L 268.801897 303.161045 
L 269.684111 303.195064 
L 272.330751 302.309714 
L 273.212964 302.43257 
L 274.977391 303.156932 
L 275.859605 303.263558 
L 276.741818 303.063841 
L 278.506245 302.476763 
L 279.388458 302.517799 
L 282.035099 303.314595 
L 282.917312 303.195458 
L 284.681739 302.645879 
L 285.563953 302.62045 
L 288.210593 303.353434 
L 289.092806 303.304743 
L 290.857233 302.812606 
L 291.739447 302.736107 
L 292.62166 302.890959 
L 294.386087 303.384766 
L 295.2683 303.39504 
L 297.914941 302.860553 
L 298.797154 302.955004 
L 300.561581 303.412599 
L 301.443794 303.469849 
L 304.972648 303.03236 
L 307.619289 303.532624 
L 309.383715 303.26789 
L 310.265929 303.120866 
L 311.148142 303.120421 
L 313.794783 303.586616 
L 314.676996 303.549907 
L 316.441423 303.250511 
L 317.323636 303.216524 
L 320.85249 303.635505 
L 323.49913 303.318091 
L 325.263557 303.543672 
L 327.027984 303.710621 
L 330.556838 303.46069 
L 333.203478 303.777365 
L 336.732332 303.538779 
L 339.378972 303.837746 
L 341.143399 303.719014 
L 342.907826 303.62165 
L 346.43668 303.891663 
L 349.08332 303.70774 
L 353.494387 303.911284 
L 355.258814 303.795582 
L 360.552095 303.929494 
L 362.316522 303.898083 
L 365.845375 304.075725 
L 368.492016 303.971434 
L 372.02087 304.148935 
L 374.66751 304.046517 
L 379.078577 304.185219 
L 381.725217 304.148312 
L 384.371858 304.281076 
L 388.782925 304.260793 
L 391.429565 304.331909 
L 394.076206 304.279071 
L 398.487273 304.37346 
L 398.487273 304.37346 
" clip-path="url(#p1fd3fa0d8b)" style="fill: none; stroke: #ff7f0e; stroke-width: 1.5; stroke-linecap: square"/>
   </g>
   <g id="patch_19">
    <path d="M 57.6 307.584 
L 57.6 41.472 
" style="fill: none; stroke: #000000; stroke-width: 0.8; stroke-linejoin: miter; stroke-linecap: square"/>
   </g>
   <g id="patch_20">
    <path d="M 414.72 307.584 
L 414.72 41.472 
" style="fill: none; stroke: #000000; stroke-width: 0.8; stroke-linejoin: miter; stroke-linecap: square"/>
   </g>
   <g id="patch_21">
    <path d="M 57.6 307.584 
L 414.72 307.584 
" style="fill: none; stroke: #000000; stroke-width: 0.8; stroke-linejoin: miter; stroke-linecap: square"/>
   </g>
   <g id="patch_22">
    <path d="M 57.6 41.472 
L 414.72 41.472 
" style="fill: none; stroke: #000000; stroke-width: 0.8; stroke-linejoin: miter; stroke-linecap: square"/>
   </g>
   <g id="legend_1">
    <g id="patch_23">
     <path d="M 64.6 64.150125 
L 320.403125 64.150125 
Q 322.403125 64.150125 322.403125 62.150125 
L 322.403125 48.472 
Q 322.403125 46.472 320.403125 46.472 
L 64.6 46.472 
Q 62.6 46.472 62.6 48.472 
L 62.6 62.150125 
Q 62.6 64.150125 64.6 64.150125 
z
" style="fill: #ffffff; opacity: 0.8; stroke: #cccccc; stroke-linejoin: miter"/>
    </g>
    <g id="line2d_19">
     <path d="M 66.6 54.570438 
L 76.6 54.570438 
L 86.6 54.570438 
" style="fill: none; stroke: #ff7f0e; stroke-width: 1.5; stroke-linecap: square"/>
    </g>
    <g id="text_18">
     <!-- states 8 cross entropy: 6.87 sh entropy: 3.31 -->
     <g transform="translate(94.6 58.070438) scale(0.1 -0.1)">
      <defs>
       <path id="DejaVuSans-73" d="M 2834 3397 
L 2834 2853 
Q 2591 2978 2328 3040 
Q 2066 3103 1784 3103 
Q 1356 3103 1142 2972 
Q 928 2841 928 2578 
Q 928 2378 1081 2264 
Q 1234 2150 1697 2047 
L 1894 2003 
Q 2506 1872 2764 1633 
Q 3022 1394 3022 966 
Q 3022 478 2636 193 
Q 2250 -91 1575 -91 
Q 1294 -91 989 -36 
Q 684 19 347 128 
L 347 722 
Q 666 556 975 473 
Q 1284 391 1588 391 
Q 1994 391 2212 530 
Q 2431 669 2431 922 
Q 2431 1156 2273 1281 
Q 2116 1406 1581 1522 
L 1381 1569 
Q 847 1681 609 1914 
Q 372 2147 372 2553 
Q 372 3047 722 3315 
Q 1072 3584 1716 3584 
Q 2034 3584 2315 3537 
Q 2597 3491 2834 3397 
z
" transform="scale(0.015625)"/>
       <path id="DejaVuSans-74" d="M 1172 4494 
L 1172 3500 
L 2356 3500 
L 2356 3053 
L 1172 3053 
L 1172 1153 
Q 1172 725 1289 603 
Q 1406 481 1766 481 
L 2356 481 
L 2356 0 
L 1766 0 
Q 1100 0 847 248 
Q 594 497 594 1153 
L 594 3053 
L 172 3053 
L 172 3500 
L 594 3500 
L 594 4494 
L 1172 4494 
z
" transform="scale(0.015625)"/>
       <path id="DejaVuSans-61" d="M 2194 1759 
Q 1497 1759 1228 1600 
Q 959 1441 959 1056 
Q 959 750 1161 570 
Q 1363 391 1709 391 
Q 2188 391 2477 730 
Q 2766 1069 2766 1631 
L 2766 1759 
L 2194 1759 
z
M 3341 1997 
L 3341 0 
L 2766 0 
L 2766 531 
Q 2569 213 2275 61 
Q 1981 -91 1556 -91 
Q 1019 -91 701 211 
Q 384 513 384 1019 
Q 384 1609 779 1909 
Q 1175 2209 1959 2209 
L 2766 2209 
L 2766 2266 
Q 2766 2663 2505 2880 
Q 2244 3097 1772 3097 
Q 1472 3097 1187 3025 
Q 903 2953 641 2809 
L 641 3341 
Q 956 3463 1253 3523 
Q 1550 3584 1831 3584 
Q 2591 3584 2966 3190 
Q 3341 2797 3341 1997 
z
" transform="scale(0.015625)"/>
       <path id="DejaVuSans-65" d="M 3597 1894 
L 3597 1613 
L 953 1613 
Q 991 1019 1311 708 
Q 1631 397 2203 397 
Q 2534 397 2845 478 
Q 3156 559 3463 722 
L 3463 178 
Q 3153 47 2828 -22 
Q 2503 -91 2169 -91 
Q 1331 -91 842 396 
Q 353 884 353 1716 
Q 353 2575 817 3079 
Q 1281 3584 2069 3584 
Q 2775 3584 3186 3129 
Q 3597 2675 3597 1894 
z
M 3022 2063 
Q 3016 2534 2758 2815 
Q 2500 3097 2075 3097 
Q 1594 3097 1305 2825 
Q 1016 2553 972 2059 
L 3022 2063 
z
" transform="scale(0.015625)"/>
       <path id="DejaVuSans-20" transform="scale(0.015625)"/>
       <path id="DejaVuSans-63" d="M 3122 3366 
L 3122 2828 
Q 2878 2963 2633 3030 
Q 2388 3097 2138 3097 
Q 1578 3097 1268 2742 
Q 959 2388 959 1747 
Q 959 1106 1268 751 
Q 1578 397 2138 397 
Q 2388 397 2633 464 
Q 2878 531 3122 666 
L 3122 134 
Q 2881 22 2623 -34 
Q 2366 -91 2075 -91 
Q 1284 -91 818 406 
Q 353 903 353 1747 
Q 353 2603 823 3093 
Q 1294 3584 2113 3584 
Q 2378 3584 2631 3529 
Q 2884 3475 3122 3366 
z
" transform="scale(0.015625)"/>
       <path id="DejaVuSans-72" d="M 2631 2963 
Q 2534 3019 2420 3045 
Q 2306 3072 2169 3072 
Q 1681 3072 1420 2755 
Q 1159 2438 1159 1844 
L 1159 0 
L 581 0 
L 581 3500 
L 1159 3500 
L 1159 2956 
Q 1341 3275 1631 3429 
Q 1922 3584 2338 3584 
Q 2397 3584 2469 3576 
Q 2541 3569 2628 3553 
L 2631 2963 
z
" transform="scale(0.015625)"/>
       <path id="DejaVuSans-6f" d="M 1959 3097 
Q 1497 3097 1228 2736 
Q 959 2375 959 1747 
Q 959 1119 1226 758 
Q 1494 397 1959 397 
Q 2419 397 2687 759 
Q 2956 1122 2956 1747 
Q 2956 2369 2687 2733 
Q 2419 3097 1959 3097 
z
M 1959 3584 
Q 2709 3584 3137 3096 
Q 3566 2609 3566 1747 
Q 3566 888 3137 398 
Q 2709 -91 1959 -91 
Q 1206 -91 779 398 
Q 353 888 353 1747 
Q 353 2609 779 3096 
Q 1206 3584 1959 3584 
z
" transform="scale(0.015625)"/>
       <path id="DejaVuSans-6e" d="M 3513 2113 
L 3513 0 
L 2938 0 
L 2938 2094 
Q 2938 2591 2744 2837 
Q 2550 3084 2163 3084 
Q 1697 3084 1428 2787 
Q 1159 2491 1159 1978 
L 1159 0 
L 581 0 
L 581 3500 
L 1159 3500 
L 1159 2956 
Q 1366 3272 1645 3428 
Q 1925 3584 2291 3584 
Q 2894 3584 3203 3211 
Q 3513 2838 3513 2113 
z
" transform="scale(0.015625)"/>
       <path id="DejaVuSans-70" d="M 1159 525 
L 1159 -1331 
L 581 -1331 
L 581 3500 
L 1159 3500 
L 1159 2969 
Q 1341 3281 1617 3432 
Q 1894 3584 2278 3584 
Q 2916 3584 3314 3078 
Q 3713 2572 3713 1747 
Q 3713 922 3314 415 
Q 2916 -91 2278 -91 
Q 1894 -91 1617 61 
Q 1341 213 1159 525 
z
M 3116 1747 
Q 3116 2381 2855 2742 
Q 2594 3103 2138 3103 
Q 1681 3103 1420 2742 
Q 1159 2381 1159 1747 
Q 1159 1113 1420 752 
Q 1681 391 2138 391 
Q 2594 391 2855 752 
Q 3116 1113 3116 1747 
z
" transform="scale(0.015625)"/>
       <path id="DejaVuSans-79" d="M 2059 -325 
Q 1816 -950 1584 -1140 
Q 1353 -1331 966 -1331 
L 506 -1331 
L 506 -850 
L 844 -850 
Q 1081 -850 1212 -737 
Q 1344 -625 1503 -206 
L 1606 56 
L 191 3500 
L 800 3500 
L 1894 763 
L 2988 3500 
L 3597 3500 
L 2059 -325 
z
" transform="scale(0.015625)"/>
       <path id="DejaVuSans-3a" d="M 750 794 
L 1409 794 
L 1409 0 
L 750 0 
L 750 794 
z
M 750 3309 
L 1409 3309 
L 1409 2516 
L 750 2516 
L 750 3309 
z
" transform="scale(0.015625)"/>
       <path id="DejaVuSans-68" d="M 3513 2113 
L 3513 0 
L 2938 0 
L 2938 2094 
Q 2938 2591 2744 2837 
Q 2550 3084 2163 3084 
Q 1697 3084 1428 2787 
Q 1159 2491 1159 1978 
L 1159 0 
L 581 0 
L 581 4863 
L 1159 4863 
L 1159 2956 
Q 1366 3272 1645 3428 
Q 1925 3584 2291 3584 
Q 2894 3584 3203 3211 
Q 3513 2838 3513 2113 
z
" transform="scale(0.015625)"/>
      </defs>
      <use xlink:href="#DejaVuSans-73"/>
      <use xlink:href="#DejaVuSans-74" x="52.099609"/>
      <use xlink:href="#DejaVuSans-61" x="91.308594"/>
      <use xlink:href="#DejaVuSans-74" x="152.587891"/>
      <use xlink:href="#DejaVuSans-65" x="191.796875"/>
      <use xlink:href="#DejaVuSans-73" x="253.320312"/>
      <use xlink:href="#DejaVuSans-20" x="305.419922"/>
      <use xlink:href="#DejaVuSans-38" x="337.207031"/>
      <use xlink:href="#DejaVuSans-20" x="400.830078"/>
      <use xlink:href="#DejaVuSans-63" x="432.617188"/>
      <use xlink:href="#DejaVuSans-72" x="487.597656"/>
      <use xlink:href="#DejaVuSans-6f" x="526.460938"/>
      <use xlink:href="#DejaVuSans-73" x="587.642578"/>
      <use xlink:href="#DejaVuSans-73" x="639.742188"/>
      <use xlink:href="#DejaVuSans-20" x="691.841797"/>
      <use xlink:href="#DejaVuSans-65" x="723.628906"/>
      <use xlink:href="#DejaVuSans-6e" x="785.152344"/>
      <use xlink:href="#DejaVuSans-74" x="848.53125"/>
      <use xlink:href="#DejaVuSans-72" x="887.740234"/>
      <use xlink:href="#DejaVuSans-6f" x="926.603516"/>
      <use xlink:href="#DejaVuSans-70" x="987.785156"/>
      <use xlink:href="#DejaVuSans-79" x="1051.261719"/>
      <use xlink:href="#DejaVuSans-3a" x="1103.191406"/>
      <use xlink:href="#DejaVuSans-20" x="1136.882812"/>
      <use xlink:href="#DejaVuSans-36" x="1168.669922"/>
      <use xlink:href="#DejaVuSans-2e" x="1232.292969"/>
      <use xlink:href="#DejaVuSans-38" x="1264.080078"/>
      <use xlink:href="#DejaVuSans-37" x="1327.703125"/>
      <use xlink:href="#DejaVuSans-20" x="1391.326172"/>
      <use xlink:href="#DejaVuSans-73" x="1423.113281"/>
      <use xlink:href="#DejaVuSans-68" x="1475.212891"/>
      <use xlink:href="#DejaVuSans-20" x="1538.591797"/>
      <use xlink:href="#DejaVuSans-65" x="1570.378906"/>
      <use xlink:href="#DejaVuSans-6e" x="1631.902344"/>
      <use xlink:href="#DejaVuSans-74" x="1695.28125"/>
      <use xlink:href="#DejaVuSans-72" x="1734.490234"/>
      <use xlink:href="#DejaVuSans-6f" x="1773.353516"/>
      <use xlink:href="#DejaVuSans-70" x="1834.535156"/>
      <use xlink:href="#DejaVuSans-79" x="1898.011719"/>
      <use xlink:href="#DejaVuSans-3a" x="1949.941406"/>
      <use xlink:href="#DejaVuSans-20" x="1983.632812"/>
      <use xlink:href="#DejaVuSans-33" x="2015.419922"/>
      <use xlink:href="#DejaVuSans-2e" x="2079.042969"/>
      <use xlink:href="#DejaVuSans-33" x="2110.830078"/>
      <use xlink:href="#DejaVuSans-31" x="2174.453125"/>
     </g>
    </g>
   </g>
  </g>
 </g>
 <defs>
  <clipPath id="p1fd3fa0d8b">
   <rect x="57.6" y="41.472" width="357.12" height="266.112"/>
  </clipPath>
 </defs>
</svg>
