<?xml version="1.0" encoding="utf-8" standalone="no"?>
<!DOCTYPE svg PUBLIC "-//W3C//DTD SVG 1.1//EN"
  "http://www.w3.org/Graphics/SVG/1.1/DTD/svg11.dtd">
<svg xmlns:xlink="http://www.w3.org/1999/xlink" width="460.8pt" height="345.6pt" viewBox="0 0 460.8 345.6" xmlns="http://www.w3.org/2000/svg" version="1.1">
 <metadata>
  <rdf:RDF xmlns:dc="http://purl.org/dc/elements/1.1/" xmlns:cc="http://creativecommons.org/ns#" xmlns:rdf="http://www.w3.org/1999/02/22-rdf-syntax-ns#">
   <cc:Work>
    <dc:type rdf:resource="http://purl.org/dc/dcmitype/StillImage"/>
    <dc:date>2024-05-07T11:55:35.729508</dc:date>
    <dc:format>image/svg+xml</dc:format>
    <dc:creator>
     <cc:Agent>
      <dc:title>Matplotlib v3.8.4, https://matplotlib.org/</dc:title>
     </cc:Agent>
    </dc:creator>
   </cc:Work>
  </rdf:RDF>
 </metadata>
 <defs>
  <style type="text/css">*{stroke-linejoin: round; stroke-linecap: butt}</style>
 </defs>
 <g id="figure_1">
  <g id="patch_1">
   <path d="M 0 345.6 
L 460.8 345.6 
L 460.8 0 
L 0 0 
z
" style="fill: #ffffff"/>
  </g>
  <g id="axes_1">
   <g id="patch_2">
    <path d="M 57.6 307.584 
L 414.72 307.584 
L 414.72 41.472 
L 57.6 41.472 
z
" style="fill: #ffffff"/>
   </g>
   <g id="patch_3">
    <path d="M 366.727589 307.584 
L 368.712569 307.584 
L 368.712569 298.944 
L 366.727589 298.944 
z
" clip-path="url(#p5947cfa049)" style="fill: #1f77b4"/>
   </g>
   <g id="patch_4">
    <path d="M 368.712569 307.584 
L 370.697549 307.584 
L 370.697549 284.544 
L 368.712569 284.544 
z
" clip-path="url(#p5947cfa049)" style="fill: #1f77b4"/>
   </g>
   <g id="patch_5">
    <path d="M 370.697549 307.584 
L 372.68253 307.584 
L 372.68253 255.744 
L 370.697549 255.744 
z
" clip-path="url(#p5947cfa049)" style="fill: #1f77b4"/>
   </g>
   <g id="patch_6">
    <path d="M 372.68253 307.584 
L 374.66751 307.584 
L 374.66751 255.744 
L 372.68253 255.744 
z
" clip-path="url(#p5947cfa049)" style="fill: #1f77b4"/>
   </g>
   <g id="patch_7">
    <path d="M 374.66751 307.584 
L 376.65249 307.584 
L 376.65249 212.544 
L 374.66751 212.544 
z
" clip-path="url(#p5947cfa049)" style="fill: #1f77b4"/>
   </g>
   <g id="patch_8">
    <path d="M 376.65249 307.584 
L 378.63747 307.584 
L 378.63747 206.784 
L 376.65249 206.784 
z
" clip-path="url(#p5947cfa049)" style="fill: #1f77b4"/>
   </g>
   <g id="patch_9">
    <path d="M 378.63747 307.584 
L 380.622451 307.584 
L 380.622451 183.744 
L 378.63747 183.744 
z
" clip-path="url(#p5947cfa049)" style="fill: #1f77b4"/>
   </g>
   <g id="patch_10">
    <path d="M 380.622451 307.584 
L 382.607431 307.584 
L 382.607431 105.984 
L 380.622451 105.984 
z
" clip-path="url(#p5947cfa049)" style="fill: #1f77b4"/>
   </g>
   <g id="patch_11">
    <path d="M 382.607431 307.584 
L 384.592411 307.584 
L 384.592411 54.144 
L 382.607431 54.144 
z
" clip-path="url(#p5947cfa049)" style="fill: #1f77b4"/>
   </g>
   <g id="patch_12">
    <path d="M 384.592411 307.584 
L 386.577391 307.584 
L 386.577391 186.624 
L 384.592411 186.624 
z
" clip-path="url(#p5947cfa049)" style="fill: #1f77b4"/>
   </g>
   <g id="patch_13">
    <path d="M 386.577391 307.584 
L 388.562372 307.584 
L 388.562372 166.464 
L 386.577391 166.464 
z
" clip-path="url(#p5947cfa049)" style="fill: #1f77b4"/>
   </g>
   <g id="patch_14">
    <path d="M 388.562372 307.584 
L 390.547352 307.584 
L 390.547352 215.424 
L 388.562372 215.424 
z
" clip-path="url(#p5947cfa049)" style="fill: #1f77b4"/>
   </g>
   <g id="patch_15">
    <path d="M 390.547352 307.584 
L 392.532332 307.584 
L 392.532332 201.024 
L 390.547352 201.024 
z
" clip-path="url(#p5947cfa049)" style="fill: #1f77b4"/>
   </g>
   <g id="patch_16">
    <path d="M 392.532332 307.584 
L 394.517312 307.584 
L 394.517312 278.784 
L 392.532332 278.784 
z
" clip-path="url(#p5947cfa049)" style="fill: #1f77b4"/>
   </g>
   <g id="patch_17">
    <path d="M 394.517312 307.584 
L 396.502292 307.584 
L 396.502292 290.304 
L 394.517312 290.304 
z
" clip-path="url(#p5947cfa049)" style="fill: #1f77b4"/>
   </g>
   <g id="patch_18">
    <path d="M 396.502292 307.584 
L 398.487273 307.584 
L 398.487273 284.544 
L 396.502292 284.544 
z
" clip-path="url(#p5947cfa049)" style="fill: #1f77b4"/>
   </g>
   <g id="matplotlib.axis_1">
    <g id="xtick_1">
     <g id="line2d_1">
      <defs>
       <path id="meb5589074f" d="M 0 0 
L 0 3.5 
" style="stroke: #000000; stroke-width: 0.8"/>
      </defs>
      <g>
       <use xlink:href="#meb5589074f" x="73.832727" y="307.584" style="stroke: #000000; stroke-width: 0.8"/>
      </g>
     </g>
     <g id="text_1">
      <!-- 0 -->
      <g transform="translate(70.651477 322.182437) scale(0.1 -0.1)">
       <defs>
        <path id="DejaVuSans-30" d="M 2034 4250 
Q 1547 4250 1301 3770 
Q 1056 3291 1056 2328 
Q 1056 1369 1301 889 
Q 1547 409 2034 409 
Q 2525 409 2770 889 
Q 3016 1369 3016 2328 
Q 3016 3291 2770 3770 
Q 2525 4250 2034 4250 
z
M 2034 4750 
Q 2819 4750 3233 4129 
Q 3647 3509 3647 2328 
Q 3647 1150 3233 529 
Q 2819 -91 2034 -91 
Q 1250 -91 836 529 
Q 422 1150 422 2328 
Q 422 3509 836 4129 
Q 1250 4750 2034 4750 
z
" transform="scale(0.015625)"/>
       </defs>
       <use xlink:href="#DejaVuSans-30"/>
      </g>
     </g>
    </g>
    <g id="xtick_2">
     <g id="line2d_2">
      <g>
       <use xlink:href="#meb5589074f" x="117.943399" y="307.584" style="stroke: #000000; stroke-width: 0.8"/>
      </g>
     </g>
     <g id="text_2">
      <!-- 50 -->
      <g transform="translate(111.580899 322.182437) scale(0.1 -0.1)">
       <defs>
        <path id="DejaVuSans-35" d="M 691 4666 
L 3169 4666 
L 3169 4134 
L 1269 4134 
L 1269 2991 
Q 1406 3038 1543 3061 
Q 1681 3084 1819 3084 
Q 2600 3084 3056 2656 
Q 3513 2228 3513 1497 
Q 3513 744 3044 326 
Q 2575 -91 1722 -91 
Q 1428 -91 1123 -41 
Q 819 9 494 109 
L 494 744 
Q 775 591 1075 516 
Q 1375 441 1709 441 
Q 2250 441 2565 725 
Q 2881 1009 2881 1497 
Q 2881 1984 2565 2268 
Q 2250 2553 1709 2553 
Q 1456 2553 1204 2497 
Q 953 2441 691 2322 
L 691 4666 
z
" transform="scale(0.015625)"/>
       </defs>
       <use xlink:href="#DejaVuSans-35"/>
       <use xlink:href="#DejaVuSans-30" x="63.623047"/>
      </g>
     </g>
    </g>
    <g id="xtick_3">
     <g id="line2d_3">
      <g>
       <use xlink:href="#meb5589074f" x="162.054071" y="307.584" style="stroke: #000000; stroke-width: 0.8"/>
      </g>
     </g>
     <g id="text_3">
      <!-- 100 -->
      <g transform="translate(152.510321 322.182437) scale(0.1 -0.1)">
       <defs>
        <path id="DejaVuSans-31" d="M 794 531 
L 1825 531 
L 1825 4091 
L 703 3866 
L 703 4441 
L 1819 4666 
L 2450 4666 
L 2450 531 
L 3481 531 
L 3481 0 
L 794 0 
L 794 531 
z
" transform="scale(0.015625)"/>
       </defs>
       <use xlink:href="#DejaVuSans-31"/>
       <use xlink:href="#DejaVuSans-30" x="63.623047"/>
       <use xlink:href="#DejaVuSans-30" x="127.246094"/>
      </g>
     </g>
    </g>
    <g id="xtick_4">
     <g id="line2d_4">
      <g>
       <use xlink:href="#meb5589074f" x="206.164743" y="307.584" style="stroke: #000000; stroke-width: 0.8"/>
      </g>
     </g>
     <g id="text_4">
      <!-- 150 -->
      <g transform="translate(196.620993 322.182437) scale(0.1 -0.1)">
       <use xlink:href="#DejaVuSans-31"/>
       <use xlink:href="#DejaVuSans-35" x="63.623047"/>
       <use xlink:href="#DejaVuSans-30" x="127.246094"/>
      </g>
     </g>
    </g>
    <g id="xtick_5">
     <g id="line2d_5">
      <g>
       <use xlink:href="#meb5589074f" x="250.275415" y="307.584" style="stroke: #000000; stroke-width: 0.8"/>
      </g>
     </g>
     <g id="text_5">
      <!-- 200 -->
      <g transform="translate(240.731665 322.182437) scale(0.1 -0.1)">
       <defs>
        <path id="DejaVuSans-32" d="M 1228 531 
L 3431 531 
L 3431 0 
L 469 0 
L 469 531 
Q 828 903 1448 1529 
Q 2069 2156 2228 2338 
Q 2531 2678 2651 2914 
Q 2772 3150 2772 3378 
Q 2772 3750 2511 3984 
Q 2250 4219 1831 4219 
Q 1534 4219 1204 4116 
Q 875 4013 500 3803 
L 500 4441 
Q 881 4594 1212 4672 
Q 1544 4750 1819 4750 
Q 2544 4750 2975 4387 
Q 3406 4025 3406 3419 
Q 3406 3131 3298 2873 
Q 3191 2616 2906 2266 
Q 2828 2175 2409 1742 
Q 1991 1309 1228 531 
z
" transform="scale(0.015625)"/>
       </defs>
       <use xlink:href="#DejaVuSans-32"/>
       <use xlink:href="#DejaVuSans-30" x="63.623047"/>
       <use xlink:href="#DejaVuSans-30" x="127.246094"/>
      </g>
     </g>
    </g>
    <g id="xtick_6">
     <g id="line2d_6">
      <g>
       <use xlink:href="#meb5589074f" x="294.386087" y="307.584" style="stroke: #000000; stroke-width: 0.8"/>
      </g>
     </g>
     <g id="text_6">
      <!-- 250 -->
      <g transform="translate(284.842337 322.182437) scale(0.1 -0.1)">
       <use xlink:href="#DejaVuSans-32"/>
       <use xlink:href="#DejaVuSans-35" x="63.623047"/>
       <use xlink:href="#DejaVuSans-30" x="127.246094"/>
      </g>
     </g>
    </g>
    <g id="xtick_7">
     <g id="line2d_7">
      <g>
       <use xlink:href="#meb5589074f" x="338.496759" y="307.584" style="stroke: #000000; stroke-width: 0.8"/>
      </g>
     </g>
     <g id="text_7">
      <!-- 300 -->
      <g transform="translate(328.953009 322.182437) scale(0.1 -0.1)">
       <defs>
        <path id="DejaVuSans-33" d="M 2597 2516 
Q 3050 2419 3304 2112 
Q 3559 1806 3559 1356 
Q 3559 666 3084 287 
Q 2609 -91 1734 -91 
Q 1441 -91 1130 -33 
Q 819 25 488 141 
L 488 750 
Q 750 597 1062 519 
Q 1375 441 1716 441 
Q 2309 441 2620 675 
Q 2931 909 2931 1356 
Q 2931 1769 2642 2001 
Q 2353 2234 1838 2234 
L 1294 2234 
L 1294 2753 
L 1863 2753 
Q 2328 2753 2575 2939 
Q 2822 3125 2822 3475 
Q 2822 3834 2567 4026 
Q 2313 4219 1838 4219 
Q 1578 4219 1281 4162 
Q 984 4106 628 3988 
L 628 4550 
Q 988 4650 1302 4700 
Q 1616 4750 1894 4750 
Q 2613 4750 3031 4423 
Q 3450 4097 3450 3541 
Q 3450 3153 3228 2886 
Q 3006 2619 2597 2516 
z
" transform="scale(0.015625)"/>
       </defs>
       <use xlink:href="#DejaVuSans-33"/>
       <use xlink:href="#DejaVuSans-30" x="63.623047"/>
       <use xlink:href="#DejaVuSans-30" x="127.246094"/>
      </g>
     </g>
    </g>
    <g id="xtick_8">
     <g id="line2d_8">
      <g>
       <use xlink:href="#meb5589074f" x="382.607431" y="307.584" style="stroke: #000000; stroke-width: 0.8"/>
      </g>
     </g>
     <g id="text_8">
      <!-- 350 -->
      <g transform="translate(373.063681 322.182437) scale(0.1 -0.1)">
       <use xlink:href="#DejaVuSans-33"/>
       <use xlink:href="#DejaVuSans-35" x="63.623047"/>
       <use xlink:href="#DejaVuSans-30" x="127.246094"/>
      </g>
     </g>
    </g>
   </g>
   <g id="matplotlib.axis_2">
    <g id="ytick_1">
     <g id="line2d_9">
      <defs>
       <path id="m916b9285b5" d="M 0 0 
L -3.5 0 
" style="stroke: #000000; stroke-width: 0.8"/>
      </defs>
      <g>
       <use xlink:href="#m916b9285b5" x="57.6" y="307.584" style="stroke: #000000; stroke-width: 0.8"/>
      </g>
     </g>
     <g id="text_9">
      <!-- 0.00 -->
      <g transform="translate(28.334375 311.383219) scale(0.1 -0.1)">
       <defs>
        <path id="DejaVuSans-2e" d="M 684 794 
L 1344 794 
L 1344 0 
L 684 0 
L 684 794 
z
" transform="scale(0.015625)"/>
       </defs>
       <use xlink:href="#DejaVuSans-30"/>
       <use xlink:href="#DejaVuSans-2e" x="63.623047"/>
       <use xlink:href="#DejaVuSans-30" x="95.410156"/>
       <use xlink:href="#DejaVuSans-30" x="159.033203"/>
      </g>
     </g>
    </g>
    <g id="ytick_2">
     <g id="line2d_10">
      <g>
       <use xlink:href="#m916b9285b5" x="57.6" y="275.184" style="stroke: #000000; stroke-width: 0.8"/>
      </g>
     </g>
     <g id="text_10">
      <!-- 0.01 -->
      <g transform="translate(28.334375 278.983219) scale(0.1 -0.1)">
       <use xlink:href="#DejaVuSans-30"/>
       <use xlink:href="#DejaVuSans-2e" x="63.623047"/>
       <use xlink:href="#DejaVuSans-30" x="95.410156"/>
       <use xlink:href="#DejaVuSans-31" x="159.033203"/>
      </g>
     </g>
    </g>
    <g id="ytick_3">
     <g id="line2d_11">
      <g>
       <use xlink:href="#m916b9285b5" x="57.6" y="242.784" style="stroke: #000000; stroke-width: 0.8"/>
      </g>
     </g>
     <g id="text_11">
      <!-- 0.02 -->
      <g transform="translate(28.334375 246.583219) scale(0.1 -0.1)">
       <use xlink:href="#DejaVuSans-30"/>
       <use xlink:href="#DejaVuSans-2e" x="63.623047"/>
       <use xlink:href="#DejaVuSans-30" x="95.410156"/>
       <use xlink:href="#DejaVuSans-32" x="159.033203"/>
      </g>
     </g>
    </g>
    <g id="ytick_4">
     <g id="line2d_12">
      <g>
       <use xlink:href="#m916b9285b5" x="57.6" y="210.384" style="stroke: #000000; stroke-width: 0.8"/>
      </g>
     </g>
     <g id="text_12">
      <!-- 0.03 -->
      <g transform="translate(28.334375 214.183219) scale(0.1 -0.1)">
       <use xlink:href="#DejaVuSans-30"/>
       <use xlink:href="#DejaVuSans-2e" x="63.623047"/>
       <use xlink:href="#DejaVuSans-30" x="95.410156"/>
       <use xlink:href="#DejaVuSans-33" x="159.033203"/>
      </g>
     </g>
    </g>
    <g id="ytick_5">
     <g id="line2d_13">
      <g>
       <use xlink:href="#m916b9285b5" x="57.6" y="177.984" style="stroke: #000000; stroke-width: 0.8"/>
      </g>
     </g>
     <g id="text_13">
      <!-- 0.04 -->
      <g transform="translate(28.334375 181.783219) scale(0.1 -0.1)">
       <defs>
        <path id="DejaVuSans-34" d="M 2419 4116 
L 825 1625 
L 2419 1625 
L 2419 4116 
z
M 2253 4666 
L 3047 4666 
L 3047 1625 
L 3713 1625 
L 3713 1100 
L 3047 1100 
L 3047 0 
L 2419 0 
L 2419 1100 
L 313 1100 
L 313 1709 
L 2253 4666 
z
" transform="scale(0.015625)"/>
       </defs>
       <use xlink:href="#DejaVuSans-30"/>
       <use xlink:href="#DejaVuSans-2e" x="63.623047"/>
       <use xlink:href="#DejaVuSans-30" x="95.410156"/>
       <use xlink:href="#DejaVuSans-34" x="159.033203"/>
      </g>
     </g>
    </g>
    <g id="ytick_6">
     <g id="line2d_14">
      <g>
       <use xlink:href="#m916b9285b5" x="57.6" y="145.584" style="stroke: #000000; stroke-width: 0.8"/>
      </g>
     </g>
     <g id="text_14">
      <!-- 0.05 -->
      <g transform="translate(28.334375 149.383219) scale(0.1 -0.1)">
       <use xlink:href="#DejaVuSans-30"/>
       <use xlink:href="#DejaVuSans-2e" x="63.623047"/>
       <use xlink:href="#DejaVuSans-30" x="95.410156"/>
       <use xlink:href="#DejaVuSans-35" x="159.033203"/>
      </g>
     </g>
    </g>
    <g id="ytick_7">
     <g id="line2d_15">
      <g>
       <use xlink:href="#m916b9285b5" x="57.6" y="113.184" style="stroke: #000000; stroke-width: 0.8"/>
      </g>
     </g>
     <g id="text_15">
      <!-- 0.06 -->
      <g transform="translate(28.334375 116.983219) scale(0.1 -0.1)">
       <defs>
        <path id="DejaVuSans-36" d="M 2113 2584 
Q 1688 2584 1439 2293 
Q 1191 2003 1191 1497 
Q 1191 994 1439 701 
Q 1688 409 2113 409 
Q 2538 409 2786 701 
Q 3034 994 3034 1497 
Q 3034 2003 2786 2293 
Q 2538 2584 2113 2584 
z
M 3366 4563 
L 3366 3988 
Q 3128 4100 2886 4159 
Q 2644 4219 2406 4219 
Q 1781 4219 1451 3797 
Q 1122 3375 1075 2522 
Q 1259 2794 1537 2939 
Q 1816 3084 2150 3084 
Q 2853 3084 3261 2657 
Q 3669 2231 3669 1497 
Q 3669 778 3244 343 
Q 2819 -91 2113 -91 
Q 1303 -91 875 529 
Q 447 1150 447 2328 
Q 447 3434 972 4092 
Q 1497 4750 2381 4750 
Q 2619 4750 2861 4703 
Q 3103 4656 3366 4563 
z
" transform="scale(0.015625)"/>
       </defs>
       <use xlink:href="#DejaVuSans-30"/>
       <use xlink:href="#DejaVuSans-2e" x="63.623047"/>
       <use xlink:href="#DejaVuSans-30" x="95.410156"/>
       <use xlink:href="#DejaVuSans-36" x="159.033203"/>
      </g>
     </g>
    </g>
    <g id="ytick_8">
     <g id="line2d_16">
      <g>
       <use xlink:href="#m916b9285b5" x="57.6" y="80.784" style="stroke: #000000; stroke-width: 0.8"/>
      </g>
     </g>
     <g id="text_16">
      <!-- 0.07 -->
      <g transform="translate(28.334375 84.583219) scale(0.1 -0.1)">
       <defs>
        <path id="DejaVuSans-37" d="M 525 4666 
L 3525 4666 
L 3525 4397 
L 1831 0 
L 1172 0 
L 2766 4134 
L 525 4134 
L 525 4666 
z
" transform="scale(0.015625)"/>
       </defs>
       <use xlink:href="#DejaVuSans-30"/>
       <use xlink:href="#DejaVuSans-2e" x="63.623047"/>
       <use xlink:href="#DejaVuSans-30" x="95.410156"/>
       <use xlink:href="#DejaVuSans-37" x="159.033203"/>
      </g>
     </g>
    </g>
    <g id="ytick_9">
     <g id="line2d_17">
      <g>
       <use xlink:href="#m916b9285b5" x="57.6" y="48.384" style="stroke: #000000; stroke-width: 0.8"/>
      </g>
     </g>
     <g id="text_17">
      <!-- 0.08 -->
      <g transform="translate(28.334375 52.183219) scale(0.1 -0.1)">
       <defs>
        <path id="DejaVuSans-38" d="M 2034 2216 
Q 1584 2216 1326 1975 
Q 1069 1734 1069 1313 
Q 1069 891 1326 650 
Q 1584 409 2034 409 
Q 2484 409 2743 651 
Q 3003 894 3003 1313 
Q 3003 1734 2745 1975 
Q 2488 2216 2034 2216 
z
M 1403 2484 
Q 997 2584 770 2862 
Q 544 3141 544 3541 
Q 544 4100 942 4425 
Q 1341 4750 2034 4750 
Q 2731 4750 3128 4425 
Q 3525 4100 3525 3541 
Q 3525 3141 3298 2862 
Q 3072 2584 2669 2484 
Q 3125 2378 3379 2068 
Q 3634 1759 3634 1313 
Q 3634 634 3220 271 
Q 2806 -91 2034 -91 
Q 1263 -91 848 271 
Q 434 634 434 1313 
Q 434 1759 690 2068 
Q 947 2378 1403 2484 
z
M 1172 3481 
Q 1172 3119 1398 2916 
Q 1625 2713 2034 2713 
Q 2441 2713 2670 2916 
Q 2900 3119 2900 3481 
Q 2900 3844 2670 4047 
Q 2441 4250 2034 4250 
Q 1625 4250 1398 4047 
Q 1172 3844 1172 3481 
z
" transform="scale(0.015625)"/>
       </defs>
       <use xlink:href="#DejaVuSans-30"/>
       <use xlink:href="#DejaVuSans-2e" x="63.623047"/>
       <use xlink:href="#DejaVuSans-30" x="95.410156"/>
       <use xlink:href="#DejaVuSans-38" x="159.033203"/>
      </g>
     </g>
    </g>
   </g>
   <g id="line2d_18">
    <path d="M 73.832727 307.584 
L 74.714941 261.201398 
L 75.597154 307.584 
L 78.243794 307.584 
L 79.126008 265.076661 
L 80.008221 304.524231 
L 80.890435 307.438477 
L 81.772648 307.578238 
L 82.654862 307.583794 
L 83.537075 268.628139 
L 84.419289 301.975748 
L 85.301502 307.115423 
L 86.183715 307.55424 
L 87.065929 307.582406 
L 87.948142 271.882829 
L 88.830356 299.874472 
L 89.712569 306.662385 
L 90.594783 307.50338 
L 91.476996 307.578237 
L 92.359209 274.865372 
L 93.241423 298.163455 
L 94.123636 306.118792 
L 95.00585 307.420696 
L 95.888063 307.569392 
L 96.770277 277.598224 
L 97.65249 296.792123 
L 98.534704 305.5171 
L 99.416917 307.304062 
L 100.29913 307.553928 
L 101.181344 280.101828 
L 102.063557 295.715607 
L 102.945771 304.883789 
L 103.827984 307.153518 
L 104.710198 307.530015 
L 105.592411 282.39479 
L 106.474625 294.894125 
L 107.356838 304.240227 
L 108.239051 306.970706 
L 109.121265 307.496059 
L 110.003478 284.494043 
L 111.767905 303.603434 
L 112.650119 306.758421 
L 113.532332 307.45077 
L 114.414545 286.415006 
L 115.296759 293.879384 
L 116.178972 302.986734 
L 117.061186 306.520238 
L 117.943399 307.393197 
L 118.825613 288.171738 
L 119.707826 293.627386 
L 120.59004 302.40033 
L 121.472253 306.260215 
L 122.354466 307.322745 
L 123.23668 289.777072 
L 124.118893 293.512118 
L 125.001107 301.851801 
L 125.88332 305.982659 
L 126.765534 307.239162 
L 127.647747 291.242743 
L 128.52996 293.512125 
L 129.412174 301.346523 
L 130.294387 305.691946 
L 131.176601 307.142524 
L 132.058814 292.579504 
L 132.941028 293.60852 
L 133.823241 300.888049 
L 134.705455 305.392371 
L 135.587668 307.033204 
L 136.469881 293.797229 
L 137.352095 293.784703 
L 138.234308 300.47842 
L 139.116522 305.088049 
L 139.998735 306.911834 
L 140.880949 294.905006 
L 141.763162 294.026115 
L 142.645375 300.118444 
L 143.527589 304.782835 
L 144.409802 306.779272 
L 145.292016 295.911217 
L 146.174229 294.320014 
L 147.056443 299.807928 
L 147.938656 304.480268 
L 148.82087 306.636556 
L 149.703083 296.823613 
L 150.585296 294.655281 
L 152.349723 304.183543 
L 153.231937 306.484871 
L 154.11415 297.649377 
L 154.996364 295.022238 
L 156.760791 303.895487 
L 157.643004 306.325509 
L 158.525217 298.39518 
L 159.407431 295.412496 
L 160.289644 299.160257 
L 161.171858 303.618556 
L 162.054071 306.159833 
L 162.936285 299.06723 
L 163.818498 295.818811 
L 164.700711 299.032127 
L 165.582925 303.354836 
L 166.465138 305.989247 
L 167.347352 299.671313 
L 168.229565 296.234957 
L 169.111779 298.943592 
L 169.993992 303.106054 
L 170.876206 305.815168 
L 171.758419 300.21283 
L 172.640632 296.655615 
L 173.522846 298.891779 
L 174.405059 302.873598 
L 175.287273 305.638999 
L 176.169486 300.69683 
L 177.0517 297.076274 
L 177.933913 298.873722 
L 178.816126 302.658531 
L 179.69834 305.462106 
L 180.580553 301.128037 
L 181.462767 297.493133 
L 182.34498 298.886419 
L 183.227194 302.461621 
L 184.109407 305.285802 
L 185.873834 297.903027 
L 186.756047 298.926884 
L 187.638261 302.283361 
L 188.520474 305.111332 
L 190.284901 298.303352 
L 191.167115 298.992187 
L 192.931542 304.939859 
L 193.813755 302.147729 
L 194.695968 298.691998 
L 195.578182 299.079482 
L 197.342609 304.772456 
L 198.224822 302.40926 
L 199.107036 299.067291 
L 199.989249 299.186036 
L 201.753676 304.610098 
L 202.635889 302.637469 
L 203.518103 299.427938 
L 204.400316 299.309244 
L 206.164743 304.45366 
L 207.046957 302.835534 
L 207.92917 299.772983 
L 208.811383 299.446644 
L 209.693597 301.673195 
L 210.57581 304.30391 
L 211.458024 303.006424 
L 212.340237 300.101763 
L 213.222451 299.595928 
L 214.104664 301.605125 
L 214.986877 304.161514 
L 215.869091 303.152908 
L 216.751304 300.413867 
L 217.633518 299.754945 
L 218.515731 301.553643 
L 219.397945 304.027036 
L 220.280158 303.277566 
L 221.162372 300.709104 
L 222.044585 299.921707 
L 222.926798 301.517949 
L 223.809012 303.900935 
L 224.691225 303.382797 
L 225.573439 300.987469 
L 226.455652 300.094387 
L 227.337866 301.497179 
L 228.220079 303.783575 
L 229.102292 303.470828 
L 229.984506 301.24912 
L 230.866719 300.271317 
L 231.748933 301.490422 
L 232.631146 303.675228 
L 233.51336 303.543719 
L 234.395573 301.494347 
L 235.277787 300.450986 
L 236.16 301.496733 
L 237.042213 303.576075 
L 237.924427 303.603375 
L 238.80664 301.723553 
L 239.688854 300.632036 
L 240.571067 301.515146 
L 241.453281 303.486217 
L 242.335494 303.651549 
L 243.217708 301.937236 
L 244.099921 300.813255 
L 244.982134 301.544691 
L 245.864348 303.405679 
L 246.746561 303.689851 
L 247.628775 302.135964 
L 248.510988 300.99357 
L 249.393202 301.584398 
L 250.275415 303.334413 
L 251.157628 303.719756 
L 252.039842 302.320367 
L 252.922055 301.172039 
L 253.804269 301.63331 
L 254.686482 303.272312 
L 255.568696 303.74261 
L 257.333123 301.347847 
L 258.215336 301.690491 
L 259.097549 303.219209 
L 259.979763 303.759634 
L 261.74419 301.520294 
L 262.626403 301.755031 
L 263.508617 303.174888 
L 264.39083 303.771934 
L 266.155257 301.688791 
L 267.03747 301.826051 
L 267.919684 303.139088 
L 268.801897 303.780507 
L 269.684111 302.92861 
L 270.566324 301.852847 
L 271.448538 301.902711 
L 272.330751 303.111511 
L 273.212964 303.786247 
L 274.095178 303.051971 
L 274.977391 302.012066 
L 275.859605 301.98421 
L 276.741818 303.091826 
L 277.624032 303.78995 
L 278.506245 303.165327 
L 279.388458 302.166134 
L 280.270672 302.069791 
L 281.152885 303.079678 
L 282.035099 303.792321 
L 282.917312 303.269406 
L 283.799526 302.314818 
L 284.681739 302.158741 
L 285.563953 303.074687 
L 286.446166 303.79398 
L 287.328379 303.364918 
L 288.210593 302.457951 
L 289.092806 302.250395 
L 290.857233 303.79547 
L 291.739447 303.452556 
L 292.62166 302.595432 
L 293.503874 302.344133 
L 295.2683 303.797258 
L 296.150514 303.532988 
L 297.032727 302.727212 
L 297.914941 302.439384 
L 299.679368 303.799744 
L 300.561581 303.606855 
L 301.443794 302.853296 
L 302.326008 302.535622 
L 304.090435 303.803267 
L 304.972648 303.674772 
L 305.854862 302.973727 
L 306.737075 302.63237 
L 307.619289 303.143007 
L 308.501502 303.808108 
L 309.383715 303.73732 
L 310.265929 303.088592 
L 311.148142 302.729192 
L 312.030356 303.172435 
L 312.912569 303.814493 
L 313.794783 303.795052 
L 314.676996 303.198004 
L 315.559209 302.825699 
L 316.441423 303.206159 
L 317.323636 303.822605 
L 318.20585 303.848487 
L 319.088063 303.302107 
L 319.970277 302.921543 
L 320.85249 303.243783 
L 321.734704 303.832581 
L 322.616917 303.898111 
L 324.381344 303.016416 
L 325.263557 303.284919 
L 326.145771 303.844519 
L 327.027984 303.944377 
L 328.792411 303.110047 
L 329.674625 303.329193 
L 330.556838 303.858483 
L 331.439051 303.987706 
L 333.203478 303.202203 
L 334.085692 303.376246 
L 334.967905 303.874507 
L 335.850119 304.028487 
L 337.614545 303.292685 
L 338.496759 303.425732 
L 339.378972 303.892596 
L 340.261186 304.067078 
L 342.025613 303.381324 
L 342.907826 303.477324 
L 343.79004 303.912734 
L 344.672253 304.103804 
L 346.43668 303.467983 
L 347.318893 303.530709 
L 348.201107 303.93488 
L 349.08332 304.138964 
L 350.847747 303.55255 
L 351.72996 303.585595 
L 352.612174 303.958979 
L 353.494387 304.172826 
L 354.376601 303.966747 
L 355.258814 303.63494 
L 356.141028 303.641705 
L 357.023241 303.98496 
L 357.905455 304.205631 
L 358.787668 304.032051 
L 359.669881 303.715089 
L 360.552095 303.698782 
L 362.316522 304.237596 
L 363.198735 304.094152 
L 364.080949 303.792957 
L 364.963162 303.756587 
L 366.727589 304.268912 
L 367.609802 304.153268 
L 368.492016 303.868519 
L 369.374229 303.814898 
L 371.138656 304.299748 
L 372.02087 304.209611 
L 372.903083 303.94177 
L 373.785296 303.873511 
L 375.549723 304.330251 
L 376.431937 304.263385 
L 377.31415 304.012719 
L 378.196364 303.932241 
L 379.960791 304.360548 
L 380.843004 304.314789 
L 381.725217 304.081387 
L 382.607431 303.990916 
L 384.371858 304.390747 
L 385.254071 304.36401 
L 386.136285 304.147808 
L 387.018498 304.049384 
L 388.782925 304.42094 
L 389.665138 304.41123 
L 391.429565 304.107507 
L 394.076206 304.456618 
L 395.840632 304.165163 
L 398.487273 304.500335 
L 398.487273 304.500335 
" clip-path="url(#p5947cfa049)" style="fill: none; stroke: #ff7f0e; stroke-width: 1.5; stroke-linecap: square"/>
   </g>
   <g id="patch_19">
    <path d="M 57.6 307.584 
L 57.6 41.472 
" style="fill: none; stroke: #000000; stroke-width: 0.8; stroke-linejoin: miter; stroke-linecap: square"/>
   </g>
   <g id="patch_20">
    <path d="M 414.72 307.584 
L 414.72 41.472 
" style="fill: none; stroke: #000000; stroke-width: 0.8; stroke-linejoin: miter; stroke-linecap: square"/>
   </g>
   <g id="patch_21">
    <path d="M 57.6 307.584 
L 414.72 307.584 
" style="fill: none; stroke: #000000; stroke-width: 0.8; stroke-linejoin: miter; stroke-linecap: square"/>
   </g>
   <g id="patch_22">
    <path d="M 57.6 41.472 
L 414.72 41.472 
" style="fill: none; stroke: #000000; stroke-width: 0.8; stroke-linejoin: miter; stroke-linecap: square"/>
   </g>
   <g id="legend_1">
    <g id="patch_23">
     <path d="M 64.6 64.150125 
L 320.403125 64.150125 
Q 322.403125 64.150125 322.403125 62.150125 
L 322.403125 48.472 
Q 322.403125 46.472 320.403125 46.472 
L 64.6 46.472 
Q 62.6 46.472 62.6 48.472 
L 62.6 62.150125 
Q 62.6 64.150125 64.6 64.150125 
z
" style="fill: #ffffff; opacity: 0.8; stroke: #cccccc; stroke-linejoin: miter"/>
    </g>
    <g id="line2d_19">
     <path d="M 66.6 54.570438 
L 76.6 54.570438 
L 86.6 54.570438 
" style="fill: none; stroke: #ff7f0e; stroke-width: 1.5; stroke-linecap: square"/>
    </g>
    <g id="text_18">
     <!-- states 6 cross entropy: 6.86 sh entropy: 3.31 -->
     <g transform="translate(94.6 58.070438) scale(0.1 -0.1)">
      <defs>
       <path id="DejaVuSans-73" d="M 2834 3397 
L 2834 2853 
Q 2591 2978 2328 3040 
Q 2066 3103 1784 3103 
Q 1356 3103 1142 2972 
Q 928 2841 928 2578 
Q 928 2378 1081 2264 
Q 1234 2150 1697 2047 
L 1894 2003 
Q 2506 1872 2764 1633 
Q 3022 1394 3022 966 
Q 3022 478 2636 193 
Q 2250 -91 1575 -91 
Q 1294 -91 989 -36 
Q 684 19 347 128 
L 347 722 
Q 666 556 975 473 
Q 1284 391 1588 391 
Q 1994 391 2212 530 
Q 2431 669 2431 922 
Q 2431 1156 2273 1281 
Q 2116 1406 1581 1522 
L 1381 1569 
Q 847 1681 609 1914 
Q 372 2147 372 2553 
Q 372 3047 722 3315 
Q 1072 3584 1716 3584 
Q 2034 3584 2315 3537 
Q 2597 3491 2834 3397 
z
" transform="scale(0.015625)"/>
       <path id="DejaVuSans-74" d="M 1172 4494 
L 1172 3500 
L 2356 3500 
L 2356 3053 
L 1172 3053 
L 1172 1153 
Q 1172 725 1289 603 
Q 1406 481 1766 481 
L 2356 481 
L 2356 0 
L 1766 0 
Q 1100 0 847 248 
Q 594 497 594 1153 
L 594 3053 
L 172 3053 
L 172 3500 
L 594 3500 
L 594 4494 
L 1172 4494 
z
" transform="scale(0.015625)"/>
       <path id="DejaVuSans-61" d="M 2194 1759 
Q 1497 1759 1228 1600 
Q 959 1441 959 1056 
Q 959 750 1161 570 
Q 1363 391 1709 391 
Q 2188 391 2477 730 
Q 2766 1069 2766 1631 
L 2766 1759 
L 2194 1759 
z
M 3341 1997 
L 3341 0 
L 2766 0 
L 2766 531 
Q 2569 213 2275 61 
Q 1981 -91 1556 -91 
Q 1019 -91 701 211 
Q 384 513 384 1019 
Q 384 1609 779 1909 
Q 1175 2209 1959 2209 
L 2766 2209 
L 2766 2266 
Q 2766 2663 2505 2880 
Q 2244 3097 1772 3097 
Q 1472 3097 1187 3025 
Q 903 2953 641 2809 
L 641 3341 
Q 956 3463 1253 3523 
Q 1550 3584 1831 3584 
Q 2591 3584 2966 3190 
Q 3341 2797 3341 1997 
z
" transform="scale(0.015625)"/>
       <path id="DejaVuSans-65" d="M 3597 1894 
L 3597 1613 
L 953 1613 
Q 991 1019 1311 708 
Q 1631 397 2203 397 
Q 2534 397 2845 478 
Q 3156 559 3463 722 
L 3463 178 
Q 3153 47 2828 -22 
Q 2503 -91 2169 -91 
Q 1331 -91 842 396 
Q 353 884 353 1716 
Q 353 2575 817 3079 
Q 1281 3584 2069 3584 
Q 2775 3584 3186 3129 
Q 3597 2675 3597 1894 
z
M 3022 2063 
Q 3016 2534 2758 2815 
Q 2500 3097 2075 3097 
Q 1594 3097 1305 2825 
Q 1016 2553 972 2059 
L 3022 2063 
z
" transform="scale(0.015625)"/>
       <path id="DejaVuSans-20" transform="scale(0.015625)"/>
       <path id="DejaVuSans-63" d="M 3122 3366 
L 3122 2828 
Q 2878 2963 2633 3030 
Q 2388 3097 2138 3097 
Q 1578 3097 1268 2742 
Q 959 2388 959 1747 
Q 959 1106 1268 751 
Q 1578 397 2138 397 
Q 2388 397 2633 464 
Q 2878 531 3122 666 
L 3122 134 
Q 2881 22 2623 -34 
Q 2366 -91 2075 -91 
Q 1284 -91 818 406 
Q 353 903 353 1747 
Q 353 2603 823 3093 
Q 1294 3584 2113 3584 
Q 2378 3584 2631 3529 
Q 2884 3475 3122 3366 
z
" transform="scale(0.015625)"/>
       <path id="DejaVuSans-72" d="M 2631 2963 
Q 2534 3019 2420 3045 
Q 2306 3072 2169 3072 
Q 1681 3072 1420 2755 
Q 1159 2438 1159 1844 
L 1159 0 
L 581 0 
L 581 3500 
L 1159 3500 
L 1159 2956 
Q 1341 3275 1631 3429 
Q 1922 3584 2338 3584 
Q 2397 3584 2469 3576 
Q 2541 3569 2628 3553 
L 2631 2963 
z
" transform="scale(0.015625)"/>
       <path id="DejaVuSans-6f" d="M 1959 3097 
Q 1497 3097 1228 2736 
Q 959 2375 959 1747 
Q 959 1119 1226 758 
Q 1494 397 1959 397 
Q 2419 397 2687 759 
Q 2956 1122 2956 1747 
Q 2956 2369 2687 2733 
Q 2419 3097 1959 3097 
z
M 1959 3584 
Q 2709 3584 3137 3096 
Q 3566 2609 3566 1747 
Q 3566 888 3137 398 
Q 2709 -91 1959 -91 
Q 1206 -91 779 398 
Q 353 888 353 1747 
Q 353 2609 779 3096 
Q 1206 3584 1959 3584 
z
" transform="scale(0.015625)"/>
       <path id="DejaVuSans-6e" d="M 3513 2113 
L 3513 0 
L 2938 0 
L 2938 2094 
Q 2938 2591 2744 2837 
Q 2550 3084 2163 3084 
Q 1697 3084 1428 2787 
Q 1159 2491 1159 1978 
L 1159 0 
L 581 0 
L 581 3500 
L 1159 3500 
L 1159 2956 
Q 1366 3272 1645 3428 
Q 1925 3584 2291 3584 
Q 2894 3584 3203 3211 
Q 3513 2838 3513 2113 
z
" transform="scale(0.015625)"/>
       <path id="DejaVuSans-70" d="M 1159 525 
L 1159 -1331 
L 581 -1331 
L 581 3500 
L 1159 3500 
L 1159 2969 
Q 1341 3281 1617 3432 
Q 1894 3584 2278 3584 
Q 2916 3584 3314 3078 
Q 3713 2572 3713 1747 
Q 3713 922 3314 415 
Q 2916 -91 2278 -91 
Q 1894 -91 1617 61 
Q 1341 213 1159 525 
z
M 3116 1747 
Q 3116 2381 2855 2742 
Q 2594 3103 2138 3103 
Q 1681 3103 1420 2742 
Q 1159 2381 1159 1747 
Q 1159 1113 1420 752 
Q 1681 391 2138 391 
Q 2594 391 2855 752 
Q 3116 1113 3116 1747 
z
" transform="scale(0.015625)"/>
       <path id="DejaVuSans-79" d="M 2059 -325 
Q 1816 -950 1584 -1140 
Q 1353 -1331 966 -1331 
L 506 -1331 
L 506 -850 
L 844 -850 
Q 1081 -850 1212 -737 
Q 1344 -625 1503 -206 
L 1606 56 
L 191 3500 
L 800 3500 
L 1894 763 
L 2988 3500 
L 3597 3500 
L 2059 -325 
z
" transform="scale(0.015625)"/>
       <path id="DejaVuSans-3a" d="M 750 794 
L 1409 794 
L 1409 0 
L 750 0 
L 750 794 
z
M 750 3309 
L 1409 3309 
L 1409 2516 
L 750 2516 
L 750 3309 
z
" transform="scale(0.015625)"/>
       <path id="DejaVuSans-68" d="M 3513 2113 
L 3513 0 
L 2938 0 
L 2938 2094 
Q 2938 2591 2744 2837 
Q 2550 3084 2163 3084 
Q 1697 3084 1428 2787 
Q 1159 2491 1159 1978 
L 1159 0 
L 581 0 
L 581 4863 
L 1159 4863 
L 1159 2956 
Q 1366 3272 1645 3428 
Q 1925 3584 2291 3584 
Q 2894 3584 3203 3211 
Q 3513 2838 3513 2113 
z
" transform="scale(0.015625)"/>
      </defs>
      <use xlink:href="#DejaVuSans-73"/>
      <use xlink:href="#DejaVuSans-74" x="52.099609"/>
      <use xlink:href="#DejaVuSans-61" x="91.308594"/>
      <use xlink:href="#DejaVuSans-74" x="152.587891"/>
      <use xlink:href="#DejaVuSans-65" x="191.796875"/>
      <use xlink:href="#DejaVuSans-73" x="253.320312"/>
      <use xlink:href="#DejaVuSans-20" x="305.419922"/>
      <use xlink:href="#DejaVuSans-36" x="337.207031"/>
      <use xlink:href="#DejaVuSans-20" x="400.830078"/>
      <use xlink:href="#DejaVuSans-63" x="432.617188"/>
      <use xlink:href="#DejaVuSans-72" x="487.597656"/>
      <use xlink:href="#DejaVuSans-6f" x="526.460938"/>
      <use xlink:href="#DejaVuSans-73" x="587.642578"/>
      <use xlink:href="#DejaVuSans-73" x="639.742188"/>
      <use xlink:href="#DejaVuSans-20" x="691.841797"/>
      <use xlink:href="#DejaVuSans-65" x="723.628906"/>
      <use xlink:href="#DejaVuSans-6e" x="785.152344"/>
      <use xlink:href="#DejaVuSans-74" x="848.53125"/>
      <use xlink:href="#DejaVuSans-72" x="887.740234"/>
      <use xlink:href="#DejaVuSans-6f" x="926.603516"/>
      <use xlink:href="#DejaVuSans-70" x="987.785156"/>
      <use xlink:href="#DejaVuSans-79" x="1051.261719"/>
      <use xlink:href="#DejaVuSans-3a" x="1103.191406"/>
      <use xlink:href="#DejaVuSans-20" x="1136.882812"/>
      <use xlink:href="#DejaVuSans-36" x="1168.669922"/>
      <use xlink:href="#DejaVuSans-2e" x="1232.292969"/>
      <use xlink:href="#DejaVuSans-38" x="1264.080078"/>
      <use xlink:href="#DejaVuSans-36" x="1327.703125"/>
      <use xlink:href="#DejaVuSans-20" x="1391.326172"/>
      <use xlink:href="#DejaVuSans-73" x="1423.113281"/>
      <use xlink:href="#DejaVuSans-68" x="1475.212891"/>
      <use xlink:href="#DejaVuSans-20" x="1538.591797"/>
      <use xlink:href="#DejaVuSans-65" x="1570.378906"/>
      <use xlink:href="#DejaVuSans-6e" x="1631.902344"/>
      <use xlink:href="#DejaVuSans-74" x="1695.28125"/>
      <use xlink:href="#DejaVuSans-72" x="1734.490234"/>
      <use xlink:href="#DejaVuSans-6f" x="1773.353516"/>
      <use xlink:href="#DejaVuSans-70" x="1834.535156"/>
      <use xlink:href="#DejaVuSans-79" x="1898.011719"/>
      <use xlink:href="#DejaVuSans-3a" x="1949.941406"/>
      <use xlink:href="#DejaVuSans-20" x="1983.632812"/>
      <use xlink:href="#DejaVuSans-33" x="2015.419922"/>
      <use xlink:href="#DejaVuSans-2e" x="2079.042969"/>
      <use xlink:href="#DejaVuSans-33" x="2110.830078"/>
      <use xlink:href="#DejaVuSans-31" x="2174.453125"/>
     </g>
    </g>
   </g>
  </g>
 </g>
 <defs>
  <clipPath id="p5947cfa049">
   <rect x="57.6" y="41.472" width="357.12" height="266.112"/>
  </clipPath>
 </defs>
</svg>
