<?xml version="1.0" encoding="utf-8" standalone="no"?>
<!DOCTYPE svg PUBLIC "-//W3C//DTD SVG 1.1//EN"
  "http://www.w3.org/Graphics/SVG/1.1/DTD/svg11.dtd">
<svg xmlns:xlink="http://www.w3.org/1999/xlink" width="460.8pt" height="345.6pt" viewBox="0 0 460.8 345.6" xmlns="http://www.w3.org/2000/svg" version="1.1">
 <metadata>
  <rdf:RDF xmlns:dc="http://purl.org/dc/elements/1.1/" xmlns:cc="http://creativecommons.org/ns#" xmlns:rdf="http://www.w3.org/1999/02/22-rdf-syntax-ns#">
   <cc:Work>
    <dc:type rdf:resource="http://purl.org/dc/dcmitype/StillImage"/>
    <dc:date>2024-05-04T07:54:06.556368</dc:date>
    <dc:format>image/svg+xml</dc:format>
    <dc:creator>
     <cc:Agent>
      <dc:title>Matplotlib v3.8.4, https://matplotlib.org/</dc:title>
     </cc:Agent>
    </dc:creator>
   </cc:Work>
  </rdf:RDF>
 </metadata>
 <defs>
  <style type="text/css">*{stroke-linejoin: round; stroke-linecap: butt}</style>
 </defs>
 <g id="figure_1">
  <g id="patch_1">
   <path d="M 0 345.6 
L 460.8 345.6 
L 460.8 0 
L 0 0 
z
" style="fill: #ffffff"/>
  </g>
  <g id="axes_1">
   <g id="patch_2">
    <path d="M 57.6 307.584 
L 414.72 307.584 
L 414.72 41.472 
L 57.6 41.472 
z
" style="fill: #ffffff"/>
   </g>
   <g id="patch_3">
    <path d="M 73.904532 307.584 
L 78.065849 307.584 
L 78.065849 54.144 
L 73.904532 54.144 
z
" clip-path="url(#p78e78154b6)" style="fill: #1f77b4"/>
   </g>
   <g id="patch_4">
    <path d="M 78.065849 307.584 
L 82.227167 307.584 
L 82.227167 175.975691 
L 78.065849 175.975691 
z
" clip-path="url(#p78e78154b6)" style="fill: #1f77b4"/>
   </g>
   <g id="patch_5">
    <path d="M 82.227167 307.584 
L 86.388484 307.584 
L 86.388484 200.492439 
L 82.227167 200.492439 
z
" clip-path="url(#p78e78154b6)" style="fill: #1f77b4"/>
   </g>
   <g id="patch_6">
    <path d="M 86.388484 307.584 
L 90.549801 307.584 
L 90.549801 217.864736 
L 86.388484 217.864736 
z
" clip-path="url(#p78e78154b6)" style="fill: #1f77b4"/>
   </g>
   <g id="patch_7">
    <path d="M 90.549801 307.584 
L 94.711118 307.584 
L 94.711118 235.98908 
L 90.549801 235.98908 
z
" clip-path="url(#p78e78154b6)" style="fill: #1f77b4"/>
   </g>
   <g id="patch_8">
    <path d="M 94.711118 307.584 
L 98.872435 307.584 
L 98.872435 247.87143 
L 94.711118 247.87143 
z
" clip-path="url(#p78e78154b6)" style="fill: #1f77b4"/>
   </g>
   <g id="patch_9">
    <path d="M 98.872435 307.584 
L 103.033752 307.584 
L 103.033752 253.88781 
L 98.872435 253.88781 
z
" clip-path="url(#p78e78154b6)" style="fill: #1f77b4"/>
   </g>
   <g id="patch_10">
    <path d="M 103.033752 307.584 
L 107.19507 307.584 
L 107.19507 260.731442 
L 103.033752 260.731442 
z
" clip-path="url(#p78e78154b6)" style="fill: #1f77b4"/>
   </g>
   <g id="patch_11">
    <path d="M 107.19507 307.584 
L 111.356387 307.584 
L 111.356387 266.898231 
L 107.19507 266.898231 
z
" clip-path="url(#p78e78154b6)" style="fill: #1f77b4"/>
   </g>
   <g id="patch_12">
    <path d="M 111.356387 307.584 
L 115.517704 307.584 
L 115.517704 268.853555 
L 111.356387 268.853555 
z
" clip-path="url(#p78e78154b6)" style="fill: #1f77b4"/>
   </g>
   <g id="patch_13">
    <path d="M 115.517704 307.584 
L 119.679021 307.584 
L 119.679021 272.613792 
L 115.517704 272.613792 
z
" clip-path="url(#p78e78154b6)" style="fill: #1f77b4"/>
   </g>
   <g id="patch_14">
    <path d="M 119.679021 307.584 
L 123.840338 307.584 
L 123.840338 276.524439 
L 119.679021 276.524439 
z
" clip-path="url(#p78e78154b6)" style="fill: #1f77b4"/>
   </g>
   <g id="patch_15">
    <path d="M 123.840338 307.584 
L 128.001656 307.584 
L 128.001656 278.630172 
L 123.840338 278.630172 
z
" clip-path="url(#p78e78154b6)" style="fill: #1f77b4"/>
   </g>
   <g id="patch_16">
    <path d="M 128.001656 307.584 
L 132.162973 307.584 
L 132.162973 280.6607 
L 128.001656 280.6607 
z
" clip-path="url(#p78e78154b6)" style="fill: #1f77b4"/>
   </g>
   <g id="patch_17">
    <path d="M 132.162973 307.584 
L 136.32429 307.584 
L 136.32429 285.473804 
L 132.162973 285.473804 
z
" clip-path="url(#p78e78154b6)" style="fill: #1f77b4"/>
   </g>
   <g id="patch_18">
    <path d="M 136.32429 307.584 
L 140.485607 307.584 
L 140.485607 285.172985 
L 136.32429 285.172985 
z
" clip-path="url(#p78e78154b6)" style="fill: #1f77b4"/>
   </g>
   <g id="patch_19">
    <path d="M 140.485607 307.584 
L 144.646924 307.584 
L 144.646924 289.986089 
L 140.485607 289.986089 
z
" clip-path="url(#p78e78154b6)" style="fill: #1f77b4"/>
   </g>
   <g id="patch_20">
    <path d="M 144.646924 307.584 
L 148.808242 307.584 
L 148.808242 288.782813 
L 144.646924 288.782813 
z
" clip-path="url(#p78e78154b6)" style="fill: #1f77b4"/>
   </g>
   <g id="patch_21">
    <path d="M 148.808242 307.584 
L 152.969559 307.584 
L 152.969559 290.963751 
L 148.808242 290.963751 
z
" clip-path="url(#p78e78154b6)" style="fill: #1f77b4"/>
   </g>
   <g id="patch_22">
    <path d="M 152.969559 307.584 
L 157.130876 307.584 
L 157.130876 290.512522 
L 152.969559 290.512522 
z
" clip-path="url(#p78e78154b6)" style="fill: #1f77b4"/>
   </g>
   <g id="patch_23">
    <path d="M 157.130876 307.584 
L 161.292193 307.584 
L 161.292193 293.295098 
L 157.130876 293.295098 
z
" clip-path="url(#p78e78154b6)" style="fill: #1f77b4"/>
   </g>
   <g id="patch_24">
    <path d="M 161.292193 307.584 
L 165.45351 307.584 
L 165.45351 294.949602 
L 161.292193 294.949602 
z
" clip-path="url(#p78e78154b6)" style="fill: #1f77b4"/>
   </g>
   <g id="patch_25">
    <path d="M 165.45351 307.584 
L 169.614827 307.584 
L 169.614827 296.604107 
L 165.45351 296.604107 
z
" clip-path="url(#p78e78154b6)" style="fill: #1f77b4"/>
   </g>
   <g id="patch_26">
    <path d="M 169.614827 307.584 
L 173.776145 307.584 
L 173.776145 296.002469 
L 169.614827 296.002469 
z
" clip-path="url(#p78e78154b6)" style="fill: #1f77b4"/>
   </g>
   <g id="patch_27">
    <path d="M 173.776145 307.584 
L 177.937462 307.584 
L 177.937462 296.378493 
L 173.776145 296.378493 
z
" clip-path="url(#p78e78154b6)" style="fill: #1f77b4"/>
   </g>
   <g id="patch_28">
    <path d="M 177.937462 307.584 
L 182.098779 307.584 
L 182.098779 297.882588 
L 177.937462 297.882588 
z
" clip-path="url(#p78e78154b6)" style="fill: #1f77b4"/>
   </g>
   <g id="patch_29">
    <path d="M 182.098779 307.584 
L 186.260096 307.584 
L 186.260096 297.13054 
L 182.098779 297.13054 
z
" clip-path="url(#p78e78154b6)" style="fill: #1f77b4"/>
   </g>
   <g id="patch_30">
    <path d="M 186.260096 307.584 
L 190.421413 307.584 
L 190.421413 298.634635 
L 186.260096 298.634635 
z
" clip-path="url(#p78e78154b6)" style="fill: #1f77b4"/>
   </g>
   <g id="patch_31">
    <path d="M 190.421413 307.584 
L 194.582731 307.584 
L 194.582731 298.032997 
L 190.421413 298.032997 
z
" clip-path="url(#p78e78154b6)" style="fill: #1f77b4"/>
   </g>
   <g id="patch_32">
    <path d="M 194.582731 307.584 
L 198.744048 307.584 
L 198.744048 299.612297 
L 194.582731 299.612297 
z
" clip-path="url(#p78e78154b6)" style="fill: #1f77b4"/>
   </g>
   <g id="patch_33">
    <path d="M 198.744048 307.584 
L 202.905365 307.584 
L 202.905365 299.98832 
L 198.744048 299.98832 
z
" clip-path="url(#p78e78154b6)" style="fill: #1f77b4"/>
   </g>
   <g id="patch_34">
    <path d="M 202.905365 307.584 
L 207.066682 307.584 
L 207.066682 301.191596 
L 202.905365 301.191596 
z
" clip-path="url(#p78e78154b6)" style="fill: #1f77b4"/>
   </g>
   <g id="patch_35">
    <path d="M 207.066682 307.584 
L 211.227999 307.584 
L 211.227999 301.266801 
L 207.066682 301.266801 
z
" clip-path="url(#p78e78154b6)" style="fill: #1f77b4"/>
   </g>
   <g id="patch_36">
    <path d="M 211.227999 307.584 
L 215.389317 307.584 
L 215.389317 301.417211 
L 211.227999 301.417211 
z
" clip-path="url(#p78e78154b6)" style="fill: #1f77b4"/>
   </g>
   <g id="patch_37">
    <path d="M 215.389317 307.584 
L 219.550634 307.584 
L 219.550634 301.342006 
L 215.389317 301.342006 
z
" clip-path="url(#p78e78154b6)" style="fill: #1f77b4"/>
   </g>
   <g id="patch_38">
    <path d="M 219.550634 307.584 
L 223.711951 307.584 
L 223.711951 302.319668 
L 219.550634 302.319668 
z
" clip-path="url(#p78e78154b6)" style="fill: #1f77b4"/>
   </g>
   <g id="patch_39">
    <path d="M 223.711951 307.584 
L 227.873268 307.584 
L 227.873268 302.695691 
L 223.711951 302.695691 
z
" clip-path="url(#p78e78154b6)" style="fill: #1f77b4"/>
   </g>
   <g id="patch_40">
    <path d="M 227.873268 307.584 
L 232.034585 307.584 
L 232.034585 302.921306 
L 227.873268 302.921306 
z
" clip-path="url(#p78e78154b6)" style="fill: #1f77b4"/>
   </g>
   <g id="patch_41">
    <path d="M 232.034585 307.584 
L 236.195902 307.584 
L 236.195902 302.620487 
L 232.034585 302.620487 
z
" clip-path="url(#p78e78154b6)" style="fill: #1f77b4"/>
   </g>
   <g id="patch_42">
    <path d="M 236.195902 307.584 
L 240.35722 307.584 
L 240.35722 303.14692 
L 236.195902 303.14692 
z
" clip-path="url(#p78e78154b6)" style="fill: #1f77b4"/>
   </g>
   <g id="patch_43">
    <path d="M 240.35722 307.584 
L 244.518537 307.584 
L 244.518537 304.049377 
L 240.35722 304.049377 
z
" clip-path="url(#p78e78154b6)" style="fill: #1f77b4"/>
   </g>
   <g id="patch_44">
    <path d="M 244.518537 307.584 
L 248.679854 307.584 
L 248.679854 302.99651 
L 244.518537 302.99651 
z
" clip-path="url(#p78e78154b6)" style="fill: #1f77b4"/>
   </g>
   <g id="patch_45">
    <path d="M 248.679854 307.584 
L 252.841171 307.584 
L 252.841171 304.274991 
L 248.679854 304.274991 
z
" clip-path="url(#p78e78154b6)" style="fill: #1f77b4"/>
   </g>
   <g id="patch_46">
    <path d="M 252.841171 307.584 
L 257.002488 307.584 
L 257.002488 303.222125 
L 252.841171 303.222125 
z
" clip-path="url(#p78e78154b6)" style="fill: #1f77b4"/>
   </g>
   <g id="patch_47">
    <path d="M 257.002488 307.584 
L 261.163806 307.584 
L 261.163806 303.974172 
L 257.002488 303.974172 
z
" clip-path="url(#p78e78154b6)" style="fill: #1f77b4"/>
   </g>
   <g id="patch_48">
    <path d="M 261.163806 307.584 
L 265.325123 307.584 
L 265.325123 304.049377 
L 261.163806 304.049377 
z
" clip-path="url(#p78e78154b6)" style="fill: #1f77b4"/>
   </g>
   <g id="patch_49">
    <path d="M 265.325123 307.584 
L 269.48644 307.584 
L 269.48644 305.177448 
L 265.325123 305.177448 
z
" clip-path="url(#p78e78154b6)" style="fill: #1f77b4"/>
   </g>
   <g id="patch_50">
    <path d="M 269.48644 307.584 
L 273.647757 307.584 
L 273.647757 304.274991 
L 269.48644 304.274991 
z
" clip-path="url(#p78e78154b6)" style="fill: #1f77b4"/>
   </g>
   <g id="patch_51">
    <path d="M 273.647757 307.584 
L 277.809074 307.584 
L 277.809074 305.027039 
L 273.647757 305.027039 
z
" clip-path="url(#p78e78154b6)" style="fill: #1f77b4"/>
   </g>
   <g id="patch_52">
    <path d="M 277.809074 307.584 
L 281.970391 307.584 
L 281.970391 304.876629 
L 277.809074 304.876629 
z
" clip-path="url(#p78e78154b6)" style="fill: #1f77b4"/>
   </g>
   <g id="patch_53">
    <path d="M 281.970391 307.584 
L 286.131709 307.584 
L 286.131709 304.124582 
L 281.970391 304.124582 
z
" clip-path="url(#p78e78154b6)" style="fill: #1f77b4"/>
   </g>
   <g id="patch_54">
    <path d="M 286.131709 307.584 
L 290.293026 307.584 
L 290.293026 304.72622 
L 286.131709 304.72622 
z
" clip-path="url(#p78e78154b6)" style="fill: #1f77b4"/>
   </g>
   <g id="patch_55">
    <path d="M 290.293026 307.584 
L 294.454343 307.584 
L 294.454343 305.553472 
L 290.293026 305.553472 
z
" clip-path="url(#p78e78154b6)" style="fill: #1f77b4"/>
   </g>
   <g id="patch_56">
    <path d="M 294.454343 307.584 
L 298.61566 307.584 
L 298.61566 305.102243 
L 294.454343 305.102243 
z
" clip-path="url(#p78e78154b6)" style="fill: #1f77b4"/>
   </g>
   <g id="patch_57">
    <path d="M 298.61566 307.584 
L 302.776977 307.584 
L 302.776977 305.628677 
L 298.61566 305.628677 
z
" clip-path="url(#p78e78154b6)" style="fill: #1f77b4"/>
   </g>
   <g id="patch_58">
    <path d="M 302.776977 307.584 
L 306.938295 307.584 
L 306.938295 305.628677 
L 302.776977 305.628677 
z
" clip-path="url(#p78e78154b6)" style="fill: #1f77b4"/>
   </g>
   <g id="patch_59">
    <path d="M 306.938295 307.584 
L 311.099612 307.584 
L 311.099612 305.027039 
L 306.938295 305.027039 
z
" clip-path="url(#p78e78154b6)" style="fill: #1f77b4"/>
   </g>
   <g id="patch_60">
    <path d="M 311.099612 307.584 
L 315.260929 307.584 
L 315.260929 304.801424 
L 311.099612 304.801424 
z
" clip-path="url(#p78e78154b6)" style="fill: #1f77b4"/>
   </g>
   <g id="patch_61">
    <path d="M 315.260929 307.584 
L 319.422246 307.584 
L 319.422246 305.327858 
L 315.260929 305.327858 
z
" clip-path="url(#p78e78154b6)" style="fill: #1f77b4"/>
   </g>
   <g id="patch_62">
    <path d="M 319.422246 307.584 
L 323.583563 307.584 
L 323.583563 305.252653 
L 319.422246 305.252653 
z
" clip-path="url(#p78e78154b6)" style="fill: #1f77b4"/>
   </g>
   <g id="patch_63">
    <path d="M 323.583563 307.584 
L 327.744881 307.584 
L 327.744881 305.403062 
L 323.583563 305.403062 
z
" clip-path="url(#p78e78154b6)" style="fill: #1f77b4"/>
   </g>
   <g id="patch_64">
    <path d="M 327.744881 307.584 
L 331.906198 307.584 
L 331.906198 306.15511 
L 327.744881 306.15511 
z
" clip-path="url(#p78e78154b6)" style="fill: #1f77b4"/>
   </g>
   <g id="patch_65">
    <path d="M 331.906198 307.584 
L 336.067515 307.584 
L 336.067515 306.230315 
L 331.906198 306.230315 
z
" clip-path="url(#p78e78154b6)" style="fill: #1f77b4"/>
   </g>
   <g id="patch_66">
    <path d="M 336.067515 307.584 
L 340.228832 307.584 
L 340.228832 305.628677 
L 336.067515 305.628677 
z
" clip-path="url(#p78e78154b6)" style="fill: #1f77b4"/>
   </g>
   <g id="patch_67">
    <path d="M 340.228832 307.584 
L 344.390149 307.584 
L 344.390149 304.801424 
L 340.228832 304.801424 
z
" clip-path="url(#p78e78154b6)" style="fill: #1f77b4"/>
   </g>
   <g id="patch_68">
    <path d="M 344.390149 307.584 
L 348.551466 307.584 
L 348.551466 305.929496 
L 344.390149 305.929496 
z
" clip-path="url(#p78e78154b6)" style="fill: #1f77b4"/>
   </g>
   <g id="patch_69">
    <path d="M 348.551466 307.584 
L 352.712784 307.584 
L 352.712784 305.553472 
L 348.551466 305.553472 
z
" clip-path="url(#p78e78154b6)" style="fill: #1f77b4"/>
   </g>
   <g id="patch_70">
    <path d="M 352.712784 307.584 
L 356.874101 307.584 
L 356.874101 306.15511 
L 352.712784 306.15511 
z
" clip-path="url(#p78e78154b6)" style="fill: #1f77b4"/>
   </g>
   <g id="patch_71">
    <path d="M 356.874101 307.584 
L 361.035418 307.584 
L 361.035418 305.779086 
L 356.874101 305.779086 
z
" clip-path="url(#p78e78154b6)" style="fill: #1f77b4"/>
   </g>
   <g id="patch_72">
    <path d="M 361.035418 307.584 
L 365.196735 307.584 
L 365.196735 305.703881 
L 361.035418 305.703881 
z
" clip-path="url(#p78e78154b6)" style="fill: #1f77b4"/>
   </g>
   <g id="patch_73">
    <path d="M 365.196735 307.584 
L 369.358052 307.584 
L 369.358052 306.079905 
L 365.196735 306.079905 
z
" clip-path="url(#p78e78154b6)" style="fill: #1f77b4"/>
   </g>
   <g id="patch_74">
    <path d="M 369.358052 307.584 
L 373.51937 307.584 
L 373.51937 306.606338 
L 369.358052 306.606338 
z
" clip-path="url(#p78e78154b6)" style="fill: #1f77b4"/>
   </g>
   <g id="patch_75">
    <path d="M 373.51937 307.584 
L 377.680687 307.584 
L 377.680687 306.305519 
L 373.51937 306.305519 
z
" clip-path="url(#p78e78154b6)" style="fill: #1f77b4"/>
   </g>
   <g id="patch_76">
    <path d="M 377.680687 307.584 
L 381.842004 307.584 
L 381.842004 306.380724 
L 377.680687 306.380724 
z
" clip-path="url(#p78e78154b6)" style="fill: #1f77b4"/>
   </g>
   <g id="patch_77">
    <path d="M 381.842004 307.584 
L 386.003321 307.584 
L 386.003321 306.380724 
L 381.842004 306.380724 
z
" clip-path="url(#p78e78154b6)" style="fill: #1f77b4"/>
   </g>
   <g id="patch_78">
    <path d="M 386.003321 307.584 
L 390.164638 307.584 
L 390.164638 306.531134 
L 386.003321 306.531134 
z
" clip-path="url(#p78e78154b6)" style="fill: #1f77b4"/>
   </g>
   <g id="patch_79">
    <path d="M 390.164638 307.584 
L 394.325956 307.584 
L 394.325956 306.230315 
L 390.164638 306.230315 
z
" clip-path="url(#p78e78154b6)" style="fill: #1f77b4"/>
   </g>
   <g id="patch_80">
    <path d="M 394.325956 307.584 
L 398.487273 307.584 
L 398.487273 305.929496 
L 394.325956 305.929496 
z
" clip-path="url(#p78e78154b6)" style="fill: #1f77b4"/>
   </g>
   <g id="matplotlib.axis_1">
    <g id="xtick_1">
     <g id="line2d_1">
      <defs>
       <path id="mc0f871c605" d="M 0 0 
L 0 3.5 
" style="stroke: #000000; stroke-width: 0.8"/>
      </defs>
      <g>
       <use xlink:href="#mc0f871c605" x="73.832727" y="307.584" style="stroke: #000000; stroke-width: 0.8"/>
      </g>
     </g>
     <g id="text_1">
      <!-- 0 -->
      <g transform="translate(70.651477 322.182437) scale(0.1 -0.1)">
       <defs>
        <path id="DejaVuSans-30" d="M 2034 4250 
Q 1547 4250 1301 3770 
Q 1056 3291 1056 2328 
Q 1056 1369 1301 889 
Q 1547 409 2034 409 
Q 2525 409 2770 889 
Q 3016 1369 3016 2328 
Q 3016 3291 2770 3770 
Q 2525 4250 2034 4250 
z
M 2034 4750 
Q 2819 4750 3233 4129 
Q 3647 3509 3647 2328 
Q 3647 1150 3233 529 
Q 2819 -91 2034 -91 
Q 1250 -91 836 529 
Q 422 1150 422 2328 
Q 422 3509 836 4129 
Q 1250 4750 2034 4750 
z
" transform="scale(0.015625)"/>
       </defs>
       <use xlink:href="#DejaVuSans-30"/>
      </g>
     </g>
    </g>
    <g id="xtick_2">
     <g id="line2d_2">
      <g>
       <use xlink:href="#mc0f871c605" x="127.418464" y="307.584" style="stroke: #000000; stroke-width: 0.8"/>
      </g>
     </g>
     <g id="text_2">
      <!-- 100000 -->
      <g transform="translate(108.330964 322.182437) scale(0.1 -0.1)">
       <defs>
        <path id="DejaVuSans-31" d="M 794 531 
L 1825 531 
L 1825 4091 
L 703 3866 
L 703 4441 
L 1819 4666 
L 2450 4666 
L 2450 531 
L 3481 531 
L 3481 0 
L 794 0 
L 794 531 
z
" transform="scale(0.015625)"/>
       </defs>
       <use xlink:href="#DejaVuSans-31"/>
       <use xlink:href="#DejaVuSans-30" x="63.623047"/>
       <use xlink:href="#DejaVuSans-30" x="127.246094"/>
       <use xlink:href="#DejaVuSans-30" x="190.869141"/>
       <use xlink:href="#DejaVuSans-30" x="254.492188"/>
       <use xlink:href="#DejaVuSans-30" x="318.115234"/>
      </g>
     </g>
    </g>
    <g id="xtick_3">
     <g id="line2d_3">
      <g>
       <use xlink:href="#mc0f871c605" x="181.004201" y="307.584" style="stroke: #000000; stroke-width: 0.8"/>
      </g>
     </g>
     <g id="text_3">
      <!-- 200000 -->
      <g transform="translate(161.916701 322.182437) scale(0.1 -0.1)">
       <defs>
        <path id="DejaVuSans-32" d="M 1228 531 
L 3431 531 
L 3431 0 
L 469 0 
L 469 531 
Q 828 903 1448 1529 
Q 2069 2156 2228 2338 
Q 2531 2678 2651 2914 
Q 2772 3150 2772 3378 
Q 2772 3750 2511 3984 
Q 2250 4219 1831 4219 
Q 1534 4219 1204 4116 
Q 875 4013 500 3803 
L 500 4441 
Q 881 4594 1212 4672 
Q 1544 4750 1819 4750 
Q 2544 4750 2975 4387 
Q 3406 4025 3406 3419 
Q 3406 3131 3298 2873 
Q 3191 2616 2906 2266 
Q 2828 2175 2409 1742 
Q 1991 1309 1228 531 
z
" transform="scale(0.015625)"/>
       </defs>
       <use xlink:href="#DejaVuSans-32"/>
       <use xlink:href="#DejaVuSans-30" x="63.623047"/>
       <use xlink:href="#DejaVuSans-30" x="127.246094"/>
       <use xlink:href="#DejaVuSans-30" x="190.869141"/>
       <use xlink:href="#DejaVuSans-30" x="254.492188"/>
       <use xlink:href="#DejaVuSans-30" x="318.115234"/>
      </g>
     </g>
    </g>
    <g id="xtick_4">
     <g id="line2d_4">
      <g>
       <use xlink:href="#mc0f871c605" x="234.589938" y="307.584" style="stroke: #000000; stroke-width: 0.8"/>
      </g>
     </g>
     <g id="text_4">
      <!-- 300000 -->
      <g transform="translate(215.502438 322.182437) scale(0.1 -0.1)">
       <defs>
        <path id="DejaVuSans-33" d="M 2597 2516 
Q 3050 2419 3304 2112 
Q 3559 1806 3559 1356 
Q 3559 666 3084 287 
Q 2609 -91 1734 -91 
Q 1441 -91 1130 -33 
Q 819 25 488 141 
L 488 750 
Q 750 597 1062 519 
Q 1375 441 1716 441 
Q 2309 441 2620 675 
Q 2931 909 2931 1356 
Q 2931 1769 2642 2001 
Q 2353 2234 1838 2234 
L 1294 2234 
L 1294 2753 
L 1863 2753 
Q 2328 2753 2575 2939 
Q 2822 3125 2822 3475 
Q 2822 3834 2567 4026 
Q 2313 4219 1838 4219 
Q 1578 4219 1281 4162 
Q 984 4106 628 3988 
L 628 4550 
Q 988 4650 1302 4700 
Q 1616 4750 1894 4750 
Q 2613 4750 3031 4423 
Q 3450 4097 3450 3541 
Q 3450 3153 3228 2886 
Q 3006 2619 2597 2516 
z
" transform="scale(0.015625)"/>
       </defs>
       <use xlink:href="#DejaVuSans-33"/>
       <use xlink:href="#DejaVuSans-30" x="63.623047"/>
       <use xlink:href="#DejaVuSans-30" x="127.246094"/>
       <use xlink:href="#DejaVuSans-30" x="190.869141"/>
       <use xlink:href="#DejaVuSans-30" x="254.492188"/>
       <use xlink:href="#DejaVuSans-30" x="318.115234"/>
      </g>
     </g>
    </g>
    <g id="xtick_5">
     <g id="line2d_5">
      <g>
       <use xlink:href="#mc0f871c605" x="288.175675" y="307.584" style="stroke: #000000; stroke-width: 0.8"/>
      </g>
     </g>
     <g id="text_5">
      <!-- 400000 -->
      <g transform="translate(269.088175 322.182437) scale(0.1 -0.1)">
       <defs>
        <path id="DejaVuSans-34" d="M 2419 4116 
L 825 1625 
L 2419 1625 
L 2419 4116 
z
M 2253 4666 
L 3047 4666 
L 3047 1625 
L 3713 1625 
L 3713 1100 
L 3047 1100 
L 3047 0 
L 2419 0 
L 2419 1100 
L 313 1100 
L 313 1709 
L 2253 4666 
z
" transform="scale(0.015625)"/>
       </defs>
       <use xlink:href="#DejaVuSans-34"/>
       <use xlink:href="#DejaVuSans-30" x="63.623047"/>
       <use xlink:href="#DejaVuSans-30" x="127.246094"/>
       <use xlink:href="#DejaVuSans-30" x="190.869141"/>
       <use xlink:href="#DejaVuSans-30" x="254.492188"/>
       <use xlink:href="#DejaVuSans-30" x="318.115234"/>
      </g>
     </g>
    </g>
    <g id="xtick_6">
     <g id="line2d_6">
      <g>
       <use xlink:href="#mc0f871c605" x="341.761412" y="307.584" style="stroke: #000000; stroke-width: 0.8"/>
      </g>
     </g>
     <g id="text_6">
      <!-- 500000 -->
      <g transform="translate(322.673912 322.182437) scale(0.1 -0.1)">
       <defs>
        <path id="DejaVuSans-35" d="M 691 4666 
L 3169 4666 
L 3169 4134 
L 1269 4134 
L 1269 2991 
Q 1406 3038 1543 3061 
Q 1681 3084 1819 3084 
Q 2600 3084 3056 2656 
Q 3513 2228 3513 1497 
Q 3513 744 3044 326 
Q 2575 -91 1722 -91 
Q 1428 -91 1123 -41 
Q 819 9 494 109 
L 494 744 
Q 775 591 1075 516 
Q 1375 441 1709 441 
Q 2250 441 2565 725 
Q 2881 1009 2881 1497 
Q 2881 1984 2565 2268 
Q 2250 2553 1709 2553 
Q 1456 2553 1204 2497 
Q 953 2441 691 2322 
L 691 4666 
z
" transform="scale(0.015625)"/>
       </defs>
       <use xlink:href="#DejaVuSans-35"/>
       <use xlink:href="#DejaVuSans-30" x="63.623047"/>
       <use xlink:href="#DejaVuSans-30" x="127.246094"/>
       <use xlink:href="#DejaVuSans-30" x="190.869141"/>
       <use xlink:href="#DejaVuSans-30" x="254.492188"/>
       <use xlink:href="#DejaVuSans-30" x="318.115234"/>
      </g>
     </g>
    </g>
    <g id="xtick_7">
     <g id="line2d_7">
      <g>
       <use xlink:href="#mc0f871c605" x="395.347149" y="307.584" style="stroke: #000000; stroke-width: 0.8"/>
      </g>
     </g>
     <g id="text_7">
      <!-- 600000 -->
      <g transform="translate(376.259649 322.182437) scale(0.1 -0.1)">
       <defs>
        <path id="DejaVuSans-36" d="M 2113 2584 
Q 1688 2584 1439 2293 
Q 1191 2003 1191 1497 
Q 1191 994 1439 701 
Q 1688 409 2113 409 
Q 2538 409 2786 701 
Q 3034 994 3034 1497 
Q 3034 2003 2786 2293 
Q 2538 2584 2113 2584 
z
M 3366 4563 
L 3366 3988 
Q 3128 4100 2886 4159 
Q 2644 4219 2406 4219 
Q 1781 4219 1451 3797 
Q 1122 3375 1075 2522 
Q 1259 2794 1537 2939 
Q 1816 3084 2150 3084 
Q 2853 3084 3261 2657 
Q 3669 2231 3669 1497 
Q 3669 778 3244 343 
Q 2819 -91 2113 -91 
Q 1303 -91 875 529 
Q 447 1150 447 2328 
Q 447 3434 972 4092 
Q 1497 4750 2381 4750 
Q 2619 4750 2861 4703 
Q 3103 4656 3366 4563 
z
" transform="scale(0.015625)"/>
       </defs>
       <use xlink:href="#DejaVuSans-36"/>
       <use xlink:href="#DejaVuSans-30" x="63.623047"/>
       <use xlink:href="#DejaVuSans-30" x="127.246094"/>
       <use xlink:href="#DejaVuSans-30" x="190.869141"/>
       <use xlink:href="#DejaVuSans-30" x="254.492188"/>
       <use xlink:href="#DejaVuSans-30" x="318.115234"/>
      </g>
     </g>
    </g>
   </g>
   <g id="matplotlib.axis_2">
    <g id="ytick_1">
     <g id="line2d_8">
      <defs>
       <path id="m5c9f8cf886" d="M 0 0 
L -3.5 0 
" style="stroke: #000000; stroke-width: 0.8"/>
      </defs>
      <g>
       <use xlink:href="#m5c9f8cf886" x="57.6" y="307.584" style="stroke: #000000; stroke-width: 0.8"/>
      </g>
     </g>
     <g id="text_8">
      <!-- 0.0 -->
      <g transform="translate(34.696875 311.383219) scale(0.1 -0.1)">
       <defs>
        <path id="DejaVuSans-2e" d="M 684 794 
L 1344 794 
L 1344 0 
L 684 0 
L 684 794 
z
" transform="scale(0.015625)"/>
       </defs>
       <use xlink:href="#DejaVuSans-30"/>
       <use xlink:href="#DejaVuSans-2e" x="63.623047"/>
       <use xlink:href="#DejaVuSans-30" x="95.410156"/>
      </g>
     </g>
    </g>
    <g id="ytick_2">
     <g id="line2d_9">
      <g>
       <use xlink:href="#m5c9f8cf886" x="57.6" y="253.953548" style="stroke: #000000; stroke-width: 0.8"/>
      </g>
     </g>
     <g id="text_9">
      <!-- 0.5 -->
      <g transform="translate(34.696875 257.752767) scale(0.1 -0.1)">
       <use xlink:href="#DejaVuSans-30"/>
       <use xlink:href="#DejaVuSans-2e" x="63.623047"/>
       <use xlink:href="#DejaVuSans-35" x="95.410156"/>
      </g>
     </g>
    </g>
    <g id="ytick_3">
     <g id="line2d_10">
      <g>
       <use xlink:href="#m5c9f8cf886" x="57.6" y="200.323096" style="stroke: #000000; stroke-width: 0.8"/>
      </g>
     </g>
     <g id="text_10">
      <!-- 1.0 -->
      <g transform="translate(34.696875 204.122315) scale(0.1 -0.1)">
       <use xlink:href="#DejaVuSans-31"/>
       <use xlink:href="#DejaVuSans-2e" x="63.623047"/>
       <use xlink:href="#DejaVuSans-30" x="95.410156"/>
      </g>
     </g>
    </g>
    <g id="ytick_4">
     <g id="line2d_11">
      <g>
       <use xlink:href="#m5c9f8cf886" x="57.6" y="146.692644" style="stroke: #000000; stroke-width: 0.8"/>
      </g>
     </g>
     <g id="text_11">
      <!-- 1.5 -->
      <g transform="translate(34.696875 150.491863) scale(0.1 -0.1)">
       <use xlink:href="#DejaVuSans-31"/>
       <use xlink:href="#DejaVuSans-2e" x="63.623047"/>
       <use xlink:href="#DejaVuSans-35" x="95.410156"/>
      </g>
     </g>
    </g>
    <g id="ytick_5">
     <g id="line2d_12">
      <g>
       <use xlink:href="#m5c9f8cf886" x="57.6" y="93.062192" style="stroke: #000000; stroke-width: 0.8"/>
      </g>
     </g>
     <g id="text_12">
      <!-- 2.0 -->
      <g transform="translate(34.696875 96.861411) scale(0.1 -0.1)">
       <use xlink:href="#DejaVuSans-32"/>
       <use xlink:href="#DejaVuSans-2e" x="63.623047"/>
       <use xlink:href="#DejaVuSans-30" x="95.410156"/>
      </g>
     </g>
    </g>
    <g id="text_13">
     <!-- 1e−5 -->
     <g transform="translate(57.6 38.472) scale(0.1 -0.1)">
      <defs>
       <path id="DejaVuSans-65" d="M 3597 1894 
L 3597 1613 
L 953 1613 
Q 991 1019 1311 708 
Q 1631 397 2203 397 
Q 2534 397 2845 478 
Q 3156 559 3463 722 
L 3463 178 
Q 3153 47 2828 -22 
Q 2503 -91 2169 -91 
Q 1331 -91 842 396 
Q 353 884 353 1716 
Q 353 2575 817 3079 
Q 1281 3584 2069 3584 
Q 2775 3584 3186 3129 
Q 3597 2675 3597 1894 
z
M 3022 2063 
Q 3016 2534 2758 2815 
Q 2500 3097 2075 3097 
Q 1594 3097 1305 2825 
Q 1016 2553 972 2059 
L 3022 2063 
z
" transform="scale(0.015625)"/>
       <path id="DejaVuSans-2212" d="M 678 2272 
L 4684 2272 
L 4684 1741 
L 678 1741 
L 678 2272 
z
" transform="scale(0.015625)"/>
      </defs>
      <use xlink:href="#DejaVuSans-31"/>
      <use xlink:href="#DejaVuSans-65" x="63.623047"/>
      <use xlink:href="#DejaVuSans-2212" x="125.146484"/>
      <use xlink:href="#DejaVuSans-35" x="208.935547"/>
     </g>
    </g>
   </g>
   <g id="line2d_13">
    <path d="M 73.832727 307.584 
L 73.834335 307.581951 
L 73.947401 173.624614 
L 74.119947 145.203694 
L 74.247481 143.786919 
L 74.27481 143.815496 
L 74.394842 144.291545 
L 75.56569 150.852058 
L 78.078325 164.08893 
L 80.624184 176.326989 
L 83.178616 187.530502 
L 85.739478 197.776422 
L 88.307842 207.148414 
L 90.885316 215.723988 
L 93.472972 223.5715 
L 96.072952 230.755917 
L 98.687935 237.336887 
L 101.320603 243.36775 
L 103.974168 248.897372 
L 106.652384 253.970323 
L 109.360071 258.627973 
L 112.102589 262.907527 
L 114.886368 266.843064 
L 117.718374 270.464857 
L 120.607717 273.801497 
L 123.564042 276.877769 
L 126.599138 279.716543 
L 129.726402 282.338026 
L 132.961909 284.76057 
L 136.323878 287.000033 
L 139.833744 289.070411 
L 143.516155 290.983611 
L 147.401657 292.750523 
L 151.52508 294.379753 
L 155.929827 295.879045 
L 160.668414 297.254664 
L 165.806214 298.511823 
L 171.427358 299.655079 
L 177.641696 300.688313 
L 184.597125 301.615002 
L 192.499413 302.438468 
L 201.648642 303.162379 
L 212.506184 303.791288 
L 225.830813 304.331597 
L 242.992181 304.7937 
L 266.79443 305.196899 
L 303.958282 305.581949 
L 371.193914 306.027895 
L 398.487273 306.170711 
L 398.487273 306.170711 
" clip-path="url(#p78e78154b6)" style="fill: none; stroke: #ff7f0e; stroke-width: 1.5; stroke-linecap: square"/>
   </g>
   <g id="patch_81">
    <path d="M 57.6 307.584 
L 57.6 41.472 
" style="fill: none; stroke: #000000; stroke-width: 0.8; stroke-linejoin: miter; stroke-linecap: square"/>
   </g>
   <g id="patch_82">
    <path d="M 414.72 307.584 
L 414.72 41.472 
" style="fill: none; stroke: #000000; stroke-width: 0.8; stroke-linejoin: miter; stroke-linecap: square"/>
   </g>
   <g id="patch_83">
    <path d="M 57.6 307.584 
L 414.72 307.584 
" style="fill: none; stroke: #000000; stroke-width: 0.8; stroke-linejoin: miter; stroke-linecap: square"/>
   </g>
   <g id="patch_84">
    <path d="M 57.6 41.472 
L 414.72 41.472 
" style="fill: none; stroke: #000000; stroke-width: 0.8; stroke-linejoin: miter; stroke-linecap: square"/>
   </g>
   <g id="legend_1">
    <g id="patch_85">
     <path d="M 139.191875 64.150125 
L 407.72 64.150125 
Q 409.72 64.150125 409.72 62.150125 
L 409.72 48.472 
Q 409.72 46.472 407.72 46.472 
L 139.191875 46.472 
Q 137.191875 46.472 137.191875 48.472 
L 137.191875 62.150125 
Q 137.191875 64.150125 139.191875 64.150125 
z
" style="fill: #ffffff; opacity: 0.8; stroke: #cccccc; stroke-linejoin: miter"/>
    </g>
    <g id="line2d_14">
     <path d="M 141.191875 54.570438 
L 151.191875 54.570438 
L 161.191875 54.570438 
" style="fill: none; stroke: #ff7f0e; stroke-width: 1.5; stroke-linecap: square"/>
    </g>
    <g id="text_14">
     <!-- states 14 cross entropy: 12.65 sh entropy: 9.76 -->
     <g transform="translate(169.191875 58.070438) scale(0.1 -0.1)">
      <defs>
       <path id="DejaVuSans-73" d="M 2834 3397 
L 2834 2853 
Q 2591 2978 2328 3040 
Q 2066 3103 1784 3103 
Q 1356 3103 1142 2972 
Q 928 2841 928 2578 
Q 928 2378 1081 2264 
Q 1234 2150 1697 2047 
L 1894 2003 
Q 2506 1872 2764 1633 
Q 3022 1394 3022 966 
Q 3022 478 2636 193 
Q 2250 -91 1575 -91 
Q 1294 -91 989 -36 
Q 684 19 347 128 
L 347 722 
Q 666 556 975 473 
Q 1284 391 1588 391 
Q 1994 391 2212 530 
Q 2431 669 2431 922 
Q 2431 1156 2273 1281 
Q 2116 1406 1581 1522 
L 1381 1569 
Q 847 1681 609 1914 
Q 372 2147 372 2553 
Q 372 3047 722 3315 
Q 1072 3584 1716 3584 
Q 2034 3584 2315 3537 
Q 2597 3491 2834 3397 
z
" transform="scale(0.015625)"/>
       <path id="DejaVuSans-74" d="M 1172 4494 
L 1172 3500 
L 2356 3500 
L 2356 3053 
L 1172 3053 
L 1172 1153 
Q 1172 725 1289 603 
Q 1406 481 1766 481 
L 2356 481 
L 2356 0 
L 1766 0 
Q 1100 0 847 248 
Q 594 497 594 1153 
L 594 3053 
L 172 3053 
L 172 3500 
L 594 3500 
L 594 4494 
L 1172 4494 
z
" transform="scale(0.015625)"/>
       <path id="DejaVuSans-61" d="M 2194 1759 
Q 1497 1759 1228 1600 
Q 959 1441 959 1056 
Q 959 750 1161 570 
Q 1363 391 1709 391 
Q 2188 391 2477 730 
Q 2766 1069 2766 1631 
L 2766 1759 
L 2194 1759 
z
M 3341 1997 
L 3341 0 
L 2766 0 
L 2766 531 
Q 2569 213 2275 61 
Q 1981 -91 1556 -91 
Q 1019 -91 701 211 
Q 384 513 384 1019 
Q 384 1609 779 1909 
Q 1175 2209 1959 2209 
L 2766 2209 
L 2766 2266 
Q 2766 2663 2505 2880 
Q 2244 3097 1772 3097 
Q 1472 3097 1187 3025 
Q 903 2953 641 2809 
L 641 3341 
Q 956 3463 1253 3523 
Q 1550 3584 1831 3584 
Q 2591 3584 2966 3190 
Q 3341 2797 3341 1997 
z
" transform="scale(0.015625)"/>
       <path id="DejaVuSans-20" transform="scale(0.015625)"/>
       <path id="DejaVuSans-63" d="M 3122 3366 
L 3122 2828 
Q 2878 2963 2633 3030 
Q 2388 3097 2138 3097 
Q 1578 3097 1268 2742 
Q 959 2388 959 1747 
Q 959 1106 1268 751 
Q 1578 397 2138 397 
Q 2388 397 2633 464 
Q 2878 531 3122 666 
L 3122 134 
Q 2881 22 2623 -34 
Q 2366 -91 2075 -91 
Q 1284 -91 818 406 
Q 353 903 353 1747 
Q 353 2603 823 3093 
Q 1294 3584 2113 3584 
Q 2378 3584 2631 3529 
Q 2884 3475 3122 3366 
z
" transform="scale(0.015625)"/>
       <path id="DejaVuSans-72" d="M 2631 2963 
Q 2534 3019 2420 3045 
Q 2306 3072 2169 3072 
Q 1681 3072 1420 2755 
Q 1159 2438 1159 1844 
L 1159 0 
L 581 0 
L 581 3500 
L 1159 3500 
L 1159 2956 
Q 1341 3275 1631 3429 
Q 1922 3584 2338 3584 
Q 2397 3584 2469 3576 
Q 2541 3569 2628 3553 
L 2631 2963 
z
" transform="scale(0.015625)"/>
       <path id="DejaVuSans-6f" d="M 1959 3097 
Q 1497 3097 1228 2736 
Q 959 2375 959 1747 
Q 959 1119 1226 758 
Q 1494 397 1959 397 
Q 2419 397 2687 759 
Q 2956 1122 2956 1747 
Q 2956 2369 2687 2733 
Q 2419 3097 1959 3097 
z
M 1959 3584 
Q 2709 3584 3137 3096 
Q 3566 2609 3566 1747 
Q 3566 888 3137 398 
Q 2709 -91 1959 -91 
Q 1206 -91 779 398 
Q 353 888 353 1747 
Q 353 2609 779 3096 
Q 1206 3584 1959 3584 
z
" transform="scale(0.015625)"/>
       <path id="DejaVuSans-6e" d="M 3513 2113 
L 3513 0 
L 2938 0 
L 2938 2094 
Q 2938 2591 2744 2837 
Q 2550 3084 2163 3084 
Q 1697 3084 1428 2787 
Q 1159 2491 1159 1978 
L 1159 0 
L 581 0 
L 581 3500 
L 1159 3500 
L 1159 2956 
Q 1366 3272 1645 3428 
Q 1925 3584 2291 3584 
Q 2894 3584 3203 3211 
Q 3513 2838 3513 2113 
z
" transform="scale(0.015625)"/>
       <path id="DejaVuSans-70" d="M 1159 525 
L 1159 -1331 
L 581 -1331 
L 581 3500 
L 1159 3500 
L 1159 2969 
Q 1341 3281 1617 3432 
Q 1894 3584 2278 3584 
Q 2916 3584 3314 3078 
Q 3713 2572 3713 1747 
Q 3713 922 3314 415 
Q 2916 -91 2278 -91 
Q 1894 -91 1617 61 
Q 1341 213 1159 525 
z
M 3116 1747 
Q 3116 2381 2855 2742 
Q 2594 3103 2138 3103 
Q 1681 3103 1420 2742 
Q 1159 2381 1159 1747 
Q 1159 1113 1420 752 
Q 1681 391 2138 391 
Q 2594 391 2855 752 
Q 3116 1113 3116 1747 
z
" transform="scale(0.015625)"/>
       <path id="DejaVuSans-79" d="M 2059 -325 
Q 1816 -950 1584 -1140 
Q 1353 -1331 966 -1331 
L 506 -1331 
L 506 -850 
L 844 -850 
Q 1081 -850 1212 -737 
Q 1344 -625 1503 -206 
L 1606 56 
L 191 3500 
L 800 3500 
L 1894 763 
L 2988 3500 
L 3597 3500 
L 2059 -325 
z
" transform="scale(0.015625)"/>
       <path id="DejaVuSans-3a" d="M 750 794 
L 1409 794 
L 1409 0 
L 750 0 
L 750 794 
z
M 750 3309 
L 1409 3309 
L 1409 2516 
L 750 2516 
L 750 3309 
z
" transform="scale(0.015625)"/>
       <path id="DejaVuSans-68" d="M 3513 2113 
L 3513 0 
L 2938 0 
L 2938 2094 
Q 2938 2591 2744 2837 
Q 2550 3084 2163 3084 
Q 1697 3084 1428 2787 
Q 1159 2491 1159 1978 
L 1159 0 
L 581 0 
L 581 4863 
L 1159 4863 
L 1159 2956 
Q 1366 3272 1645 3428 
Q 1925 3584 2291 3584 
Q 2894 3584 3203 3211 
Q 3513 2838 3513 2113 
z
" transform="scale(0.015625)"/>
       <path id="DejaVuSans-39" d="M 703 97 
L 703 672 
Q 941 559 1184 500 
Q 1428 441 1663 441 
Q 2288 441 2617 861 
Q 2947 1281 2994 2138 
Q 2813 1869 2534 1725 
Q 2256 1581 1919 1581 
Q 1219 1581 811 2004 
Q 403 2428 403 3163 
Q 403 3881 828 4315 
Q 1253 4750 1959 4750 
Q 2769 4750 3195 4129 
Q 3622 3509 3622 2328 
Q 3622 1225 3098 567 
Q 2575 -91 1691 -91 
Q 1453 -91 1209 -44 
Q 966 3 703 97 
z
M 1959 2075 
Q 2384 2075 2632 2365 
Q 2881 2656 2881 3163 
Q 2881 3666 2632 3958 
Q 2384 4250 1959 4250 
Q 1534 4250 1286 3958 
Q 1038 3666 1038 3163 
Q 1038 2656 1286 2365 
Q 1534 2075 1959 2075 
z
" transform="scale(0.015625)"/>
       <path id="DejaVuSans-37" d="M 525 4666 
L 3525 4666 
L 3525 4397 
L 1831 0 
L 1172 0 
L 2766 4134 
L 525 4134 
L 525 4666 
z
" transform="scale(0.015625)"/>
      </defs>
      <use xlink:href="#DejaVuSans-73"/>
      <use xlink:href="#DejaVuSans-74" x="52.099609"/>
      <use xlink:href="#DejaVuSans-61" x="91.308594"/>
      <use xlink:href="#DejaVuSans-74" x="152.587891"/>
      <use xlink:href="#DejaVuSans-65" x="191.796875"/>
      <use xlink:href="#DejaVuSans-73" x="253.320312"/>
      <use xlink:href="#DejaVuSans-20" x="305.419922"/>
      <use xlink:href="#DejaVuSans-31" x="337.207031"/>
      <use xlink:href="#DejaVuSans-34" x="400.830078"/>
      <use xlink:href="#DejaVuSans-20" x="464.453125"/>
      <use xlink:href="#DejaVuSans-63" x="496.240234"/>
      <use xlink:href="#DejaVuSans-72" x="551.220703"/>
      <use xlink:href="#DejaVuSans-6f" x="590.083984"/>
      <use xlink:href="#DejaVuSans-73" x="651.265625"/>
      <use xlink:href="#DejaVuSans-73" x="703.365234"/>
      <use xlink:href="#DejaVuSans-20" x="755.464844"/>
      <use xlink:href="#DejaVuSans-65" x="787.251953"/>
      <use xlink:href="#DejaVuSans-6e" x="848.775391"/>
      <use xlink:href="#DejaVuSans-74" x="912.154297"/>
      <use xlink:href="#DejaVuSans-72" x="951.363281"/>
      <use xlink:href="#DejaVuSans-6f" x="990.226562"/>
      <use xlink:href="#DejaVuSans-70" x="1051.408203"/>
      <use xlink:href="#DejaVuSans-79" x="1114.884766"/>
      <use xlink:href="#DejaVuSans-3a" x="1166.814453"/>
      <use xlink:href="#DejaVuSans-20" x="1200.505859"/>
      <use xlink:href="#DejaVuSans-31" x="1232.292969"/>
      <use xlink:href="#DejaVuSans-32" x="1295.916016"/>
      <use xlink:href="#DejaVuSans-2e" x="1359.539062"/>
      <use xlink:href="#DejaVuSans-36" x="1391.326172"/>
      <use xlink:href="#DejaVuSans-35" x="1454.949219"/>
      <use xlink:href="#DejaVuSans-20" x="1518.572266"/>
      <use xlink:href="#DejaVuSans-73" x="1550.359375"/>
      <use xlink:href="#DejaVuSans-68" x="1602.458984"/>
      <use xlink:href="#DejaVuSans-20" x="1665.837891"/>
      <use xlink:href="#DejaVuSans-65" x="1697.625"/>
      <use xlink:href="#DejaVuSans-6e" x="1759.148438"/>
      <use xlink:href="#DejaVuSans-74" x="1822.527344"/>
      <use xlink:href="#DejaVuSans-72" x="1861.736328"/>
      <use xlink:href="#DejaVuSans-6f" x="1900.599609"/>
      <use xlink:href="#DejaVuSans-70" x="1961.78125"/>
      <use xlink:href="#DejaVuSans-79" x="2025.257812"/>
      <use xlink:href="#DejaVuSans-3a" x="2077.1875"/>
      <use xlink:href="#DejaVuSans-20" x="2110.878906"/>
      <use xlink:href="#DejaVuSans-39" x="2142.666016"/>
      <use xlink:href="#DejaVuSans-2e" x="2206.289062"/>
      <use xlink:href="#DejaVuSans-37" x="2238.076172"/>
      <use xlink:href="#DejaVuSans-36" x="2301.699219"/>
     </g>
    </g>
   </g>
  </g>
 </g>
 <defs>
  <clipPath id="p78e78154b6">
   <rect x="57.6" y="41.472" width="357.12" height="266.112"/>
  </clipPath>
 </defs>
</svg>
