<?xml version="1.0" encoding="utf-8" standalone="no"?>
<!DOCTYPE svg PUBLIC "-//W3C//DTD SVG 1.1//EN"
  "http://www.w3.org/Graphics/SVG/1.1/DTD/svg11.dtd">
<svg xmlns:xlink="http://www.w3.org/1999/xlink" width="460.8pt" height="345.6pt" viewBox="0 0 460.8 345.6" xmlns="http://www.w3.org/2000/svg" version="1.1">
 <metadata>
  <rdf:RDF xmlns:dc="http://purl.org/dc/elements/1.1/" xmlns:cc="http://creativecommons.org/ns#" xmlns:rdf="http://www.w3.org/1999/02/22-rdf-syntax-ns#">
   <cc:Work>
    <dc:type rdf:resource="http://purl.org/dc/dcmitype/StillImage"/>
    <dc:date>2024-04-30T22:33:43.723573</dc:date>
    <dc:format>image/svg+xml</dc:format>
    <dc:creator>
     <cc:Agent>
      <dc:title>Matplotlib v3.8.4, https://matplotlib.org/</dc:title>
     </cc:Agent>
    </dc:creator>
   </cc:Work>
  </rdf:RDF>
 </metadata>
 <defs>
  <style type="text/css">*{stroke-linejoin: round; stroke-linecap: butt}</style>
 </defs>
 <g id="figure_1">
  <g id="patch_1">
   <path d="M 0 345.6 
L 460.8 345.6 
L 460.8 0 
L 0 0 
z
" style="fill: #ffffff"/>
  </g>
  <g id="axes_1">
   <g id="patch_2">
    <path d="M 57.6 307.584 
L 414.72 307.584 
L 414.72 41.472 
L 57.6 41.472 
z
" style="fill: #ffffff"/>
   </g>
   <g id="patch_3">
    <path d="M 80.588418 307.584 
L 86.368398 307.584 
L 86.368398 291.106764 
L 80.588418 291.106764 
z
" clip-path="url(#p650572162f)" style="fill: #1f77b4"/>
   </g>
   <g id="patch_4">
    <path d="M 86.368398 307.584 
L 92.148377 307.584 
L 92.148377 259.308589 
L 86.368398 259.308589 
z
" clip-path="url(#p650572162f)" style="fill: #1f77b4"/>
   </g>
   <g id="patch_5">
    <path d="M 92.148377 307.584 
L 97.928356 307.584 
L 97.928356 168.539253 
L 92.148377 168.539253 
z
" clip-path="url(#p650572162f)" style="fill: #1f77b4"/>
   </g>
   <g id="patch_6">
    <path d="M 97.928356 307.584 
L 103.708335 307.584 
L 103.708335 138.18645 
L 97.928356 138.18645 
z
" clip-path="url(#p650572162f)" style="fill: #1f77b4"/>
   </g>
   <g id="patch_7">
    <path d="M 103.708335 307.584 
L 109.488314 307.584 
L 109.488314 124.310883 
L 103.708335 124.310883 
z
" clip-path="url(#p650572162f)" style="fill: #1f77b4"/>
   </g>
   <g id="patch_8">
    <path d="M 109.488314 307.584 
L 115.268293 307.584 
L 115.268293 82.106032 
L 109.488314 82.106032 
z
" clip-path="url(#p650572162f)" style="fill: #1f77b4"/>
   </g>
   <g id="patch_9">
    <path d="M 115.268293 307.584 
L 121.048273 307.584 
L 121.048273 103.786606 
L 115.268293 103.786606 
z
" clip-path="url(#p650572162f)" style="fill: #1f77b4"/>
   </g>
   <g id="patch_10">
    <path d="M 121.048273 307.584 
L 126.828252 307.584 
L 126.828252 92.512708 
L 121.048273 92.512708 
z
" clip-path="url(#p650572162f)" style="fill: #1f77b4"/>
   </g>
   <g id="patch_11">
    <path d="M 126.828252 307.584 
L 132.608231 307.584 
L 132.608231 88.176593 
L 126.828252 88.176593 
z
" clip-path="url(#p650572162f)" style="fill: #1f77b4"/>
   </g>
   <g id="patch_12">
    <path d="M 132.608231 307.584 
L 138.38821 307.584 
L 138.38821 101.474011 
L 132.608231 101.474011 
z
" clip-path="url(#p650572162f)" style="fill: #1f77b4"/>
   </g>
   <g id="patch_13">
    <path d="M 138.38821 307.584 
L 144.168189 307.584 
L 144.168189 87.30937 
L 138.38821 87.30937 
z
" clip-path="url(#p650572162f)" style="fill: #1f77b4"/>
   </g>
   <g id="patch_14">
    <path d="M 144.168189 307.584 
L 149.948168 307.584 
L 149.948168 81.816958 
L 144.168189 81.816958 
z
" clip-path="url(#p650572162f)" style="fill: #1f77b4"/>
   </g>
   <g id="patch_15">
    <path d="M 149.948168 307.584 
L 155.728148 307.584 
L 155.728148 84.129552 
L 149.948168 84.129552 
z
" clip-path="url(#p650572162f)" style="fill: #1f77b4"/>
   </g>
   <g id="patch_16">
    <path d="M 155.728148 307.584 
L 161.508127 307.584 
L 161.508127 72.277505 
L 155.728148 72.277505 
z
" clip-path="url(#p650572162f)" style="fill: #1f77b4"/>
   </g>
   <g id="patch_17">
    <path d="M 161.508127 307.584 
L 167.288106 307.584 
L 167.288106 65.050647 
L 161.508127 65.050647 
z
" clip-path="url(#p650572162f)" style="fill: #1f77b4"/>
   </g>
   <g id="patch_18">
    <path d="M 167.288106 307.584 
L 173.068085 307.584 
L 173.068085 92.223633 
L 167.288106 92.223633 
z
" clip-path="url(#p650572162f)" style="fill: #1f77b4"/>
   </g>
   <g id="patch_19">
    <path d="M 173.068085 307.584 
L 178.848064 307.584 
L 178.848064 92.512708 
L 173.068085 92.512708 
z
" clip-path="url(#p650572162f)" style="fill: #1f77b4"/>
   </g>
   <g id="patch_20">
    <path d="M 178.848064 307.584 
L 184.628043 307.584 
L 184.628043 105.810126 
L 178.848064 105.810126 
z
" clip-path="url(#p650572162f)" style="fill: #1f77b4"/>
   </g>
   <g id="patch_21">
    <path d="M 184.628043 307.584 
L 190.408023 307.584 
L 190.408023 110.72439 
L 184.628043 110.72439 
z
" clip-path="url(#p650572162f)" style="fill: #1f77b4"/>
   </g>
   <g id="patch_22">
    <path d="M 190.408023 307.584 
L 196.188002 307.584 
L 196.188002 126.045328 
L 190.408023 126.045328 
z
" clip-path="url(#p650572162f)" style="fill: #1f77b4"/>
   </g>
   <g id="patch_23">
    <path d="M 196.188002 307.584 
L 201.967981 307.584 
L 201.967981 139.920896 
L 196.188002 139.920896 
z
" clip-path="url(#p650572162f)" style="fill: #1f77b4"/>
   </g>
   <g id="patch_24">
    <path d="M 201.967981 307.584 
L 207.74796 307.584 
L 207.74796 147.725902 
L 201.967981 147.725902 
z
" clip-path="url(#p650572162f)" style="fill: #1f77b4"/>
   </g>
   <g id="patch_25">
    <path d="M 207.74796 307.584 
L 213.527939 307.584 
L 213.527939 156.109058 
L 207.74796 156.109058 
z
" clip-path="url(#p650572162f)" style="fill: #1f77b4"/>
   </g>
   <g id="patch_26">
    <path d="M 213.527939 307.584 
L 219.307918 307.584 
L 219.307918 180.680375 
L 213.527939 180.680375 
z
" clip-path="url(#p650572162f)" style="fill: #1f77b4"/>
   </g>
   <g id="patch_27">
    <path d="M 219.307918 307.584 
L 225.087898 307.584 
L 225.087898 176.34426 
L 219.307918 176.34426 
z
" clip-path="url(#p650572162f)" style="fill: #1f77b4"/>
   </g>
   <g id="patch_28">
    <path d="M 225.087898 307.584 
L 230.867877 307.584 
L 230.867877 194.845016 
L 225.087898 194.845016 
z
" clip-path="url(#p650572162f)" style="fill: #1f77b4"/>
   </g>
   <g id="patch_29">
    <path d="M 230.867877 307.584 
L 236.647856 307.584 
L 236.647856 212.189475 
L 230.867877 212.189475 
z
" clip-path="url(#p650572162f)" style="fill: #1f77b4"/>
   </g>
   <g id="patch_30">
    <path d="M 236.647856 307.584 
L 242.427835 307.584 
L 242.427835 214.791144 
L 236.647856 214.791144 
z
" clip-path="url(#p650572162f)" style="fill: #1f77b4"/>
   </g>
   <g id="patch_31">
    <path d="M 242.427835 307.584 
L 248.207814 307.584 
L 248.207814 227.510414 
L 242.427835 227.510414 
z
" clip-path="url(#p650572162f)" style="fill: #1f77b4"/>
   </g>
   <g id="patch_32">
    <path d="M 248.207814 307.584 
L 253.987794 307.584 
L 253.987794 238.206164 
L 248.207814 238.206164 
z
" clip-path="url(#p650572162f)" style="fill: #1f77b4"/>
   </g>
   <g id="patch_33">
    <path d="M 253.987794 307.584 
L 259.767773 307.584 
L 259.767773 245.143947 
L 253.987794 245.143947 
z
" clip-path="url(#p650572162f)" style="fill: #1f77b4"/>
   </g>
   <g id="patch_34">
    <path d="M 259.767773 307.584 
L 265.547752 307.584 
L 265.547752 248.323765 
L 259.767773 248.323765 
z
" clip-path="url(#p650572162f)" style="fill: #1f77b4"/>
   </g>
   <g id="patch_35">
    <path d="M 265.547752 307.584 
L 271.327731 307.584 
L 271.327731 251.214508 
L 265.547752 251.214508 
z
" clip-path="url(#p650572162f)" style="fill: #1f77b4"/>
   </g>
   <g id="patch_36">
    <path d="M 271.327731 307.584 
L 277.10771 307.584 
L 277.10771 258.73044 
L 271.327731 258.73044 
z
" clip-path="url(#p650572162f)" style="fill: #1f77b4"/>
   </g>
   <g id="patch_37">
    <path d="M 277.10771 307.584 
L 282.887689 307.584 
L 282.887689 266.824521 
L 277.10771 266.824521 
z
" clip-path="url(#p650572162f)" style="fill: #1f77b4"/>
   </g>
   <g id="patch_38">
    <path d="M 282.887689 307.584 
L 288.667669 307.584 
L 288.667669 274.918602 
L 282.887689 274.918602 
z
" clip-path="url(#p650572162f)" style="fill: #1f77b4"/>
   </g>
   <g id="patch_39">
    <path d="M 288.667669 307.584 
L 294.447648 307.584 
L 294.447648 271.160636 
L 288.667669 271.160636 
z
" clip-path="url(#p650572162f)" style="fill: #1f77b4"/>
   </g>
   <g id="patch_40">
    <path d="M 294.447648 307.584 
L 300.227627 307.584 
L 300.227627 280.411014 
L 294.447648 280.411014 
z
" clip-path="url(#p650572162f)" style="fill: #1f77b4"/>
   </g>
   <g id="patch_41">
    <path d="M 300.227627 307.584 
L 306.007606 307.584 
L 306.007606 289.661392 
L 300.227627 289.661392 
z
" clip-path="url(#p650572162f)" style="fill: #1f77b4"/>
   </g>
   <g id="patch_42">
    <path d="M 306.007606 307.584 
L 311.787585 307.584 
L 311.787585 283.301757 
L 306.007606 283.301757 
z
" clip-path="url(#p650572162f)" style="fill: #1f77b4"/>
   </g>
   <g id="patch_43">
    <path d="M 311.787585 307.584 
L 317.567564 307.584 
L 317.567564 283.879906 
L 311.787585 283.879906 
z
" clip-path="url(#p650572162f)" style="fill: #1f77b4"/>
   </g>
   <g id="patch_44">
    <path d="M 317.567564 307.584 
L 323.347544 307.584 
L 323.347544 287.348798 
L 317.567564 287.348798 
z
" clip-path="url(#p650572162f)" style="fill: #1f77b4"/>
   </g>
   <g id="patch_45">
    <path d="M 323.347544 307.584 
L 329.127523 307.584 
L 329.127523 293.708433 
L 323.347544 293.708433 
z
" clip-path="url(#p650572162f)" style="fill: #1f77b4"/>
   </g>
   <g id="patch_46">
    <path d="M 329.127523 307.584 
L 334.907502 307.584 
L 334.907502 291.973987 
L 329.127523 291.973987 
z
" clip-path="url(#p650572162f)" style="fill: #1f77b4"/>
   </g>
   <g id="patch_47">
    <path d="M 334.907502 307.584 
L 340.687481 307.584 
L 340.687481 293.130284 
L 334.907502 293.130284 
z
" clip-path="url(#p650572162f)" style="fill: #1f77b4"/>
   </g>
   <g id="patch_48">
    <path d="M 340.687481 307.584 
L 346.46746 307.584 
L 346.46746 297.177325 
L 340.687481 297.177325 
z
" clip-path="url(#p650572162f)" style="fill: #1f77b4"/>
   </g>
   <g id="patch_49">
    <path d="M 346.46746 307.584 
L 352.247439 307.584 
L 352.247439 297.755473 
L 346.46746 297.755473 
z
" clip-path="url(#p650572162f)" style="fill: #1f77b4"/>
   </g>
   <g id="patch_50">
    <path d="M 352.247439 307.584 
L 358.027419 307.584 
L 358.027419 297.466399 
L 352.247439 297.466399 
z
" clip-path="url(#p650572162f)" style="fill: #1f77b4"/>
   </g>
   <g id="patch_51">
    <path d="M 358.027419 307.584 
L 363.807398 307.584 
L 363.807398 299.489919 
L 358.027419 299.489919 
z
" clip-path="url(#p650572162f)" style="fill: #1f77b4"/>
   </g>
   <g id="patch_52">
    <path d="M 363.807398 307.584 
L 369.587377 307.584 
L 369.587377 301.513439 
L 363.807398 301.513439 
z
" clip-path="url(#p650572162f)" style="fill: #1f77b4"/>
   </g>
   <g id="patch_53">
    <path d="M 369.587377 307.584 
L 375.367356 307.584 
L 375.367356 302.380662 
L 369.587377 302.380662 
z
" clip-path="url(#p650572162f)" style="fill: #1f77b4"/>
   </g>
   <g id="patch_54">
    <path d="M 375.367356 307.584 
L 381.147335 307.584 
L 381.147335 297.755473 
L 375.367356 297.755473 
z
" clip-path="url(#p650572162f)" style="fill: #1f77b4"/>
   </g>
   <g id="patch_55">
    <path d="M 381.147335 307.584 
L 386.927314 307.584 
L 386.927314 302.091588 
L 381.147335 302.091588 
z
" clip-path="url(#p650572162f)" style="fill: #1f77b4"/>
   </g>
   <g id="patch_56">
    <path d="M 386.927314 307.584 
L 392.707294 307.584 
L 392.707294 302.669737 
L 386.927314 302.669737 
z
" clip-path="url(#p650572162f)" style="fill: #1f77b4"/>
   </g>
   <g id="patch_57">
    <path d="M 392.707294 307.584 
L 398.487273 307.584 
L 398.487273 303.53696 
L 392.707294 303.53696 
z
" clip-path="url(#p650572162f)" style="fill: #1f77b4"/>
   </g>
   <g id="matplotlib.axis_1">
    <g id="xtick_1">
     <g id="line2d_1">
      <defs>
       <path id="ma2473fada5" d="M 0 0 
L 0 3.5 
" style="stroke: #000000; stroke-width: 0.8"/>
      </defs>
      <g>
       <use xlink:href="#ma2473fada5" x="73.832727" y="307.584" style="stroke: #000000; stroke-width: 0.8"/>
      </g>
     </g>
     <g id="text_1">
      <!-- 0 -->
      <g transform="translate(70.651477 322.182437) scale(0.1 -0.1)">
       <defs>
        <path id="DejaVuSans-30" d="M 2034 4250 
Q 1547 4250 1301 3770 
Q 1056 3291 1056 2328 
Q 1056 1369 1301 889 
Q 1547 409 2034 409 
Q 2525 409 2770 889 
Q 3016 1369 3016 2328 
Q 3016 3291 2770 3770 
Q 2525 4250 2034 4250 
z
M 2034 4750 
Q 2819 4750 3233 4129 
Q 3647 3509 3647 2328 
Q 3647 1150 3233 529 
Q 2819 -91 2034 -91 
Q 1250 -91 836 529 
Q 422 1150 422 2328 
Q 422 3509 836 4129 
Q 1250 4750 2034 4750 
z
" transform="scale(0.015625)"/>
       </defs>
       <use xlink:href="#DejaVuSans-30"/>
      </g>
     </g>
    </g>
    <g id="xtick_2">
     <g id="line2d_2">
      <g>
       <use xlink:href="#ma2473fada5" x="128.314108" y="307.584" style="stroke: #000000; stroke-width: 0.8"/>
      </g>
     </g>
     <g id="text_2">
      <!-- 1000 -->
      <g transform="translate(115.589108 322.182437) scale(0.1 -0.1)">
       <defs>
        <path id="DejaVuSans-31" d="M 794 531 
L 1825 531 
L 1825 4091 
L 703 3866 
L 703 4441 
L 1819 4666 
L 2450 4666 
L 2450 531 
L 3481 531 
L 3481 0 
L 794 0 
L 794 531 
z
" transform="scale(0.015625)"/>
       </defs>
       <use xlink:href="#DejaVuSans-31"/>
       <use xlink:href="#DejaVuSans-30" x="63.623047"/>
       <use xlink:href="#DejaVuSans-30" x="127.246094"/>
       <use xlink:href="#DejaVuSans-30" x="190.869141"/>
      </g>
     </g>
    </g>
    <g id="xtick_3">
     <g id="line2d_3">
      <g>
       <use xlink:href="#ma2473fada5" x="182.795488" y="307.584" style="stroke: #000000; stroke-width: 0.8"/>
      </g>
     </g>
     <g id="text_3">
      <!-- 2000 -->
      <g transform="translate(170.070488 322.182437) scale(0.1 -0.1)">
       <defs>
        <path id="DejaVuSans-32" d="M 1228 531 
L 3431 531 
L 3431 0 
L 469 0 
L 469 531 
Q 828 903 1448 1529 
Q 2069 2156 2228 2338 
Q 2531 2678 2651 2914 
Q 2772 3150 2772 3378 
Q 2772 3750 2511 3984 
Q 2250 4219 1831 4219 
Q 1534 4219 1204 4116 
Q 875 4013 500 3803 
L 500 4441 
Q 881 4594 1212 4672 
Q 1544 4750 1819 4750 
Q 2544 4750 2975 4387 
Q 3406 4025 3406 3419 
Q 3406 3131 3298 2873 
Q 3191 2616 2906 2266 
Q 2828 2175 2409 1742 
Q 1991 1309 1228 531 
z
" transform="scale(0.015625)"/>
       </defs>
       <use xlink:href="#DejaVuSans-32"/>
       <use xlink:href="#DejaVuSans-30" x="63.623047"/>
       <use xlink:href="#DejaVuSans-30" x="127.246094"/>
       <use xlink:href="#DejaVuSans-30" x="190.869141"/>
      </g>
     </g>
    </g>
    <g id="xtick_4">
     <g id="line2d_4">
      <g>
       <use xlink:href="#ma2473fada5" x="237.276868" y="307.584" style="stroke: #000000; stroke-width: 0.8"/>
      </g>
     </g>
     <g id="text_4">
      <!-- 3000 -->
      <g transform="translate(224.551868 322.182437) scale(0.1 -0.1)">
       <defs>
        <path id="DejaVuSans-33" d="M 2597 2516 
Q 3050 2419 3304 2112 
Q 3559 1806 3559 1356 
Q 3559 666 3084 287 
Q 2609 -91 1734 -91 
Q 1441 -91 1130 -33 
Q 819 25 488 141 
L 488 750 
Q 750 597 1062 519 
Q 1375 441 1716 441 
Q 2309 441 2620 675 
Q 2931 909 2931 1356 
Q 2931 1769 2642 2001 
Q 2353 2234 1838 2234 
L 1294 2234 
L 1294 2753 
L 1863 2753 
Q 2328 2753 2575 2939 
Q 2822 3125 2822 3475 
Q 2822 3834 2567 4026 
Q 2313 4219 1838 4219 
Q 1578 4219 1281 4162 
Q 984 4106 628 3988 
L 628 4550 
Q 988 4650 1302 4700 
Q 1616 4750 1894 4750 
Q 2613 4750 3031 4423 
Q 3450 4097 3450 3541 
Q 3450 3153 3228 2886 
Q 3006 2619 2597 2516 
z
" transform="scale(0.015625)"/>
       </defs>
       <use xlink:href="#DejaVuSans-33"/>
       <use xlink:href="#DejaVuSans-30" x="63.623047"/>
       <use xlink:href="#DejaVuSans-30" x="127.246094"/>
       <use xlink:href="#DejaVuSans-30" x="190.869141"/>
      </g>
     </g>
    </g>
    <g id="xtick_5">
     <g id="line2d_5">
      <g>
       <use xlink:href="#ma2473fada5" x="291.758249" y="307.584" style="stroke: #000000; stroke-width: 0.8"/>
      </g>
     </g>
     <g id="text_5">
      <!-- 4000 -->
      <g transform="translate(279.033249 322.182437) scale(0.1 -0.1)">
       <defs>
        <path id="DejaVuSans-34" d="M 2419 4116 
L 825 1625 
L 2419 1625 
L 2419 4116 
z
M 2253 4666 
L 3047 4666 
L 3047 1625 
L 3713 1625 
L 3713 1100 
L 3047 1100 
L 3047 0 
L 2419 0 
L 2419 1100 
L 313 1100 
L 313 1709 
L 2253 4666 
z
" transform="scale(0.015625)"/>
       </defs>
       <use xlink:href="#DejaVuSans-34"/>
       <use xlink:href="#DejaVuSans-30" x="63.623047"/>
       <use xlink:href="#DejaVuSans-30" x="127.246094"/>
       <use xlink:href="#DejaVuSans-30" x="190.869141"/>
      </g>
     </g>
    </g>
    <g id="xtick_6">
     <g id="line2d_6">
      <g>
       <use xlink:href="#ma2473fada5" x="346.239629" y="307.584" style="stroke: #000000; stroke-width: 0.8"/>
      </g>
     </g>
     <g id="text_6">
      <!-- 5000 -->
      <g transform="translate(333.514629 322.182437) scale(0.1 -0.1)">
       <defs>
        <path id="DejaVuSans-35" d="M 691 4666 
L 3169 4666 
L 3169 4134 
L 1269 4134 
L 1269 2991 
Q 1406 3038 1543 3061 
Q 1681 3084 1819 3084 
Q 2600 3084 3056 2656 
Q 3513 2228 3513 1497 
Q 3513 744 3044 326 
Q 2575 -91 1722 -91 
Q 1428 -91 1123 -41 
Q 819 9 494 109 
L 494 744 
Q 775 591 1075 516 
Q 1375 441 1709 441 
Q 2250 441 2565 725 
Q 2881 1009 2881 1497 
Q 2881 1984 2565 2268 
Q 2250 2553 1709 2553 
Q 1456 2553 1204 2497 
Q 953 2441 691 2322 
L 691 4666 
z
" transform="scale(0.015625)"/>
       </defs>
       <use xlink:href="#DejaVuSans-35"/>
       <use xlink:href="#DejaVuSans-30" x="63.623047"/>
       <use xlink:href="#DejaVuSans-30" x="127.246094"/>
       <use xlink:href="#DejaVuSans-30" x="190.869141"/>
      </g>
     </g>
    </g>
    <g id="xtick_7">
     <g id="line2d_7">
      <g>
       <use xlink:href="#ma2473fada5" x="400.721009" y="307.584" style="stroke: #000000; stroke-width: 0.8"/>
      </g>
     </g>
     <g id="text_7">
      <!-- 6000 -->
      <g transform="translate(387.996009 322.182437) scale(0.1 -0.1)">
       <defs>
        <path id="DejaVuSans-36" d="M 2113 2584 
Q 1688 2584 1439 2293 
Q 1191 2003 1191 1497 
Q 1191 994 1439 701 
Q 1688 409 2113 409 
Q 2538 409 2786 701 
Q 3034 994 3034 1497 
Q 3034 2003 2786 2293 
Q 2538 2584 2113 2584 
z
M 3366 4563 
L 3366 3988 
Q 3128 4100 2886 4159 
Q 2644 4219 2406 4219 
Q 1781 4219 1451 3797 
Q 1122 3375 1075 2522 
Q 1259 2794 1537 2939 
Q 1816 3084 2150 3084 
Q 2853 3084 3261 2657 
Q 3669 2231 3669 1497 
Q 3669 778 3244 343 
Q 2819 -91 2113 -91 
Q 1303 -91 875 529 
Q 447 1150 447 2328 
Q 447 3434 972 4092 
Q 1497 4750 2381 4750 
Q 2619 4750 2861 4703 
Q 3103 4656 3366 4563 
z
" transform="scale(0.015625)"/>
       </defs>
       <use xlink:href="#DejaVuSans-36"/>
       <use xlink:href="#DejaVuSans-30" x="63.623047"/>
       <use xlink:href="#DejaVuSans-30" x="127.246094"/>
       <use xlink:href="#DejaVuSans-30" x="190.869141"/>
      </g>
     </g>
    </g>
   </g>
   <g id="matplotlib.axis_2">
    <g id="ytick_1">
     <g id="line2d_8">
      <defs>
       <path id="m4c902b5b00" d="M 0 0 
L -3.5 0 
" style="stroke: #000000; stroke-width: 0.8"/>
      </defs>
      <g>
       <use xlink:href="#m4c902b5b00" x="57.6" y="307.584" style="stroke: #000000; stroke-width: 0.8"/>
      </g>
     </g>
     <g id="text_8">
      <!-- 0.0000 -->
      <g transform="translate(15.609375 311.383219) scale(0.1 -0.1)">
       <defs>
        <path id="DejaVuSans-2e" d="M 684 794 
L 1344 794 
L 1344 0 
L 684 0 
L 684 794 
z
" transform="scale(0.015625)"/>
       </defs>
       <use xlink:href="#DejaVuSans-30"/>
       <use xlink:href="#DejaVuSans-2e" x="63.623047"/>
       <use xlink:href="#DejaVuSans-30" x="95.410156"/>
       <use xlink:href="#DejaVuSans-30" x="159.033203"/>
       <use xlink:href="#DejaVuSans-30" x="222.65625"/>
       <use xlink:href="#DejaVuSans-30" x="286.279297"/>
      </g>
     </g>
    </g>
    <g id="ytick_2">
     <g id="line2d_9">
      <g>
       <use xlink:href="#m4c902b5b00" x="57.6" y="248.811544" style="stroke: #000000; stroke-width: 0.8"/>
      </g>
     </g>
     <g id="text_9">
      <!-- 0.0001 -->
      <g transform="translate(15.609375 252.610762) scale(0.1 -0.1)">
       <use xlink:href="#DejaVuSans-30"/>
       <use xlink:href="#DejaVuSans-2e" x="63.623047"/>
       <use xlink:href="#DejaVuSans-30" x="95.410156"/>
       <use xlink:href="#DejaVuSans-30" x="159.033203"/>
       <use xlink:href="#DejaVuSans-30" x="222.65625"/>
       <use xlink:href="#DejaVuSans-31" x="286.279297"/>
      </g>
     </g>
    </g>
    <g id="ytick_3">
     <g id="line2d_10">
      <g>
       <use xlink:href="#m4c902b5b00" x="57.6" y="190.039087" style="stroke: #000000; stroke-width: 0.8"/>
      </g>
     </g>
     <g id="text_10">
      <!-- 0.0002 -->
      <g transform="translate(15.609375 193.838306) scale(0.1 -0.1)">
       <use xlink:href="#DejaVuSans-30"/>
       <use xlink:href="#DejaVuSans-2e" x="63.623047"/>
       <use xlink:href="#DejaVuSans-30" x="95.410156"/>
       <use xlink:href="#DejaVuSans-30" x="159.033203"/>
       <use xlink:href="#DejaVuSans-30" x="222.65625"/>
       <use xlink:href="#DejaVuSans-32" x="286.279297"/>
      </g>
     </g>
    </g>
    <g id="ytick_4">
     <g id="line2d_11">
      <g>
       <use xlink:href="#m4c902b5b00" x="57.6" y="131.266631" style="stroke: #000000; stroke-width: 0.8"/>
      </g>
     </g>
     <g id="text_11">
      <!-- 0.0003 -->
      <g transform="translate(15.609375 135.06585) scale(0.1 -0.1)">
       <use xlink:href="#DejaVuSans-30"/>
       <use xlink:href="#DejaVuSans-2e" x="63.623047"/>
       <use xlink:href="#DejaVuSans-30" x="95.410156"/>
       <use xlink:href="#DejaVuSans-30" x="159.033203"/>
       <use xlink:href="#DejaVuSans-30" x="222.65625"/>
       <use xlink:href="#DejaVuSans-33" x="286.279297"/>
      </g>
     </g>
    </g>
    <g id="ytick_5">
     <g id="line2d_12">
      <g>
       <use xlink:href="#m4c902b5b00" x="57.6" y="72.494174" style="stroke: #000000; stroke-width: 0.8"/>
      </g>
     </g>
     <g id="text_12">
      <!-- 0.0004 -->
      <g transform="translate(15.609375 76.293393) scale(0.1 -0.1)">
       <use xlink:href="#DejaVuSans-30"/>
       <use xlink:href="#DejaVuSans-2e" x="63.623047"/>
       <use xlink:href="#DejaVuSans-30" x="95.410156"/>
       <use xlink:href="#DejaVuSans-30" x="159.033203"/>
       <use xlink:href="#DejaVuSans-30" x="222.65625"/>
       <use xlink:href="#DejaVuSans-34" x="286.279297"/>
      </g>
     </g>
    </g>
   </g>
   <g id="line2d_13">
    <path d="M 73.832727 307.584 
L 73.996171 307.582557 
L 74.159616 307.236033 
L 75.194762 307.208953 
L 75.90302 306.95418 
L 76.556796 306.473458 
L 77.265054 305.648047 
L 78.027794 304.382094 
L 78.845014 302.584317 
L 79.771198 300.005166 
L 80.860825 296.271873 
L 82.113897 291.124015 
L 83.584894 284.058418 
L 85.328299 274.49606 
L 87.453072 261.501348 
L 90.231623 243.023258 
L 95.843205 203.776158 
L 100.256197 173.751564 
L 103.470598 153.366538 
L 106.30363 136.787282 
L 108.918736 122.787637 
L 111.315917 111.124028 
L 113.604135 101.063811 
L 115.78339 92.464634 
L 117.853683 85.17729 
L 119.815012 79.05358 
L 121.721861 73.811071 
L 123.519746 69.492415 
L 125.26315 65.864931 
L 126.952073 62.858682 
L 128.532033 60.482255 
L 130.057512 58.572315 
L 131.528509 57.074409 
L 132.945025 55.938272 
L 134.307059 55.117728 
L 135.669094 54.552698 
L 137.031128 54.232272 
L 138.393163 54.14558 
L 139.755197 54.281833 
L 141.171713 54.648563 
L 142.642711 55.259718 
L 144.222671 56.162848 
L 145.911593 57.393371 
L 147.709479 58.983687 
L 149.670809 61.023111 
L 151.795583 63.56016 
L 154.138282 66.713479 
L 156.698907 70.538868 
L 159.58642 75.264038 
L 162.855303 81.05591 
L 166.614518 88.183652 
L 171.136473 97.251759 
L 177.183906 109.916415 
L 198.486125 154.959883 
L 204.479077 166.882146 
L 209.981697 177.34089 
L 215.157428 186.706779 
L 220.115233 195.226135 
L 224.964076 203.119243 
L 229.703956 210.412521 
L 234.389355 217.214237 
L 239.020272 223.545253 
L 243.596708 229.428806 
L 248.173144 234.953183 
L 252.74958 240.131565 
L 257.326016 244.978273 
L 261.956934 249.560463 
L 266.642332 253.883033 
L 271.382212 257.952074 
L 276.176574 261.774669 
L 281.025417 265.358716 
L 285.983222 268.748569 
L 291.049991 271.94492 
L 296.280203 274.980042 
L 301.619378 277.821696 
L 307.121998 280.499816 
L 312.842543 283.036127 
L 318.781013 285.424427 
L 324.937409 287.660765 
L 331.420694 289.776985 
L 338.176385 291.747307 
L 345.313446 293.595915 
L 352.886357 295.324897 
L 360.89512 296.923824 
L 369.503178 298.412626 
L 378.710532 299.777321 
L 388.680624 301.02835 
L 398.487273 302.064022 
L 398.487273 302.064022 
" clip-path="url(#p650572162f)" style="fill: none; stroke: #ff7f0e; stroke-width: 1.5; stroke-linecap: square"/>
   </g>
   <g id="patch_58">
    <path d="M 57.6 307.584 
L 57.6 41.472 
" style="fill: none; stroke: #000000; stroke-width: 0.8; stroke-linejoin: miter; stroke-linecap: square"/>
   </g>
   <g id="patch_59">
    <path d="M 414.72 307.584 
L 414.72 41.472 
" style="fill: none; stroke: #000000; stroke-width: 0.8; stroke-linejoin: miter; stroke-linecap: square"/>
   </g>
   <g id="patch_60">
    <path d="M 57.6 307.584 
L 414.72 307.584 
" style="fill: none; stroke: #000000; stroke-width: 0.8; stroke-linejoin: miter; stroke-linecap: square"/>
   </g>
   <g id="patch_61">
    <path d="M 57.6 41.472 
L 414.72 41.472 
" style="fill: none; stroke: #000000; stroke-width: 0.8; stroke-linejoin: miter; stroke-linecap: square"/>
   </g>
   <g id="legend_1">
    <g id="patch_62">
     <path d="M 151.916875 64.150125 
L 407.72 64.150125 
Q 409.72 64.150125 409.72 62.150125 
L 409.72 48.472 
Q 409.72 46.472 407.72 46.472 
L 151.916875 46.472 
Q 149.916875 46.472 149.916875 48.472 
L 149.916875 62.150125 
Q 149.916875 64.150125 151.916875 64.150125 
z
" style="fill: #ffffff; opacity: 0.8; stroke: #cccccc; stroke-linejoin: miter"/>
    </g>
    <g id="line2d_14">
     <path d="M 153.916875 54.570438 
L 163.916875 54.570438 
L 173.916875 54.570438 
" style="fill: none; stroke: #ff7f0e; stroke-width: 1.5; stroke-linecap: square"/>
    </g>
    <g id="text_13">
     <!-- states 8 cross entropy: 8.34 sh entropy: 8.15 -->
     <g transform="translate(181.916875 58.070438) scale(0.1 -0.1)">
      <defs>
       <path id="DejaVuSans-73" d="M 2834 3397 
L 2834 2853 
Q 2591 2978 2328 3040 
Q 2066 3103 1784 3103 
Q 1356 3103 1142 2972 
Q 928 2841 928 2578 
Q 928 2378 1081 2264 
Q 1234 2150 1697 2047 
L 1894 2003 
Q 2506 1872 2764 1633 
Q 3022 1394 3022 966 
Q 3022 478 2636 193 
Q 2250 -91 1575 -91 
Q 1294 -91 989 -36 
Q 684 19 347 128 
L 347 722 
Q 666 556 975 473 
Q 1284 391 1588 391 
Q 1994 391 2212 530 
Q 2431 669 2431 922 
Q 2431 1156 2273 1281 
Q 2116 1406 1581 1522 
L 1381 1569 
Q 847 1681 609 1914 
Q 372 2147 372 2553 
Q 372 3047 722 3315 
Q 1072 3584 1716 3584 
Q 2034 3584 2315 3537 
Q 2597 3491 2834 3397 
z
" transform="scale(0.015625)"/>
       <path id="DejaVuSans-74" d="M 1172 4494 
L 1172 3500 
L 2356 3500 
L 2356 3053 
L 1172 3053 
L 1172 1153 
Q 1172 725 1289 603 
Q 1406 481 1766 481 
L 2356 481 
L 2356 0 
L 1766 0 
Q 1100 0 847 248 
Q 594 497 594 1153 
L 594 3053 
L 172 3053 
L 172 3500 
L 594 3500 
L 594 4494 
L 1172 4494 
z
" transform="scale(0.015625)"/>
       <path id="DejaVuSans-61" d="M 2194 1759 
Q 1497 1759 1228 1600 
Q 959 1441 959 1056 
Q 959 750 1161 570 
Q 1363 391 1709 391 
Q 2188 391 2477 730 
Q 2766 1069 2766 1631 
L 2766 1759 
L 2194 1759 
z
M 3341 1997 
L 3341 0 
L 2766 0 
L 2766 531 
Q 2569 213 2275 61 
Q 1981 -91 1556 -91 
Q 1019 -91 701 211 
Q 384 513 384 1019 
Q 384 1609 779 1909 
Q 1175 2209 1959 2209 
L 2766 2209 
L 2766 2266 
Q 2766 2663 2505 2880 
Q 2244 3097 1772 3097 
Q 1472 3097 1187 3025 
Q 903 2953 641 2809 
L 641 3341 
Q 956 3463 1253 3523 
Q 1550 3584 1831 3584 
Q 2591 3584 2966 3190 
Q 3341 2797 3341 1997 
z
" transform="scale(0.015625)"/>
       <path id="DejaVuSans-65" d="M 3597 1894 
L 3597 1613 
L 953 1613 
Q 991 1019 1311 708 
Q 1631 397 2203 397 
Q 2534 397 2845 478 
Q 3156 559 3463 722 
L 3463 178 
Q 3153 47 2828 -22 
Q 2503 -91 2169 -91 
Q 1331 -91 842 396 
Q 353 884 353 1716 
Q 353 2575 817 3079 
Q 1281 3584 2069 3584 
Q 2775 3584 3186 3129 
Q 3597 2675 3597 1894 
z
M 3022 2063 
Q 3016 2534 2758 2815 
Q 2500 3097 2075 3097 
Q 1594 3097 1305 2825 
Q 1016 2553 972 2059 
L 3022 2063 
z
" transform="scale(0.015625)"/>
       <path id="DejaVuSans-20" transform="scale(0.015625)"/>
       <path id="DejaVuSans-38" d="M 2034 2216 
Q 1584 2216 1326 1975 
Q 1069 1734 1069 1313 
Q 1069 891 1326 650 
Q 1584 409 2034 409 
Q 2484 409 2743 651 
Q 3003 894 3003 1313 
Q 3003 1734 2745 1975 
Q 2488 2216 2034 2216 
z
M 1403 2484 
Q 997 2584 770 2862 
Q 544 3141 544 3541 
Q 544 4100 942 4425 
Q 1341 4750 2034 4750 
Q 2731 4750 3128 4425 
Q 3525 4100 3525 3541 
Q 3525 3141 3298 2862 
Q 3072 2584 2669 2484 
Q 3125 2378 3379 2068 
Q 3634 1759 3634 1313 
Q 3634 634 3220 271 
Q 2806 -91 2034 -91 
Q 1263 -91 848 271 
Q 434 634 434 1313 
Q 434 1759 690 2068 
Q 947 2378 1403 2484 
z
M 1172 3481 
Q 1172 3119 1398 2916 
Q 1625 2713 2034 2713 
Q 2441 2713 2670 2916 
Q 2900 3119 2900 3481 
Q 2900 3844 2670 4047 
Q 2441 4250 2034 4250 
Q 1625 4250 1398 4047 
Q 1172 3844 1172 3481 
z
" transform="scale(0.015625)"/>
       <path id="DejaVuSans-63" d="M 3122 3366 
L 3122 2828 
Q 2878 2963 2633 3030 
Q 2388 3097 2138 3097 
Q 1578 3097 1268 2742 
Q 959 2388 959 1747 
Q 959 1106 1268 751 
Q 1578 397 2138 397 
Q 2388 397 2633 464 
Q 2878 531 3122 666 
L 3122 134 
Q 2881 22 2623 -34 
Q 2366 -91 2075 -91 
Q 1284 -91 818 406 
Q 353 903 353 1747 
Q 353 2603 823 3093 
Q 1294 3584 2113 3584 
Q 2378 3584 2631 3529 
Q 2884 3475 3122 3366 
z
" transform="scale(0.015625)"/>
       <path id="DejaVuSans-72" d="M 2631 2963 
Q 2534 3019 2420 3045 
Q 2306 3072 2169 3072 
Q 1681 3072 1420 2755 
Q 1159 2438 1159 1844 
L 1159 0 
L 581 0 
L 581 3500 
L 1159 3500 
L 1159 2956 
Q 1341 3275 1631 3429 
Q 1922 3584 2338 3584 
Q 2397 3584 2469 3576 
Q 2541 3569 2628 3553 
L 2631 2963 
z
" transform="scale(0.015625)"/>
       <path id="DejaVuSans-6f" d="M 1959 3097 
Q 1497 3097 1228 2736 
Q 959 2375 959 1747 
Q 959 1119 1226 758 
Q 1494 397 1959 397 
Q 2419 397 2687 759 
Q 2956 1122 2956 1747 
Q 2956 2369 2687 2733 
Q 2419 3097 1959 3097 
z
M 1959 3584 
Q 2709 3584 3137 3096 
Q 3566 2609 3566 1747 
Q 3566 888 3137 398 
Q 2709 -91 1959 -91 
Q 1206 -91 779 398 
Q 353 888 353 1747 
Q 353 2609 779 3096 
Q 1206 3584 1959 3584 
z
" transform="scale(0.015625)"/>
       <path id="DejaVuSans-6e" d="M 3513 2113 
L 3513 0 
L 2938 0 
L 2938 2094 
Q 2938 2591 2744 2837 
Q 2550 3084 2163 3084 
Q 1697 3084 1428 2787 
Q 1159 2491 1159 1978 
L 1159 0 
L 581 0 
L 581 3500 
L 1159 3500 
L 1159 2956 
Q 1366 3272 1645 3428 
Q 1925 3584 2291 3584 
Q 2894 3584 3203 3211 
Q 3513 2838 3513 2113 
z
" transform="scale(0.015625)"/>
       <path id="DejaVuSans-70" d="M 1159 525 
L 1159 -1331 
L 581 -1331 
L 581 3500 
L 1159 3500 
L 1159 2969 
Q 1341 3281 1617 3432 
Q 1894 3584 2278 3584 
Q 2916 3584 3314 3078 
Q 3713 2572 3713 1747 
Q 3713 922 3314 415 
Q 2916 -91 2278 -91 
Q 1894 -91 1617 61 
Q 1341 213 1159 525 
z
M 3116 1747 
Q 3116 2381 2855 2742 
Q 2594 3103 2138 3103 
Q 1681 3103 1420 2742 
Q 1159 2381 1159 1747 
Q 1159 1113 1420 752 
Q 1681 391 2138 391 
Q 2594 391 2855 752 
Q 3116 1113 3116 1747 
z
" transform="scale(0.015625)"/>
       <path id="DejaVuSans-79" d="M 2059 -325 
Q 1816 -950 1584 -1140 
Q 1353 -1331 966 -1331 
L 506 -1331 
L 506 -850 
L 844 -850 
Q 1081 -850 1212 -737 
Q 1344 -625 1503 -206 
L 1606 56 
L 191 3500 
L 800 3500 
L 1894 763 
L 2988 3500 
L 3597 3500 
L 2059 -325 
z
" transform="scale(0.015625)"/>
       <path id="DejaVuSans-3a" d="M 750 794 
L 1409 794 
L 1409 0 
L 750 0 
L 750 794 
z
M 750 3309 
L 1409 3309 
L 1409 2516 
L 750 2516 
L 750 3309 
z
" transform="scale(0.015625)"/>
       <path id="DejaVuSans-68" d="M 3513 2113 
L 3513 0 
L 2938 0 
L 2938 2094 
Q 2938 2591 2744 2837 
Q 2550 3084 2163 3084 
Q 1697 3084 1428 2787 
Q 1159 2491 1159 1978 
L 1159 0 
L 581 0 
L 581 4863 
L 1159 4863 
L 1159 2956 
Q 1366 3272 1645 3428 
Q 1925 3584 2291 3584 
Q 2894 3584 3203 3211 
Q 3513 2838 3513 2113 
z
" transform="scale(0.015625)"/>
      </defs>
      <use xlink:href="#DejaVuSans-73"/>
      <use xlink:href="#DejaVuSans-74" x="52.099609"/>
      <use xlink:href="#DejaVuSans-61" x="91.308594"/>
      <use xlink:href="#DejaVuSans-74" x="152.587891"/>
      <use xlink:href="#DejaVuSans-65" x="191.796875"/>
      <use xlink:href="#DejaVuSans-73" x="253.320312"/>
      <use xlink:href="#DejaVuSans-20" x="305.419922"/>
      <use xlink:href="#DejaVuSans-38" x="337.207031"/>
      <use xlink:href="#DejaVuSans-20" x="400.830078"/>
      <use xlink:href="#DejaVuSans-63" x="432.617188"/>
      <use xlink:href="#DejaVuSans-72" x="487.597656"/>
      <use xlink:href="#DejaVuSans-6f" x="526.460938"/>
      <use xlink:href="#DejaVuSans-73" x="587.642578"/>
      <use xlink:href="#DejaVuSans-73" x="639.742188"/>
      <use xlink:href="#DejaVuSans-20" x="691.841797"/>
      <use xlink:href="#DejaVuSans-65" x="723.628906"/>
      <use xlink:href="#DejaVuSans-6e" x="785.152344"/>
      <use xlink:href="#DejaVuSans-74" x="848.53125"/>
      <use xlink:href="#DejaVuSans-72" x="887.740234"/>
      <use xlink:href="#DejaVuSans-6f" x="926.603516"/>
      <use xlink:href="#DejaVuSans-70" x="987.785156"/>
      <use xlink:href="#DejaVuSans-79" x="1051.261719"/>
      <use xlink:href="#DejaVuSans-3a" x="1103.191406"/>
      <use xlink:href="#DejaVuSans-20" x="1136.882812"/>
      <use xlink:href="#DejaVuSans-38" x="1168.669922"/>
      <use xlink:href="#DejaVuSans-2e" x="1232.292969"/>
      <use xlink:href="#DejaVuSans-33" x="1264.080078"/>
      <use xlink:href="#DejaVuSans-34" x="1327.703125"/>
      <use xlink:href="#DejaVuSans-20" x="1391.326172"/>
      <use xlink:href="#DejaVuSans-73" x="1423.113281"/>
      <use xlink:href="#DejaVuSans-68" x="1475.212891"/>
      <use xlink:href="#DejaVuSans-20" x="1538.591797"/>
      <use xlink:href="#DejaVuSans-65" x="1570.378906"/>
      <use xlink:href="#DejaVuSans-6e" x="1631.902344"/>
      <use xlink:href="#DejaVuSans-74" x="1695.28125"/>
      <use xlink:href="#DejaVuSans-72" x="1734.490234"/>
      <use xlink:href="#DejaVuSans-6f" x="1773.353516"/>
      <use xlink:href="#DejaVuSans-70" x="1834.535156"/>
      <use xlink:href="#DejaVuSans-79" x="1898.011719"/>
      <use xlink:href="#DejaVuSans-3a" x="1949.941406"/>
      <use xlink:href="#DejaVuSans-20" x="1983.632812"/>
      <use xlink:href="#DejaVuSans-38" x="2015.419922"/>
      <use xlink:href="#DejaVuSans-2e" x="2079.042969"/>
      <use xlink:href="#DejaVuSans-31" x="2110.830078"/>
      <use xlink:href="#DejaVuSans-35" x="2174.453125"/>
     </g>
    </g>
   </g>
  </g>
 </g>
 <defs>
  <clipPath id="p650572162f">
   <rect x="57.6" y="41.472" width="357.12" height="266.112"/>
  </clipPath>
 </defs>
</svg>
