<?xml version="1.0" encoding="utf-8" standalone="no"?>
<!DOCTYPE svg PUBLIC "-//W3C//DTD SVG 1.1//EN"
  "http://www.w3.org/Graphics/SVG/1.1/DTD/svg11.dtd">
<svg xmlns:xlink="http://www.w3.org/1999/xlink" width="460.8pt" height="345.6pt" viewBox="0 0 460.8 345.6" xmlns="http://www.w3.org/2000/svg" version="1.1">
 <metadata>
  <rdf:RDF xmlns:dc="http://purl.org/dc/elements/1.1/" xmlns:cc="http://creativecommons.org/ns#" xmlns:rdf="http://www.w3.org/1999/02/22-rdf-syntax-ns#">
   <cc:Work>
    <dc:type rdf:resource="http://purl.org/dc/dcmitype/StillImage"/>
    <dc:date>2024-04-30T22:32:09.869534</dc:date>
    <dc:format>image/svg+xml</dc:format>
    <dc:creator>
     <cc:Agent>
      <dc:title>Matplotlib v3.8.4, https://matplotlib.org/</dc:title>
     </cc:Agent>
    </dc:creator>
   </cc:Work>
  </rdf:RDF>
 </metadata>
 <defs>
  <style type="text/css">*{stroke-linejoin: round; stroke-linecap: butt}</style>
 </defs>
 <g id="figure_1">
  <g id="patch_1">
   <path d="M 0 345.6 
L 460.8 345.6 
L 460.8 0 
L 0 0 
z
" style="fill: #ffffff"/>
  </g>
  <g id="axes_1">
   <g id="patch_2">
    <path d="M 57.6 307.584 
L 414.72 307.584 
L 414.72 41.472 
L 57.6 41.472 
z
" style="fill: #ffffff"/>
   </g>
   <g id="patch_3">
    <path d="M 80.588418 307.584 
L 86.368398 307.584 
L 86.368398 290.365788 
L 80.588418 290.365788 
z
" clip-path="url(#p059c71f4fc)" style="fill: #1f77b4"/>
   </g>
   <g id="patch_4">
    <path d="M 86.368398 307.584 
L 92.148377 307.584 
L 92.148377 257.137659 
L 86.368398 257.137659 
z
" clip-path="url(#p059c71f4fc)" style="fill: #1f77b4"/>
   </g>
   <g id="patch_5">
    <path d="M 92.148377 307.584 
L 97.928356 307.584 
L 97.928356 162.286455 
L 92.148377 162.286455 
z
" clip-path="url(#p059c71f4fc)" style="fill: #1f77b4"/>
   </g>
   <g id="patch_6">
    <path d="M 97.928356 307.584 
L 103.708335 307.584 
L 103.708335 130.568696 
L 97.928356 130.568696 
z
" clip-path="url(#p059c71f4fc)" style="fill: #1f77b4"/>
   </g>
   <g id="patch_7">
    <path d="M 103.708335 307.584 
L 109.488314 307.584 
L 109.488314 116.069149 
L 103.708335 116.069149 
z
" clip-path="url(#p059c71f4fc)" style="fill: #1f77b4"/>
   </g>
   <g id="patch_8">
    <path d="M 109.488314 307.584 
L 115.268293 307.584 
L 115.268293 71.96636 
L 109.488314 71.96636 
z
" clip-path="url(#p059c71f4fc)" style="fill: #1f77b4"/>
   </g>
   <g id="patch_9">
    <path d="M 115.268293 307.584 
L 121.048273 307.584 
L 121.048273 94.621902 
L 115.268293 94.621902 
z
" clip-path="url(#p059c71f4fc)" style="fill: #1f77b4"/>
   </g>
   <g id="patch_10">
    <path d="M 121.048273 307.584 
L 126.828252 307.584 
L 126.828252 82.84102 
L 121.048273 82.84102 
z
" clip-path="url(#p059c71f4fc)" style="fill: #1f77b4"/>
   </g>
   <g id="patch_11">
    <path d="M 126.828252 307.584 
L 132.608231 307.584 
L 132.608231 78.309912 
L 126.828252 78.309912 
z
" clip-path="url(#p059c71f4fc)" style="fill: #1f77b4"/>
   </g>
   <g id="patch_12">
    <path d="M 132.608231 307.584 
L 138.38821 307.584 
L 138.38821 92.205311 
L 132.608231 92.205311 
z
" clip-path="url(#p059c71f4fc)" style="fill: #1f77b4"/>
   </g>
   <g id="patch_13">
    <path d="M 138.38821 307.584 
L 144.168189 307.584 
L 144.168189 77.40369 
L 138.38821 77.40369 
z
" clip-path="url(#p059c71f4fc)" style="fill: #1f77b4"/>
   </g>
   <g id="patch_14">
    <path d="M 144.168189 307.584 
L 149.948168 307.584 
L 149.948168 71.664286 
L 144.168189 71.664286 
z
" clip-path="url(#p059c71f4fc)" style="fill: #1f77b4"/>
   </g>
   <g id="patch_15">
    <path d="M 149.948168 307.584 
L 155.728148 307.584 
L 155.728148 74.080877 
L 149.948168 74.080877 
z
" clip-path="url(#p059c71f4fc)" style="fill: #1f77b4"/>
   </g>
   <g id="patch_16">
    <path d="M 155.728148 307.584 
L 161.508127 307.584 
L 161.508127 61.695847 
L 155.728148 61.695847 
z
" clip-path="url(#p059c71f4fc)" style="fill: #1f77b4"/>
   </g>
   <g id="patch_17">
    <path d="M 161.508127 307.584 
L 167.288106 307.584 
L 167.288106 54.144 
L 161.508127 54.144 
z
" clip-path="url(#p059c71f4fc)" style="fill: #1f77b4"/>
   </g>
   <g id="patch_18">
    <path d="M 167.288106 307.584 
L 173.068085 307.584 
L 173.068085 82.538946 
L 167.288106 82.538946 
z
" clip-path="url(#p059c71f4fc)" style="fill: #1f77b4"/>
   </g>
   <g id="patch_19">
    <path d="M 173.068085 307.584 
L 178.848064 307.584 
L 178.848064 82.84102 
L 173.068085 82.84102 
z
" clip-path="url(#p059c71f4fc)" style="fill: #1f77b4"/>
   </g>
   <g id="patch_20">
    <path d="M 178.848064 307.584 
L 184.628043 307.584 
L 184.628043 96.73642 
L 178.848064 96.73642 
z
" clip-path="url(#p059c71f4fc)" style="fill: #1f77b4"/>
   </g>
   <g id="patch_21">
    <path d="M 184.628043 307.584 
L 190.408023 307.584 
L 190.408023 101.871676 
L 184.628043 101.871676 
z
" clip-path="url(#p059c71f4fc)" style="fill: #1f77b4"/>
   </g>
   <g id="patch_22">
    <path d="M 190.408023 307.584 
L 196.188002 307.584 
L 196.188002 117.881592 
L 190.408023 117.881592 
z
" clip-path="url(#p059c71f4fc)" style="fill: #1f77b4"/>
   </g>
   <g id="patch_23">
    <path d="M 196.188002 307.584 
L 201.967981 307.584 
L 201.967981 132.381139 
L 196.188002 132.381139 
z
" clip-path="url(#p059c71f4fc)" style="fill: #1f77b4"/>
   </g>
   <g id="patch_24">
    <path d="M 201.967981 307.584 
L 207.74796 307.584 
L 207.74796 140.537135 
L 201.967981 140.537135 
z
" clip-path="url(#p059c71f4fc)" style="fill: #1f77b4"/>
   </g>
   <g id="patch_25">
    <path d="M 207.74796 307.584 
L 213.527939 307.584 
L 213.527939 149.297278 
L 207.74796 149.297278 
z
" clip-path="url(#p059c71f4fc)" style="fill: #1f77b4"/>
   </g>
   <g id="patch_26">
    <path d="M 213.527939 307.584 
L 219.307918 307.584 
L 219.307918 174.973559 
L 213.527939 174.973559 
z
" clip-path="url(#p059c71f4fc)" style="fill: #1f77b4"/>
   </g>
   <g id="patch_27">
    <path d="M 219.307918 307.584 
L 225.087898 307.584 
L 225.087898 170.442451 
L 219.307918 170.442451 
z
" clip-path="url(#p059c71f4fc)" style="fill: #1f77b4"/>
   </g>
   <g id="patch_28">
    <path d="M 225.087898 307.584 
L 230.867877 307.584 
L 230.867877 189.77518 
L 225.087898 189.77518 
z
" clip-path="url(#p059c71f4fc)" style="fill: #1f77b4"/>
   </g>
   <g id="patch_29">
    <path d="M 230.867877 307.584 
L 236.647856 307.584 
L 236.647856 207.899614 
L 230.867877 207.899614 
z
" clip-path="url(#p059c71f4fc)" style="fill: #1f77b4"/>
   </g>
   <g id="patch_30">
    <path d="M 236.647856 307.584 
L 242.427835 307.584 
L 242.427835 210.618279 
L 236.647856 210.618279 
z
" clip-path="url(#p059c71f4fc)" style="fill: #1f77b4"/>
   </g>
   <g id="patch_31">
    <path d="M 242.427835 307.584 
L 248.207814 307.584 
L 248.207814 223.90953 
L 242.427835 223.90953 
z
" clip-path="url(#p059c71f4fc)" style="fill: #1f77b4"/>
   </g>
   <g id="patch_32">
    <path d="M 248.207814 307.584 
L 253.987794 307.584 
L 253.987794 235.086265 
L 248.207814 235.086265 
z
" clip-path="url(#p059c71f4fc)" style="fill: #1f77b4"/>
   </g>
   <g id="patch_33">
    <path d="M 253.987794 307.584 
L 259.767773 307.584 
L 259.767773 242.336038 
L 253.987794 242.336038 
z
" clip-path="url(#p059c71f4fc)" style="fill: #1f77b4"/>
   </g>
   <g id="patch_34">
    <path d="M 259.767773 307.584 
L 265.547752 307.584 
L 265.547752 245.658851 
L 259.767773 245.658851 
z
" clip-path="url(#p059c71f4fc)" style="fill: #1f77b4"/>
   </g>
   <g id="patch_35">
    <path d="M 265.547752 307.584 
L 271.327731 307.584 
L 271.327731 248.67959 
L 265.547752 248.67959 
z
" clip-path="url(#p059c71f4fc)" style="fill: #1f77b4"/>
   </g>
   <g id="patch_36">
    <path d="M 271.327731 307.584 
L 277.10771 307.584 
L 277.10771 256.533511 
L 271.327731 256.533511 
z
" clip-path="url(#p059c71f4fc)" style="fill: #1f77b4"/>
   </g>
   <g id="patch_37">
    <path d="M 277.10771 307.584 
L 282.887689 307.584 
L 282.887689 264.99158 
L 277.10771 264.99158 
z
" clip-path="url(#p059c71f4fc)" style="fill: #1f77b4"/>
   </g>
   <g id="patch_38">
    <path d="M 282.887689 307.584 
L 288.667669 307.584 
L 288.667669 273.44965 
L 282.887689 273.44965 
z
" clip-path="url(#p059c71f4fc)" style="fill: #1f77b4"/>
   </g>
   <g id="patch_39">
    <path d="M 288.667669 307.584 
L 294.447648 307.584 
L 294.447648 269.522689 
L 288.667669 269.522689 
z
" clip-path="url(#p059c71f4fc)" style="fill: #1f77b4"/>
   </g>
   <g id="patch_40">
    <path d="M 294.447648 307.584 
L 300.227627 307.584 
L 300.227627 279.189054 
L 294.447648 279.189054 
z
" clip-path="url(#p059c71f4fc)" style="fill: #1f77b4"/>
   </g>
   <g id="patch_41">
    <path d="M 300.227627 307.584 
L 306.007606 307.584 
L 306.007606 288.855418 
L 300.227627 288.855418 
z
" clip-path="url(#p059c71f4fc)" style="fill: #1f77b4"/>
   </g>
   <g id="patch_42">
    <path d="M 306.007606 307.584 
L 311.787585 307.584 
L 311.787585 282.209793 
L 306.007606 282.209793 
z
" clip-path="url(#p059c71f4fc)" style="fill: #1f77b4"/>
   </g>
   <g id="patch_43">
    <path d="M 311.787585 307.584 
L 317.567564 307.584 
L 317.567564 282.81394 
L 311.787585 282.81394 
z
" clip-path="url(#p059c71f4fc)" style="fill: #1f77b4"/>
   </g>
   <g id="patch_44">
    <path d="M 317.567564 307.584 
L 323.347544 307.584 
L 323.347544 286.438827 
L 317.567564 286.438827 
z
" clip-path="url(#p059c71f4fc)" style="fill: #1f77b4"/>
   </g>
   <g id="patch_45">
    <path d="M 323.347544 307.584 
L 329.127523 307.584 
L 329.127523 293.084453 
L 323.347544 293.084453 
z
" clip-path="url(#p059c71f4fc)" style="fill: #1f77b4"/>
   </g>
   <g id="patch_46">
    <path d="M 329.127523 307.584 
L 334.907502 307.584 
L 334.907502 291.27201 
L 329.127523 291.27201 
z
" clip-path="url(#p059c71f4fc)" style="fill: #1f77b4"/>
   </g>
   <g id="patch_47">
    <path d="M 334.907502 307.584 
L 340.687481 307.584 
L 340.687481 292.480305 
L 334.907502 292.480305 
z
" clip-path="url(#p059c71f4fc)" style="fill: #1f77b4"/>
   </g>
   <g id="patch_48">
    <path d="M 340.687481 307.584 
L 346.46746 307.584 
L 346.46746 296.70934 
L 340.687481 296.70934 
z
" clip-path="url(#p059c71f4fc)" style="fill: #1f77b4"/>
   </g>
   <g id="patch_49">
    <path d="M 346.46746 307.584 
L 352.247439 307.584 
L 352.247439 297.313487 
L 346.46746 297.313487 
z
" clip-path="url(#p059c71f4fc)" style="fill: #1f77b4"/>
   </g>
   <g id="patch_50">
    <path d="M 352.247439 307.584 
L 358.027419 307.584 
L 358.027419 297.011414 
L 352.247439 297.011414 
z
" clip-path="url(#p059c71f4fc)" style="fill: #1f77b4"/>
   </g>
   <g id="patch_51">
    <path d="M 358.027419 307.584 
L 363.807398 307.584 
L 363.807398 299.125931 
L 358.027419 299.125931 
z
" clip-path="url(#p059c71f4fc)" style="fill: #1f77b4"/>
   </g>
   <g id="patch_52">
    <path d="M 363.807398 307.584 
L 369.587377 307.584 
L 369.587377 301.240448 
L 363.807398 301.240448 
z
" clip-path="url(#p059c71f4fc)" style="fill: #1f77b4"/>
   </g>
   <g id="patch_53">
    <path d="M 369.587377 307.584 
L 375.367356 307.584 
L 375.367356 302.14667 
L 369.587377 302.14667 
z
" clip-path="url(#p059c71f4fc)" style="fill: #1f77b4"/>
   </g>
   <g id="patch_54">
    <path d="M 375.367356 307.584 
L 381.147335 307.584 
L 381.147335 297.313487 
L 375.367356 297.313487 
z
" clip-path="url(#p059c71f4fc)" style="fill: #1f77b4"/>
   </g>
   <g id="patch_55">
    <path d="M 381.147335 307.584 
L 386.927314 307.584 
L 386.927314 301.844596 
L 381.147335 301.844596 
z
" clip-path="url(#p059c71f4fc)" style="fill: #1f77b4"/>
   </g>
   <g id="patch_56">
    <path d="M 386.927314 307.584 
L 392.707294 307.584 
L 392.707294 302.448744 
L 386.927314 302.448744 
z
" clip-path="url(#p059c71f4fc)" style="fill: #1f77b4"/>
   </g>
   <g id="patch_57">
    <path d="M 392.707294 307.584 
L 398.487273 307.584 
L 398.487273 303.354965 
L 392.707294 303.354965 
z
" clip-path="url(#p059c71f4fc)" style="fill: #1f77b4"/>
   </g>
   <g id="matplotlib.axis_1">
    <g id="xtick_1">
     <g id="line2d_1">
      <defs>
       <path id="me3faee3b11" d="M 0 0 
L 0 3.5 
" style="stroke: #000000; stroke-width: 0.8"/>
      </defs>
      <g>
       <use xlink:href="#me3faee3b11" x="73.832727" y="307.584" style="stroke: #000000; stroke-width: 0.8"/>
      </g>
     </g>
     <g id="text_1">
      <!-- 0 -->
      <g transform="translate(70.651477 322.182437) scale(0.1 -0.1)">
       <defs>
        <path id="DejaVuSans-30" d="M 2034 4250 
Q 1547 4250 1301 3770 
Q 1056 3291 1056 2328 
Q 1056 1369 1301 889 
Q 1547 409 2034 409 
Q 2525 409 2770 889 
Q 3016 1369 3016 2328 
Q 3016 3291 2770 3770 
Q 2525 4250 2034 4250 
z
M 2034 4750 
Q 2819 4750 3233 4129 
Q 3647 3509 3647 2328 
Q 3647 1150 3233 529 
Q 2819 -91 2034 -91 
Q 1250 -91 836 529 
Q 422 1150 422 2328 
Q 422 3509 836 4129 
Q 1250 4750 2034 4750 
z
" transform="scale(0.015625)"/>
       </defs>
       <use xlink:href="#DejaVuSans-30"/>
      </g>
     </g>
    </g>
    <g id="xtick_2">
     <g id="line2d_2">
      <g>
       <use xlink:href="#me3faee3b11" x="128.314108" y="307.584" style="stroke: #000000; stroke-width: 0.8"/>
      </g>
     </g>
     <g id="text_2">
      <!-- 1000 -->
      <g transform="translate(115.589108 322.182437) scale(0.1 -0.1)">
       <defs>
        <path id="DejaVuSans-31" d="M 794 531 
L 1825 531 
L 1825 4091 
L 703 3866 
L 703 4441 
L 1819 4666 
L 2450 4666 
L 2450 531 
L 3481 531 
L 3481 0 
L 794 0 
L 794 531 
z
" transform="scale(0.015625)"/>
       </defs>
       <use xlink:href="#DejaVuSans-31"/>
       <use xlink:href="#DejaVuSans-30" x="63.623047"/>
       <use xlink:href="#DejaVuSans-30" x="127.246094"/>
       <use xlink:href="#DejaVuSans-30" x="190.869141"/>
      </g>
     </g>
    </g>
    <g id="xtick_3">
     <g id="line2d_3">
      <g>
       <use xlink:href="#me3faee3b11" x="182.795488" y="307.584" style="stroke: #000000; stroke-width: 0.8"/>
      </g>
     </g>
     <g id="text_3">
      <!-- 2000 -->
      <g transform="translate(170.070488 322.182437) scale(0.1 -0.1)">
       <defs>
        <path id="DejaVuSans-32" d="M 1228 531 
L 3431 531 
L 3431 0 
L 469 0 
L 469 531 
Q 828 903 1448 1529 
Q 2069 2156 2228 2338 
Q 2531 2678 2651 2914 
Q 2772 3150 2772 3378 
Q 2772 3750 2511 3984 
Q 2250 4219 1831 4219 
Q 1534 4219 1204 4116 
Q 875 4013 500 3803 
L 500 4441 
Q 881 4594 1212 4672 
Q 1544 4750 1819 4750 
Q 2544 4750 2975 4387 
Q 3406 4025 3406 3419 
Q 3406 3131 3298 2873 
Q 3191 2616 2906 2266 
Q 2828 2175 2409 1742 
Q 1991 1309 1228 531 
z
" transform="scale(0.015625)"/>
       </defs>
       <use xlink:href="#DejaVuSans-32"/>
       <use xlink:href="#DejaVuSans-30" x="63.623047"/>
       <use xlink:href="#DejaVuSans-30" x="127.246094"/>
       <use xlink:href="#DejaVuSans-30" x="190.869141"/>
      </g>
     </g>
    </g>
    <g id="xtick_4">
     <g id="line2d_4">
      <g>
       <use xlink:href="#me3faee3b11" x="237.276868" y="307.584" style="stroke: #000000; stroke-width: 0.8"/>
      </g>
     </g>
     <g id="text_4">
      <!-- 3000 -->
      <g transform="translate(224.551868 322.182437) scale(0.1 -0.1)">
       <defs>
        <path id="DejaVuSans-33" d="M 2597 2516 
Q 3050 2419 3304 2112 
Q 3559 1806 3559 1356 
Q 3559 666 3084 287 
Q 2609 -91 1734 -91 
Q 1441 -91 1130 -33 
Q 819 25 488 141 
L 488 750 
Q 750 597 1062 519 
Q 1375 441 1716 441 
Q 2309 441 2620 675 
Q 2931 909 2931 1356 
Q 2931 1769 2642 2001 
Q 2353 2234 1838 2234 
L 1294 2234 
L 1294 2753 
L 1863 2753 
Q 2328 2753 2575 2939 
Q 2822 3125 2822 3475 
Q 2822 3834 2567 4026 
Q 2313 4219 1838 4219 
Q 1578 4219 1281 4162 
Q 984 4106 628 3988 
L 628 4550 
Q 988 4650 1302 4700 
Q 1616 4750 1894 4750 
Q 2613 4750 3031 4423 
Q 3450 4097 3450 3541 
Q 3450 3153 3228 2886 
Q 3006 2619 2597 2516 
z
" transform="scale(0.015625)"/>
       </defs>
       <use xlink:href="#DejaVuSans-33"/>
       <use xlink:href="#DejaVuSans-30" x="63.623047"/>
       <use xlink:href="#DejaVuSans-30" x="127.246094"/>
       <use xlink:href="#DejaVuSans-30" x="190.869141"/>
      </g>
     </g>
    </g>
    <g id="xtick_5">
     <g id="line2d_5">
      <g>
       <use xlink:href="#me3faee3b11" x="291.758249" y="307.584" style="stroke: #000000; stroke-width: 0.8"/>
      </g>
     </g>
     <g id="text_5">
      <!-- 4000 -->
      <g transform="translate(279.033249 322.182437) scale(0.1 -0.1)">
       <defs>
        <path id="DejaVuSans-34" d="M 2419 4116 
L 825 1625 
L 2419 1625 
L 2419 4116 
z
M 2253 4666 
L 3047 4666 
L 3047 1625 
L 3713 1625 
L 3713 1100 
L 3047 1100 
L 3047 0 
L 2419 0 
L 2419 1100 
L 313 1100 
L 313 1709 
L 2253 4666 
z
" transform="scale(0.015625)"/>
       </defs>
       <use xlink:href="#DejaVuSans-34"/>
       <use xlink:href="#DejaVuSans-30" x="63.623047"/>
       <use xlink:href="#DejaVuSans-30" x="127.246094"/>
       <use xlink:href="#DejaVuSans-30" x="190.869141"/>
      </g>
     </g>
    </g>
    <g id="xtick_6">
     <g id="line2d_6">
      <g>
       <use xlink:href="#me3faee3b11" x="346.239629" y="307.584" style="stroke: #000000; stroke-width: 0.8"/>
      </g>
     </g>
     <g id="text_6">
      <!-- 5000 -->
      <g transform="translate(333.514629 322.182437) scale(0.1 -0.1)">
       <defs>
        <path id="DejaVuSans-35" d="M 691 4666 
L 3169 4666 
L 3169 4134 
L 1269 4134 
L 1269 2991 
Q 1406 3038 1543 3061 
Q 1681 3084 1819 3084 
Q 2600 3084 3056 2656 
Q 3513 2228 3513 1497 
Q 3513 744 3044 326 
Q 2575 -91 1722 -91 
Q 1428 -91 1123 -41 
Q 819 9 494 109 
L 494 744 
Q 775 591 1075 516 
Q 1375 441 1709 441 
Q 2250 441 2565 725 
Q 2881 1009 2881 1497 
Q 2881 1984 2565 2268 
Q 2250 2553 1709 2553 
Q 1456 2553 1204 2497 
Q 953 2441 691 2322 
L 691 4666 
z
" transform="scale(0.015625)"/>
       </defs>
       <use xlink:href="#DejaVuSans-35"/>
       <use xlink:href="#DejaVuSans-30" x="63.623047"/>
       <use xlink:href="#DejaVuSans-30" x="127.246094"/>
       <use xlink:href="#DejaVuSans-30" x="190.869141"/>
      </g>
     </g>
    </g>
    <g id="xtick_7">
     <g id="line2d_7">
      <g>
       <use xlink:href="#me3faee3b11" x="400.721009" y="307.584" style="stroke: #000000; stroke-width: 0.8"/>
      </g>
     </g>
     <g id="text_7">
      <!-- 6000 -->
      <g transform="translate(387.996009 322.182437) scale(0.1 -0.1)">
       <defs>
        <path id="DejaVuSans-36" d="M 2113 2584 
Q 1688 2584 1439 2293 
Q 1191 2003 1191 1497 
Q 1191 994 1439 701 
Q 1688 409 2113 409 
Q 2538 409 2786 701 
Q 3034 994 3034 1497 
Q 3034 2003 2786 2293 
Q 2538 2584 2113 2584 
z
M 3366 4563 
L 3366 3988 
Q 3128 4100 2886 4159 
Q 2644 4219 2406 4219 
Q 1781 4219 1451 3797 
Q 1122 3375 1075 2522 
Q 1259 2794 1537 2939 
Q 1816 3084 2150 3084 
Q 2853 3084 3261 2657 
Q 3669 2231 3669 1497 
Q 3669 778 3244 343 
Q 2819 -91 2113 -91 
Q 1303 -91 875 529 
Q 447 1150 447 2328 
Q 447 3434 972 4092 
Q 1497 4750 2381 4750 
Q 2619 4750 2861 4703 
Q 3103 4656 3366 4563 
z
" transform="scale(0.015625)"/>
       </defs>
       <use xlink:href="#DejaVuSans-36"/>
       <use xlink:href="#DejaVuSans-30" x="63.623047"/>
       <use xlink:href="#DejaVuSans-30" x="127.246094"/>
       <use xlink:href="#DejaVuSans-30" x="190.869141"/>
      </g>
     </g>
    </g>
   </g>
   <g id="matplotlib.axis_2">
    <g id="ytick_1">
     <g id="line2d_8">
      <defs>
       <path id="m81965399ea" d="M 0 0 
L -3.5 0 
" style="stroke: #000000; stroke-width: 0.8"/>
      </defs>
      <g>
       <use xlink:href="#m81965399ea" x="57.6" y="307.584" style="stroke: #000000; stroke-width: 0.8"/>
      </g>
     </g>
     <g id="text_8">
      <!-- 0.00000 -->
      <g transform="translate(9.246875 311.383219) scale(0.1 -0.1)">
       <defs>
        <path id="DejaVuSans-2e" d="M 684 794 
L 1344 794 
L 1344 0 
L 684 0 
L 684 794 
z
" transform="scale(0.015625)"/>
       </defs>
       <use xlink:href="#DejaVuSans-30"/>
       <use xlink:href="#DejaVuSans-2e" x="63.623047"/>
       <use xlink:href="#DejaVuSans-30" x="95.410156"/>
       <use xlink:href="#DejaVuSans-30" x="159.033203"/>
       <use xlink:href="#DejaVuSans-30" x="222.65625"/>
       <use xlink:href="#DejaVuSans-30" x="286.279297"/>
       <use xlink:href="#DejaVuSans-30" x="349.902344"/>
      </g>
     </g>
    </g>
    <g id="ytick_2">
     <g id="line2d_9">
      <g>
       <use xlink:href="#m81965399ea" x="57.6" y="276.876283" style="stroke: #000000; stroke-width: 0.8"/>
      </g>
     </g>
     <g id="text_9">
      <!-- 0.00005 -->
      <g transform="translate(9.246875 280.675501) scale(0.1 -0.1)">
       <use xlink:href="#DejaVuSans-30"/>
       <use xlink:href="#DejaVuSans-2e" x="63.623047"/>
       <use xlink:href="#DejaVuSans-30" x="95.410156"/>
       <use xlink:href="#DejaVuSans-30" x="159.033203"/>
       <use xlink:href="#DejaVuSans-30" x="222.65625"/>
       <use xlink:href="#DejaVuSans-30" x="286.279297"/>
       <use xlink:href="#DejaVuSans-35" x="349.902344"/>
      </g>
     </g>
    </g>
    <g id="ytick_3">
     <g id="line2d_10">
      <g>
       <use xlink:href="#m81965399ea" x="57.6" y="246.168565" style="stroke: #000000; stroke-width: 0.8"/>
      </g>
     </g>
     <g id="text_10">
      <!-- 0.00010 -->
      <g transform="translate(9.246875 249.967784) scale(0.1 -0.1)">
       <use xlink:href="#DejaVuSans-30"/>
       <use xlink:href="#DejaVuSans-2e" x="63.623047"/>
       <use xlink:href="#DejaVuSans-30" x="95.410156"/>
       <use xlink:href="#DejaVuSans-30" x="159.033203"/>
       <use xlink:href="#DejaVuSans-30" x="222.65625"/>
       <use xlink:href="#DejaVuSans-31" x="286.279297"/>
       <use xlink:href="#DejaVuSans-30" x="349.902344"/>
      </g>
     </g>
    </g>
    <g id="ytick_4">
     <g id="line2d_11">
      <g>
       <use xlink:href="#m81965399ea" x="57.6" y="215.460848" style="stroke: #000000; stroke-width: 0.8"/>
      </g>
     </g>
     <g id="text_11">
      <!-- 0.00015 -->
      <g transform="translate(9.246875 219.260066) scale(0.1 -0.1)">
       <use xlink:href="#DejaVuSans-30"/>
       <use xlink:href="#DejaVuSans-2e" x="63.623047"/>
       <use xlink:href="#DejaVuSans-30" x="95.410156"/>
       <use xlink:href="#DejaVuSans-30" x="159.033203"/>
       <use xlink:href="#DejaVuSans-30" x="222.65625"/>
       <use xlink:href="#DejaVuSans-31" x="286.279297"/>
       <use xlink:href="#DejaVuSans-35" x="349.902344"/>
      </g>
     </g>
    </g>
    <g id="ytick_5">
     <g id="line2d_12">
      <g>
       <use xlink:href="#m81965399ea" x="57.6" y="184.75313" style="stroke: #000000; stroke-width: 0.8"/>
      </g>
     </g>
     <g id="text_12">
      <!-- 0.00020 -->
      <g transform="translate(9.246875 188.552349) scale(0.1 -0.1)">
       <use xlink:href="#DejaVuSans-30"/>
       <use xlink:href="#DejaVuSans-2e" x="63.623047"/>
       <use xlink:href="#DejaVuSans-30" x="95.410156"/>
       <use xlink:href="#DejaVuSans-30" x="159.033203"/>
       <use xlink:href="#DejaVuSans-30" x="222.65625"/>
       <use xlink:href="#DejaVuSans-32" x="286.279297"/>
       <use xlink:href="#DejaVuSans-30" x="349.902344"/>
      </g>
     </g>
    </g>
    <g id="ytick_6">
     <g id="line2d_13">
      <g>
       <use xlink:href="#m81965399ea" x="57.6" y="154.045413" style="stroke: #000000; stroke-width: 0.8"/>
      </g>
     </g>
     <g id="text_13">
      <!-- 0.00025 -->
      <g transform="translate(9.246875 157.844631) scale(0.1 -0.1)">
       <use xlink:href="#DejaVuSans-30"/>
       <use xlink:href="#DejaVuSans-2e" x="63.623047"/>
       <use xlink:href="#DejaVuSans-30" x="95.410156"/>
       <use xlink:href="#DejaVuSans-30" x="159.033203"/>
       <use xlink:href="#DejaVuSans-30" x="222.65625"/>
       <use xlink:href="#DejaVuSans-32" x="286.279297"/>
       <use xlink:href="#DejaVuSans-35" x="349.902344"/>
      </g>
     </g>
    </g>
    <g id="ytick_7">
     <g id="line2d_14">
      <g>
       <use xlink:href="#m81965399ea" x="57.6" y="123.337695" style="stroke: #000000; stroke-width: 0.8"/>
      </g>
     </g>
     <g id="text_14">
      <!-- 0.00030 -->
      <g transform="translate(9.246875 127.136914) scale(0.1 -0.1)">
       <use xlink:href="#DejaVuSans-30"/>
       <use xlink:href="#DejaVuSans-2e" x="63.623047"/>
       <use xlink:href="#DejaVuSans-30" x="95.410156"/>
       <use xlink:href="#DejaVuSans-30" x="159.033203"/>
       <use xlink:href="#DejaVuSans-30" x="222.65625"/>
       <use xlink:href="#DejaVuSans-33" x="286.279297"/>
       <use xlink:href="#DejaVuSans-30" x="349.902344"/>
      </g>
     </g>
    </g>
    <g id="ytick_8">
     <g id="line2d_15">
      <g>
       <use xlink:href="#m81965399ea" x="57.6" y="92.629978" style="stroke: #000000; stroke-width: 0.8"/>
      </g>
     </g>
     <g id="text_15">
      <!-- 0.00035 -->
      <g transform="translate(9.246875 96.429196) scale(0.1 -0.1)">
       <use xlink:href="#DejaVuSans-30"/>
       <use xlink:href="#DejaVuSans-2e" x="63.623047"/>
       <use xlink:href="#DejaVuSans-30" x="95.410156"/>
       <use xlink:href="#DejaVuSans-30" x="159.033203"/>
       <use xlink:href="#DejaVuSans-30" x="222.65625"/>
       <use xlink:href="#DejaVuSans-33" x="286.279297"/>
       <use xlink:href="#DejaVuSans-35" x="349.902344"/>
      </g>
     </g>
    </g>
    <g id="ytick_9">
     <g id="line2d_16">
      <g>
       <use xlink:href="#m81965399ea" x="57.6" y="61.92226" style="stroke: #000000; stroke-width: 0.8"/>
      </g>
     </g>
     <g id="text_16">
      <!-- 0.00040 -->
      <g transform="translate(9.246875 65.721479) scale(0.1 -0.1)">
       <use xlink:href="#DejaVuSans-30"/>
       <use xlink:href="#DejaVuSans-2e" x="63.623047"/>
       <use xlink:href="#DejaVuSans-30" x="95.410156"/>
       <use xlink:href="#DejaVuSans-30" x="159.033203"/>
       <use xlink:href="#DejaVuSans-30" x="222.65625"/>
       <use xlink:href="#DejaVuSans-34" x="286.279297"/>
       <use xlink:href="#DejaVuSans-30" x="349.902344"/>
      </g>
     </g>
    </g>
   </g>
   <g id="line2d_17">
    <path d="M 73.832727 307.584 
L 73.996171 307.583994 
L 74.050653 304.290733 
L 74.105134 307.316474 
L 74.268578 307.396103 
L 74.867873 307.188882 
L 75.303725 306.73961 
L 75.848538 305.837563 
L 76.502315 304.300523 
L 77.319536 301.760126 
L 78.3002 297.930282 
L 79.498791 292.295032 
L 81.024269 283.947997 
L 82.985599 271.870526 
L 85.982075 251.841839 
L 92.846729 205.635868 
L 96.006649 186.100106 
L 98.839681 169.942895 
L 101.509268 155.958575 
L 104.124375 143.423968 
L 106.685 132.233738 
L 109.191143 122.273826 
L 111.642805 113.43208 
L 114.039986 105.603532 
L 116.382685 98.692497 
L 118.670903 92.612919 
L 120.90464 87.287793 
L 123.083895 82.648182 
L 125.208669 78.632136 
L 127.278961 75.183656 
L 129.294772 72.251773 
L 131.256102 69.789786 
L 133.108469 67.807976 
L 134.906355 66.19458 
L 136.70424 64.878433 
L 138.447644 63.878456 
L 140.136567 63.16222 
L 141.82549 62.687788 
L 143.514413 62.448503 
L 145.203336 62.437628 
L 146.892258 62.648321 
L 148.635662 63.090834 
L 150.433548 63.778424 
L 152.285915 64.723311 
L 154.247245 65.974653 
L 156.317537 67.562698 
L 158.496792 69.515578 
L 160.839492 71.917935 
L 163.345635 74.812345 
L 166.069704 78.309417 
L 169.011699 82.45972 
L 172.2261 87.390033 
L 175.76739 93.238246 
L 179.799012 100.342326 
L 184.484411 109.070958 
L 190.259437 120.325428 
L 199.248865 138.399575 
L 211.234768 162.405362 
L 218.044941 175.532395 
L 223.92893 186.402456 
L 229.377068 196.005642 
L 234.498318 204.588234 
L 239.401642 212.380013 
L 244.196004 219.584781 
L 248.881402 226.226513 
L 253.457838 232.334046 
L 257.979793 238.005322 
L 262.501747 243.323182 
L 267.023702 248.297898 
L 271.545657 252.941551 
L 276.067611 257.267572 
L 280.644047 261.337025 
L 285.220483 265.111423 
L 289.905882 268.686599 
L 294.645762 272.023104 
L 299.494605 275.162933 
L 304.45241 278.106544 
L 309.519179 280.855951 
L 314.749391 283.440229 
L 320.143048 285.856787 
L 325.75463 288.125922 
L 331.584138 290.242371 
L 337.686052 292.220054 
L 344.114855 294.067573 
L 350.870546 295.77643 
L 358.062089 297.364171 
L 365.743963 298.829635 
L 373.970652 300.170622 
L 382.905598 301.398565 
L 392.657765 302.510445 
L 398.487273 303.07814 
L 398.487273 303.07814 
" clip-path="url(#p059c71f4fc)" style="fill: none; stroke: #ff7f0e; stroke-width: 1.5; stroke-linecap: square"/>
   </g>
   <g id="patch_58">
    <path d="M 57.6 307.584 
L 57.6 41.472 
" style="fill: none; stroke: #000000; stroke-width: 0.8; stroke-linejoin: miter; stroke-linecap: square"/>
   </g>
   <g id="patch_59">
    <path d="M 414.72 307.584 
L 414.72 41.472 
" style="fill: none; stroke: #000000; stroke-width: 0.8; stroke-linejoin: miter; stroke-linecap: square"/>
   </g>
   <g id="patch_60">
    <path d="M 57.6 307.584 
L 414.72 307.584 
" style="fill: none; stroke: #000000; stroke-width: 0.8; stroke-linejoin: miter; stroke-linecap: square"/>
   </g>
   <g id="patch_61">
    <path d="M 57.6 41.472 
L 414.72 41.472 
" style="fill: none; stroke: #000000; stroke-width: 0.8; stroke-linejoin: miter; stroke-linecap: square"/>
   </g>
   <g id="legend_1">
    <g id="patch_62">
     <path d="M 145.554375 64.150125 
L 407.72 64.150125 
Q 409.72 64.150125 409.72 62.150125 
L 409.72 48.472 
Q 409.72 46.472 407.72 46.472 
L 145.554375 46.472 
Q 143.554375 46.472 143.554375 48.472 
L 143.554375 62.150125 
Q 143.554375 64.150125 145.554375 64.150125 
z
" style="fill: #ffffff; opacity: 0.8; stroke: #cccccc; stroke-linejoin: miter"/>
    </g>
    <g id="line2d_18">
     <path d="M 147.554375 54.570438 
L 157.554375 54.570438 
L 167.554375 54.570438 
" style="fill: none; stroke: #ff7f0e; stroke-width: 1.5; stroke-linecap: square"/>
    </g>
    <g id="text_17">
     <!-- states 30 cross entropy: 8.34 sh entropy: 8.15 -->
     <g transform="translate(175.554375 58.070438) scale(0.1 -0.1)">
      <defs>
       <path id="DejaVuSans-73" d="M 2834 3397 
L 2834 2853 
Q 2591 2978 2328 3040 
Q 2066 3103 1784 3103 
Q 1356 3103 1142 2972 
Q 928 2841 928 2578 
Q 928 2378 1081 2264 
Q 1234 2150 1697 2047 
L 1894 2003 
Q 2506 1872 2764 1633 
Q 3022 1394 3022 966 
Q 3022 478 2636 193 
Q 2250 -91 1575 -91 
Q 1294 -91 989 -36 
Q 684 19 347 128 
L 347 722 
Q 666 556 975 473 
Q 1284 391 1588 391 
Q 1994 391 2212 530 
Q 2431 669 2431 922 
Q 2431 1156 2273 1281 
Q 2116 1406 1581 1522 
L 1381 1569 
Q 847 1681 609 1914 
Q 372 2147 372 2553 
Q 372 3047 722 3315 
Q 1072 3584 1716 3584 
Q 2034 3584 2315 3537 
Q 2597 3491 2834 3397 
z
" transform="scale(0.015625)"/>
       <path id="DejaVuSans-74" d="M 1172 4494 
L 1172 3500 
L 2356 3500 
L 2356 3053 
L 1172 3053 
L 1172 1153 
Q 1172 725 1289 603 
Q 1406 481 1766 481 
L 2356 481 
L 2356 0 
L 1766 0 
Q 1100 0 847 248 
Q 594 497 594 1153 
L 594 3053 
L 172 3053 
L 172 3500 
L 594 3500 
L 594 4494 
L 1172 4494 
z
" transform="scale(0.015625)"/>
       <path id="DejaVuSans-61" d="M 2194 1759 
Q 1497 1759 1228 1600 
Q 959 1441 959 1056 
Q 959 750 1161 570 
Q 1363 391 1709 391 
Q 2188 391 2477 730 
Q 2766 1069 2766 1631 
L 2766 1759 
L 2194 1759 
z
M 3341 1997 
L 3341 0 
L 2766 0 
L 2766 531 
Q 2569 213 2275 61 
Q 1981 -91 1556 -91 
Q 1019 -91 701 211 
Q 384 513 384 1019 
Q 384 1609 779 1909 
Q 1175 2209 1959 2209 
L 2766 2209 
L 2766 2266 
Q 2766 2663 2505 2880 
Q 2244 3097 1772 3097 
Q 1472 3097 1187 3025 
Q 903 2953 641 2809 
L 641 3341 
Q 956 3463 1253 3523 
Q 1550 3584 1831 3584 
Q 2591 3584 2966 3190 
Q 3341 2797 3341 1997 
z
" transform="scale(0.015625)"/>
       <path id="DejaVuSans-65" d="M 3597 1894 
L 3597 1613 
L 953 1613 
Q 991 1019 1311 708 
Q 1631 397 2203 397 
Q 2534 397 2845 478 
Q 3156 559 3463 722 
L 3463 178 
Q 3153 47 2828 -22 
Q 2503 -91 2169 -91 
Q 1331 -91 842 396 
Q 353 884 353 1716 
Q 353 2575 817 3079 
Q 1281 3584 2069 3584 
Q 2775 3584 3186 3129 
Q 3597 2675 3597 1894 
z
M 3022 2063 
Q 3016 2534 2758 2815 
Q 2500 3097 2075 3097 
Q 1594 3097 1305 2825 
Q 1016 2553 972 2059 
L 3022 2063 
z
" transform="scale(0.015625)"/>
       <path id="DejaVuSans-20" transform="scale(0.015625)"/>
       <path id="DejaVuSans-63" d="M 3122 3366 
L 3122 2828 
Q 2878 2963 2633 3030 
Q 2388 3097 2138 3097 
Q 1578 3097 1268 2742 
Q 959 2388 959 1747 
Q 959 1106 1268 751 
Q 1578 397 2138 397 
Q 2388 397 2633 464 
Q 2878 531 3122 666 
L 3122 134 
Q 2881 22 2623 -34 
Q 2366 -91 2075 -91 
Q 1284 -91 818 406 
Q 353 903 353 1747 
Q 353 2603 823 3093 
Q 1294 3584 2113 3584 
Q 2378 3584 2631 3529 
Q 2884 3475 3122 3366 
z
" transform="scale(0.015625)"/>
       <path id="DejaVuSans-72" d="M 2631 2963 
Q 2534 3019 2420 3045 
Q 2306 3072 2169 3072 
Q 1681 3072 1420 2755 
Q 1159 2438 1159 1844 
L 1159 0 
L 581 0 
L 581 3500 
L 1159 3500 
L 1159 2956 
Q 1341 3275 1631 3429 
Q 1922 3584 2338 3584 
Q 2397 3584 2469 3576 
Q 2541 3569 2628 3553 
L 2631 2963 
z
" transform="scale(0.015625)"/>
       <path id="DejaVuSans-6f" d="M 1959 3097 
Q 1497 3097 1228 2736 
Q 959 2375 959 1747 
Q 959 1119 1226 758 
Q 1494 397 1959 397 
Q 2419 397 2687 759 
Q 2956 1122 2956 1747 
Q 2956 2369 2687 2733 
Q 2419 3097 1959 3097 
z
M 1959 3584 
Q 2709 3584 3137 3096 
Q 3566 2609 3566 1747 
Q 3566 888 3137 398 
Q 2709 -91 1959 -91 
Q 1206 -91 779 398 
Q 353 888 353 1747 
Q 353 2609 779 3096 
Q 1206 3584 1959 3584 
z
" transform="scale(0.015625)"/>
       <path id="DejaVuSans-6e" d="M 3513 2113 
L 3513 0 
L 2938 0 
L 2938 2094 
Q 2938 2591 2744 2837 
Q 2550 3084 2163 3084 
Q 1697 3084 1428 2787 
Q 1159 2491 1159 1978 
L 1159 0 
L 581 0 
L 581 3500 
L 1159 3500 
L 1159 2956 
Q 1366 3272 1645 3428 
Q 1925 3584 2291 3584 
Q 2894 3584 3203 3211 
Q 3513 2838 3513 2113 
z
" transform="scale(0.015625)"/>
       <path id="DejaVuSans-70" d="M 1159 525 
L 1159 -1331 
L 581 -1331 
L 581 3500 
L 1159 3500 
L 1159 2969 
Q 1341 3281 1617 3432 
Q 1894 3584 2278 3584 
Q 2916 3584 3314 3078 
Q 3713 2572 3713 1747 
Q 3713 922 3314 415 
Q 2916 -91 2278 -91 
Q 1894 -91 1617 61 
Q 1341 213 1159 525 
z
M 3116 1747 
Q 3116 2381 2855 2742 
Q 2594 3103 2138 3103 
Q 1681 3103 1420 2742 
Q 1159 2381 1159 1747 
Q 1159 1113 1420 752 
Q 1681 391 2138 391 
Q 2594 391 2855 752 
Q 3116 1113 3116 1747 
z
" transform="scale(0.015625)"/>
       <path id="DejaVuSans-79" d="M 2059 -325 
Q 1816 -950 1584 -1140 
Q 1353 -1331 966 -1331 
L 506 -1331 
L 506 -850 
L 844 -850 
Q 1081 -850 1212 -737 
Q 1344 -625 1503 -206 
L 1606 56 
L 191 3500 
L 800 3500 
L 1894 763 
L 2988 3500 
L 3597 3500 
L 2059 -325 
z
" transform="scale(0.015625)"/>
       <path id="DejaVuSans-3a" d="M 750 794 
L 1409 794 
L 1409 0 
L 750 0 
L 750 794 
z
M 750 3309 
L 1409 3309 
L 1409 2516 
L 750 2516 
L 750 3309 
z
" transform="scale(0.015625)"/>
       <path id="DejaVuSans-38" d="M 2034 2216 
Q 1584 2216 1326 1975 
Q 1069 1734 1069 1313 
Q 1069 891 1326 650 
Q 1584 409 2034 409 
Q 2484 409 2743 651 
Q 3003 894 3003 1313 
Q 3003 1734 2745 1975 
Q 2488 2216 2034 2216 
z
M 1403 2484 
Q 997 2584 770 2862 
Q 544 3141 544 3541 
Q 544 4100 942 4425 
Q 1341 4750 2034 4750 
Q 2731 4750 3128 4425 
Q 3525 4100 3525 3541 
Q 3525 3141 3298 2862 
Q 3072 2584 2669 2484 
Q 3125 2378 3379 2068 
Q 3634 1759 3634 1313 
Q 3634 634 3220 271 
Q 2806 -91 2034 -91 
Q 1263 -91 848 271 
Q 434 634 434 1313 
Q 434 1759 690 2068 
Q 947 2378 1403 2484 
z
M 1172 3481 
Q 1172 3119 1398 2916 
Q 1625 2713 2034 2713 
Q 2441 2713 2670 2916 
Q 2900 3119 2900 3481 
Q 2900 3844 2670 4047 
Q 2441 4250 2034 4250 
Q 1625 4250 1398 4047 
Q 1172 3844 1172 3481 
z
" transform="scale(0.015625)"/>
       <path id="DejaVuSans-68" d="M 3513 2113 
L 3513 0 
L 2938 0 
L 2938 2094 
Q 2938 2591 2744 2837 
Q 2550 3084 2163 3084 
Q 1697 3084 1428 2787 
Q 1159 2491 1159 1978 
L 1159 0 
L 581 0 
L 581 4863 
L 1159 4863 
L 1159 2956 
Q 1366 3272 1645 3428 
Q 1925 3584 2291 3584 
Q 2894 3584 3203 3211 
Q 3513 2838 3513 2113 
z
" transform="scale(0.015625)"/>
      </defs>
      <use xlink:href="#DejaVuSans-73"/>
      <use xlink:href="#DejaVuSans-74" x="52.099609"/>
      <use xlink:href="#DejaVuSans-61" x="91.308594"/>
      <use xlink:href="#DejaVuSans-74" x="152.587891"/>
      <use xlink:href="#DejaVuSans-65" x="191.796875"/>
      <use xlink:href="#DejaVuSans-73" x="253.320312"/>
      <use xlink:href="#DejaVuSans-20" x="305.419922"/>
      <use xlink:href="#DejaVuSans-33" x="337.207031"/>
      <use xlink:href="#DejaVuSans-30" x="400.830078"/>
      <use xlink:href="#DejaVuSans-20" x="464.453125"/>
      <use xlink:href="#DejaVuSans-63" x="496.240234"/>
      <use xlink:href="#DejaVuSans-72" x="551.220703"/>
      <use xlink:href="#DejaVuSans-6f" x="590.083984"/>
      <use xlink:href="#DejaVuSans-73" x="651.265625"/>
      <use xlink:href="#DejaVuSans-73" x="703.365234"/>
      <use xlink:href="#DejaVuSans-20" x="755.464844"/>
      <use xlink:href="#DejaVuSans-65" x="787.251953"/>
      <use xlink:href="#DejaVuSans-6e" x="848.775391"/>
      <use xlink:href="#DejaVuSans-74" x="912.154297"/>
      <use xlink:href="#DejaVuSans-72" x="951.363281"/>
      <use xlink:href="#DejaVuSans-6f" x="990.226562"/>
      <use xlink:href="#DejaVuSans-70" x="1051.408203"/>
      <use xlink:href="#DejaVuSans-79" x="1114.884766"/>
      <use xlink:href="#DejaVuSans-3a" x="1166.814453"/>
      <use xlink:href="#DejaVuSans-20" x="1200.505859"/>
      <use xlink:href="#DejaVuSans-38" x="1232.292969"/>
      <use xlink:href="#DejaVuSans-2e" x="1295.916016"/>
      <use xlink:href="#DejaVuSans-33" x="1327.703125"/>
      <use xlink:href="#DejaVuSans-34" x="1391.326172"/>
      <use xlink:href="#DejaVuSans-20" x="1454.949219"/>
      <use xlink:href="#DejaVuSans-73" x="1486.736328"/>
      <use xlink:href="#DejaVuSans-68" x="1538.835938"/>
      <use xlink:href="#DejaVuSans-20" x="1602.214844"/>
      <use xlink:href="#DejaVuSans-65" x="1634.001953"/>
      <use xlink:href="#DejaVuSans-6e" x="1695.525391"/>
      <use xlink:href="#DejaVuSans-74" x="1758.904297"/>
      <use xlink:href="#DejaVuSans-72" x="1798.113281"/>
      <use xlink:href="#DejaVuSans-6f" x="1836.976562"/>
      <use xlink:href="#DejaVuSans-70" x="1898.158203"/>
      <use xlink:href="#DejaVuSans-79" x="1961.634766"/>
      <use xlink:href="#DejaVuSans-3a" x="2013.564453"/>
      <use xlink:href="#DejaVuSans-20" x="2047.255859"/>
      <use xlink:href="#DejaVuSans-38" x="2079.042969"/>
      <use xlink:href="#DejaVuSans-2e" x="2142.666016"/>
      <use xlink:href="#DejaVuSans-31" x="2174.453125"/>
      <use xlink:href="#DejaVuSans-35" x="2238.076172"/>
     </g>
    </g>
   </g>
  </g>
 </g>
 <defs>
  <clipPath id="p059c71f4fc">
   <rect x="57.6" y="41.472" width="357.12" height="266.112"/>
  </clipPath>
 </defs>
</svg>
