<?xml version="1.0" encoding="utf-8" standalone="no"?>
<!DOCTYPE svg PUBLIC "-//W3C//DTD SVG 1.1//EN"
  "http://www.w3.org/Graphics/SVG/1.1/DTD/svg11.dtd">
<svg xmlns:xlink="http://www.w3.org/1999/xlink" width="460.8pt" height="345.6pt" viewBox="0 0 460.8 345.6" xmlns="http://www.w3.org/2000/svg" version="1.1">
 <metadata>
  <rdf:RDF xmlns:dc="http://purl.org/dc/elements/1.1/" xmlns:cc="http://creativecommons.org/ns#" xmlns:rdf="http://www.w3.org/1999/02/22-rdf-syntax-ns#">
   <cc:Work>
    <dc:type rdf:resource="http://purl.org/dc/dcmitype/StillImage"/>
    <dc:date>2024-05-15T14:37:44.684340</dc:date>
    <dc:format>image/svg+xml</dc:format>
    <dc:creator>
     <cc:Agent>
      <dc:title>Matplotlib v3.8.4, https://matplotlib.org/</dc:title>
     </cc:Agent>
    </dc:creator>
   </cc:Work>
  </rdf:RDF>
 </metadata>
 <defs>
  <style type="text/css">*{stroke-linejoin: round; stroke-linecap: butt}</style>
 </defs>
 <g id="figure_1">
  <g id="patch_1">
   <path d="M 0 345.6 
L 460.8 345.6 
L 460.8 0 
L 0 0 
z
" style="fill: #ffffff"/>
  </g>
  <g id="axes_1">
   <g id="patch_2">
    <path d="M 57.6 307.584 
L 414.72 307.584 
L 414.72 41.472 
L 57.6 41.472 
z
" style="fill: #ffffff"/>
   </g>
   <g id="patch_3">
    <path d="M 109.905455 307.584 
L 135.593609 307.584 
L 135.593609 266.858265 
L 109.905455 266.858265 
z
" clip-path="url(#p22633462e6)" style="fill: #1f77b4"/>
   </g>
   <g id="patch_4">
    <path d="M 135.593609 307.584 
L 161.281763 307.584 
L 161.281763 100.975393 
L 135.593609 100.975393 
z
" clip-path="url(#p22633462e6)" style="fill: #1f77b4"/>
   </g>
   <g id="patch_5">
    <path d="M 161.281763 307.584 
L 186.969917 307.584 
L 186.969917 107.928567 
L 161.281763 107.928567 
z
" clip-path="url(#p22633462e6)" style="fill: #1f77b4"/>
   </g>
   <g id="patch_6">
    <path d="M 186.969917 307.584 
L 212.658072 307.584 
L 212.658072 256.925159 
L 186.969917 256.925159 
z
" clip-path="url(#p22633462e6)" style="fill: #1f77b4"/>
   </g>
   <g id="patch_7">
    <path d="M 212.658072 307.584 
L 238.346226 307.584 
L 238.346226 305.597379 
L 212.658072 305.597379 
z
" clip-path="url(#p22633462e6)" style="fill: #1f77b4"/>
   </g>
   <g id="patch_8">
    <path d="M 238.346226 307.584 
L 264.03438 307.584 
L 264.03438 293.677651 
L 238.346226 293.677651 
z
" clip-path="url(#p22633462e6)" style="fill: #1f77b4"/>
   </g>
   <g id="patch_9">
    <path d="M 264.03438 307.584 
L 289.722534 307.584 
L 289.722534 226.13253 
L 264.03438 226.13253 
z
" clip-path="url(#p22633462e6)" style="fill: #1f77b4"/>
   </g>
   <g id="patch_10">
    <path d="M 289.722534 307.584 
L 315.410689 307.584 
L 315.410689 115.875052 
L 289.722534 115.875052 
z
" clip-path="url(#p22633462e6)" style="fill: #1f77b4"/>
   </g>
   <g id="patch_11">
    <path d="M 315.410689 307.584 
L 341.098843 307.584 
L 341.098843 178.45362 
L 315.410689 178.45362 
z
" clip-path="url(#p22633462e6)" style="fill: #1f77b4"/>
   </g>
   <g id="patch_12">
    <path d="M 341.098843 307.584 
L 366.786997 307.584 
L 366.786997 251.958606 
L 341.098843 251.958606 
z
" clip-path="url(#p22633462e6)" style="fill: #1f77b4"/>
   </g>
   <g id="patch_13">
    <path d="M 366.786997 307.584 
L 392.475152 307.584 
L 392.475152 285.731167 
L 366.786997 285.731167 
z
" clip-path="url(#p22633462e6)" style="fill: #1f77b4"/>
   </g>
   <g id="matplotlib.axis_1">
    <g id="xtick_1">
     <g id="line2d_1">
      <defs>
       <path id="m498ef1faad" d="M 0 0 
L 0 3.5 
" style="stroke: #000000; stroke-width: 0.8"/>
      </defs>
      <g>
       <use xlink:href="#m498ef1faad" x="67.820606" y="307.584" style="stroke: #000000; stroke-width: 0.8"/>
      </g>
     </g>
     <g id="text_1">
      <!-- 0 -->
      <g transform="translate(64.639356 322.182437) scale(0.1 -0.1)">
       <defs>
        <path id="DejaVuSans-30" d="M 2034 4250 
Q 1547 4250 1301 3770 
Q 1056 3291 1056 2328 
Q 1056 1369 1301 889 
Q 1547 409 2034 409 
Q 2525 409 2770 889 
Q 3016 1369 3016 2328 
Q 3016 3291 2770 3770 
Q 2525 4250 2034 4250 
z
M 2034 4750 
Q 2819 4750 3233 4129 
Q 3647 3509 3647 2328 
Q 3647 1150 3233 529 
Q 2819 -91 2034 -91 
Q 1250 -91 836 529 
Q 422 1150 422 2328 
Q 422 3509 836 4129 
Q 1250 4750 2034 4750 
z
" transform="scale(0.015625)"/>
       </defs>
       <use xlink:href="#DejaVuSans-30"/>
      </g>
     </g>
    </g>
    <g id="xtick_2">
     <g id="line2d_2">
      <g>
       <use xlink:href="#m498ef1faad" x="127.941818" y="307.584" style="stroke: #000000; stroke-width: 0.8"/>
      </g>
     </g>
     <g id="text_2">
      <!-- 10 -->
      <g transform="translate(121.579318 322.182437) scale(0.1 -0.1)">
       <defs>
        <path id="DejaVuSans-31" d="M 794 531 
L 1825 531 
L 1825 4091 
L 703 3866 
L 703 4441 
L 1819 4666 
L 2450 4666 
L 2450 531 
L 3481 531 
L 3481 0 
L 794 0 
L 794 531 
z
" transform="scale(0.015625)"/>
       </defs>
       <use xlink:href="#DejaVuSans-31"/>
       <use xlink:href="#DejaVuSans-30" x="63.623047"/>
      </g>
     </g>
    </g>
    <g id="xtick_3">
     <g id="line2d_3">
      <g>
       <use xlink:href="#m498ef1faad" x="188.06303" y="307.584" style="stroke: #000000; stroke-width: 0.8"/>
      </g>
     </g>
     <g id="text_3">
      <!-- 20 -->
      <g transform="translate(181.70053 322.182437) scale(0.1 -0.1)">
       <defs>
        <path id="DejaVuSans-32" d="M 1228 531 
L 3431 531 
L 3431 0 
L 469 0 
L 469 531 
Q 828 903 1448 1529 
Q 2069 2156 2228 2338 
Q 2531 2678 2651 2914 
Q 2772 3150 2772 3378 
Q 2772 3750 2511 3984 
Q 2250 4219 1831 4219 
Q 1534 4219 1204 4116 
Q 875 4013 500 3803 
L 500 4441 
Q 881 4594 1212 4672 
Q 1544 4750 1819 4750 
Q 2544 4750 2975 4387 
Q 3406 4025 3406 3419 
Q 3406 3131 3298 2873 
Q 3191 2616 2906 2266 
Q 2828 2175 2409 1742 
Q 1991 1309 1228 531 
z
" transform="scale(0.015625)"/>
       </defs>
       <use xlink:href="#DejaVuSans-32"/>
       <use xlink:href="#DejaVuSans-30" x="63.623047"/>
      </g>
     </g>
    </g>
    <g id="xtick_4">
     <g id="line2d_4">
      <g>
       <use xlink:href="#m498ef1faad" x="248.184242" y="307.584" style="stroke: #000000; stroke-width: 0.8"/>
      </g>
     </g>
     <g id="text_4">
      <!-- 30 -->
      <g transform="translate(241.821742 322.182437) scale(0.1 -0.1)">
       <defs>
        <path id="DejaVuSans-33" d="M 2597 2516 
Q 3050 2419 3304 2112 
Q 3559 1806 3559 1356 
Q 3559 666 3084 287 
Q 2609 -91 1734 -91 
Q 1441 -91 1130 -33 
Q 819 25 488 141 
L 488 750 
Q 750 597 1062 519 
Q 1375 441 1716 441 
Q 2309 441 2620 675 
Q 2931 909 2931 1356 
Q 2931 1769 2642 2001 
Q 2353 2234 1838 2234 
L 1294 2234 
L 1294 2753 
L 1863 2753 
Q 2328 2753 2575 2939 
Q 2822 3125 2822 3475 
Q 2822 3834 2567 4026 
Q 2313 4219 1838 4219 
Q 1578 4219 1281 4162 
Q 984 4106 628 3988 
L 628 4550 
Q 988 4650 1302 4700 
Q 1616 4750 1894 4750 
Q 2613 4750 3031 4423 
Q 3450 4097 3450 3541 
Q 3450 3153 3228 2886 
Q 3006 2619 2597 2516 
z
" transform="scale(0.015625)"/>
       </defs>
       <use xlink:href="#DejaVuSans-33"/>
       <use xlink:href="#DejaVuSans-30" x="63.623047"/>
      </g>
     </g>
    </g>
    <g id="xtick_5">
     <g id="line2d_5">
      <g>
       <use xlink:href="#m498ef1faad" x="308.305455" y="307.584" style="stroke: #000000; stroke-width: 0.8"/>
      </g>
     </g>
     <g id="text_5">
      <!-- 40 -->
      <g transform="translate(301.942955 322.182437) scale(0.1 -0.1)">
       <defs>
        <path id="DejaVuSans-34" d="M 2419 4116 
L 825 1625 
L 2419 1625 
L 2419 4116 
z
M 2253 4666 
L 3047 4666 
L 3047 1625 
L 3713 1625 
L 3713 1100 
L 3047 1100 
L 3047 0 
L 2419 0 
L 2419 1100 
L 313 1100 
L 313 1709 
L 2253 4666 
z
" transform="scale(0.015625)"/>
       </defs>
       <use xlink:href="#DejaVuSans-34"/>
       <use xlink:href="#DejaVuSans-30" x="63.623047"/>
      </g>
     </g>
    </g>
    <g id="xtick_6">
     <g id="line2d_6">
      <g>
       <use xlink:href="#m498ef1faad" x="368.426667" y="307.584" style="stroke: #000000; stroke-width: 0.8"/>
      </g>
     </g>
     <g id="text_6">
      <!-- 50 -->
      <g transform="translate(362.064167 322.182437) scale(0.1 -0.1)">
       <defs>
        <path id="DejaVuSans-35" d="M 691 4666 
L 3169 4666 
L 3169 4134 
L 1269 4134 
L 1269 2991 
Q 1406 3038 1543 3061 
Q 1681 3084 1819 3084 
Q 2600 3084 3056 2656 
Q 3513 2228 3513 1497 
Q 3513 744 3044 326 
Q 2575 -91 1722 -91 
Q 1428 -91 1123 -41 
Q 819 9 494 109 
L 494 744 
Q 775 591 1075 516 
Q 1375 441 1709 441 
Q 2250 441 2565 725 
Q 2881 1009 2881 1497 
Q 2881 1984 2565 2268 
Q 2250 2553 1709 2553 
Q 1456 2553 1204 2497 
Q 953 2441 691 2322 
L 691 4666 
z
" transform="scale(0.015625)"/>
       </defs>
       <use xlink:href="#DejaVuSans-35"/>
       <use xlink:href="#DejaVuSans-30" x="63.623047"/>
      </g>
     </g>
    </g>
   </g>
   <g id="matplotlib.axis_2">
    <g id="ytick_1">
     <g id="line2d_7">
      <defs>
       <path id="m28ef0e3457" d="M 0 0 
L -3.5 0 
" style="stroke: #000000; stroke-width: 0.8"/>
      </defs>
      <g>
       <use xlink:href="#m28ef0e3457" x="57.6" y="307.584" style="stroke: #000000; stroke-width: 0.8"/>
      </g>
     </g>
     <g id="text_7">
      <!-- 0.00 -->
      <g transform="translate(28.334375 311.383219) scale(0.1 -0.1)">
       <defs>
        <path id="DejaVuSans-2e" d="M 684 794 
L 1344 794 
L 1344 0 
L 684 0 
L 684 794 
z
" transform="scale(0.015625)"/>
       </defs>
       <use xlink:href="#DejaVuSans-30"/>
       <use xlink:href="#DejaVuSans-2e" x="63.623047"/>
       <use xlink:href="#DejaVuSans-30" x="95.410156"/>
       <use xlink:href="#DejaVuSans-30" x="159.033203"/>
      </g>
     </g>
    </g>
    <g id="ytick_2">
     <g id="line2d_8">
      <g>
       <use xlink:href="#m28ef0e3457" x="57.6" y="265.142547" style="stroke: #000000; stroke-width: 0.8"/>
      </g>
     </g>
     <g id="text_8">
      <!-- 0.01 -->
      <g transform="translate(28.334375 268.941765) scale(0.1 -0.1)">
       <use xlink:href="#DejaVuSans-30"/>
       <use xlink:href="#DejaVuSans-2e" x="63.623047"/>
       <use xlink:href="#DejaVuSans-30" x="95.410156"/>
       <use xlink:href="#DejaVuSans-31" x="159.033203"/>
      </g>
     </g>
    </g>
    <g id="ytick_3">
     <g id="line2d_9">
      <g>
       <use xlink:href="#m28ef0e3457" x="57.6" y="222.701093" style="stroke: #000000; stroke-width: 0.8"/>
      </g>
     </g>
     <g id="text_9">
      <!-- 0.02 -->
      <g transform="translate(28.334375 226.500312) scale(0.1 -0.1)">
       <use xlink:href="#DejaVuSans-30"/>
       <use xlink:href="#DejaVuSans-2e" x="63.623047"/>
       <use xlink:href="#DejaVuSans-30" x="95.410156"/>
       <use xlink:href="#DejaVuSans-32" x="159.033203"/>
      </g>
     </g>
    </g>
    <g id="ytick_4">
     <g id="line2d_10">
      <g>
       <use xlink:href="#m28ef0e3457" x="57.6" y="180.25964" style="stroke: #000000; stroke-width: 0.8"/>
      </g>
     </g>
     <g id="text_10">
      <!-- 0.03 -->
      <g transform="translate(28.334375 184.058858) scale(0.1 -0.1)">
       <use xlink:href="#DejaVuSans-30"/>
       <use xlink:href="#DejaVuSans-2e" x="63.623047"/>
       <use xlink:href="#DejaVuSans-30" x="95.410156"/>
       <use xlink:href="#DejaVuSans-33" x="159.033203"/>
      </g>
     </g>
    </g>
    <g id="ytick_5">
     <g id="line2d_11">
      <g>
       <use xlink:href="#m28ef0e3457" x="57.6" y="137.818186" style="stroke: #000000; stroke-width: 0.8"/>
      </g>
     </g>
     <g id="text_11">
      <!-- 0.04 -->
      <g transform="translate(28.334375 141.617405) scale(0.1 -0.1)">
       <use xlink:href="#DejaVuSans-30"/>
       <use xlink:href="#DejaVuSans-2e" x="63.623047"/>
       <use xlink:href="#DejaVuSans-30" x="95.410156"/>
       <use xlink:href="#DejaVuSans-34" x="159.033203"/>
      </g>
     </g>
    </g>
    <g id="ytick_6">
     <g id="line2d_12">
      <g>
       <use xlink:href="#m28ef0e3457" x="57.6" y="95.376733" style="stroke: #000000; stroke-width: 0.8"/>
      </g>
     </g>
     <g id="text_12">
      <!-- 0.05 -->
      <g transform="translate(28.334375 99.175952) scale(0.1 -0.1)">
       <use xlink:href="#DejaVuSans-30"/>
       <use xlink:href="#DejaVuSans-2e" x="63.623047"/>
       <use xlink:href="#DejaVuSans-30" x="95.410156"/>
       <use xlink:href="#DejaVuSans-35" x="159.033203"/>
      </g>
     </g>
    </g>
    <g id="ytick_7">
     <g id="line2d_13">
      <g>
       <use xlink:href="#m28ef0e3457" x="57.6" y="52.935279" style="stroke: #000000; stroke-width: 0.8"/>
      </g>
     </g>
     <g id="text_13">
      <!-- 0.06 -->
      <g transform="translate(28.334375 56.734498) scale(0.1 -0.1)">
       <defs>
        <path id="DejaVuSans-36" d="M 2113 2584 
Q 1688 2584 1439 2293 
Q 1191 2003 1191 1497 
Q 1191 994 1439 701 
Q 1688 409 2113 409 
Q 2538 409 2786 701 
Q 3034 994 3034 1497 
Q 3034 2003 2786 2293 
Q 2538 2584 2113 2584 
z
M 3366 4563 
L 3366 3988 
Q 3128 4100 2886 4159 
Q 2644 4219 2406 4219 
Q 1781 4219 1451 3797 
Q 1122 3375 1075 2522 
Q 1259 2794 1537 2939 
Q 1816 3084 2150 3084 
Q 2853 3084 3261 2657 
Q 3669 2231 3669 1497 
Q 3669 778 3244 343 
Q 2819 -91 2113 -91 
Q 1303 -91 875 529 
Q 447 1150 447 2328 
Q 447 3434 972 4092 
Q 1497 4750 2381 4750 
Q 2619 4750 2861 4703 
Q 3103 4656 3366 4563 
z
" transform="scale(0.015625)"/>
       </defs>
       <use xlink:href="#DejaVuSans-30"/>
       <use xlink:href="#DejaVuSans-2e" x="63.623047"/>
       <use xlink:href="#DejaVuSans-30" x="95.410156"/>
       <use xlink:href="#DejaVuSans-36" x="159.033203"/>
      </g>
     </g>
    </g>
   </g>
   <g id="line2d_14">
    <path d="M 73.832727 307.584 
L 73.832727 307.584 
L 79.844848 307.584 
L 79.844848 307.584 
L 85.85697 307.584 
L 85.85697 307.583997 
L 91.869091 307.583997 
L 91.869091 307.583999 
L 97.881212 307.583999 
L 97.881212 307.583998 
L 103.893333 307.583998 
L 103.893333 307.584 
L 109.905455 307.584 
L 109.905455 307.584 
L 115.917576 307.584 
L 115.917576 307.583292 
L 121.929697 307.583292 
L 121.929697 271.428156 
L 127.941818 271.428156 
L 127.941818 247.914088 
L 133.953939 247.914088 
L 133.953939 242.102232 
L 139.966061 242.102232 
L 139.966061 177.858145 
L 145.978182 177.858145 
L 145.978182 106.256254 
L 151.990303 106.256254 
L 151.990303 62.953675 
L 158.002424 62.953675 
L 158.002424 54.144 
L 164.014545 54.144 
L 164.014545 70.835722 
L 170.026667 70.835722 
L 170.026667 101.045908 
L 176.038788 101.045908 
L 176.038788 133.784117 
L 182.050909 133.784117 
L 182.050909 161.272728 
L 188.06303 161.272728 
L 188.06303 179.965524 
L 194.075152 179.965524 
L 194.075152 190.071769 
L 200.087273 190.071769 
L 200.087273 194.09053 
L 206.099394 194.09053 
L 206.099394 195.211632 
L 212.111515 195.211632 
L 212.111515 196.133215 
L 218.123636 196.133215 
L 218.123636 198.476629 
L 224.135758 198.476629 
L 224.135758 202.734148 
L 230.147879 202.734148 
L 230.147879 208.5616 
L 236.16 208.5616 
L 236.16 215.201132 
L 242.172121 215.201132 
L 242.172121 221.862675 
L 248.184242 221.862675 
L 248.184242 227.969414 
L 254.196364 227.969414 
L 254.196364 233.247992 
L 260.208485 233.247992 
L 260.208485 237.696429 
L 266.220606 237.696429 
L 266.220606 241.485546 
L 272.232727 241.485546 
L 272.232727 244.847701 
L 278.244848 244.847701 
L 278.244848 247.989819 
L 284.25697 247.989819 
L 284.25697 251.046649 
L 290.269091 251.046649 
L 290.269091 254.072458 
L 296.281212 254.072458 
L 296.281212 257.058977 
L 302.293333 257.058977 
L 302.293333 259.964426 
L 308.305455 259.964426 
L 308.305455 262.74103 
L 314.317576 262.74103 
L 314.317576 265.353658 
L 320.329697 265.353658 
L 320.329697 267.787571 
L 326.341818 267.787571 
L 326.341818 270.047196 
L 332.353939 270.047196 
L 332.353939 272.149703 
L 338.366061 272.149703 
L 338.366061 274.117214 
L 344.378182 274.117214 
L 344.378182 275.97043 
L 350.390303 275.97043 
L 350.390303 277.72499 
L 356.402424 277.72499 
L 356.402424 279.390572 
L 362.414545 279.390572 
L 362.414545 280.971965 
L 368.426667 280.971965 
L 368.426667 282.471055 
L 374.438788 282.471055 
L 374.438788 283.888814 
L 380.450909 283.888814 
L 380.450909 285.226713 
L 386.46303 285.226713 
L 386.46303 286.487379 
L 392.475152 286.487379 
L 392.475152 287.674598 
L 398.487273 287.674598 
" clip-path="url(#p22633462e6)" style="fill: none; stroke: #ff7f0e; stroke-width: 1.5; stroke-linecap: square"/>
   </g>
   <g id="patch_14">
    <path d="M 57.6 307.584 
L 57.6 41.472 
" style="fill: none; stroke: #000000; stroke-width: 0.8; stroke-linejoin: miter; stroke-linecap: square"/>
   </g>
   <g id="patch_15">
    <path d="M 414.72 307.584 
L 414.72 41.472 
" style="fill: none; stroke: #000000; stroke-width: 0.8; stroke-linejoin: miter; stroke-linecap: square"/>
   </g>
   <g id="patch_16">
    <path d="M 57.6 307.584 
L 414.72 307.584 
" style="fill: none; stroke: #000000; stroke-width: 0.8; stroke-linejoin: miter; stroke-linecap: square"/>
   </g>
   <g id="patch_17">
    <path d="M 57.6 41.472 
L 414.72 41.472 
" style="fill: none; stroke: #000000; stroke-width: 0.8; stroke-linejoin: miter; stroke-linecap: square"/>
   </g>
   <g id="legend_1">
    <g id="patch_18">
     <path d="M 403.72 54.472 
L 407.72 54.472 
Q 409.72 54.472 409.72 52.472 
L 409.72 48.472 
Q 409.72 46.472 407.72 46.472 
L 403.72 46.472 
Q 401.72 46.472 401.72 48.472 
L 401.72 52.472 
Q 401.72 54.472 403.72 54.472 
z
" style="fill: #ffffff; opacity: 0.8; stroke: #cccccc; stroke-linejoin: miter"/>
    </g>
   </g>
  </g>
 </g>
 <defs>
  <clipPath id="p22633462e6">
   <rect x="57.6" y="41.472" width="357.12" height="266.112"/>
  </clipPath>
 </defs>
</svg>
