<?xml version="1.0" encoding="utf-8" standalone="no"?>
<!DOCTYPE svg PUBLIC "-//W3C//DTD SVG 1.1//EN"
  "http://www.w3.org/Graphics/SVG/1.1/DTD/svg11.dtd">
<svg xmlns:xlink="http://www.w3.org/1999/xlink" width="460.8pt" height="345.6pt" viewBox="0 0 460.8 345.6" xmlns="http://www.w3.org/2000/svg" version="1.1">
 <metadata>
  <rdf:RDF xmlns:dc="http://purl.org/dc/elements/1.1/" xmlns:cc="http://creativecommons.org/ns#" xmlns:rdf="http://www.w3.org/1999/02/22-rdf-syntax-ns#">
   <cc:Work>
    <dc:type rdf:resource="http://purl.org/dc/dcmitype/StillImage"/>
    <dc:date>2024-05-15T14:36:22.119057</dc:date>
    <dc:format>image/svg+xml</dc:format>
    <dc:creator>
     <cc:Agent>
      <dc:title>Matplotlib v3.8.4, https://matplotlib.org/</dc:title>
     </cc:Agent>
    </dc:creator>
   </cc:Work>
  </rdf:RDF>
 </metadata>
 <defs>
  <style type="text/css">*{stroke-linejoin: round; stroke-linecap: butt}</style>
 </defs>
 <g id="figure_1">
  <g id="patch_1">
   <path d="M 0 345.6 
L 460.8 345.6 
L 460.8 0 
L 0 0 
z
" style="fill: #ffffff"/>
  </g>
  <g id="axes_1">
   <g id="patch_2">
    <path d="M 57.6 307.584 
L 414.72 307.584 
L 414.72 41.472 
L 57.6 41.472 
z
" style="fill: #ffffff"/>
   </g>
   <g id="patch_3">
    <path d="M 109.905455 307.584 
L 135.593609 307.584 
L 135.593609 263.761906 
L 109.905455 263.761906 
z
" clip-path="url(#pde9162eeaf)" style="fill: #1f77b4"/>
   </g>
   <g id="patch_4">
    <path d="M 135.593609 307.584 
L 161.281763 307.584 
L 161.281763 85.267033 
L 135.593609 85.267033 
z
" clip-path="url(#pde9162eeaf)" style="fill: #1f77b4"/>
   </g>
   <g id="patch_5">
    <path d="M 161.281763 307.584 
L 186.969917 307.584 
L 186.969917 92.748854 
L 161.281763 92.748854 
z
" clip-path="url(#pde9162eeaf)" style="fill: #1f77b4"/>
   </g>
   <g id="patch_6">
    <path d="M 186.969917 307.584 
L 212.658072 307.584 
L 212.658072 253.07359 
L 186.969917 253.07359 
z
" clip-path="url(#pde9162eeaf)" style="fill: #1f77b4"/>
   </g>
   <g id="patch_7">
    <path d="M 212.658072 307.584 
L 238.346226 307.584 
L 238.346226 305.446337 
L 212.658072 305.446337 
z
" clip-path="url(#pde9162eeaf)" style="fill: #1f77b4"/>
   </g>
   <g id="patch_8">
    <path d="M 238.346226 307.584 
L 264.03438 307.584 
L 264.03438 292.620358 
L 238.346226 292.620358 
z
" clip-path="url(#pde9162eeaf)" style="fill: #1f77b4"/>
   </g>
   <g id="patch_9">
    <path d="M 264.03438 307.584 
L 289.722534 307.584 
L 289.722534 219.939811 
L 264.03438 219.939811 
z
" clip-path="url(#pde9162eeaf)" style="fill: #1f77b4"/>
   </g>
   <g id="patch_10">
    <path d="M 289.722534 307.584 
L 315.410689 307.584 
L 315.410689 101.299507 
L 289.722534 101.299507 
z
" clip-path="url(#pde9162eeaf)" style="fill: #1f77b4"/>
   </g>
   <g id="patch_11">
    <path d="M 315.410689 307.584 
L 341.098843 307.584 
L 341.098843 168.635896 
L 315.410689 168.635896 
z
" clip-path="url(#pde9162eeaf)" style="fill: #1f77b4"/>
   </g>
   <g id="patch_12">
    <path d="M 341.098843 307.584 
L 366.786997 307.584 
L 366.786997 247.729432 
L 341.098843 247.729432 
z
" clip-path="url(#pde9162eeaf)" style="fill: #1f77b4"/>
   </g>
   <g id="patch_13">
    <path d="M 366.786997 307.584 
L 392.475152 307.584 
L 392.475152 284.069705 
L 366.786997 284.069705 
z
" clip-path="url(#pde9162eeaf)" style="fill: #1f77b4"/>
   </g>
   <g id="matplotlib.axis_1">
    <g id="xtick_1">
     <g id="line2d_1">
      <defs>
       <path id="mcb49100a42" d="M 0 0 
L 0 3.5 
" style="stroke: #000000; stroke-width: 0.8"/>
      </defs>
      <g>
       <use xlink:href="#mcb49100a42" x="67.820606" y="307.584" style="stroke: #000000; stroke-width: 0.8"/>
      </g>
     </g>
     <g id="text_1">
      <!-- 0 -->
      <g transform="translate(64.639356 322.182437) scale(0.1 -0.1)">
       <defs>
        <path id="DejaVuSans-30" d="M 2034 4250 
Q 1547 4250 1301 3770 
Q 1056 3291 1056 2328 
Q 1056 1369 1301 889 
Q 1547 409 2034 409 
Q 2525 409 2770 889 
Q 3016 1369 3016 2328 
Q 3016 3291 2770 3770 
Q 2525 4250 2034 4250 
z
M 2034 4750 
Q 2819 4750 3233 4129 
Q 3647 3509 3647 2328 
Q 3647 1150 3233 529 
Q 2819 -91 2034 -91 
Q 1250 -91 836 529 
Q 422 1150 422 2328 
Q 422 3509 836 4129 
Q 1250 4750 2034 4750 
z
" transform="scale(0.015625)"/>
       </defs>
       <use xlink:href="#DejaVuSans-30"/>
      </g>
     </g>
    </g>
    <g id="xtick_2">
     <g id="line2d_2">
      <g>
       <use xlink:href="#mcb49100a42" x="127.941818" y="307.584" style="stroke: #000000; stroke-width: 0.8"/>
      </g>
     </g>
     <g id="text_2">
      <!-- 10 -->
      <g transform="translate(121.579318 322.182437) scale(0.1 -0.1)">
       <defs>
        <path id="DejaVuSans-31" d="M 794 531 
L 1825 531 
L 1825 4091 
L 703 3866 
L 703 4441 
L 1819 4666 
L 2450 4666 
L 2450 531 
L 3481 531 
L 3481 0 
L 794 0 
L 794 531 
z
" transform="scale(0.015625)"/>
       </defs>
       <use xlink:href="#DejaVuSans-31"/>
       <use xlink:href="#DejaVuSans-30" x="63.623047"/>
      </g>
     </g>
    </g>
    <g id="xtick_3">
     <g id="line2d_3">
      <g>
       <use xlink:href="#mcb49100a42" x="188.06303" y="307.584" style="stroke: #000000; stroke-width: 0.8"/>
      </g>
     </g>
     <g id="text_3">
      <!-- 20 -->
      <g transform="translate(181.70053 322.182437) scale(0.1 -0.1)">
       <defs>
        <path id="DejaVuSans-32" d="M 1228 531 
L 3431 531 
L 3431 0 
L 469 0 
L 469 531 
Q 828 903 1448 1529 
Q 2069 2156 2228 2338 
Q 2531 2678 2651 2914 
Q 2772 3150 2772 3378 
Q 2772 3750 2511 3984 
Q 2250 4219 1831 4219 
Q 1534 4219 1204 4116 
Q 875 4013 500 3803 
L 500 4441 
Q 881 4594 1212 4672 
Q 1544 4750 1819 4750 
Q 2544 4750 2975 4387 
Q 3406 4025 3406 3419 
Q 3406 3131 3298 2873 
Q 3191 2616 2906 2266 
Q 2828 2175 2409 1742 
Q 1991 1309 1228 531 
z
" transform="scale(0.015625)"/>
       </defs>
       <use xlink:href="#DejaVuSans-32"/>
       <use xlink:href="#DejaVuSans-30" x="63.623047"/>
      </g>
     </g>
    </g>
    <g id="xtick_4">
     <g id="line2d_4">
      <g>
       <use xlink:href="#mcb49100a42" x="248.184242" y="307.584" style="stroke: #000000; stroke-width: 0.8"/>
      </g>
     </g>
     <g id="text_4">
      <!-- 30 -->
      <g transform="translate(241.821742 322.182437) scale(0.1 -0.1)">
       <defs>
        <path id="DejaVuSans-33" d="M 2597 2516 
Q 3050 2419 3304 2112 
Q 3559 1806 3559 1356 
Q 3559 666 3084 287 
Q 2609 -91 1734 -91 
Q 1441 -91 1130 -33 
Q 819 25 488 141 
L 488 750 
Q 750 597 1062 519 
Q 1375 441 1716 441 
Q 2309 441 2620 675 
Q 2931 909 2931 1356 
Q 2931 1769 2642 2001 
Q 2353 2234 1838 2234 
L 1294 2234 
L 1294 2753 
L 1863 2753 
Q 2328 2753 2575 2939 
Q 2822 3125 2822 3475 
Q 2822 3834 2567 4026 
Q 2313 4219 1838 4219 
Q 1578 4219 1281 4162 
Q 984 4106 628 3988 
L 628 4550 
Q 988 4650 1302 4700 
Q 1616 4750 1894 4750 
Q 2613 4750 3031 4423 
Q 3450 4097 3450 3541 
Q 3450 3153 3228 2886 
Q 3006 2619 2597 2516 
z
" transform="scale(0.015625)"/>
       </defs>
       <use xlink:href="#DejaVuSans-33"/>
       <use xlink:href="#DejaVuSans-30" x="63.623047"/>
      </g>
     </g>
    </g>
    <g id="xtick_5">
     <g id="line2d_5">
      <g>
       <use xlink:href="#mcb49100a42" x="308.305455" y="307.584" style="stroke: #000000; stroke-width: 0.8"/>
      </g>
     </g>
     <g id="text_5">
      <!-- 40 -->
      <g transform="translate(301.942955 322.182437) scale(0.1 -0.1)">
       <defs>
        <path id="DejaVuSans-34" d="M 2419 4116 
L 825 1625 
L 2419 1625 
L 2419 4116 
z
M 2253 4666 
L 3047 4666 
L 3047 1625 
L 3713 1625 
L 3713 1100 
L 3047 1100 
L 3047 0 
L 2419 0 
L 2419 1100 
L 313 1100 
L 313 1709 
L 2253 4666 
z
" transform="scale(0.015625)"/>
       </defs>
       <use xlink:href="#DejaVuSans-34"/>
       <use xlink:href="#DejaVuSans-30" x="63.623047"/>
      </g>
     </g>
    </g>
    <g id="xtick_6">
     <g id="line2d_6">
      <g>
       <use xlink:href="#mcb49100a42" x="368.426667" y="307.584" style="stroke: #000000; stroke-width: 0.8"/>
      </g>
     </g>
     <g id="text_6">
      <!-- 50 -->
      <g transform="translate(362.064167 322.182437) scale(0.1 -0.1)">
       <defs>
        <path id="DejaVuSans-35" d="M 691 4666 
L 3169 4666 
L 3169 4134 
L 1269 4134 
L 1269 2991 
Q 1406 3038 1543 3061 
Q 1681 3084 1819 3084 
Q 2600 3084 3056 2656 
Q 3513 2228 3513 1497 
Q 3513 744 3044 326 
Q 2575 -91 1722 -91 
Q 1428 -91 1123 -41 
Q 819 9 494 109 
L 494 744 
Q 775 591 1075 516 
Q 1375 441 1709 441 
Q 2250 441 2565 725 
Q 2881 1009 2881 1497 
Q 2881 1984 2565 2268 
Q 2250 2553 1709 2553 
Q 1456 2553 1204 2497 
Q 953 2441 691 2322 
L 691 4666 
z
" transform="scale(0.015625)"/>
       </defs>
       <use xlink:href="#DejaVuSans-35"/>
       <use xlink:href="#DejaVuSans-30" x="63.623047"/>
      </g>
     </g>
    </g>
   </g>
   <g id="matplotlib.axis_2">
    <g id="ytick_1">
     <g id="line2d_7">
      <defs>
       <path id="mf150b0c98d" d="M 0 0 
L -3.5 0 
" style="stroke: #000000; stroke-width: 0.8"/>
      </defs>
      <g>
       <use xlink:href="#mf150b0c98d" x="57.6" y="307.584" style="stroke: #000000; stroke-width: 0.8"/>
      </g>
     </g>
     <g id="text_7">
      <!-- 0.00 -->
      <g transform="translate(28.334375 311.383219) scale(0.1 -0.1)">
       <defs>
        <path id="DejaVuSans-2e" d="M 684 794 
L 1344 794 
L 1344 0 
L 684 0 
L 684 794 
z
" transform="scale(0.015625)"/>
       </defs>
       <use xlink:href="#DejaVuSans-30"/>
       <use xlink:href="#DejaVuSans-2e" x="63.623047"/>
       <use xlink:href="#DejaVuSans-30" x="95.410156"/>
       <use xlink:href="#DejaVuSans-30" x="159.033203"/>
      </g>
     </g>
    </g>
    <g id="ytick_2">
     <g id="line2d_8">
      <g>
       <use xlink:href="#mf150b0c98d" x="57.6" y="261.915742" style="stroke: #000000; stroke-width: 0.8"/>
      </g>
     </g>
     <g id="text_8">
      <!-- 0.01 -->
      <g transform="translate(28.334375 265.714961) scale(0.1 -0.1)">
       <use xlink:href="#DejaVuSans-30"/>
       <use xlink:href="#DejaVuSans-2e" x="63.623047"/>
       <use xlink:href="#DejaVuSans-30" x="95.410156"/>
       <use xlink:href="#DejaVuSans-31" x="159.033203"/>
      </g>
     </g>
    </g>
    <g id="ytick_3">
     <g id="line2d_9">
      <g>
       <use xlink:href="#mf150b0c98d" x="57.6" y="216.247484" style="stroke: #000000; stroke-width: 0.8"/>
      </g>
     </g>
     <g id="text_9">
      <!-- 0.02 -->
      <g transform="translate(28.334375 220.046703) scale(0.1 -0.1)">
       <use xlink:href="#DejaVuSans-30"/>
       <use xlink:href="#DejaVuSans-2e" x="63.623047"/>
       <use xlink:href="#DejaVuSans-30" x="95.410156"/>
       <use xlink:href="#DejaVuSans-32" x="159.033203"/>
      </g>
     </g>
    </g>
    <g id="ytick_4">
     <g id="line2d_10">
      <g>
       <use xlink:href="#mf150b0c98d" x="57.6" y="170.579226" style="stroke: #000000; stroke-width: 0.8"/>
      </g>
     </g>
     <g id="text_10">
      <!-- 0.03 -->
      <g transform="translate(28.334375 174.378445) scale(0.1 -0.1)">
       <use xlink:href="#DejaVuSans-30"/>
       <use xlink:href="#DejaVuSans-2e" x="63.623047"/>
       <use xlink:href="#DejaVuSans-30" x="95.410156"/>
       <use xlink:href="#DejaVuSans-33" x="159.033203"/>
      </g>
     </g>
    </g>
    <g id="ytick_5">
     <g id="line2d_11">
      <g>
       <use xlink:href="#mf150b0c98d" x="57.6" y="124.910968" style="stroke: #000000; stroke-width: 0.8"/>
      </g>
     </g>
     <g id="text_11">
      <!-- 0.04 -->
      <g transform="translate(28.334375 128.710187) scale(0.1 -0.1)">
       <use xlink:href="#DejaVuSans-30"/>
       <use xlink:href="#DejaVuSans-2e" x="63.623047"/>
       <use xlink:href="#DejaVuSans-30" x="95.410156"/>
       <use xlink:href="#DejaVuSans-34" x="159.033203"/>
      </g>
     </g>
    </g>
    <g id="ytick_6">
     <g id="line2d_12">
      <g>
       <use xlink:href="#mf150b0c98d" x="57.6" y="79.24271" style="stroke: #000000; stroke-width: 0.8"/>
      </g>
     </g>
     <g id="text_12">
      <!-- 0.05 -->
      <g transform="translate(28.334375 83.041928) scale(0.1 -0.1)">
       <use xlink:href="#DejaVuSans-30"/>
       <use xlink:href="#DejaVuSans-2e" x="63.623047"/>
       <use xlink:href="#DejaVuSans-30" x="95.410156"/>
       <use xlink:href="#DejaVuSans-35" x="159.033203"/>
      </g>
     </g>
    </g>
   </g>
   <g id="line2d_13">
    <path d="M 73.832727 307.584 
L 73.832727 307.583997 
L 79.844848 307.583997 
L 79.844848 307.583121 
L 85.85697 307.583121 
L 85.85697 307.583442 
L 91.869091 307.583442 
L 91.869091 307.583323 
L 97.881212 307.583323 
L 97.881212 307.5186 
L 103.893333 307.5186 
L 103.893333 304.671129 
L 109.905455 304.671129 
L 109.905455 300.243397 
L 115.917576 300.243397 
L 115.917576 295.946455 
L 121.929697 295.946455 
L 121.929697 274.987099 
L 127.941818 274.987099 
L 127.941818 234.497589 
L 133.953939 234.497589 
L 133.953939 183.023702 
L 139.966061 183.023702 
L 139.966061 132.163575 
L 145.978182 132.163575 
L 145.978182 91.117175 
L 151.990303 91.117175 
L 151.990303 64.795374 
L 158.002424 64.795374 
L 158.002424 54.144 
L 164.014545 54.144 
L 164.014545 57.37459 
L 170.026667 57.37459 
L 170.026667 71.242842 
L 176.038788 71.242842 
L 176.038788 92.030369 
L 182.050909 92.030369 
L 182.050909 116.192916 
L 188.06303 116.192916 
L 188.06303 140.744367 
L 194.075152 140.744367 
L 194.075152 163.449713 
L 200.087273 163.449713 
L 200.087273 182.878202 
L 206.099394 182.878202 
L 206.099394 198.352579 
L 212.111515 198.352579 
L 212.111515 209.825667 
L 218.123636 209.825667 
L 218.123636 217.715315 
L 224.135758 217.715315 
L 224.135758 222.727235 
L 230.147879 222.727235 
L 230.147879 225.690368 
L 236.16 225.690368 
L 236.16 227.421925 
L 242.172121 227.421925 
L 242.172121 228.631026 
L 248.184242 228.631026 
L 248.184242 229.862426 
L 254.196364 229.862426 
L 254.196364 231.476278 
L 260.208485 231.476278 
L 260.208485 233.656428 
L 266.220606 233.656428 
L 266.220606 236.438234 
L 272.232727 236.438234 
L 272.232727 239.747005 
L 278.244848 239.747005 
L 278.244848 243.439319 
L 284.25697 243.439319 
L 284.25697 247.34129 
L 290.269091 247.34129 
L 290.269091 251.279889 
L 296.281212 251.279889 
L 296.281212 255.105375 
L 302.293333 255.105375 
L 302.293333 258.704515 
L 308.305455 258.704515 
L 308.305455 262.005546 
L 314.317576 262.005546 
L 314.317576 264.976532 
L 320.329697 264.976532 
L 320.329697 267.619194 
L 326.341818 267.619194 
L 326.341818 269.960213 
L 332.353939 269.960213 
L 332.353939 272.041817 
L 338.366061 272.041817 
L 338.366061 273.913006 
L 344.378182 273.913006 
L 344.378182 275.622333 
L 350.390303 275.622333 
L 350.390303 277.212713 
L 356.402424 277.212713 
L 356.402424 278.718333 
L 362.414545 278.718333 
L 362.414545 280.163475 
L 368.426667 280.163475 
L 368.426667 281.562857 
L 374.438788 281.562857 
L 374.438788 282.923031 
L 380.450909 282.923031 
L 380.450909 284.244386 
L 386.46303 284.244386 
L 386.46303 285.523313 
L 392.475152 285.523313 
L 392.475152 286.75425 
L 398.487273 286.75425 
" clip-path="url(#pde9162eeaf)" style="fill: none; stroke: #ff7f0e; stroke-width: 1.5; stroke-linecap: square"/>
   </g>
   <g id="patch_14">
    <path d="M 57.6 307.584 
L 57.6 41.472 
" style="fill: none; stroke: #000000; stroke-width: 0.8; stroke-linejoin: miter; stroke-linecap: square"/>
   </g>
   <g id="patch_15">
    <path d="M 414.72 307.584 
L 414.72 41.472 
" style="fill: none; stroke: #000000; stroke-width: 0.8; stroke-linejoin: miter; stroke-linecap: square"/>
   </g>
   <g id="patch_16">
    <path d="M 57.6 307.584 
L 414.72 307.584 
" style="fill: none; stroke: #000000; stroke-width: 0.8; stroke-linejoin: miter; stroke-linecap: square"/>
   </g>
   <g id="patch_17">
    <path d="M 57.6 41.472 
L 414.72 41.472 
" style="fill: none; stroke: #000000; stroke-width: 0.8; stroke-linejoin: miter; stroke-linecap: square"/>
   </g>
   <g id="legend_1">
    <g id="patch_18">
     <path d="M 403.72 54.472 
L 407.72 54.472 
Q 409.72 54.472 409.72 52.472 
L 409.72 48.472 
Q 409.72 46.472 407.72 46.472 
L 403.72 46.472 
Q 401.72 46.472 401.72 48.472 
L 401.72 52.472 
Q 401.72 54.472 403.72 54.472 
z
" style="fill: #ffffff; opacity: 0.8; stroke: #cccccc; stroke-linejoin: miter"/>
    </g>
   </g>
  </g>
 </g>
 <defs>
  <clipPath id="pde9162eeaf">
   <rect x="57.6" y="41.472" width="357.12" height="266.112"/>
  </clipPath>
 </defs>
</svg>
