<?xml version="1.0" encoding="utf-8" standalone="no"?>
<!DOCTYPE svg PUBLIC "-//W3C//DTD SVG 1.1//EN"
  "http://www.w3.org/Graphics/SVG/1.1/DTD/svg11.dtd">
<svg xmlns:xlink="http://www.w3.org/1999/xlink" width="460.8pt" height="345.6pt" viewBox="0 0 460.8 345.6" xmlns="http://www.w3.org/2000/svg" version="1.1">
 <metadata>
  <rdf:RDF xmlns:dc="http://purl.org/dc/elements/1.1/" xmlns:cc="http://creativecommons.org/ns#" xmlns:rdf="http://www.w3.org/1999/02/22-rdf-syntax-ns#">
   <cc:Work>
    <dc:type rdf:resource="http://purl.org/dc/dcmitype/StillImage"/>
    <dc:date>2024-05-03T22:40:39.029898</dc:date>
    <dc:format>image/svg+xml</dc:format>
    <dc:creator>
     <cc:Agent>
      <dc:title>Matplotlib v3.8.4, https://matplotlib.org/</dc:title>
     </cc:Agent>
    </dc:creator>
   </cc:Work>
  </rdf:RDF>
 </metadata>
 <defs>
  <style type="text/css">*{stroke-linejoin: round; stroke-linecap: butt}</style>
 </defs>
 <g id="figure_1">
  <g id="patch_1">
   <path d="M 0 345.6 
L 460.8 345.6 
L 460.8 0 
L 0 0 
z
" style="fill: #ffffff"/>
  </g>
  <g id="axes_1">
   <g id="patch_2">
    <path d="M 57.6 307.584 
L 414.72 307.584 
L 414.72 41.472 
L 57.6 41.472 
z
" style="fill: #ffffff"/>
   </g>
   <g id="patch_3">
    <path d="M 74.326123 307.584 
L 77.811727 307.584 
L 77.811727 302.966719 
L 74.326123 302.966719 
z
" clip-path="url(#pfe2037d81f)" style="fill: #1f77b4"/>
   </g>
   <g id="patch_4">
    <path d="M 77.811727 307.584 
L 81.297331 307.584 
L 81.297331 302.293849 
L 77.811727 302.293849 
z
" clip-path="url(#pfe2037d81f)" style="fill: #1f77b4"/>
   </g>
   <g id="patch_5">
    <path d="M 81.297331 307.584 
L 84.782935 307.584 
L 84.782935 302.038622 
L 81.297331 302.038622 
z
" clip-path="url(#pfe2037d81f)" style="fill: #1f77b4"/>
   </g>
   <g id="patch_6">
    <path d="M 84.782935 307.584 
L 88.268538 307.584 
L 88.268538 302.68829 
L 84.782935 302.68829 
z
" clip-path="url(#pfe2037d81f)" style="fill: #1f77b4"/>
   </g>
   <g id="patch_7">
    <path d="M 88.268538 307.584 
L 91.754142 307.584 
L 91.754142 301.992218 
L 88.268538 301.992218 
z
" clip-path="url(#pfe2037d81f)" style="fill: #1f77b4"/>
   </g>
   <g id="patch_8">
    <path d="M 91.754142 307.584 
L 95.239746 307.584 
L 95.239746 301.064121 
L 91.754142 301.064121 
z
" clip-path="url(#pfe2037d81f)" style="fill: #1f77b4"/>
   </g>
   <g id="patch_9">
    <path d="M 95.239746 307.584 
L 98.72535 307.584 
L 98.72535 293.012882 
L 95.239746 293.012882 
z
" clip-path="url(#pfe2037d81f)" style="fill: #1f77b4"/>
   </g>
   <g id="patch_10">
    <path d="M 98.72535 307.584 
L 102.210953 307.584 
L 102.210953 159.111734 
L 98.72535 159.111734 
z
" clip-path="url(#pfe2037d81f)" style="fill: #1f77b4"/>
   </g>
   <g id="patch_11">
    <path d="M 102.210953 307.584 
L 105.696557 307.584 
L 105.696557 54.144 
L 102.210953 54.144 
z
" clip-path="url(#pfe2037d81f)" style="fill: #1f77b4"/>
   </g>
   <g id="patch_12">
    <path d="M 105.696557 307.584 
L 109.182161 307.584 
L 109.182161 181.455662 
L 105.696557 181.455662 
z
" clip-path="url(#pfe2037d81f)" style="fill: #1f77b4"/>
   </g>
   <g id="patch_13">
    <path d="M 109.182161 307.584 
L 112.667765 307.584 
L 112.667765 257.257958 
L 109.182161 257.257958 
z
" clip-path="url(#pfe2037d81f)" style="fill: #1f77b4"/>
   </g>
   <g id="patch_14">
    <path d="M 112.667765 307.584 
L 116.153368 307.584 
L 116.153368 280.947625 
L 112.667765 280.947625 
z
" clip-path="url(#pfe2037d81f)" style="fill: #1f77b4"/>
   </g>
   <g id="patch_15">
    <path d="M 116.153368 307.584 
L 119.638972 307.584 
L 119.638972 286.632218 
L 116.153368 286.632218 
z
" clip-path="url(#pfe2037d81f)" style="fill: #1f77b4"/>
   </g>
   <g id="patch_16">
    <path d="M 119.638972 307.584 
L 123.124576 307.584 
L 123.124576 289.602127 
L 119.638972 289.602127 
z
" clip-path="url(#pfe2037d81f)" style="fill: #1f77b4"/>
   </g>
   <g id="patch_17">
    <path d="M 123.124576 307.584 
L 126.61018 307.584 
L 126.61018 292.270405 
L 123.124576 292.270405 
z
" clip-path="url(#pfe2037d81f)" style="fill: #1f77b4"/>
   </g>
   <g id="patch_18">
    <path d="M 126.61018 307.584 
L 130.095783 307.584 
L 130.095783 289.926961 
L 126.61018 289.926961 
z
" clip-path="url(#pfe2037d81f)" style="fill: #1f77b4"/>
   </g>
   <g id="patch_19">
    <path d="M 130.095783 307.584 
L 133.581387 307.584 
L 133.581387 294.126598 
L 130.095783 294.126598 
z
" clip-path="url(#pfe2037d81f)" style="fill: #1f77b4"/>
   </g>
   <g id="patch_20">
    <path d="M 133.581387 307.584 
L 137.066991 307.584 
L 137.066991 294.24261 
L 133.581387 294.24261 
z
" clip-path="url(#pfe2037d81f)" style="fill: #1f77b4"/>
   </g>
   <g id="patch_21">
    <path d="M 137.066991 307.584 
L 140.552595 307.584 
L 140.552595 295.217112 
L 137.066991 295.217112 
z
" clip-path="url(#pfe2037d81f)" style="fill: #1f77b4"/>
   </g>
   <g id="patch_22">
    <path d="M 140.552595 307.584 
L 144.038198 307.584 
L 144.038198 296.005994 
L 140.552595 296.005994 
z
" clip-path="url(#pfe2037d81f)" style="fill: #1f77b4"/>
   </g>
   <g id="patch_23">
    <path d="M 144.038198 307.584 
L 147.523802 307.584 
L 147.523802 298.071009 
L 144.038198 298.071009 
z
" clip-path="url(#pfe2037d81f)" style="fill: #1f77b4"/>
   </g>
   <g id="patch_24">
    <path d="M 147.523802 307.584 
L 151.009406 307.584 
L 151.009406 297.838985 
L 147.523802 297.838985 
z
" clip-path="url(#pfe2037d81f)" style="fill: #1f77b4"/>
   </g>
   <g id="patch_25">
    <path d="M 151.009406 307.584 
L 154.49501 307.584 
L 154.49501 298.071009 
L 151.009406 298.071009 
z
" clip-path="url(#pfe2037d81f)" style="fill: #1f77b4"/>
   </g>
   <g id="patch_26">
    <path d="M 154.49501 307.584 
L 157.980613 307.584 
L 157.980613 299.300737 
L 154.49501 299.300737 
z
" clip-path="url(#pfe2037d81f)" style="fill: #1f77b4"/>
   </g>
   <g id="patch_27">
    <path d="M 157.980613 307.584 
L 161.466217 307.584 
L 161.466217 299.23113 
L 157.980613 299.23113 
z
" clip-path="url(#pfe2037d81f)" style="fill: #1f77b4"/>
   </g>
   <g id="patch_28">
    <path d="M 161.466217 307.584 
L 164.951821 307.584 
L 164.951821 298.720677 
L 161.466217 298.720677 
z
" clip-path="url(#pfe2037d81f)" style="fill: #1f77b4"/>
   </g>
   <g id="patch_29">
    <path d="M 164.951821 307.584 
L 168.437425 307.584 
L 168.437425 299.904 
L 164.951821 299.904 
z
" clip-path="url(#pfe2037d81f)" style="fill: #1f77b4"/>
   </g>
   <g id="patch_30">
    <path d="M 168.437425 307.584 
L 171.923028 307.584 
L 171.923028 300.437656 
L 168.437425 300.437656 
z
" clip-path="url(#pfe2037d81f)" style="fill: #1f77b4"/>
   </g>
   <g id="patch_31">
    <path d="M 171.923028 307.584 
L 175.408632 307.584 
L 175.408632 299.671976 
L 171.923028 299.671976 
z
" clip-path="url(#pfe2037d81f)" style="fill: #1f77b4"/>
   </g>
   <g id="patch_32">
    <path d="M 175.408632 307.584 
L 178.894236 307.584 
L 178.894236 300.298441 
L 175.408632 300.298441 
z
" clip-path="url(#pfe2037d81f)" style="fill: #1f77b4"/>
   </g>
   <g id="patch_33">
    <path d="M 178.894236 307.584 
L 182.37984 307.584 
L 182.37984 300.344846 
L 178.894236 300.344846 
z
" clip-path="url(#pfe2037d81f)" style="fill: #1f77b4"/>
   </g>
   <g id="patch_34">
    <path d="M 182.37984 307.584 
L 185.865443 307.584 
L 185.865443 299.857595 
L 182.37984 299.857595 
z
" clip-path="url(#pfe2037d81f)" style="fill: #1f77b4"/>
   </g>
   <g id="patch_35">
    <path d="M 185.865443 307.584 
L 189.351047 307.584 
L 189.351047 299.022308 
L 185.865443 299.022308 
z
" clip-path="url(#pfe2037d81f)" style="fill: #1f77b4"/>
   </g>
   <g id="patch_36">
    <path d="M 189.351047 307.584 
L 192.836651 307.584 
L 192.836651 300.066417 
L 189.351047 300.066417 
z
" clip-path="url(#pfe2037d81f)" style="fill: #1f77b4"/>
   </g>
   <g id="patch_37">
    <path d="M 192.836651 307.584 
L 196.322255 307.584 
L 196.322255 300.437656 
L 192.836651 300.437656 
z
" clip-path="url(#pfe2037d81f)" style="fill: #1f77b4"/>
   </g>
   <g id="patch_38">
    <path d="M 196.322255 307.584 
L 199.807859 307.584 
L 199.807859 301.064121 
L 196.322255 301.064121 
z
" clip-path="url(#pfe2037d81f)" style="fill: #1f77b4"/>
   </g>
   <g id="patch_39">
    <path d="M 199.807859 307.584 
L 203.293462 307.584 
L 203.293462 301.458562 
L 199.807859 301.458562 
z
" clip-path="url(#pfe2037d81f)" style="fill: #1f77b4"/>
   </g>
   <g id="patch_40">
    <path d="M 203.293462 307.584 
L 206.779066 307.584 
L 206.779066 301.040918 
L 203.293462 301.040918 
z
" clip-path="url(#pfe2037d81f)" style="fill: #1f77b4"/>
   </g>
   <g id="patch_41">
    <path d="M 206.779066 307.584 
L 210.26467 307.584 
L 210.26467 300.994514 
L 206.779066 300.994514 
z
" clip-path="url(#pfe2037d81f)" style="fill: #1f77b4"/>
   </g>
   <g id="patch_42">
    <path d="M 210.26467 307.584 
L 213.750274 307.584 
L 213.750274 301.040918 
L 210.26467 301.040918 
z
" clip-path="url(#pfe2037d81f)" style="fill: #1f77b4"/>
   </g>
   <g id="patch_43">
    <path d="M 213.750274 307.584 
L 217.235877 307.584 
L 217.235877 302.10823 
L 213.750274 302.10823 
z
" clip-path="url(#pfe2037d81f)" style="fill: #1f77b4"/>
   </g>
   <g id="patch_44">
    <path d="M 217.235877 307.584 
L 220.721481 307.584 
L 220.721481 301.713789 
L 217.235877 301.713789 
z
" clip-path="url(#pfe2037d81f)" style="fill: #1f77b4"/>
   </g>
   <g id="patch_45">
    <path d="M 220.721481 307.584 
L 224.207085 307.584 
L 224.207085 301.736991 
L 220.721481 301.736991 
z
" clip-path="url(#pfe2037d81f)" style="fill: #1f77b4"/>
   </g>
   <g id="patch_46">
    <path d="M 224.207085 307.584 
L 227.692689 307.584 
L 227.692689 302.270647 
L 224.207085 302.270647 
z
" clip-path="url(#pfe2037d81f)" style="fill: #1f77b4"/>
   </g>
   <g id="patch_47">
    <path d="M 227.692689 307.584 
L 231.178292 307.584 
L 231.178292 302.711492 
L 227.692689 302.711492 
z
" clip-path="url(#pfe2037d81f)" style="fill: #1f77b4"/>
   </g>
   <g id="patch_48">
    <path d="M 231.178292 307.584 
L 234.663896 307.584 
L 234.663896 302.873909 
L 231.178292 302.873909 
z
" clip-path="url(#pfe2037d81f)" style="fill: #1f77b4"/>
   </g>
   <g id="patch_49">
    <path d="M 234.663896 307.584 
L 238.1495 307.584 
L 238.1495 302.085027 
L 234.663896 302.085027 
z
" clip-path="url(#pfe2037d81f)" style="fill: #1f77b4"/>
   </g>
   <g id="patch_50">
    <path d="M 238.1495 307.584 
L 241.635104 307.584 
L 241.635104 303.013124 
L 238.1495 303.013124 
z
" clip-path="url(#pfe2037d81f)" style="fill: #1f77b4"/>
   </g>
   <g id="patch_51">
    <path d="M 241.635104 307.584 
L 245.120707 307.584 
L 245.120707 303.26835 
L 241.635104 303.26835 
z
" clip-path="url(#pfe2037d81f)" style="fill: #1f77b4"/>
   </g>
   <g id="patch_52">
    <path d="M 245.120707 307.584 
L 248.606311 307.584 
L 248.606311 302.479468 
L 245.120707 302.479468 
z
" clip-path="url(#pfe2037d81f)" style="fill: #1f77b4"/>
   </g>
   <g id="patch_53">
    <path d="M 248.606311 307.584 
L 252.091915 307.584 
L 252.091915 303.569982 
L 248.606311 303.569982 
z
" clip-path="url(#pfe2037d81f)" style="fill: #1f77b4"/>
   </g>
   <g id="patch_54">
    <path d="M 252.091915 307.584 
L 255.577519 307.584 
L 255.577519 302.363456 
L 252.091915 302.363456 
z
" clip-path="url(#pfe2037d81f)" style="fill: #1f77b4"/>
   </g>
   <g id="patch_55">
    <path d="M 255.577519 307.584 
L 259.063122 307.584 
L 259.063122 303.430767 
L 255.577519 303.430767 
z
" clip-path="url(#pfe2037d81f)" style="fill: #1f77b4"/>
   </g>
   <g id="patch_56">
    <path d="M 259.063122 307.584 
L 262.548726 307.584 
L 262.548726 303.175541 
L 259.063122 303.175541 
z
" clip-path="url(#pfe2037d81f)" style="fill: #1f77b4"/>
   </g>
   <g id="patch_57">
    <path d="M 262.548726 307.584 
L 266.03433 307.584 
L 266.03433 303.569982 
L 262.548726 303.569982 
z
" clip-path="url(#pfe2037d81f)" style="fill: #1f77b4"/>
   </g>
   <g id="patch_58">
    <path d="M 266.03433 307.584 
L 269.519934 307.584 
L 269.519934 303.662792 
L 266.03433 303.662792 
z
" clip-path="url(#pfe2037d81f)" style="fill: #1f77b4"/>
   </g>
   <g id="patch_59">
    <path d="M 269.519934 307.584 
L 273.005537 307.584 
L 273.005537 303.825208 
L 269.519934 303.825208 
z
" clip-path="url(#pfe2037d81f)" style="fill: #1f77b4"/>
   </g>
   <g id="patch_60">
    <path d="M 273.005537 307.584 
L 276.491141 307.584 
L 276.491141 304.010828 
L 273.005537 304.010828 
z
" clip-path="url(#pfe2037d81f)" style="fill: #1f77b4"/>
   </g>
   <g id="patch_61">
    <path d="M 276.491141 307.584 
L 279.976745 307.584 
L 279.976745 304.12684 
L 276.491141 304.12684 
z
" clip-path="url(#pfe2037d81f)" style="fill: #1f77b4"/>
   </g>
   <g id="patch_62">
    <path d="M 279.976745 307.584 
L 283.462349 307.584 
L 283.462349 303.616387 
L 279.976745 303.616387 
z
" clip-path="url(#pfe2037d81f)" style="fill: #1f77b4"/>
   </g>
   <g id="patch_63">
    <path d="M 283.462349 307.584 
L 286.947952 307.584 
L 286.947952 304.010828 
L 283.462349 304.010828 
z
" clip-path="url(#pfe2037d81f)" style="fill: #1f77b4"/>
   </g>
   <g id="patch_64">
    <path d="M 286.947952 307.584 
L 290.433556 307.584 
L 290.433556 304.21965 
L 286.947952 304.21965 
z
" clip-path="url(#pfe2037d81f)" style="fill: #1f77b4"/>
   </g>
   <g id="patch_65">
    <path d="M 290.433556 307.584 
L 293.91916 307.584 
L 293.91916 303.430767 
L 290.433556 303.430767 
z
" clip-path="url(#pfe2037d81f)" style="fill: #1f77b4"/>
   </g>
   <g id="patch_66">
    <path d="M 293.91916 307.584 
L 297.404764 307.584 
L 297.404764 304.405269 
L 293.91916 304.405269 
z
" clip-path="url(#pfe2037d81f)" style="fill: #1f77b4"/>
   </g>
   <g id="patch_67">
    <path d="M 297.404764 307.584 
L 300.890368 307.584 
L 300.890368 303.964423 
L 297.404764 303.964423 
z
" clip-path="url(#pfe2037d81f)" style="fill: #1f77b4"/>
   </g>
   <g id="patch_68">
    <path d="M 300.890368 307.584 
L 304.375971 307.584 
L 304.375971 304.498079 
L 300.890368 304.498079 
z
" clip-path="url(#pfe2037d81f)" style="fill: #1f77b4"/>
   </g>
   <g id="patch_69">
    <path d="M 304.375971 307.584 
L 307.861575 307.584 
L 307.861575 304.614091 
L 304.375971 304.614091 
z
" clip-path="url(#pfe2037d81f)" style="fill: #1f77b4"/>
   </g>
   <g id="patch_70">
    <path d="M 307.861575 307.584 
L 311.347179 307.584 
L 311.347179 304.590888 
L 307.861575 304.590888 
z
" clip-path="url(#pfe2037d81f)" style="fill: #1f77b4"/>
   </g>
   <g id="patch_71">
    <path d="M 311.347179 307.584 
L 314.832783 307.584 
L 314.832783 304.567686 
L 311.347179 304.567686 
z
" clip-path="url(#pfe2037d81f)" style="fill: #1f77b4"/>
   </g>
   <g id="patch_72">
    <path d="M 314.832783 307.584 
L 318.318386 307.584 
L 318.318386 304.405269 
L 314.832783 304.405269 
z
" clip-path="url(#pfe2037d81f)" style="fill: #1f77b4"/>
   </g>
   <g id="patch_73">
    <path d="M 318.318386 307.584 
L 321.80399 307.584 
L 321.80399 304.79971 
L 318.318386 304.79971 
z
" clip-path="url(#pfe2037d81f)" style="fill: #1f77b4"/>
   </g>
   <g id="patch_74">
    <path d="M 321.80399 307.584 
L 325.289594 307.584 
L 325.289594 304.196447 
L 321.80399 304.196447 
z
" clip-path="url(#pfe2037d81f)" style="fill: #1f77b4"/>
   </g>
   <g id="patch_75">
    <path d="M 325.289594 307.584 
L 328.775198 307.584 
L 328.775198 304.7069 
L 325.289594 304.7069 
z
" clip-path="url(#pfe2037d81f)" style="fill: #1f77b4"/>
   </g>
   <g id="patch_76">
    <path d="M 328.775198 307.584 
L 332.260801 307.584 
L 332.260801 304.614091 
L 328.775198 304.614091 
z
" clip-path="url(#pfe2037d81f)" style="fill: #1f77b4"/>
   </g>
   <g id="patch_77">
    <path d="M 332.260801 307.584 
L 335.746405 307.584 
L 335.746405 304.776508 
L 332.260801 304.776508 
z
" clip-path="url(#pfe2037d81f)" style="fill: #1f77b4"/>
   </g>
   <g id="patch_78">
    <path d="M 335.746405 307.584 
L 339.232009 307.584 
L 339.232009 304.869317 
L 335.746405 304.869317 
z
" clip-path="url(#pfe2037d81f)" style="fill: #1f77b4"/>
   </g>
   <g id="patch_79">
    <path d="M 339.232009 307.584 
L 342.717613 307.584 
L 342.717613 304.915722 
L 339.232009 304.915722 
z
" clip-path="url(#pfe2037d81f)" style="fill: #1f77b4"/>
   </g>
   <g id="patch_80">
    <path d="M 342.717613 307.584 
L 346.203216 307.584 
L 346.203216 303.987625 
L 342.717613 303.987625 
z
" clip-path="url(#pfe2037d81f)" style="fill: #1f77b4"/>
   </g>
   <g id="patch_81">
    <path d="M 346.203216 307.584 
L 349.68882 307.584 
L 349.68882 305.170949 
L 346.203216 305.170949 
z
" clip-path="url(#pfe2037d81f)" style="fill: #1f77b4"/>
   </g>
   <g id="patch_82">
    <path d="M 349.68882 307.584 
L 353.174424 307.584 
L 353.174424 305.194151 
L 349.68882 305.194151 
z
" clip-path="url(#pfe2037d81f)" style="fill: #1f77b4"/>
   </g>
   <g id="patch_83">
    <path d="M 353.174424 307.584 
L 356.660028 307.584 
L 356.660028 304.614091 
L 353.174424 304.614091 
z
" clip-path="url(#pfe2037d81f)" style="fill: #1f77b4"/>
   </g>
   <g id="patch_84">
    <path d="M 356.660028 307.584 
L 360.145631 307.584 
L 360.145631 305.56539 
L 356.660028 305.56539 
z
" clip-path="url(#pfe2037d81f)" style="fill: #1f77b4"/>
   </g>
   <g id="patch_85">
    <path d="M 360.145631 307.584 
L 363.631235 307.584 
L 363.631235 305.356568 
L 360.145631 305.356568 
z
" clip-path="url(#pfe2037d81f)" style="fill: #1f77b4"/>
   </g>
   <g id="patch_86">
    <path d="M 363.631235 307.584 
L 367.116839 307.584 
L 367.116839 305.101341 
L 363.631235 305.101341 
z
" clip-path="url(#pfe2037d81f)" style="fill: #1f77b4"/>
   </g>
   <g id="patch_87">
    <path d="M 367.116839 307.584 
L 370.602443 307.584 
L 370.602443 304.985329 
L 367.116839 304.985329 
z
" clip-path="url(#pfe2037d81f)" style="fill: #1f77b4"/>
   </g>
   <g id="patch_88">
    <path d="M 370.602443 307.584 
L 374.088046 307.584 
L 374.088046 305.310163 
L 370.602443 305.310163 
z
" clip-path="url(#pfe2037d81f)" style="fill: #1f77b4"/>
   </g>
   <g id="patch_89">
    <path d="M 374.088046 307.584 
L 377.57365 307.584 
L 377.57365 305.217353 
L 374.088046 305.217353 
z
" clip-path="url(#pfe2037d81f)" style="fill: #1f77b4"/>
   </g>
   <g id="patch_90">
    <path d="M 377.57365 307.584 
L 381.059254 307.584 
L 381.059254 305.542187 
L 377.57365 305.542187 
z
" clip-path="url(#pfe2037d81f)" style="fill: #1f77b4"/>
   </g>
   <g id="patch_91">
    <path d="M 381.059254 307.584 
L 384.544858 307.584 
L 384.544858 305.495782 
L 381.059254 305.495782 
z
" clip-path="url(#pfe2037d81f)" style="fill: #1f77b4"/>
   </g>
   <g id="patch_92">
    <path d="M 384.544858 307.584 
L 388.030461 307.584 
L 388.030461 305.402973 
L 384.544858 305.402973 
z
" clip-path="url(#pfe2037d81f)" style="fill: #1f77b4"/>
   </g>
   <g id="patch_93">
    <path d="M 388.030461 307.584 
L 391.516065 307.584 
L 391.516065 305.774211 
L 388.030461 305.774211 
z
" clip-path="url(#pfe2037d81f)" style="fill: #1f77b4"/>
   </g>
   <g id="patch_94">
    <path d="M 391.516065 307.584 
L 395.001669 307.584 
L 395.001669 305.542187 
L 391.516065 305.542187 
z
" clip-path="url(#pfe2037d81f)" style="fill: #1f77b4"/>
   </g>
   <g id="patch_95">
    <path d="M 395.001669 307.584 
L 398.487273 307.584 
L 398.487273 305.054937 
L 395.001669 305.054937 
z
" clip-path="url(#pfe2037d81f)" style="fill: #1f77b4"/>
   </g>
   <g id="matplotlib.axis_1">
    <g id="xtick_1">
     <g id="line2d_1">
      <defs>
       <path id="m3f21115d67" d="M 0 0 
L 0 3.5 
" style="stroke: #000000; stroke-width: 0.8"/>
      </defs>
      <g>
       <use xlink:href="#m3f21115d67" x="73.832727" y="307.584" style="stroke: #000000; stroke-width: 0.8"/>
      </g>
     </g>
     <g id="text_1">
      <!-- 0 -->
      <g transform="translate(70.651477 322.182437) scale(0.1 -0.1)">
       <defs>
        <path id="DejaVuSans-30" d="M 2034 4250 
Q 1547 4250 1301 3770 
Q 1056 3291 1056 2328 
Q 1056 1369 1301 889 
Q 1547 409 2034 409 
Q 2525 409 2770 889 
Q 3016 1369 3016 2328 
Q 3016 3291 2770 3770 
Q 2525 4250 2034 4250 
z
M 2034 4750 
Q 2819 4750 3233 4129 
Q 3647 3509 3647 2328 
Q 3647 1150 3233 529 
Q 2819 -91 2034 -91 
Q 1250 -91 836 529 
Q 422 1150 422 2328 
Q 422 3509 836 4129 
Q 1250 4750 2034 4750 
z
" transform="scale(0.015625)"/>
       </defs>
       <use xlink:href="#DejaVuSans-30"/>
      </g>
     </g>
    </g>
    <g id="xtick_2">
     <g id="line2d_2">
      <g>
       <use xlink:href="#m3f21115d67" x="123.172324" y="307.584" style="stroke: #000000; stroke-width: 0.8"/>
      </g>
     </g>
     <g id="text_2">
      <!-- 100 -->
      <g transform="translate(113.628574 322.182437) scale(0.1 -0.1)">
       <defs>
        <path id="DejaVuSans-31" d="M 794 531 
L 1825 531 
L 1825 4091 
L 703 3866 
L 703 4441 
L 1819 4666 
L 2450 4666 
L 2450 531 
L 3481 531 
L 3481 0 
L 794 0 
L 794 531 
z
" transform="scale(0.015625)"/>
       </defs>
       <use xlink:href="#DejaVuSans-31"/>
       <use xlink:href="#DejaVuSans-30" x="63.623047"/>
       <use xlink:href="#DejaVuSans-30" x="127.246094"/>
      </g>
     </g>
    </g>
    <g id="xtick_3">
     <g id="line2d_3">
      <g>
       <use xlink:href="#m3f21115d67" x="172.51192" y="307.584" style="stroke: #000000; stroke-width: 0.8"/>
      </g>
     </g>
     <g id="text_3">
      <!-- 200 -->
      <g transform="translate(162.96817 322.182437) scale(0.1 -0.1)">
       <defs>
        <path id="DejaVuSans-32" d="M 1228 531 
L 3431 531 
L 3431 0 
L 469 0 
L 469 531 
Q 828 903 1448 1529 
Q 2069 2156 2228 2338 
Q 2531 2678 2651 2914 
Q 2772 3150 2772 3378 
Q 2772 3750 2511 3984 
Q 2250 4219 1831 4219 
Q 1534 4219 1204 4116 
Q 875 4013 500 3803 
L 500 4441 
Q 881 4594 1212 4672 
Q 1544 4750 1819 4750 
Q 2544 4750 2975 4387 
Q 3406 4025 3406 3419 
Q 3406 3131 3298 2873 
Q 3191 2616 2906 2266 
Q 2828 2175 2409 1742 
Q 1991 1309 1228 531 
z
" transform="scale(0.015625)"/>
       </defs>
       <use xlink:href="#DejaVuSans-32"/>
       <use xlink:href="#DejaVuSans-30" x="63.623047"/>
       <use xlink:href="#DejaVuSans-30" x="127.246094"/>
      </g>
     </g>
    </g>
    <g id="xtick_4">
     <g id="line2d_4">
      <g>
       <use xlink:href="#m3f21115d67" x="221.851517" y="307.584" style="stroke: #000000; stroke-width: 0.8"/>
      </g>
     </g>
     <g id="text_4">
      <!-- 300 -->
      <g transform="translate(212.307767 322.182437) scale(0.1 -0.1)">
       <defs>
        <path id="DejaVuSans-33" d="M 2597 2516 
Q 3050 2419 3304 2112 
Q 3559 1806 3559 1356 
Q 3559 666 3084 287 
Q 2609 -91 1734 -91 
Q 1441 -91 1130 -33 
Q 819 25 488 141 
L 488 750 
Q 750 597 1062 519 
Q 1375 441 1716 441 
Q 2309 441 2620 675 
Q 2931 909 2931 1356 
Q 2931 1769 2642 2001 
Q 2353 2234 1838 2234 
L 1294 2234 
L 1294 2753 
L 1863 2753 
Q 2328 2753 2575 2939 
Q 2822 3125 2822 3475 
Q 2822 3834 2567 4026 
Q 2313 4219 1838 4219 
Q 1578 4219 1281 4162 
Q 984 4106 628 3988 
L 628 4550 
Q 988 4650 1302 4700 
Q 1616 4750 1894 4750 
Q 2613 4750 3031 4423 
Q 3450 4097 3450 3541 
Q 3450 3153 3228 2886 
Q 3006 2619 2597 2516 
z
" transform="scale(0.015625)"/>
       </defs>
       <use xlink:href="#DejaVuSans-33"/>
       <use xlink:href="#DejaVuSans-30" x="63.623047"/>
       <use xlink:href="#DejaVuSans-30" x="127.246094"/>
      </g>
     </g>
    </g>
    <g id="xtick_5">
     <g id="line2d_5">
      <g>
       <use xlink:href="#m3f21115d67" x="271.191114" y="307.584" style="stroke: #000000; stroke-width: 0.8"/>
      </g>
     </g>
     <g id="text_5">
      <!-- 400 -->
      <g transform="translate(261.647364 322.182437) scale(0.1 -0.1)">
       <defs>
        <path id="DejaVuSans-34" d="M 2419 4116 
L 825 1625 
L 2419 1625 
L 2419 4116 
z
M 2253 4666 
L 3047 4666 
L 3047 1625 
L 3713 1625 
L 3713 1100 
L 3047 1100 
L 3047 0 
L 2419 0 
L 2419 1100 
L 313 1100 
L 313 1709 
L 2253 4666 
z
" transform="scale(0.015625)"/>
       </defs>
       <use xlink:href="#DejaVuSans-34"/>
       <use xlink:href="#DejaVuSans-30" x="63.623047"/>
       <use xlink:href="#DejaVuSans-30" x="127.246094"/>
      </g>
     </g>
    </g>
    <g id="xtick_6">
     <g id="line2d_6">
      <g>
       <use xlink:href="#m3f21115d67" x="320.53071" y="307.584" style="stroke: #000000; stroke-width: 0.8"/>
      </g>
     </g>
     <g id="text_6">
      <!-- 500 -->
      <g transform="translate(310.98696 322.182437) scale(0.1 -0.1)">
       <defs>
        <path id="DejaVuSans-35" d="M 691 4666 
L 3169 4666 
L 3169 4134 
L 1269 4134 
L 1269 2991 
Q 1406 3038 1543 3061 
Q 1681 3084 1819 3084 
Q 2600 3084 3056 2656 
Q 3513 2228 3513 1497 
Q 3513 744 3044 326 
Q 2575 -91 1722 -91 
Q 1428 -91 1123 -41 
Q 819 9 494 109 
L 494 744 
Q 775 591 1075 516 
Q 1375 441 1709 441 
Q 2250 441 2565 725 
Q 2881 1009 2881 1497 
Q 2881 1984 2565 2268 
Q 2250 2553 1709 2553 
Q 1456 2553 1204 2497 
Q 953 2441 691 2322 
L 691 4666 
z
" transform="scale(0.015625)"/>
       </defs>
       <use xlink:href="#DejaVuSans-35"/>
       <use xlink:href="#DejaVuSans-30" x="63.623047"/>
       <use xlink:href="#DejaVuSans-30" x="127.246094"/>
      </g>
     </g>
    </g>
    <g id="xtick_7">
     <g id="line2d_7">
      <g>
       <use xlink:href="#m3f21115d67" x="369.870307" y="307.584" style="stroke: #000000; stroke-width: 0.8"/>
      </g>
     </g>
     <g id="text_7">
      <!-- 600 -->
      <g transform="translate(360.326557 322.182437) scale(0.1 -0.1)">
       <defs>
        <path id="DejaVuSans-36" d="M 2113 2584 
Q 1688 2584 1439 2293 
Q 1191 2003 1191 1497 
Q 1191 994 1439 701 
Q 1688 409 2113 409 
Q 2538 409 2786 701 
Q 3034 994 3034 1497 
Q 3034 2003 2786 2293 
Q 2538 2584 2113 2584 
z
M 3366 4563 
L 3366 3988 
Q 3128 4100 2886 4159 
Q 2644 4219 2406 4219 
Q 1781 4219 1451 3797 
Q 1122 3375 1075 2522 
Q 1259 2794 1537 2939 
Q 1816 3084 2150 3084 
Q 2853 3084 3261 2657 
Q 3669 2231 3669 1497 
Q 3669 778 3244 343 
Q 2819 -91 2113 -91 
Q 1303 -91 875 529 
Q 447 1150 447 2328 
Q 447 3434 972 4092 
Q 1497 4750 2381 4750 
Q 2619 4750 2861 4703 
Q 3103 4656 3366 4563 
z
" transform="scale(0.015625)"/>
       </defs>
       <use xlink:href="#DejaVuSans-36"/>
       <use xlink:href="#DejaVuSans-30" x="63.623047"/>
       <use xlink:href="#DejaVuSans-30" x="127.246094"/>
      </g>
     </g>
    </g>
   </g>
   <g id="matplotlib.axis_2">
    <g id="ytick_1">
     <g id="line2d_8">
      <defs>
       <path id="mf5972592a7" d="M 0 0 
L -3.5 0 
" style="stroke: #000000; stroke-width: 0.8"/>
      </defs>
      <g>
       <use xlink:href="#mf5972592a7" x="57.6" y="307.584" style="stroke: #000000; stroke-width: 0.8"/>
      </g>
     </g>
     <g id="text_8">
      <!-- 0.000 -->
      <g transform="translate(21.971875 311.383219) scale(0.1 -0.1)">
       <defs>
        <path id="DejaVuSans-2e" d="M 684 794 
L 1344 794 
L 1344 0 
L 684 0 
L 684 794 
z
" transform="scale(0.015625)"/>
       </defs>
       <use xlink:href="#DejaVuSans-30"/>
       <use xlink:href="#DejaVuSans-2e" x="63.623047"/>
       <use xlink:href="#DejaVuSans-30" x="95.410156"/>
       <use xlink:href="#DejaVuSans-30" x="159.033203"/>
       <use xlink:href="#DejaVuSans-30" x="222.65625"/>
      </g>
     </g>
    </g>
    <g id="ytick_2">
     <g id="line2d_9">
      <g>
       <use xlink:href="#mf5972592a7" x="57.6" y="268.272542" style="stroke: #000000; stroke-width: 0.8"/>
      </g>
     </g>
     <g id="text_9">
      <!-- 0.005 -->
      <g transform="translate(21.971875 272.07176) scale(0.1 -0.1)">
       <use xlink:href="#DejaVuSans-30"/>
       <use xlink:href="#DejaVuSans-2e" x="63.623047"/>
       <use xlink:href="#DejaVuSans-30" x="95.410156"/>
       <use xlink:href="#DejaVuSans-30" x="159.033203"/>
       <use xlink:href="#DejaVuSans-35" x="222.65625"/>
      </g>
     </g>
    </g>
    <g id="ytick_3">
     <g id="line2d_10">
      <g>
       <use xlink:href="#mf5972592a7" x="57.6" y="228.961083" style="stroke: #000000; stroke-width: 0.8"/>
      </g>
     </g>
     <g id="text_10">
      <!-- 0.010 -->
      <g transform="translate(21.971875 232.760302) scale(0.1 -0.1)">
       <use xlink:href="#DejaVuSans-30"/>
       <use xlink:href="#DejaVuSans-2e" x="63.623047"/>
       <use xlink:href="#DejaVuSans-30" x="95.410156"/>
       <use xlink:href="#DejaVuSans-31" x="159.033203"/>
       <use xlink:href="#DejaVuSans-30" x="222.65625"/>
      </g>
     </g>
    </g>
    <g id="ytick_4">
     <g id="line2d_11">
      <g>
       <use xlink:href="#mf5972592a7" x="57.6" y="189.649625" style="stroke: #000000; stroke-width: 0.8"/>
      </g>
     </g>
     <g id="text_11">
      <!-- 0.015 -->
      <g transform="translate(21.971875 193.448844) scale(0.1 -0.1)">
       <use xlink:href="#DejaVuSans-30"/>
       <use xlink:href="#DejaVuSans-2e" x="63.623047"/>
       <use xlink:href="#DejaVuSans-30" x="95.410156"/>
       <use xlink:href="#DejaVuSans-31" x="159.033203"/>
       <use xlink:href="#DejaVuSans-35" x="222.65625"/>
      </g>
     </g>
    </g>
    <g id="ytick_5">
     <g id="line2d_12">
      <g>
       <use xlink:href="#mf5972592a7" x="57.6" y="150.338167" style="stroke: #000000; stroke-width: 0.8"/>
      </g>
     </g>
     <g id="text_12">
      <!-- 0.020 -->
      <g transform="translate(21.971875 154.137386) scale(0.1 -0.1)">
       <use xlink:href="#DejaVuSans-30"/>
       <use xlink:href="#DejaVuSans-2e" x="63.623047"/>
       <use xlink:href="#DejaVuSans-30" x="95.410156"/>
       <use xlink:href="#DejaVuSans-32" x="159.033203"/>
       <use xlink:href="#DejaVuSans-30" x="222.65625"/>
      </g>
     </g>
    </g>
    <g id="ytick_6">
     <g id="line2d_13">
      <g>
       <use xlink:href="#mf5972592a7" x="57.6" y="111.026709" style="stroke: #000000; stroke-width: 0.8"/>
      </g>
     </g>
     <g id="text_13">
      <!-- 0.025 -->
      <g transform="translate(21.971875 114.825927) scale(0.1 -0.1)">
       <use xlink:href="#DejaVuSans-30"/>
       <use xlink:href="#DejaVuSans-2e" x="63.623047"/>
       <use xlink:href="#DejaVuSans-30" x="95.410156"/>
       <use xlink:href="#DejaVuSans-32" x="159.033203"/>
       <use xlink:href="#DejaVuSans-35" x="222.65625"/>
      </g>
     </g>
    </g>
    <g id="ytick_7">
     <g id="line2d_14">
      <g>
       <use xlink:href="#mf5972592a7" x="57.6" y="71.71525" style="stroke: #000000; stroke-width: 0.8"/>
      </g>
     </g>
     <g id="text_14">
      <!-- 0.030 -->
      <g transform="translate(21.971875 75.514469) scale(0.1 -0.1)">
       <use xlink:href="#DejaVuSans-30"/>
       <use xlink:href="#DejaVuSans-2e" x="63.623047"/>
       <use xlink:href="#DejaVuSans-30" x="95.410156"/>
       <use xlink:href="#DejaVuSans-33" x="159.033203"/>
       <use xlink:href="#DejaVuSans-30" x="222.65625"/>
      </g>
     </g>
    </g>
   </g>
   <g id="line2d_15">
    <path d="M 73.832727 307.584 
L 75.806311 307.584 
L 76.299707 307.305634 
L 77.779895 300.296628 
L 79.260083 294.231931 
L 80.740271 289.01554 
L 82.220459 284.560105 
L 83.700647 280.786234 
L 85.180834 277.62182 
L 86.661022 275.001415 
L 88.14121 272.865657 
L 89.621398 271.160746 
L 91.101586 269.837958 
L 92.581774 268.853211 
L 94.061962 268.166649 
L 95.54215 267.742277 
L 97.022338 267.547621 
L 98.502526 267.553409 
L 100.476109 267.827775 
L 102.449693 268.356731 
L 104.916673 269.303747 
L 107.383653 270.495097 
L 110.837425 272.450702 
L 115.277988 275.255911 
L 129.586471 284.484548 
L 134.520431 287.322258 
L 139.454391 289.891487 
L 143.894954 291.964691 
L 148.335518 293.814723 
L 153.269478 295.621354 
L 158.203437 297.185458 
L 163.630793 298.653535 
L 169.058149 299.888211 
L 174.9789 301.005521 
L 181.393048 301.987789 
L 188.793987 302.880081 
L 196.688323 303.606479 
L 206.062846 304.240203 
L 217.410953 304.769309 
L 231.22604 305.181436 
L 249.975087 305.503715 
L 278.592053 305.748902 
L 336.812777 305.978259 
L 398.487273 306.143784 
L 398.487273 306.143784 
" clip-path="url(#pfe2037d81f)" style="fill: none; stroke: #ff7f0e; stroke-width: 1.5; stroke-linecap: square"/>
   </g>
   <g id="patch_96">
    <path d="M 57.6 307.584 
L 57.6 41.472 
" style="fill: none; stroke: #000000; stroke-width: 0.8; stroke-linejoin: miter; stroke-linecap: square"/>
   </g>
   <g id="patch_97">
    <path d="M 414.72 307.584 
L 414.72 41.472 
" style="fill: none; stroke: #000000; stroke-width: 0.8; stroke-linejoin: miter; stroke-linecap: square"/>
   </g>
   <g id="patch_98">
    <path d="M 57.6 307.584 
L 414.72 307.584 
" style="fill: none; stroke: #000000; stroke-width: 0.8; stroke-linejoin: miter; stroke-linecap: square"/>
   </g>
   <g id="patch_99">
    <path d="M 57.6 41.472 
L 414.72 41.472 
" style="fill: none; stroke: #000000; stroke-width: 0.8; stroke-linejoin: miter; stroke-linecap: square"/>
   </g>
   <g id="legend_1">
    <g id="patch_100">
     <path d="M 145.554375 64.150125 
L 407.72 64.150125 
Q 409.72 64.150125 409.72 62.150125 
L 409.72 48.472 
Q 409.72 46.472 407.72 46.472 
L 145.554375 46.472 
Q 143.554375 46.472 143.554375 48.472 
L 143.554375 62.150125 
Q 143.554375 64.150125 145.554375 64.150125 
z
" style="fill: #ffffff; opacity: 0.8; stroke: #cccccc; stroke-linejoin: miter"/>
    </g>
    <g id="line2d_16">
     <path d="M 147.554375 54.570438 
L 157.554375 54.570438 
L 167.554375 54.570438 
" style="fill: none; stroke: #ff7f0e; stroke-width: 1.5; stroke-linecap: square"/>
    </g>
    <g id="text_15">
     <!-- states 18 cross entropy: 7.28 sh entropy: 6.69 -->
     <g transform="translate(175.554375 58.070438) scale(0.1 -0.1)">
      <defs>
       <path id="DejaVuSans-73" d="M 2834 3397 
L 2834 2853 
Q 2591 2978 2328 3040 
Q 2066 3103 1784 3103 
Q 1356 3103 1142 2972 
Q 928 2841 928 2578 
Q 928 2378 1081 2264 
Q 1234 2150 1697 2047 
L 1894 2003 
Q 2506 1872 2764 1633 
Q 3022 1394 3022 966 
Q 3022 478 2636 193 
Q 2250 -91 1575 -91 
Q 1294 -91 989 -36 
Q 684 19 347 128 
L 347 722 
Q 666 556 975 473 
Q 1284 391 1588 391 
Q 1994 391 2212 530 
Q 2431 669 2431 922 
Q 2431 1156 2273 1281 
Q 2116 1406 1581 1522 
L 1381 1569 
Q 847 1681 609 1914 
Q 372 2147 372 2553 
Q 372 3047 722 3315 
Q 1072 3584 1716 3584 
Q 2034 3584 2315 3537 
Q 2597 3491 2834 3397 
z
" transform="scale(0.015625)"/>
       <path id="DejaVuSans-74" d="M 1172 4494 
L 1172 3500 
L 2356 3500 
L 2356 3053 
L 1172 3053 
L 1172 1153 
Q 1172 725 1289 603 
Q 1406 481 1766 481 
L 2356 481 
L 2356 0 
L 1766 0 
Q 1100 0 847 248 
Q 594 497 594 1153 
L 594 3053 
L 172 3053 
L 172 3500 
L 594 3500 
L 594 4494 
L 1172 4494 
z
" transform="scale(0.015625)"/>
       <path id="DejaVuSans-61" d="M 2194 1759 
Q 1497 1759 1228 1600 
Q 959 1441 959 1056 
Q 959 750 1161 570 
Q 1363 391 1709 391 
Q 2188 391 2477 730 
Q 2766 1069 2766 1631 
L 2766 1759 
L 2194 1759 
z
M 3341 1997 
L 3341 0 
L 2766 0 
L 2766 531 
Q 2569 213 2275 61 
Q 1981 -91 1556 -91 
Q 1019 -91 701 211 
Q 384 513 384 1019 
Q 384 1609 779 1909 
Q 1175 2209 1959 2209 
L 2766 2209 
L 2766 2266 
Q 2766 2663 2505 2880 
Q 2244 3097 1772 3097 
Q 1472 3097 1187 3025 
Q 903 2953 641 2809 
L 641 3341 
Q 956 3463 1253 3523 
Q 1550 3584 1831 3584 
Q 2591 3584 2966 3190 
Q 3341 2797 3341 1997 
z
" transform="scale(0.015625)"/>
       <path id="DejaVuSans-65" d="M 3597 1894 
L 3597 1613 
L 953 1613 
Q 991 1019 1311 708 
Q 1631 397 2203 397 
Q 2534 397 2845 478 
Q 3156 559 3463 722 
L 3463 178 
Q 3153 47 2828 -22 
Q 2503 -91 2169 -91 
Q 1331 -91 842 396 
Q 353 884 353 1716 
Q 353 2575 817 3079 
Q 1281 3584 2069 3584 
Q 2775 3584 3186 3129 
Q 3597 2675 3597 1894 
z
M 3022 2063 
Q 3016 2534 2758 2815 
Q 2500 3097 2075 3097 
Q 1594 3097 1305 2825 
Q 1016 2553 972 2059 
L 3022 2063 
z
" transform="scale(0.015625)"/>
       <path id="DejaVuSans-20" transform="scale(0.015625)"/>
       <path id="DejaVuSans-38" d="M 2034 2216 
Q 1584 2216 1326 1975 
Q 1069 1734 1069 1313 
Q 1069 891 1326 650 
Q 1584 409 2034 409 
Q 2484 409 2743 651 
Q 3003 894 3003 1313 
Q 3003 1734 2745 1975 
Q 2488 2216 2034 2216 
z
M 1403 2484 
Q 997 2584 770 2862 
Q 544 3141 544 3541 
Q 544 4100 942 4425 
Q 1341 4750 2034 4750 
Q 2731 4750 3128 4425 
Q 3525 4100 3525 3541 
Q 3525 3141 3298 2862 
Q 3072 2584 2669 2484 
Q 3125 2378 3379 2068 
Q 3634 1759 3634 1313 
Q 3634 634 3220 271 
Q 2806 -91 2034 -91 
Q 1263 -91 848 271 
Q 434 634 434 1313 
Q 434 1759 690 2068 
Q 947 2378 1403 2484 
z
M 1172 3481 
Q 1172 3119 1398 2916 
Q 1625 2713 2034 2713 
Q 2441 2713 2670 2916 
Q 2900 3119 2900 3481 
Q 2900 3844 2670 4047 
Q 2441 4250 2034 4250 
Q 1625 4250 1398 4047 
Q 1172 3844 1172 3481 
z
" transform="scale(0.015625)"/>
       <path id="DejaVuSans-63" d="M 3122 3366 
L 3122 2828 
Q 2878 2963 2633 3030 
Q 2388 3097 2138 3097 
Q 1578 3097 1268 2742 
Q 959 2388 959 1747 
Q 959 1106 1268 751 
Q 1578 397 2138 397 
Q 2388 397 2633 464 
Q 2878 531 3122 666 
L 3122 134 
Q 2881 22 2623 -34 
Q 2366 -91 2075 -91 
Q 1284 -91 818 406 
Q 353 903 353 1747 
Q 353 2603 823 3093 
Q 1294 3584 2113 3584 
Q 2378 3584 2631 3529 
Q 2884 3475 3122 3366 
z
" transform="scale(0.015625)"/>
       <path id="DejaVuSans-72" d="M 2631 2963 
Q 2534 3019 2420 3045 
Q 2306 3072 2169 3072 
Q 1681 3072 1420 2755 
Q 1159 2438 1159 1844 
L 1159 0 
L 581 0 
L 581 3500 
L 1159 3500 
L 1159 2956 
Q 1341 3275 1631 3429 
Q 1922 3584 2338 3584 
Q 2397 3584 2469 3576 
Q 2541 3569 2628 3553 
L 2631 2963 
z
" transform="scale(0.015625)"/>
       <path id="DejaVuSans-6f" d="M 1959 3097 
Q 1497 3097 1228 2736 
Q 959 2375 959 1747 
Q 959 1119 1226 758 
Q 1494 397 1959 397 
Q 2419 397 2687 759 
Q 2956 1122 2956 1747 
Q 2956 2369 2687 2733 
Q 2419 3097 1959 3097 
z
M 1959 3584 
Q 2709 3584 3137 3096 
Q 3566 2609 3566 1747 
Q 3566 888 3137 398 
Q 2709 -91 1959 -91 
Q 1206 -91 779 398 
Q 353 888 353 1747 
Q 353 2609 779 3096 
Q 1206 3584 1959 3584 
z
" transform="scale(0.015625)"/>
       <path id="DejaVuSans-6e" d="M 3513 2113 
L 3513 0 
L 2938 0 
L 2938 2094 
Q 2938 2591 2744 2837 
Q 2550 3084 2163 3084 
Q 1697 3084 1428 2787 
Q 1159 2491 1159 1978 
L 1159 0 
L 581 0 
L 581 3500 
L 1159 3500 
L 1159 2956 
Q 1366 3272 1645 3428 
Q 1925 3584 2291 3584 
Q 2894 3584 3203 3211 
Q 3513 2838 3513 2113 
z
" transform="scale(0.015625)"/>
       <path id="DejaVuSans-70" d="M 1159 525 
L 1159 -1331 
L 581 -1331 
L 581 3500 
L 1159 3500 
L 1159 2969 
Q 1341 3281 1617 3432 
Q 1894 3584 2278 3584 
Q 2916 3584 3314 3078 
Q 3713 2572 3713 1747 
Q 3713 922 3314 415 
Q 2916 -91 2278 -91 
Q 1894 -91 1617 61 
Q 1341 213 1159 525 
z
M 3116 1747 
Q 3116 2381 2855 2742 
Q 2594 3103 2138 3103 
Q 1681 3103 1420 2742 
Q 1159 2381 1159 1747 
Q 1159 1113 1420 752 
Q 1681 391 2138 391 
Q 2594 391 2855 752 
Q 3116 1113 3116 1747 
z
" transform="scale(0.015625)"/>
       <path id="DejaVuSans-79" d="M 2059 -325 
Q 1816 -950 1584 -1140 
Q 1353 -1331 966 -1331 
L 506 -1331 
L 506 -850 
L 844 -850 
Q 1081 -850 1212 -737 
Q 1344 -625 1503 -206 
L 1606 56 
L 191 3500 
L 800 3500 
L 1894 763 
L 2988 3500 
L 3597 3500 
L 2059 -325 
z
" transform="scale(0.015625)"/>
       <path id="DejaVuSans-3a" d="M 750 794 
L 1409 794 
L 1409 0 
L 750 0 
L 750 794 
z
M 750 3309 
L 1409 3309 
L 1409 2516 
L 750 2516 
L 750 3309 
z
" transform="scale(0.015625)"/>
       <path id="DejaVuSans-37" d="M 525 4666 
L 3525 4666 
L 3525 4397 
L 1831 0 
L 1172 0 
L 2766 4134 
L 525 4134 
L 525 4666 
z
" transform="scale(0.015625)"/>
       <path id="DejaVuSans-68" d="M 3513 2113 
L 3513 0 
L 2938 0 
L 2938 2094 
Q 2938 2591 2744 2837 
Q 2550 3084 2163 3084 
Q 1697 3084 1428 2787 
Q 1159 2491 1159 1978 
L 1159 0 
L 581 0 
L 581 4863 
L 1159 4863 
L 1159 2956 
Q 1366 3272 1645 3428 
Q 1925 3584 2291 3584 
Q 2894 3584 3203 3211 
Q 3513 2838 3513 2113 
z
" transform="scale(0.015625)"/>
       <path id="DejaVuSans-39" d="M 703 97 
L 703 672 
Q 941 559 1184 500 
Q 1428 441 1663 441 
Q 2288 441 2617 861 
Q 2947 1281 2994 2138 
Q 2813 1869 2534 1725 
Q 2256 1581 1919 1581 
Q 1219 1581 811 2004 
Q 403 2428 403 3163 
Q 403 3881 828 4315 
Q 1253 4750 1959 4750 
Q 2769 4750 3195 4129 
Q 3622 3509 3622 2328 
Q 3622 1225 3098 567 
Q 2575 -91 1691 -91 
Q 1453 -91 1209 -44 
Q 966 3 703 97 
z
M 1959 2075 
Q 2384 2075 2632 2365 
Q 2881 2656 2881 3163 
Q 2881 3666 2632 3958 
Q 2384 4250 1959 4250 
Q 1534 4250 1286 3958 
Q 1038 3666 1038 3163 
Q 1038 2656 1286 2365 
Q 1534 2075 1959 2075 
z
" transform="scale(0.015625)"/>
      </defs>
      <use xlink:href="#DejaVuSans-73"/>
      <use xlink:href="#DejaVuSans-74" x="52.099609"/>
      <use xlink:href="#DejaVuSans-61" x="91.308594"/>
      <use xlink:href="#DejaVuSans-74" x="152.587891"/>
      <use xlink:href="#DejaVuSans-65" x="191.796875"/>
      <use xlink:href="#DejaVuSans-73" x="253.320312"/>
      <use xlink:href="#DejaVuSans-20" x="305.419922"/>
      <use xlink:href="#DejaVuSans-31" x="337.207031"/>
      <use xlink:href="#DejaVuSans-38" x="400.830078"/>
      <use xlink:href="#DejaVuSans-20" x="464.453125"/>
      <use xlink:href="#DejaVuSans-63" x="496.240234"/>
      <use xlink:href="#DejaVuSans-72" x="551.220703"/>
      <use xlink:href="#DejaVuSans-6f" x="590.083984"/>
      <use xlink:href="#DejaVuSans-73" x="651.265625"/>
      <use xlink:href="#DejaVuSans-73" x="703.365234"/>
      <use xlink:href="#DejaVuSans-20" x="755.464844"/>
      <use xlink:href="#DejaVuSans-65" x="787.251953"/>
      <use xlink:href="#DejaVuSans-6e" x="848.775391"/>
      <use xlink:href="#DejaVuSans-74" x="912.154297"/>
      <use xlink:href="#DejaVuSans-72" x="951.363281"/>
      <use xlink:href="#DejaVuSans-6f" x="990.226562"/>
      <use xlink:href="#DejaVuSans-70" x="1051.408203"/>
      <use xlink:href="#DejaVuSans-79" x="1114.884766"/>
      <use xlink:href="#DejaVuSans-3a" x="1166.814453"/>
      <use xlink:href="#DejaVuSans-20" x="1200.505859"/>
      <use xlink:href="#DejaVuSans-37" x="1232.292969"/>
      <use xlink:href="#DejaVuSans-2e" x="1295.916016"/>
      <use xlink:href="#DejaVuSans-32" x="1327.703125"/>
      <use xlink:href="#DejaVuSans-38" x="1391.326172"/>
      <use xlink:href="#DejaVuSans-20" x="1454.949219"/>
      <use xlink:href="#DejaVuSans-73" x="1486.736328"/>
      <use xlink:href="#DejaVuSans-68" x="1538.835938"/>
      <use xlink:href="#DejaVuSans-20" x="1602.214844"/>
      <use xlink:href="#DejaVuSans-65" x="1634.001953"/>
      <use xlink:href="#DejaVuSans-6e" x="1695.525391"/>
      <use xlink:href="#DejaVuSans-74" x="1758.904297"/>
      <use xlink:href="#DejaVuSans-72" x="1798.113281"/>
      <use xlink:href="#DejaVuSans-6f" x="1836.976562"/>
      <use xlink:href="#DejaVuSans-70" x="1898.158203"/>
      <use xlink:href="#DejaVuSans-79" x="1961.634766"/>
      <use xlink:href="#DejaVuSans-3a" x="2013.564453"/>
      <use xlink:href="#DejaVuSans-20" x="2047.255859"/>
      <use xlink:href="#DejaVuSans-36" x="2079.042969"/>
      <use xlink:href="#DejaVuSans-2e" x="2142.666016"/>
      <use xlink:href="#DejaVuSans-36" x="2174.453125"/>
      <use xlink:href="#DejaVuSans-39" x="2238.076172"/>
     </g>
    </g>
   </g>
  </g>
 </g>
 <defs>
  <clipPath id="pfe2037d81f">
   <rect x="57.6" y="41.472" width="357.12" height="266.112"/>
  </clipPath>
 </defs>
</svg>
