<?xml version="1.0" encoding="utf-8" standalone="no"?>
<!DOCTYPE svg PUBLIC "-//W3C//DTD SVG 1.1//EN"
  "http://www.w3.org/Graphics/SVG/1.1/DTD/svg11.dtd">
<svg xmlns:xlink="http://www.w3.org/1999/xlink" width="460.8pt" height="345.6pt" viewBox="0 0 460.8 345.6" xmlns="http://www.w3.org/2000/svg" version="1.1">
 <metadata>
  <rdf:RDF xmlns:dc="http://purl.org/dc/elements/1.1/" xmlns:cc="http://creativecommons.org/ns#" xmlns:rdf="http://www.w3.org/1999/02/22-rdf-syntax-ns#">
   <cc:Work>
    <dc:type rdf:resource="http://purl.org/dc/dcmitype/StillImage"/>
    <dc:date>2024-05-01T18:39:19.088792</dc:date>
    <dc:format>image/svg+xml</dc:format>
    <dc:creator>
     <cc:Agent>
      <dc:title>Matplotlib v3.8.4, https://matplotlib.org/</dc:title>
     </cc:Agent>
    </dc:creator>
   </cc:Work>
  </rdf:RDF>
 </metadata>
 <defs>
  <style type="text/css">*{stroke-linejoin: round; stroke-linecap: butt}</style>
 </defs>
 <g id="figure_1">
  <g id="patch_1">
   <path d="M 0 345.6 
L 460.8 345.6 
L 460.8 0 
L 0 0 
z
" style="fill: #ffffff"/>
  </g>
  <g id="axes_1">
   <g id="patch_2">
    <path d="M 57.6 307.584 
L 414.72 307.584 
L 414.72 41.472 
L 57.6 41.472 
z
" style="fill: #ffffff"/>
   </g>
   <g id="patch_3">
    <path d="M 74.11544 307.584 
L 78.885614 307.584 
L 78.885614 54.144 
L 74.11544 54.144 
z
" clip-path="url(#pb6b5cad0ee)" style="fill: #1f77b4"/>
   </g>
   <g id="patch_4">
    <path d="M 78.885614 307.584 
L 83.655788 307.584 
L 83.655788 181.418573 
L 78.885614 181.418573 
z
" clip-path="url(#pb6b5cad0ee)" style="fill: #1f77b4"/>
   </g>
   <g id="patch_5">
    <path d="M 83.655788 307.584 
L 88.425962 307.584 
L 88.425962 231.052884 
L 83.655788 231.052884 
z
" clip-path="url(#pb6b5cad0ee)" style="fill: #1f77b4"/>
   </g>
   <g id="patch_6">
    <path d="M 88.425962 307.584 
L 93.196136 307.584 
L 93.196136 269.041155 
L 88.425962 269.041155 
z
" clip-path="url(#pb6b5cad0ee)" style="fill: #1f77b4"/>
   </g>
   <g id="patch_7">
    <path d="M 93.196136 307.584 
L 97.96631 307.584 
L 97.96631 274.864175 
L 93.196136 274.864175 
z
" clip-path="url(#pb6b5cad0ee)" style="fill: #1f77b4"/>
   </g>
   <g id="patch_8">
    <path d="M 97.96631 307.584 
L 102.736484 307.584 
L 102.736484 282.350915 
L 97.96631 282.350915 
z
" clip-path="url(#pb6b5cad0ee)" style="fill: #1f77b4"/>
   </g>
   <g id="patch_9">
    <path d="M 102.736484 307.584 
L 107.506658 307.584 
L 107.506658 286.510214 
L 102.736484 286.510214 
z
" clip-path="url(#pb6b5cad0ee)" style="fill: #1f77b4"/>
   </g>
   <g id="patch_10">
    <path d="M 107.506658 307.584 
L 112.276832 307.584 
L 112.276832 293.165094 
L 107.506658 293.165094 
z
" clip-path="url(#pb6b5cad0ee)" style="fill: #1f77b4"/>
   </g>
   <g id="patch_11">
    <path d="M 112.276832 307.584 
L 117.047006 307.584 
L 117.047006 295.660674 
L 112.276832 295.660674 
z
" clip-path="url(#pb6b5cad0ee)" style="fill: #1f77b4"/>
   </g>
   <g id="patch_12">
    <path d="M 117.047006 307.584 
L 121.81718 307.584 
L 121.81718 295.106101 
L 117.047006 295.106101 
z
" clip-path="url(#pb6b5cad0ee)" style="fill: #1f77b4"/>
   </g>
   <g id="patch_13">
    <path d="M 121.81718 307.584 
L 126.587354 307.584 
L 126.587354 300.374547 
L 121.81718 300.374547 
z
" clip-path="url(#pb6b5cad0ee)" style="fill: #1f77b4"/>
   </g>
   <g id="patch_14">
    <path d="M 126.587354 307.584 
L 131.357528 307.584 
L 131.357528 298.156254 
L 126.587354 298.156254 
z
" clip-path="url(#pb6b5cad0ee)" style="fill: #1f77b4"/>
   </g>
   <g id="patch_15">
    <path d="M 131.357528 307.584 
L 136.127702 307.584 
L 136.127702 298.710827 
L 131.357528 298.710827 
z
" clip-path="url(#pb6b5cad0ee)" style="fill: #1f77b4"/>
   </g>
   <g id="patch_16">
    <path d="M 136.127702 307.584 
L 140.897876 307.584 
L 140.897876 300.374547 
L 136.127702 300.374547 
z
" clip-path="url(#pb6b5cad0ee)" style="fill: #1f77b4"/>
   </g>
   <g id="patch_17">
    <path d="M 140.897876 307.584 
L 145.66805 307.584 
L 145.66805 300.92912 
L 140.897876 300.92912 
z
" clip-path="url(#pb6b5cad0ee)" style="fill: #1f77b4"/>
   </g>
   <g id="patch_18">
    <path d="M 145.66805 307.584 
L 150.438224 307.584 
L 150.438224 300.651834 
L 145.66805 300.651834 
z
" clip-path="url(#pb6b5cad0ee)" style="fill: #1f77b4"/>
   </g>
   <g id="patch_19">
    <path d="M 150.438224 307.584 
L 155.208398 307.584 
L 155.208398 302.038267 
L 150.438224 302.038267 
z
" clip-path="url(#pb6b5cad0ee)" style="fill: #1f77b4"/>
   </g>
   <g id="patch_20">
    <path d="M 155.208398 307.584 
L 159.978572 307.584 
L 159.978572 303.4247 
L 155.208398 303.4247 
z
" clip-path="url(#pb6b5cad0ee)" style="fill: #1f77b4"/>
   </g>
   <g id="patch_21">
    <path d="M 159.978572 307.584 
L 164.748746 307.584 
L 164.748746 303.4247 
L 159.978572 303.4247 
z
" clip-path="url(#pb6b5cad0ee)" style="fill: #1f77b4"/>
   </g>
   <g id="patch_22">
    <path d="M 164.748746 307.584 
L 169.51892 307.584 
L 169.51892 304.811133 
L 164.748746 304.811133 
z
" clip-path="url(#pb6b5cad0ee)" style="fill: #1f77b4"/>
   </g>
   <g id="patch_23">
    <path d="M 169.51892 307.584 
L 174.289094 307.584 
L 174.289094 303.4247 
L 169.51892 303.4247 
z
" clip-path="url(#pb6b5cad0ee)" style="fill: #1f77b4"/>
   </g>
   <g id="patch_24">
    <path d="M 174.289094 307.584 
L 179.059268 307.584 
L 179.059268 305.92028 
L 174.289094 305.92028 
z
" clip-path="url(#pb6b5cad0ee)" style="fill: #1f77b4"/>
   </g>
   <g id="patch_25">
    <path d="M 179.059268 307.584 
L 183.829442 307.584 
L 183.829442 303.701987 
L 179.059268 303.701987 
z
" clip-path="url(#pb6b5cad0ee)" style="fill: #1f77b4"/>
   </g>
   <g id="patch_26">
    <path d="M 183.829442 307.584 
L 188.599616 307.584 
L 188.599616 303.4247 
L 183.829442 303.4247 
z
" clip-path="url(#pb6b5cad0ee)" style="fill: #1f77b4"/>
   </g>
   <g id="patch_27">
    <path d="M 188.599616 307.584 
L 193.36979 307.584 
L 193.36979 305.08842 
L 188.599616 305.08842 
z
" clip-path="url(#pb6b5cad0ee)" style="fill: #1f77b4"/>
   </g>
   <g id="patch_28">
    <path d="M 193.36979 307.584 
L 198.139964 307.584 
L 198.139964 303.701987 
L 193.36979 303.701987 
z
" clip-path="url(#pb6b5cad0ee)" style="fill: #1f77b4"/>
   </g>
   <g id="patch_29">
    <path d="M 198.139964 307.584 
L 202.910138 307.584 
L 202.910138 305.365707 
L 198.139964 305.365707 
z
" clip-path="url(#pb6b5cad0ee)" style="fill: #1f77b4"/>
   </g>
   <g id="patch_30">
    <path d="M 202.910138 307.584 
L 207.680312 307.584 
L 207.680312 304.25656 
L 202.910138 304.25656 
z
" clip-path="url(#pb6b5cad0ee)" style="fill: #1f77b4"/>
   </g>
   <g id="patch_31">
    <path d="M 207.680312 307.584 
L 212.450486 307.584 
L 212.450486 303.147414 
L 207.680312 303.147414 
z
" clip-path="url(#pb6b5cad0ee)" style="fill: #1f77b4"/>
   </g>
   <g id="patch_32">
    <path d="M 212.450486 307.584 
L 217.22066 307.584 
L 217.22066 305.08842 
L 212.450486 305.08842 
z
" clip-path="url(#pb6b5cad0ee)" style="fill: #1f77b4"/>
   </g>
   <g id="patch_33">
    <path d="M 217.22066 307.584 
L 221.990834 307.584 
L 221.990834 303.147414 
L 217.22066 303.147414 
z
" clip-path="url(#pb6b5cad0ee)" style="fill: #1f77b4"/>
   </g>
   <g id="patch_34">
    <path d="M 221.990834 307.584 
L 226.761008 307.584 
L 226.761008 305.365707 
L 221.990834 305.365707 
z
" clip-path="url(#pb6b5cad0ee)" style="fill: #1f77b4"/>
   </g>
   <g id="patch_35">
    <path d="M 226.761008 307.584 
L 231.531182 307.584 
L 231.531182 305.92028 
L 226.761008 305.92028 
z
" clip-path="url(#pb6b5cad0ee)" style="fill: #1f77b4"/>
   </g>
   <g id="patch_36">
    <path d="M 231.531182 307.584 
L 236.301356 307.584 
L 236.301356 305.92028 
L 231.531182 305.92028 
z
" clip-path="url(#pb6b5cad0ee)" style="fill: #1f77b4"/>
   </g>
   <g id="patch_37">
    <path d="M 236.301356 307.584 
L 241.07153 307.584 
L 241.07153 303.979274 
L 236.301356 303.979274 
z
" clip-path="url(#pb6b5cad0ee)" style="fill: #1f77b4"/>
   </g>
   <g id="patch_38">
    <path d="M 241.07153 307.584 
L 245.841704 307.584 
L 245.841704 305.365707 
L 241.07153 305.365707 
z
" clip-path="url(#pb6b5cad0ee)" style="fill: #1f77b4"/>
   </g>
   <g id="patch_39">
    <path d="M 245.841704 307.584 
L 250.611878 307.584 
L 250.611878 305.365707 
L 245.841704 305.365707 
z
" clip-path="url(#pb6b5cad0ee)" style="fill: #1f77b4"/>
   </g>
   <g id="patch_40">
    <path d="M 250.611878 307.584 
L 255.382052 307.584 
L 255.382052 305.365707 
L 250.611878 305.365707 
z
" clip-path="url(#pb6b5cad0ee)" style="fill: #1f77b4"/>
   </g>
   <g id="patch_41">
    <path d="M 255.382052 307.584 
L 260.152226 307.584 
L 260.152226 304.811133 
L 255.382052 304.811133 
z
" clip-path="url(#pb6b5cad0ee)" style="fill: #1f77b4"/>
   </g>
   <g id="patch_42">
    <path d="M 260.152226 307.584 
L 264.9224 307.584 
L 264.9224 305.08842 
L 260.152226 305.08842 
z
" clip-path="url(#pb6b5cad0ee)" style="fill: #1f77b4"/>
   </g>
   <g id="patch_43">
    <path d="M 264.9224 307.584 
L 269.692574 307.584 
L 269.692574 304.811133 
L 264.9224 304.811133 
z
" clip-path="url(#pb6b5cad0ee)" style="fill: #1f77b4"/>
   </g>
   <g id="patch_44">
    <path d="M 269.692574 307.584 
L 274.462748 307.584 
L 274.462748 305.642993 
L 269.692574 305.642993 
z
" clip-path="url(#pb6b5cad0ee)" style="fill: #1f77b4"/>
   </g>
   <g id="patch_45">
    <path d="M 274.462748 307.584 
L 279.232922 307.584 
L 279.232922 305.92028 
L 274.462748 305.92028 
z
" clip-path="url(#pb6b5cad0ee)" style="fill: #1f77b4"/>
   </g>
   <g id="patch_46">
    <path d="M 279.232922 307.584 
L 284.003096 307.584 
L 284.003096 305.365707 
L 279.232922 305.365707 
z
" clip-path="url(#pb6b5cad0ee)" style="fill: #1f77b4"/>
   </g>
   <g id="patch_47">
    <path d="M 284.003096 307.584 
L 288.77327 307.584 
L 288.77327 305.92028 
L 284.003096 305.92028 
z
" clip-path="url(#pb6b5cad0ee)" style="fill: #1f77b4"/>
   </g>
   <g id="patch_48">
    <path d="M 288.77327 307.584 
L 293.543444 307.584 
L 293.543444 305.08842 
L 288.77327 305.08842 
z
" clip-path="url(#pb6b5cad0ee)" style="fill: #1f77b4"/>
   </g>
   <g id="patch_49">
    <path d="M 293.543444 307.584 
L 298.313618 307.584 
L 298.313618 306.474853 
L 293.543444 306.474853 
z
" clip-path="url(#pb6b5cad0ee)" style="fill: #1f77b4"/>
   </g>
   <g id="patch_50">
    <path d="M 298.313618 307.584 
L 303.083792 307.584 
L 303.083792 305.92028 
L 298.313618 305.92028 
z
" clip-path="url(#pb6b5cad0ee)" style="fill: #1f77b4"/>
   </g>
   <g id="patch_51">
    <path d="M 303.083792 307.584 
L 307.853966 307.584 
L 307.853966 305.92028 
L 303.083792 305.92028 
z
" clip-path="url(#pb6b5cad0ee)" style="fill: #1f77b4"/>
   </g>
   <g id="patch_52">
    <path d="M 307.853966 307.584 
L 312.62414 307.584 
L 312.62414 305.365707 
L 307.853966 305.365707 
z
" clip-path="url(#pb6b5cad0ee)" style="fill: #1f77b4"/>
   </g>
   <g id="patch_53">
    <path d="M 312.62414 307.584 
L 317.394314 307.584 
L 317.394314 305.642993 
L 312.62414 305.642993 
z
" clip-path="url(#pb6b5cad0ee)" style="fill: #1f77b4"/>
   </g>
   <g id="patch_54">
    <path d="M 317.394314 307.584 
L 322.164488 307.584 
L 322.164488 305.92028 
L 317.394314 305.92028 
z
" clip-path="url(#pb6b5cad0ee)" style="fill: #1f77b4"/>
   </g>
   <g id="patch_55">
    <path d="M 322.164488 307.584 
L 326.934662 307.584 
L 326.934662 305.08842 
L 322.164488 305.08842 
z
" clip-path="url(#pb6b5cad0ee)" style="fill: #1f77b4"/>
   </g>
   <g id="patch_56">
    <path d="M 326.934662 307.584 
L 331.704837 307.584 
L 331.704837 306.75214 
L 326.934662 306.75214 
z
" clip-path="url(#pb6b5cad0ee)" style="fill: #1f77b4"/>
   </g>
   <g id="patch_57">
    <path d="M 331.704837 307.584 
L 336.475011 307.584 
L 336.475011 306.474853 
L 331.704837 306.474853 
z
" clip-path="url(#pb6b5cad0ee)" style="fill: #1f77b4"/>
   </g>
   <g id="patch_58">
    <path d="M 336.475011 307.584 
L 341.245185 307.584 
L 341.245185 305.642993 
L 336.475011 305.642993 
z
" clip-path="url(#pb6b5cad0ee)" style="fill: #1f77b4"/>
   </g>
   <g id="patch_59">
    <path d="M 341.245185 307.584 
L 346.015359 307.584 
L 346.015359 306.474853 
L 341.245185 306.474853 
z
" clip-path="url(#pb6b5cad0ee)" style="fill: #1f77b4"/>
   </g>
   <g id="patch_60">
    <path d="M 346.015359 307.584 
L 350.785533 307.584 
L 350.785533 306.474853 
L 346.015359 306.474853 
z
" clip-path="url(#pb6b5cad0ee)" style="fill: #1f77b4"/>
   </g>
   <g id="patch_61">
    <path d="M 350.785533 307.584 
L 355.555707 307.584 
L 355.555707 305.92028 
L 350.785533 305.92028 
z
" clip-path="url(#pb6b5cad0ee)" style="fill: #1f77b4"/>
   </g>
   <g id="patch_62">
    <path d="M 355.555707 307.584 
L 360.325881 307.584 
L 360.325881 305.365707 
L 355.555707 305.365707 
z
" clip-path="url(#pb6b5cad0ee)" style="fill: #1f77b4"/>
   </g>
   <g id="patch_63">
    <path d="M 360.325881 307.584 
L 365.096055 307.584 
L 365.096055 305.642993 
L 360.325881 305.642993 
z
" clip-path="url(#pb6b5cad0ee)" style="fill: #1f77b4"/>
   </g>
   <g id="patch_64">
    <path d="M 365.096055 307.584 
L 369.866229 307.584 
L 369.866229 304.533847 
L 365.096055 304.533847 
z
" clip-path="url(#pb6b5cad0ee)" style="fill: #1f77b4"/>
   </g>
   <g id="patch_65">
    <path d="M 369.866229 307.584 
L 374.636403 307.584 
L 374.636403 306.474853 
L 369.866229 306.474853 
z
" clip-path="url(#pb6b5cad0ee)" style="fill: #1f77b4"/>
   </g>
   <g id="patch_66">
    <path d="M 374.636403 307.584 
L 379.406577 307.584 
L 379.406577 306.197567 
L 374.636403 306.197567 
z
" clip-path="url(#pb6b5cad0ee)" style="fill: #1f77b4"/>
   </g>
   <g id="patch_67">
    <path d="M 379.406577 307.584 
L 384.176751 307.584 
L 384.176751 307.029427 
L 379.406577 307.029427 
z
" clip-path="url(#pb6b5cad0ee)" style="fill: #1f77b4"/>
   </g>
   <g id="patch_68">
    <path d="M 384.176751 307.584 
L 388.946925 307.584 
L 388.946925 306.197567 
L 384.176751 306.197567 
z
" clip-path="url(#pb6b5cad0ee)" style="fill: #1f77b4"/>
   </g>
   <g id="patch_69">
    <path d="M 388.946925 307.584 
L 393.717099 307.584 
L 393.717099 306.474853 
L 388.946925 306.474853 
z
" clip-path="url(#pb6b5cad0ee)" style="fill: #1f77b4"/>
   </g>
   <g id="patch_70">
    <path d="M 393.717099 307.584 
L 398.487273 307.584 
L 398.487273 305.92028 
L 393.717099 305.92028 
z
" clip-path="url(#pb6b5cad0ee)" style="fill: #1f77b4"/>
   </g>
   <g id="matplotlib.axis_1">
    <g id="xtick_1">
     <g id="line2d_1">
      <defs>
       <path id="m974377718a" d="M 0 0 
L 0 3.5 
" style="stroke: #000000; stroke-width: 0.8"/>
      </defs>
      <g>
       <use xlink:href="#m974377718a" x="73.832727" y="307.584" style="stroke: #000000; stroke-width: 0.8"/>
      </g>
     </g>
     <g id="text_1">
      <!-- 0 -->
      <g transform="translate(70.651477 322.182437) scale(0.1 -0.1)">
       <defs>
        <path id="DejaVuSans-30" d="M 2034 4250 
Q 1547 4250 1301 3770 
Q 1056 3291 1056 2328 
Q 1056 1369 1301 889 
Q 1547 409 2034 409 
Q 2525 409 2770 889 
Q 3016 1369 3016 2328 
Q 3016 3291 2770 3770 
Q 2525 4250 2034 4250 
z
M 2034 4750 
Q 2819 4750 3233 4129 
Q 3647 3509 3647 2328 
Q 3647 1150 3233 529 
Q 2819 -91 2034 -91 
Q 1250 -91 836 529 
Q 422 1150 422 2328 
Q 422 3509 836 4129 
Q 1250 4750 2034 4750 
z
" transform="scale(0.015625)"/>
       </defs>
       <use xlink:href="#DejaVuSans-30"/>
      </g>
     </g>
    </g>
    <g id="xtick_2">
     <g id="line2d_2">
      <g>
       <use xlink:href="#m974377718a" x="151.288184" y="307.584" style="stroke: #000000; stroke-width: 0.8"/>
      </g>
     </g>
     <g id="text_2">
      <!-- 20000 -->
      <g transform="translate(135.381934 322.182437) scale(0.1 -0.1)">
       <defs>
        <path id="DejaVuSans-32" d="M 1228 531 
L 3431 531 
L 3431 0 
L 469 0 
L 469 531 
Q 828 903 1448 1529 
Q 2069 2156 2228 2338 
Q 2531 2678 2651 2914 
Q 2772 3150 2772 3378 
Q 2772 3750 2511 3984 
Q 2250 4219 1831 4219 
Q 1534 4219 1204 4116 
Q 875 4013 500 3803 
L 500 4441 
Q 881 4594 1212 4672 
Q 1544 4750 1819 4750 
Q 2544 4750 2975 4387 
Q 3406 4025 3406 3419 
Q 3406 3131 3298 2873 
Q 3191 2616 2906 2266 
Q 2828 2175 2409 1742 
Q 1991 1309 1228 531 
z
" transform="scale(0.015625)"/>
       </defs>
       <use xlink:href="#DejaVuSans-32"/>
       <use xlink:href="#DejaVuSans-30" x="63.623047"/>
       <use xlink:href="#DejaVuSans-30" x="127.246094"/>
       <use xlink:href="#DejaVuSans-30" x="190.869141"/>
       <use xlink:href="#DejaVuSans-30" x="254.492188"/>
      </g>
     </g>
    </g>
    <g id="xtick_3">
     <g id="line2d_3">
      <g>
       <use xlink:href="#m974377718a" x="228.74364" y="307.584" style="stroke: #000000; stroke-width: 0.8"/>
      </g>
     </g>
     <g id="text_3">
      <!-- 40000 -->
      <g transform="translate(212.83739 322.182437) scale(0.1 -0.1)">
       <defs>
        <path id="DejaVuSans-34" d="M 2419 4116 
L 825 1625 
L 2419 1625 
L 2419 4116 
z
M 2253 4666 
L 3047 4666 
L 3047 1625 
L 3713 1625 
L 3713 1100 
L 3047 1100 
L 3047 0 
L 2419 0 
L 2419 1100 
L 313 1100 
L 313 1709 
L 2253 4666 
z
" transform="scale(0.015625)"/>
       </defs>
       <use xlink:href="#DejaVuSans-34"/>
       <use xlink:href="#DejaVuSans-30" x="63.623047"/>
       <use xlink:href="#DejaVuSans-30" x="127.246094"/>
       <use xlink:href="#DejaVuSans-30" x="190.869141"/>
       <use xlink:href="#DejaVuSans-30" x="254.492188"/>
      </g>
     </g>
    </g>
    <g id="xtick_4">
     <g id="line2d_4">
      <g>
       <use xlink:href="#m974377718a" x="306.199096" y="307.584" style="stroke: #000000; stroke-width: 0.8"/>
      </g>
     </g>
     <g id="text_4">
      <!-- 60000 -->
      <g transform="translate(290.292846 322.182437) scale(0.1 -0.1)">
       <defs>
        <path id="DejaVuSans-36" d="M 2113 2584 
Q 1688 2584 1439 2293 
Q 1191 2003 1191 1497 
Q 1191 994 1439 701 
Q 1688 409 2113 409 
Q 2538 409 2786 701 
Q 3034 994 3034 1497 
Q 3034 2003 2786 2293 
Q 2538 2584 2113 2584 
z
M 3366 4563 
L 3366 3988 
Q 3128 4100 2886 4159 
Q 2644 4219 2406 4219 
Q 1781 4219 1451 3797 
Q 1122 3375 1075 2522 
Q 1259 2794 1537 2939 
Q 1816 3084 2150 3084 
Q 2853 3084 3261 2657 
Q 3669 2231 3669 1497 
Q 3669 778 3244 343 
Q 2819 -91 2113 -91 
Q 1303 -91 875 529 
Q 447 1150 447 2328 
Q 447 3434 972 4092 
Q 1497 4750 2381 4750 
Q 2619 4750 2861 4703 
Q 3103 4656 3366 4563 
z
" transform="scale(0.015625)"/>
       </defs>
       <use xlink:href="#DejaVuSans-36"/>
       <use xlink:href="#DejaVuSans-30" x="63.623047"/>
       <use xlink:href="#DejaVuSans-30" x="127.246094"/>
       <use xlink:href="#DejaVuSans-30" x="190.869141"/>
       <use xlink:href="#DejaVuSans-30" x="254.492188"/>
      </g>
     </g>
    </g>
    <g id="xtick_5">
     <g id="line2d_5">
      <g>
       <use xlink:href="#m974377718a" x="383.654553" y="307.584" style="stroke: #000000; stroke-width: 0.8"/>
      </g>
     </g>
     <g id="text_5">
      <!-- 80000 -->
      <g transform="translate(367.748303 322.182437) scale(0.1 -0.1)">
       <defs>
        <path id="DejaVuSans-38" d="M 2034 2216 
Q 1584 2216 1326 1975 
Q 1069 1734 1069 1313 
Q 1069 891 1326 650 
Q 1584 409 2034 409 
Q 2484 409 2743 651 
Q 3003 894 3003 1313 
Q 3003 1734 2745 1975 
Q 2488 2216 2034 2216 
z
M 1403 2484 
Q 997 2584 770 2862 
Q 544 3141 544 3541 
Q 544 4100 942 4425 
Q 1341 4750 2034 4750 
Q 2731 4750 3128 4425 
Q 3525 4100 3525 3541 
Q 3525 3141 3298 2862 
Q 3072 2584 2669 2484 
Q 3125 2378 3379 2068 
Q 3634 1759 3634 1313 
Q 3634 634 3220 271 
Q 2806 -91 2034 -91 
Q 1263 -91 848 271 
Q 434 634 434 1313 
Q 434 1759 690 2068 
Q 947 2378 1403 2484 
z
M 1172 3481 
Q 1172 3119 1398 2916 
Q 1625 2713 2034 2713 
Q 2441 2713 2670 2916 
Q 2900 3119 2900 3481 
Q 2900 3844 2670 4047 
Q 2441 4250 2034 4250 
Q 1625 4250 1398 4047 
Q 1172 3844 1172 3481 
z
" transform="scale(0.015625)"/>
       </defs>
       <use xlink:href="#DejaVuSans-38"/>
       <use xlink:href="#DejaVuSans-30" x="63.623047"/>
       <use xlink:href="#DejaVuSans-30" x="127.246094"/>
       <use xlink:href="#DejaVuSans-30" x="190.869141"/>
       <use xlink:href="#DejaVuSans-30" x="254.492188"/>
      </g>
     </g>
    </g>
   </g>
   <g id="matplotlib.axis_2">
    <g id="ytick_1">
     <g id="line2d_6">
      <defs>
       <path id="m2c7e64eac9" d="M 0 0 
L -3.5 0 
" style="stroke: #000000; stroke-width: 0.8"/>
      </defs>
      <g>
       <use xlink:href="#m2c7e64eac9" x="57.6" y="307.584" style="stroke: #000000; stroke-width: 0.8"/>
      </g>
     </g>
     <g id="text_6">
      <!-- 0.00000 -->
      <g transform="translate(9.246875 311.383219) scale(0.1 -0.1)">
       <defs>
        <path id="DejaVuSans-2e" d="M 684 794 
L 1344 794 
L 1344 0 
L 684 0 
L 684 794 
z
" transform="scale(0.015625)"/>
       </defs>
       <use xlink:href="#DejaVuSans-30"/>
       <use xlink:href="#DejaVuSans-2e" x="63.623047"/>
       <use xlink:href="#DejaVuSans-30" x="95.410156"/>
       <use xlink:href="#DejaVuSans-30" x="159.033203"/>
       <use xlink:href="#DejaVuSans-30" x="222.65625"/>
       <use xlink:href="#DejaVuSans-30" x="286.279297"/>
       <use xlink:href="#DejaVuSans-30" x="349.902344"/>
      </g>
     </g>
    </g>
    <g id="ytick_2">
     <g id="line2d_7">
      <g>
       <use xlink:href="#m2c7e64eac9" x="57.6" y="259.461059" style="stroke: #000000; stroke-width: 0.8"/>
      </g>
     </g>
     <g id="text_7">
      <!-- 0.00005 -->
      <g transform="translate(9.246875 263.260278) scale(0.1 -0.1)">
       <defs>
        <path id="DejaVuSans-35" d="M 691 4666 
L 3169 4666 
L 3169 4134 
L 1269 4134 
L 1269 2991 
Q 1406 3038 1543 3061 
Q 1681 3084 1819 3084 
Q 2600 3084 3056 2656 
Q 3513 2228 3513 1497 
Q 3513 744 3044 326 
Q 2575 -91 1722 -91 
Q 1428 -91 1123 -41 
Q 819 9 494 109 
L 494 744 
Q 775 591 1075 516 
Q 1375 441 1709 441 
Q 2250 441 2565 725 
Q 2881 1009 2881 1497 
Q 2881 1984 2565 2268 
Q 2250 2553 1709 2553 
Q 1456 2553 1204 2497 
Q 953 2441 691 2322 
L 691 4666 
z
" transform="scale(0.015625)"/>
       </defs>
       <use xlink:href="#DejaVuSans-30"/>
       <use xlink:href="#DejaVuSans-2e" x="63.623047"/>
       <use xlink:href="#DejaVuSans-30" x="95.410156"/>
       <use xlink:href="#DejaVuSans-30" x="159.033203"/>
       <use xlink:href="#DejaVuSans-30" x="222.65625"/>
       <use xlink:href="#DejaVuSans-30" x="286.279297"/>
       <use xlink:href="#DejaVuSans-35" x="349.902344"/>
      </g>
     </g>
    </g>
    <g id="ytick_3">
     <g id="line2d_8">
      <g>
       <use xlink:href="#m2c7e64eac9" x="57.6" y="211.338119" style="stroke: #000000; stroke-width: 0.8"/>
      </g>
     </g>
     <g id="text_8">
      <!-- 0.00010 -->
      <g transform="translate(9.246875 215.137337) scale(0.1 -0.1)">
       <defs>
        <path id="DejaVuSans-31" d="M 794 531 
L 1825 531 
L 1825 4091 
L 703 3866 
L 703 4441 
L 1819 4666 
L 2450 4666 
L 2450 531 
L 3481 531 
L 3481 0 
L 794 0 
L 794 531 
z
" transform="scale(0.015625)"/>
       </defs>
       <use xlink:href="#DejaVuSans-30"/>
       <use xlink:href="#DejaVuSans-2e" x="63.623047"/>
       <use xlink:href="#DejaVuSans-30" x="95.410156"/>
       <use xlink:href="#DejaVuSans-30" x="159.033203"/>
       <use xlink:href="#DejaVuSans-30" x="222.65625"/>
       <use xlink:href="#DejaVuSans-31" x="286.279297"/>
       <use xlink:href="#DejaVuSans-30" x="349.902344"/>
      </g>
     </g>
    </g>
    <g id="ytick_4">
     <g id="line2d_9">
      <g>
       <use xlink:href="#m2c7e64eac9" x="57.6" y="163.215178" style="stroke: #000000; stroke-width: 0.8"/>
      </g>
     </g>
     <g id="text_9">
      <!-- 0.00015 -->
      <g transform="translate(9.246875 167.014397) scale(0.1 -0.1)">
       <use xlink:href="#DejaVuSans-30"/>
       <use xlink:href="#DejaVuSans-2e" x="63.623047"/>
       <use xlink:href="#DejaVuSans-30" x="95.410156"/>
       <use xlink:href="#DejaVuSans-30" x="159.033203"/>
       <use xlink:href="#DejaVuSans-30" x="222.65625"/>
       <use xlink:href="#DejaVuSans-31" x="286.279297"/>
       <use xlink:href="#DejaVuSans-35" x="349.902344"/>
      </g>
     </g>
    </g>
    <g id="ytick_5">
     <g id="line2d_10">
      <g>
       <use xlink:href="#m2c7e64eac9" x="57.6" y="115.092237" style="stroke: #000000; stroke-width: 0.8"/>
      </g>
     </g>
     <g id="text_10">
      <!-- 0.00020 -->
      <g transform="translate(9.246875 118.891456) scale(0.1 -0.1)">
       <use xlink:href="#DejaVuSans-30"/>
       <use xlink:href="#DejaVuSans-2e" x="63.623047"/>
       <use xlink:href="#DejaVuSans-30" x="95.410156"/>
       <use xlink:href="#DejaVuSans-30" x="159.033203"/>
       <use xlink:href="#DejaVuSans-30" x="222.65625"/>
       <use xlink:href="#DejaVuSans-32" x="286.279297"/>
       <use xlink:href="#DejaVuSans-30" x="349.902344"/>
      </g>
     </g>
    </g>
    <g id="ytick_6">
     <g id="line2d_11">
      <g>
       <use xlink:href="#m2c7e64eac9" x="57.6" y="66.969297" style="stroke: #000000; stroke-width: 0.8"/>
      </g>
     </g>
     <g id="text_11">
      <!-- 0.00025 -->
      <g transform="translate(9.246875 70.768515) scale(0.1 -0.1)">
       <use xlink:href="#DejaVuSans-30"/>
       <use xlink:href="#DejaVuSans-2e" x="63.623047"/>
       <use xlink:href="#DejaVuSans-30" x="95.410156"/>
       <use xlink:href="#DejaVuSans-30" x="159.033203"/>
       <use xlink:href="#DejaVuSans-30" x="222.65625"/>
       <use xlink:href="#DejaVuSans-32" x="286.279297"/>
       <use xlink:href="#DejaVuSans-35" x="349.902344"/>
      </g>
     </g>
    </g>
   </g>
   <g id="line2d_12">
    <path d="M 73.832727 307.584 
L 73.8366 275.431354 
L 73.945038 275.461691 
L 83.820608 278.107834 
L 94.106693 280.632481 
L 104.842019 283.037075 
L 116.07306 285.323402 
L 127.854035 287.493189 
L 140.246908 289.547812 
L 153.317517 291.487562 
L 167.154934 293.314269 
L 181.852107 295.027997 
L 197.529091 296.629748 
L 214.32918 298.120146 
L 232.426647 299.499588 
L 252.038369 300.768401 
L 273.443184 301.927073 
L 297.005134 302.976112 
L 323.200569 303.915682 
L 352.691734 304.746263 
L 386.41584 305.468202 
L 398.487273 305.679255 
L 398.487273 305.679255 
" clip-path="url(#pb6b5cad0ee)" style="fill: none; stroke: #ff7f0e; stroke-width: 1.5; stroke-linecap: square"/>
   </g>
   <g id="patch_71">
    <path d="M 57.6 307.584 
L 57.6 41.472 
" style="fill: none; stroke: #000000; stroke-width: 0.8; stroke-linejoin: miter; stroke-linecap: square"/>
   </g>
   <g id="patch_72">
    <path d="M 414.72 307.584 
L 414.72 41.472 
" style="fill: none; stroke: #000000; stroke-width: 0.8; stroke-linejoin: miter; stroke-linecap: square"/>
   </g>
   <g id="patch_73">
    <path d="M 57.6 307.584 
L 414.72 307.584 
" style="fill: none; stroke: #000000; stroke-width: 0.8; stroke-linejoin: miter; stroke-linecap: square"/>
   </g>
   <g id="patch_74">
    <path d="M 57.6 41.472 
L 414.72 41.472 
" style="fill: none; stroke: #000000; stroke-width: 0.8; stroke-linejoin: miter; stroke-linecap: square"/>
   </g>
   <g id="legend_1">
    <g id="patch_75">
     <path d="M 145.554375 64.150125 
L 407.72 64.150125 
Q 409.72 64.150125 409.72 62.150125 
L 409.72 48.472 
Q 409.72 46.472 407.72 46.472 
L 145.554375 46.472 
Q 143.554375 46.472 143.554375 48.472 
L 143.554375 62.150125 
Q 143.554375 64.150125 145.554375 64.150125 
z
" style="fill: #ffffff; opacity: 0.8; stroke: #cccccc; stroke-linejoin: miter"/>
    </g>
    <g id="line2d_13">
     <path d="M 147.554375 54.570438 
L 157.554375 54.570438 
L 167.554375 54.570438 
" style="fill: none; stroke: #ff7f0e; stroke-width: 1.5; stroke-linecap: square"/>
    </g>
    <g id="text_12">
     <!-- states 2 cross entropy: 11.45 sh entropy: 7.80 -->
     <g transform="translate(175.554375 58.070438) scale(0.1 -0.1)">
      <defs>
       <path id="DejaVuSans-73" d="M 2834 3397 
L 2834 2853 
Q 2591 2978 2328 3040 
Q 2066 3103 1784 3103 
Q 1356 3103 1142 2972 
Q 928 2841 928 2578 
Q 928 2378 1081 2264 
Q 1234 2150 1697 2047 
L 1894 2003 
Q 2506 1872 2764 1633 
Q 3022 1394 3022 966 
Q 3022 478 2636 193 
Q 2250 -91 1575 -91 
Q 1294 -91 989 -36 
Q 684 19 347 128 
L 347 722 
Q 666 556 975 473 
Q 1284 391 1588 391 
Q 1994 391 2212 530 
Q 2431 669 2431 922 
Q 2431 1156 2273 1281 
Q 2116 1406 1581 1522 
L 1381 1569 
Q 847 1681 609 1914 
Q 372 2147 372 2553 
Q 372 3047 722 3315 
Q 1072 3584 1716 3584 
Q 2034 3584 2315 3537 
Q 2597 3491 2834 3397 
z
" transform="scale(0.015625)"/>
       <path id="DejaVuSans-74" d="M 1172 4494 
L 1172 3500 
L 2356 3500 
L 2356 3053 
L 1172 3053 
L 1172 1153 
Q 1172 725 1289 603 
Q 1406 481 1766 481 
L 2356 481 
L 2356 0 
L 1766 0 
Q 1100 0 847 248 
Q 594 497 594 1153 
L 594 3053 
L 172 3053 
L 172 3500 
L 594 3500 
L 594 4494 
L 1172 4494 
z
" transform="scale(0.015625)"/>
       <path id="DejaVuSans-61" d="M 2194 1759 
Q 1497 1759 1228 1600 
Q 959 1441 959 1056 
Q 959 750 1161 570 
Q 1363 391 1709 391 
Q 2188 391 2477 730 
Q 2766 1069 2766 1631 
L 2766 1759 
L 2194 1759 
z
M 3341 1997 
L 3341 0 
L 2766 0 
L 2766 531 
Q 2569 213 2275 61 
Q 1981 -91 1556 -91 
Q 1019 -91 701 211 
Q 384 513 384 1019 
Q 384 1609 779 1909 
Q 1175 2209 1959 2209 
L 2766 2209 
L 2766 2266 
Q 2766 2663 2505 2880 
Q 2244 3097 1772 3097 
Q 1472 3097 1187 3025 
Q 903 2953 641 2809 
L 641 3341 
Q 956 3463 1253 3523 
Q 1550 3584 1831 3584 
Q 2591 3584 2966 3190 
Q 3341 2797 3341 1997 
z
" transform="scale(0.015625)"/>
       <path id="DejaVuSans-65" d="M 3597 1894 
L 3597 1613 
L 953 1613 
Q 991 1019 1311 708 
Q 1631 397 2203 397 
Q 2534 397 2845 478 
Q 3156 559 3463 722 
L 3463 178 
Q 3153 47 2828 -22 
Q 2503 -91 2169 -91 
Q 1331 -91 842 396 
Q 353 884 353 1716 
Q 353 2575 817 3079 
Q 1281 3584 2069 3584 
Q 2775 3584 3186 3129 
Q 3597 2675 3597 1894 
z
M 3022 2063 
Q 3016 2534 2758 2815 
Q 2500 3097 2075 3097 
Q 1594 3097 1305 2825 
Q 1016 2553 972 2059 
L 3022 2063 
z
" transform="scale(0.015625)"/>
       <path id="DejaVuSans-20" transform="scale(0.015625)"/>
       <path id="DejaVuSans-63" d="M 3122 3366 
L 3122 2828 
Q 2878 2963 2633 3030 
Q 2388 3097 2138 3097 
Q 1578 3097 1268 2742 
Q 959 2388 959 1747 
Q 959 1106 1268 751 
Q 1578 397 2138 397 
Q 2388 397 2633 464 
Q 2878 531 3122 666 
L 3122 134 
Q 2881 22 2623 -34 
Q 2366 -91 2075 -91 
Q 1284 -91 818 406 
Q 353 903 353 1747 
Q 353 2603 823 3093 
Q 1294 3584 2113 3584 
Q 2378 3584 2631 3529 
Q 2884 3475 3122 3366 
z
" transform="scale(0.015625)"/>
       <path id="DejaVuSans-72" d="M 2631 2963 
Q 2534 3019 2420 3045 
Q 2306 3072 2169 3072 
Q 1681 3072 1420 2755 
Q 1159 2438 1159 1844 
L 1159 0 
L 581 0 
L 581 3500 
L 1159 3500 
L 1159 2956 
Q 1341 3275 1631 3429 
Q 1922 3584 2338 3584 
Q 2397 3584 2469 3576 
Q 2541 3569 2628 3553 
L 2631 2963 
z
" transform="scale(0.015625)"/>
       <path id="DejaVuSans-6f" d="M 1959 3097 
Q 1497 3097 1228 2736 
Q 959 2375 959 1747 
Q 959 1119 1226 758 
Q 1494 397 1959 397 
Q 2419 397 2687 759 
Q 2956 1122 2956 1747 
Q 2956 2369 2687 2733 
Q 2419 3097 1959 3097 
z
M 1959 3584 
Q 2709 3584 3137 3096 
Q 3566 2609 3566 1747 
Q 3566 888 3137 398 
Q 2709 -91 1959 -91 
Q 1206 -91 779 398 
Q 353 888 353 1747 
Q 353 2609 779 3096 
Q 1206 3584 1959 3584 
z
" transform="scale(0.015625)"/>
       <path id="DejaVuSans-6e" d="M 3513 2113 
L 3513 0 
L 2938 0 
L 2938 2094 
Q 2938 2591 2744 2837 
Q 2550 3084 2163 3084 
Q 1697 3084 1428 2787 
Q 1159 2491 1159 1978 
L 1159 0 
L 581 0 
L 581 3500 
L 1159 3500 
L 1159 2956 
Q 1366 3272 1645 3428 
Q 1925 3584 2291 3584 
Q 2894 3584 3203 3211 
Q 3513 2838 3513 2113 
z
" transform="scale(0.015625)"/>
       <path id="DejaVuSans-70" d="M 1159 525 
L 1159 -1331 
L 581 -1331 
L 581 3500 
L 1159 3500 
L 1159 2969 
Q 1341 3281 1617 3432 
Q 1894 3584 2278 3584 
Q 2916 3584 3314 3078 
Q 3713 2572 3713 1747 
Q 3713 922 3314 415 
Q 2916 -91 2278 -91 
Q 1894 -91 1617 61 
Q 1341 213 1159 525 
z
M 3116 1747 
Q 3116 2381 2855 2742 
Q 2594 3103 2138 3103 
Q 1681 3103 1420 2742 
Q 1159 2381 1159 1747 
Q 1159 1113 1420 752 
Q 1681 391 2138 391 
Q 2594 391 2855 752 
Q 3116 1113 3116 1747 
z
" transform="scale(0.015625)"/>
       <path id="DejaVuSans-79" d="M 2059 -325 
Q 1816 -950 1584 -1140 
Q 1353 -1331 966 -1331 
L 506 -1331 
L 506 -850 
L 844 -850 
Q 1081 -850 1212 -737 
Q 1344 -625 1503 -206 
L 1606 56 
L 191 3500 
L 800 3500 
L 1894 763 
L 2988 3500 
L 3597 3500 
L 2059 -325 
z
" transform="scale(0.015625)"/>
       <path id="DejaVuSans-3a" d="M 750 794 
L 1409 794 
L 1409 0 
L 750 0 
L 750 794 
z
M 750 3309 
L 1409 3309 
L 1409 2516 
L 750 2516 
L 750 3309 
z
" transform="scale(0.015625)"/>
       <path id="DejaVuSans-68" d="M 3513 2113 
L 3513 0 
L 2938 0 
L 2938 2094 
Q 2938 2591 2744 2837 
Q 2550 3084 2163 3084 
Q 1697 3084 1428 2787 
Q 1159 2491 1159 1978 
L 1159 0 
L 581 0 
L 581 4863 
L 1159 4863 
L 1159 2956 
Q 1366 3272 1645 3428 
Q 1925 3584 2291 3584 
Q 2894 3584 3203 3211 
Q 3513 2838 3513 2113 
z
" transform="scale(0.015625)"/>
       <path id="DejaVuSans-37" d="M 525 4666 
L 3525 4666 
L 3525 4397 
L 1831 0 
L 1172 0 
L 2766 4134 
L 525 4134 
L 525 4666 
z
" transform="scale(0.015625)"/>
      </defs>
      <use xlink:href="#DejaVuSans-73"/>
      <use xlink:href="#DejaVuSans-74" x="52.099609"/>
      <use xlink:href="#DejaVuSans-61" x="91.308594"/>
      <use xlink:href="#DejaVuSans-74" x="152.587891"/>
      <use xlink:href="#DejaVuSans-65" x="191.796875"/>
      <use xlink:href="#DejaVuSans-73" x="253.320312"/>
      <use xlink:href="#DejaVuSans-20" x="305.419922"/>
      <use xlink:href="#DejaVuSans-32" x="337.207031"/>
      <use xlink:href="#DejaVuSans-20" x="400.830078"/>
      <use xlink:href="#DejaVuSans-63" x="432.617188"/>
      <use xlink:href="#DejaVuSans-72" x="487.597656"/>
      <use xlink:href="#DejaVuSans-6f" x="526.460938"/>
      <use xlink:href="#DejaVuSans-73" x="587.642578"/>
      <use xlink:href="#DejaVuSans-73" x="639.742188"/>
      <use xlink:href="#DejaVuSans-20" x="691.841797"/>
      <use xlink:href="#DejaVuSans-65" x="723.628906"/>
      <use xlink:href="#DejaVuSans-6e" x="785.152344"/>
      <use xlink:href="#DejaVuSans-74" x="848.53125"/>
      <use xlink:href="#DejaVuSans-72" x="887.740234"/>
      <use xlink:href="#DejaVuSans-6f" x="926.603516"/>
      <use xlink:href="#DejaVuSans-70" x="987.785156"/>
      <use xlink:href="#DejaVuSans-79" x="1051.261719"/>
      <use xlink:href="#DejaVuSans-3a" x="1103.191406"/>
      <use xlink:href="#DejaVuSans-20" x="1136.882812"/>
      <use xlink:href="#DejaVuSans-31" x="1168.669922"/>
      <use xlink:href="#DejaVuSans-31" x="1232.292969"/>
      <use xlink:href="#DejaVuSans-2e" x="1295.916016"/>
      <use xlink:href="#DejaVuSans-34" x="1327.703125"/>
      <use xlink:href="#DejaVuSans-35" x="1391.326172"/>
      <use xlink:href="#DejaVuSans-20" x="1454.949219"/>
      <use xlink:href="#DejaVuSans-73" x="1486.736328"/>
      <use xlink:href="#DejaVuSans-68" x="1538.835938"/>
      <use xlink:href="#DejaVuSans-20" x="1602.214844"/>
      <use xlink:href="#DejaVuSans-65" x="1634.001953"/>
      <use xlink:href="#DejaVuSans-6e" x="1695.525391"/>
      <use xlink:href="#DejaVuSans-74" x="1758.904297"/>
      <use xlink:href="#DejaVuSans-72" x="1798.113281"/>
      <use xlink:href="#DejaVuSans-6f" x="1836.976562"/>
      <use xlink:href="#DejaVuSans-70" x="1898.158203"/>
      <use xlink:href="#DejaVuSans-79" x="1961.634766"/>
      <use xlink:href="#DejaVuSans-3a" x="2013.564453"/>
      <use xlink:href="#DejaVuSans-20" x="2047.255859"/>
      <use xlink:href="#DejaVuSans-37" x="2079.042969"/>
      <use xlink:href="#DejaVuSans-2e" x="2142.666016"/>
      <use xlink:href="#DejaVuSans-38" x="2174.453125"/>
      <use xlink:href="#DejaVuSans-30" x="2238.076172"/>
     </g>
    </g>
   </g>
  </g>
 </g>
 <defs>
  <clipPath id="pb6b5cad0ee">
   <rect x="57.6" y="41.472" width="357.12" height="266.112"/>
  </clipPath>
 </defs>
</svg>
