<?xml version="1.0" encoding="utf-8" standalone="no"?>
<!DOCTYPE svg PUBLIC "-//W3C//DTD SVG 1.1//EN"
  "http://www.w3.org/Graphics/SVG/1.1/DTD/svg11.dtd">
<svg xmlns:xlink="http://www.w3.org/1999/xlink" width="460.8pt" height="345.6pt" viewBox="0 0 460.8 345.6" xmlns="http://www.w3.org/2000/svg" version="1.1">
 <metadata>
  <rdf:RDF xmlns:dc="http://purl.org/dc/elements/1.1/" xmlns:cc="http://creativecommons.org/ns#" xmlns:rdf="http://www.w3.org/1999/02/22-rdf-syntax-ns#">
   <cc:Work>
    <dc:type rdf:resource="http://purl.org/dc/dcmitype/StillImage"/>
    <dc:date>2024-04-30T21:37:07.370633</dc:date>
    <dc:format>image/svg+xml</dc:format>
    <dc:creator>
     <cc:Agent>
      <dc:title>Matplotlib v3.8.4, https://matplotlib.org/</dc:title>
     </cc:Agent>
    </dc:creator>
   </cc:Work>
  </rdf:RDF>
 </metadata>
 <defs>
  <style type="text/css">*{stroke-linejoin: round; stroke-linecap: butt}</style>
 </defs>
 <g id="figure_1">
  <g id="patch_1">
   <path d="M 0 345.6 
L 460.8 345.6 
L 460.8 0 
L 0 0 
z
" style="fill: #ffffff"/>
  </g>
  <g id="axes_1">
   <g id="patch_2">
    <path d="M 57.6 307.584 
L 414.72 307.584 
L 414.72 41.472 
L 57.6 41.472 
z
" style="fill: #ffffff"/>
   </g>
   <g id="patch_3">
    <path d="M 80.588418 307.584 
L 86.368398 307.584 
L 86.368398 290.713702 
L 80.588418 290.713702 
z
" clip-path="url(#pf56841bf77)" style="fill: #1f77b4"/>
   </g>
   <g id="patch_4">
    <path d="M 86.368398 307.584 
L 92.148377 307.584 
L 92.148377 258.156987 
L 86.368398 258.156987 
z
" clip-path="url(#pf56841bf77)" style="fill: #1f77b4"/>
   </g>
   <g id="patch_5">
    <path d="M 92.148377 307.584 
L 97.928356 307.584 
L 97.928356 165.222363 
L 92.148377 165.222363 
z
" clip-path="url(#pf56841bf77)" style="fill: #1f77b4"/>
   </g>
   <g id="patch_6">
    <path d="M 97.928356 307.584 
L 103.708335 307.584 
L 103.708335 134.145498 
L 97.928356 134.145498 
z
" clip-path="url(#pf56841bf77)" style="fill: #1f77b4"/>
   </g>
   <g id="patch_7">
    <path d="M 103.708335 307.584 
L 109.488314 307.584 
L 109.488314 119.938931 
L 103.708335 119.938931 
z
" clip-path="url(#pf56841bf77)" style="fill: #1f77b4"/>
   </g>
   <g id="patch_8">
    <path d="M 109.488314 307.584 
L 115.268293 307.584 
L 115.268293 76.727291 
L 109.488314 76.727291 
z
" clip-path="url(#pf56841bf77)" style="fill: #1f77b4"/>
   </g>
   <g id="patch_9">
    <path d="M 115.268293 307.584 
L 121.048273 307.584 
L 121.048273 98.925051 
L 115.268293 98.925051 
z
" clip-path="url(#pf56841bf77)" style="fill: #1f77b4"/>
   </g>
   <g id="patch_10">
    <path d="M 121.048273 307.584 
L 126.828252 307.584 
L 126.828252 87.382216 
L 121.048273 87.382216 
z
" clip-path="url(#pf56841bf77)" style="fill: #1f77b4"/>
   </g>
   <g id="patch_11">
    <path d="M 126.828252 307.584 
L 132.608231 307.584 
L 132.608231 82.942664 
L 126.828252 82.942664 
z
" clip-path="url(#pf56841bf77)" style="fill: #1f77b4"/>
   </g>
   <g id="patch_12">
    <path d="M 132.608231 307.584 
L 138.38821 307.584 
L 138.38821 96.55729 
L 132.608231 96.55729 
z
" clip-path="url(#pf56841bf77)" style="fill: #1f77b4"/>
   </g>
   <g id="patch_13">
    <path d="M 138.38821 307.584 
L 144.168189 307.584 
L 144.168189 82.054753 
L 138.38821 82.054753 
z
" clip-path="url(#pf56841bf77)" style="fill: #1f77b4"/>
   </g>
   <g id="patch_14">
    <path d="M 144.168189 307.584 
L 149.948168 307.584 
L 149.948168 76.431321 
L 144.168189 76.431321 
z
" clip-path="url(#pf56841bf77)" style="fill: #1f77b4"/>
   </g>
   <g id="patch_15">
    <path d="M 149.948168 307.584 
L 155.728148 307.584 
L 155.728148 78.799082 
L 149.948168 78.799082 
z
" clip-path="url(#pf56841bf77)" style="fill: #1f77b4"/>
   </g>
   <g id="patch_16">
    <path d="M 155.728148 307.584 
L 161.508127 307.584 
L 161.508127 66.664306 
L 155.728148 66.664306 
z
" clip-path="url(#pf56841bf77)" style="fill: #1f77b4"/>
   </g>
   <g id="patch_17">
    <path d="M 161.508127 307.584 
L 167.288106 307.584 
L 167.288106 59.265053 
L 161.508127 59.265053 
z
" clip-path="url(#pf56841bf77)" style="fill: #1f77b4"/>
   </g>
   <g id="patch_18">
    <path d="M 167.288106 307.584 
L 173.068085 307.584 
L 173.068085 87.086246 
L 167.288106 87.086246 
z
" clip-path="url(#pf56841bf77)" style="fill: #1f77b4"/>
   </g>
   <g id="patch_19">
    <path d="M 173.068085 307.584 
L 178.848064 307.584 
L 178.848064 87.382216 
L 173.068085 87.382216 
z
" clip-path="url(#pf56841bf77)" style="fill: #1f77b4"/>
   </g>
   <g id="patch_20">
    <path d="M 178.848064 307.584 
L 184.628043 307.584 
L 184.628043 100.996842 
L 178.848064 100.996842 
z
" clip-path="url(#pf56841bf77)" style="fill: #1f77b4"/>
   </g>
   <g id="patch_21">
    <path d="M 184.628043 307.584 
L 190.408023 307.584 
L 190.408023 106.028335 
L 184.628043 106.028335 
z
" clip-path="url(#pf56841bf77)" style="fill: #1f77b4"/>
   </g>
   <g id="patch_22">
    <path d="M 190.408023 307.584 
L 196.188002 307.584 
L 196.188002 121.714752 
L 190.408023 121.714752 
z
" clip-path="url(#pf56841bf77)" style="fill: #1f77b4"/>
   </g>
   <g id="patch_23">
    <path d="M 196.188002 307.584 
L 201.967981 307.584 
L 201.967981 135.921319 
L 196.188002 135.921319 
z
" clip-path="url(#pf56841bf77)" style="fill: #1f77b4"/>
   </g>
   <g id="patch_24">
    <path d="M 201.967981 307.584 
L 207.74796 307.584 
L 207.74796 143.912513 
L 201.967981 143.912513 
z
" clip-path="url(#pf56841bf77)" style="fill: #1f77b4"/>
   </g>
   <g id="patch_25">
    <path d="M 207.74796 307.584 
L 213.527939 307.584 
L 213.527939 152.495647 
L 207.74796 152.495647 
z
" clip-path="url(#pf56841bf77)" style="fill: #1f77b4"/>
   </g>
   <g id="patch_26">
    <path d="M 213.527939 307.584 
L 219.307918 307.584 
L 219.307918 177.653109 
L 213.527939 177.653109 
z
" clip-path="url(#pf56841bf77)" style="fill: #1f77b4"/>
   </g>
   <g id="patch_27">
    <path d="M 219.307918 307.584 
L 225.087898 307.584 
L 225.087898 173.213557 
L 219.307918 173.213557 
z
" clip-path="url(#pf56841bf77)" style="fill: #1f77b4"/>
   </g>
   <g id="patch_28">
    <path d="M 225.087898 307.584 
L 230.867877 307.584 
L 230.867877 192.155645 
L 225.087898 192.155645 
z
" clip-path="url(#pf56841bf77)" style="fill: #1f77b4"/>
   </g>
   <g id="patch_29">
    <path d="M 230.867877 307.584 
L 236.647856 307.584 
L 236.647856 209.913854 
L 230.867877 209.913854 
z
" clip-path="url(#pf56841bf77)" style="fill: #1f77b4"/>
   </g>
   <g id="patch_30">
    <path d="M 236.647856 307.584 
L 242.427835 307.584 
L 242.427835 212.577585 
L 236.647856 212.577585 
z
" clip-path="url(#pf56841bf77)" style="fill: #1f77b4"/>
   </g>
   <g id="patch_31">
    <path d="M 242.427835 307.584 
L 248.207814 307.584 
L 248.207814 225.600271 
L 242.427835 225.600271 
z
" clip-path="url(#pf56841bf77)" style="fill: #1f77b4"/>
   </g>
   <g id="patch_32">
    <path d="M 248.207814 307.584 
L 253.987794 307.584 
L 253.987794 236.551166 
L 248.207814 236.551166 
z
" clip-path="url(#pf56841bf77)" style="fill: #1f77b4"/>
   </g>
   <g id="patch_33">
    <path d="M 253.987794 307.584 
L 259.767773 307.584 
L 259.767773 243.65445 
L 253.987794 243.65445 
z
" clip-path="url(#pf56841bf77)" style="fill: #1f77b4"/>
   </g>
   <g id="patch_34">
    <path d="M 259.767773 307.584 
L 265.547752 307.584 
L 265.547752 246.910121 
L 259.767773 246.910121 
z
" clip-path="url(#pf56841bf77)" style="fill: #1f77b4"/>
   </g>
   <g id="patch_35">
    <path d="M 265.547752 307.584 
L 271.327731 307.584 
L 271.327731 249.869823 
L 265.547752 249.869823 
z
" clip-path="url(#pf56841bf77)" style="fill: #1f77b4"/>
   </g>
   <g id="patch_36">
    <path d="M 271.327731 307.584 
L 277.10771 307.584 
L 277.10771 257.565046 
L 271.327731 257.565046 
z
" clip-path="url(#pf56841bf77)" style="fill: #1f77b4"/>
   </g>
   <g id="patch_37">
    <path d="M 277.10771 307.584 
L 282.887689 307.584 
L 282.887689 265.85221 
L 277.10771 265.85221 
z
" clip-path="url(#pf56841bf77)" style="fill: #1f77b4"/>
   </g>
   <g id="patch_38">
    <path d="M 282.887689 307.584 
L 288.667669 307.584 
L 288.667669 274.139374 
L 282.887689 274.139374 
z
" clip-path="url(#pf56841bf77)" style="fill: #1f77b4"/>
   </g>
   <g id="patch_39">
    <path d="M 288.667669 307.584 
L 294.447648 307.584 
L 294.447648 270.291762 
L 288.667669 270.291762 
z
" clip-path="url(#pf56841bf77)" style="fill: #1f77b4"/>
   </g>
   <g id="patch_40">
    <path d="M 294.447648 307.584 
L 300.227627 307.584 
L 300.227627 279.762807 
L 294.447648 279.762807 
z
" clip-path="url(#pf56841bf77)" style="fill: #1f77b4"/>
   </g>
   <g id="patch_41">
    <path d="M 300.227627 307.584 
L 306.007606 307.584 
L 306.007606 289.233851 
L 300.227627 289.233851 
z
" clip-path="url(#pf56841bf77)" style="fill: #1f77b4"/>
   </g>
   <g id="patch_42">
    <path d="M 306.007606 307.584 
L 311.787585 307.584 
L 311.787585 282.722508 
L 306.007606 282.722508 
z
" clip-path="url(#pf56841bf77)" style="fill: #1f77b4"/>
   </g>
   <g id="patch_43">
    <path d="M 311.787585 307.584 
L 317.567564 307.584 
L 317.567564 283.314449 
L 311.787585 283.314449 
z
" clip-path="url(#pf56841bf77)" style="fill: #1f77b4"/>
   </g>
   <g id="patch_44">
    <path d="M 317.567564 307.584 
L 323.347544 307.584 
L 323.347544 286.86609 
L 317.567564 286.86609 
z
" clip-path="url(#pf56841bf77)" style="fill: #1f77b4"/>
   </g>
   <g id="patch_45">
    <path d="M 323.347544 307.584 
L 329.127523 307.584 
L 329.127523 293.377433 
L 323.347544 293.377433 
z
" clip-path="url(#pf56841bf77)" style="fill: #1f77b4"/>
   </g>
   <g id="patch_46">
    <path d="M 329.127523 307.584 
L 334.907502 307.584 
L 334.907502 291.601612 
L 329.127523 291.601612 
z
" clip-path="url(#pf56841bf77)" style="fill: #1f77b4"/>
   </g>
   <g id="patch_47">
    <path d="M 334.907502 307.584 
L 340.687481 307.584 
L 340.687481 292.785493 
L 334.907502 292.785493 
z
" clip-path="url(#pf56841bf77)" style="fill: #1f77b4"/>
   </g>
   <g id="patch_48">
    <path d="M 340.687481 307.584 
L 346.46746 307.584 
L 346.46746 296.929075 
L 340.687481 296.929075 
z
" clip-path="url(#pf56841bf77)" style="fill: #1f77b4"/>
   </g>
   <g id="patch_49">
    <path d="M 346.46746 307.584 
L 352.247439 307.584 
L 352.247439 297.521015 
L 346.46746 297.521015 
z
" clip-path="url(#pf56841bf77)" style="fill: #1f77b4"/>
   </g>
   <g id="patch_50">
    <path d="M 352.247439 307.584 
L 358.027419 307.584 
L 358.027419 297.225045 
L 352.247439 297.225045 
z
" clip-path="url(#pf56841bf77)" style="fill: #1f77b4"/>
   </g>
   <g id="patch_51">
    <path d="M 358.027419 307.584 
L 363.807398 307.584 
L 363.807398 299.296836 
L 358.027419 299.296836 
z
" clip-path="url(#pf56841bf77)" style="fill: #1f77b4"/>
   </g>
   <g id="patch_52">
    <path d="M 363.807398 307.584 
L 369.587377 307.584 
L 369.587377 301.368627 
L 363.807398 301.368627 
z
" clip-path="url(#pf56841bf77)" style="fill: #1f77b4"/>
   </g>
   <g id="patch_53">
    <path d="M 369.587377 307.584 
L 375.367356 307.584 
L 375.367356 302.256537 
L 369.587377 302.256537 
z
" clip-path="url(#pf56841bf77)" style="fill: #1f77b4"/>
   </g>
   <g id="patch_54">
    <path d="M 375.367356 307.584 
L 381.147335 307.584 
L 381.147335 297.521015 
L 375.367356 297.521015 
z
" clip-path="url(#pf56841bf77)" style="fill: #1f77b4"/>
   </g>
   <g id="patch_55">
    <path d="M 381.147335 307.584 
L 386.927314 307.584 
L 386.927314 301.960567 
L 381.147335 301.960567 
z
" clip-path="url(#pf56841bf77)" style="fill: #1f77b4"/>
   </g>
   <g id="patch_56">
    <path d="M 386.927314 307.584 
L 392.707294 307.584 
L 392.707294 302.552508 
L 386.927314 302.552508 
z
" clip-path="url(#pf56841bf77)" style="fill: #1f77b4"/>
   </g>
   <g id="patch_57">
    <path d="M 392.707294 307.584 
L 398.487273 307.584 
L 398.487273 303.440418 
L 392.707294 303.440418 
z
" clip-path="url(#pf56841bf77)" style="fill: #1f77b4"/>
   </g>
   <g id="matplotlib.axis_1">
    <g id="xtick_1">
     <g id="line2d_1">
      <defs>
       <path id="m0037844960" d="M 0 0 
L 0 3.5 
" style="stroke: #000000; stroke-width: 0.8"/>
      </defs>
      <g>
       <use xlink:href="#m0037844960" x="73.832727" y="307.584" style="stroke: #000000; stroke-width: 0.8"/>
      </g>
     </g>
     <g id="text_1">
      <!-- 0 -->
      <g transform="translate(70.651477 322.182437) scale(0.1 -0.1)">
       <defs>
        <path id="DejaVuSans-30" d="M 2034 4250 
Q 1547 4250 1301 3770 
Q 1056 3291 1056 2328 
Q 1056 1369 1301 889 
Q 1547 409 2034 409 
Q 2525 409 2770 889 
Q 3016 1369 3016 2328 
Q 3016 3291 2770 3770 
Q 2525 4250 2034 4250 
z
M 2034 4750 
Q 2819 4750 3233 4129 
Q 3647 3509 3647 2328 
Q 3647 1150 3233 529 
Q 2819 -91 2034 -91 
Q 1250 -91 836 529 
Q 422 1150 422 2328 
Q 422 3509 836 4129 
Q 1250 4750 2034 4750 
z
" transform="scale(0.015625)"/>
       </defs>
       <use xlink:href="#DejaVuSans-30"/>
      </g>
     </g>
    </g>
    <g id="xtick_2">
     <g id="line2d_2">
      <g>
       <use xlink:href="#m0037844960" x="128.314108" y="307.584" style="stroke: #000000; stroke-width: 0.8"/>
      </g>
     </g>
     <g id="text_2">
      <!-- 1000 -->
      <g transform="translate(115.589108 322.182437) scale(0.1 -0.1)">
       <defs>
        <path id="DejaVuSans-31" d="M 794 531 
L 1825 531 
L 1825 4091 
L 703 3866 
L 703 4441 
L 1819 4666 
L 2450 4666 
L 2450 531 
L 3481 531 
L 3481 0 
L 794 0 
L 794 531 
z
" transform="scale(0.015625)"/>
       </defs>
       <use xlink:href="#DejaVuSans-31"/>
       <use xlink:href="#DejaVuSans-30" x="63.623047"/>
       <use xlink:href="#DejaVuSans-30" x="127.246094"/>
       <use xlink:href="#DejaVuSans-30" x="190.869141"/>
      </g>
     </g>
    </g>
    <g id="xtick_3">
     <g id="line2d_3">
      <g>
       <use xlink:href="#m0037844960" x="182.795488" y="307.584" style="stroke: #000000; stroke-width: 0.8"/>
      </g>
     </g>
     <g id="text_3">
      <!-- 2000 -->
      <g transform="translate(170.070488 322.182437) scale(0.1 -0.1)">
       <defs>
        <path id="DejaVuSans-32" d="M 1228 531 
L 3431 531 
L 3431 0 
L 469 0 
L 469 531 
Q 828 903 1448 1529 
Q 2069 2156 2228 2338 
Q 2531 2678 2651 2914 
Q 2772 3150 2772 3378 
Q 2772 3750 2511 3984 
Q 2250 4219 1831 4219 
Q 1534 4219 1204 4116 
Q 875 4013 500 3803 
L 500 4441 
Q 881 4594 1212 4672 
Q 1544 4750 1819 4750 
Q 2544 4750 2975 4387 
Q 3406 4025 3406 3419 
Q 3406 3131 3298 2873 
Q 3191 2616 2906 2266 
Q 2828 2175 2409 1742 
Q 1991 1309 1228 531 
z
" transform="scale(0.015625)"/>
       </defs>
       <use xlink:href="#DejaVuSans-32"/>
       <use xlink:href="#DejaVuSans-30" x="63.623047"/>
       <use xlink:href="#DejaVuSans-30" x="127.246094"/>
       <use xlink:href="#DejaVuSans-30" x="190.869141"/>
      </g>
     </g>
    </g>
    <g id="xtick_4">
     <g id="line2d_4">
      <g>
       <use xlink:href="#m0037844960" x="237.276868" y="307.584" style="stroke: #000000; stroke-width: 0.8"/>
      </g>
     </g>
     <g id="text_4">
      <!-- 3000 -->
      <g transform="translate(224.551868 322.182437) scale(0.1 -0.1)">
       <defs>
        <path id="DejaVuSans-33" d="M 2597 2516 
Q 3050 2419 3304 2112 
Q 3559 1806 3559 1356 
Q 3559 666 3084 287 
Q 2609 -91 1734 -91 
Q 1441 -91 1130 -33 
Q 819 25 488 141 
L 488 750 
Q 750 597 1062 519 
Q 1375 441 1716 441 
Q 2309 441 2620 675 
Q 2931 909 2931 1356 
Q 2931 1769 2642 2001 
Q 2353 2234 1838 2234 
L 1294 2234 
L 1294 2753 
L 1863 2753 
Q 2328 2753 2575 2939 
Q 2822 3125 2822 3475 
Q 2822 3834 2567 4026 
Q 2313 4219 1838 4219 
Q 1578 4219 1281 4162 
Q 984 4106 628 3988 
L 628 4550 
Q 988 4650 1302 4700 
Q 1616 4750 1894 4750 
Q 2613 4750 3031 4423 
Q 3450 4097 3450 3541 
Q 3450 3153 3228 2886 
Q 3006 2619 2597 2516 
z
" transform="scale(0.015625)"/>
       </defs>
       <use xlink:href="#DejaVuSans-33"/>
       <use xlink:href="#DejaVuSans-30" x="63.623047"/>
       <use xlink:href="#DejaVuSans-30" x="127.246094"/>
       <use xlink:href="#DejaVuSans-30" x="190.869141"/>
      </g>
     </g>
    </g>
    <g id="xtick_5">
     <g id="line2d_5">
      <g>
       <use xlink:href="#m0037844960" x="291.758249" y="307.584" style="stroke: #000000; stroke-width: 0.8"/>
      </g>
     </g>
     <g id="text_5">
      <!-- 4000 -->
      <g transform="translate(279.033249 322.182437) scale(0.1 -0.1)">
       <defs>
        <path id="DejaVuSans-34" d="M 2419 4116 
L 825 1625 
L 2419 1625 
L 2419 4116 
z
M 2253 4666 
L 3047 4666 
L 3047 1625 
L 3713 1625 
L 3713 1100 
L 3047 1100 
L 3047 0 
L 2419 0 
L 2419 1100 
L 313 1100 
L 313 1709 
L 2253 4666 
z
" transform="scale(0.015625)"/>
       </defs>
       <use xlink:href="#DejaVuSans-34"/>
       <use xlink:href="#DejaVuSans-30" x="63.623047"/>
       <use xlink:href="#DejaVuSans-30" x="127.246094"/>
       <use xlink:href="#DejaVuSans-30" x="190.869141"/>
      </g>
     </g>
    </g>
    <g id="xtick_6">
     <g id="line2d_6">
      <g>
       <use xlink:href="#m0037844960" x="346.239629" y="307.584" style="stroke: #000000; stroke-width: 0.8"/>
      </g>
     </g>
     <g id="text_6">
      <!-- 5000 -->
      <g transform="translate(333.514629 322.182437) scale(0.1 -0.1)">
       <defs>
        <path id="DejaVuSans-35" d="M 691 4666 
L 3169 4666 
L 3169 4134 
L 1269 4134 
L 1269 2991 
Q 1406 3038 1543 3061 
Q 1681 3084 1819 3084 
Q 2600 3084 3056 2656 
Q 3513 2228 3513 1497 
Q 3513 744 3044 326 
Q 2575 -91 1722 -91 
Q 1428 -91 1123 -41 
Q 819 9 494 109 
L 494 744 
Q 775 591 1075 516 
Q 1375 441 1709 441 
Q 2250 441 2565 725 
Q 2881 1009 2881 1497 
Q 2881 1984 2565 2268 
Q 2250 2553 1709 2553 
Q 1456 2553 1204 2497 
Q 953 2441 691 2322 
L 691 4666 
z
" transform="scale(0.015625)"/>
       </defs>
       <use xlink:href="#DejaVuSans-35"/>
       <use xlink:href="#DejaVuSans-30" x="63.623047"/>
       <use xlink:href="#DejaVuSans-30" x="127.246094"/>
       <use xlink:href="#DejaVuSans-30" x="190.869141"/>
      </g>
     </g>
    </g>
    <g id="xtick_7">
     <g id="line2d_7">
      <g>
       <use xlink:href="#m0037844960" x="400.721009" y="307.584" style="stroke: #000000; stroke-width: 0.8"/>
      </g>
     </g>
     <g id="text_7">
      <!-- 6000 -->
      <g transform="translate(387.996009 322.182437) scale(0.1 -0.1)">
       <defs>
        <path id="DejaVuSans-36" d="M 2113 2584 
Q 1688 2584 1439 2293 
Q 1191 2003 1191 1497 
Q 1191 994 1439 701 
Q 1688 409 2113 409 
Q 2538 409 2786 701 
Q 3034 994 3034 1497 
Q 3034 2003 2786 2293 
Q 2538 2584 2113 2584 
z
M 3366 4563 
L 3366 3988 
Q 3128 4100 2886 4159 
Q 2644 4219 2406 4219 
Q 1781 4219 1451 3797 
Q 1122 3375 1075 2522 
Q 1259 2794 1537 2939 
Q 1816 3084 2150 3084 
Q 2853 3084 3261 2657 
Q 3669 2231 3669 1497 
Q 3669 778 3244 343 
Q 2819 -91 2113 -91 
Q 1303 -91 875 529 
Q 447 1150 447 2328 
Q 447 3434 972 4092 
Q 1497 4750 2381 4750 
Q 2619 4750 2861 4703 
Q 3103 4656 3366 4563 
z
" transform="scale(0.015625)"/>
       </defs>
       <use xlink:href="#DejaVuSans-36"/>
       <use xlink:href="#DejaVuSans-30" x="63.623047"/>
       <use xlink:href="#DejaVuSans-30" x="127.246094"/>
       <use xlink:href="#DejaVuSans-30" x="190.869141"/>
      </g>
     </g>
    </g>
   </g>
   <g id="matplotlib.axis_2">
    <g id="ytick_1">
     <g id="line2d_8">
      <defs>
       <path id="m75f9a7aa78" d="M 0 0 
L -3.5 0 
" style="stroke: #000000; stroke-width: 0.8"/>
      </defs>
      <g>
       <use xlink:href="#m75f9a7aa78" x="57.6" y="307.584" style="stroke: #000000; stroke-width: 0.8"/>
      </g>
     </g>
     <g id="text_8">
      <!-- 0.00000 -->
      <g transform="translate(9.246875 311.383219) scale(0.1 -0.1)">
       <defs>
        <path id="DejaVuSans-2e" d="M 684 794 
L 1344 794 
L 1344 0 
L 684 0 
L 684 794 
z
" transform="scale(0.015625)"/>
       </defs>
       <use xlink:href="#DejaVuSans-30"/>
       <use xlink:href="#DejaVuSans-2e" x="63.623047"/>
       <use xlink:href="#DejaVuSans-30" x="95.410156"/>
       <use xlink:href="#DejaVuSans-30" x="159.033203"/>
       <use xlink:href="#DejaVuSans-30" x="222.65625"/>
       <use xlink:href="#DejaVuSans-30" x="286.279297"/>
       <use xlink:href="#DejaVuSans-30" x="349.902344"/>
      </g>
     </g>
    </g>
    <g id="ytick_2">
     <g id="line2d_9">
      <g>
       <use xlink:href="#m75f9a7aa78" x="57.6" y="277.496768" style="stroke: #000000; stroke-width: 0.8"/>
      </g>
     </g>
     <g id="text_9">
      <!-- 0.00005 -->
      <g transform="translate(9.246875 281.295987) scale(0.1 -0.1)">
       <use xlink:href="#DejaVuSans-30"/>
       <use xlink:href="#DejaVuSans-2e" x="63.623047"/>
       <use xlink:href="#DejaVuSans-30" x="95.410156"/>
       <use xlink:href="#DejaVuSans-30" x="159.033203"/>
       <use xlink:href="#DejaVuSans-30" x="222.65625"/>
       <use xlink:href="#DejaVuSans-30" x="286.279297"/>
       <use xlink:href="#DejaVuSans-35" x="349.902344"/>
      </g>
     </g>
    </g>
    <g id="ytick_3">
     <g id="line2d_10">
      <g>
       <use xlink:href="#m75f9a7aa78" x="57.6" y="247.409536" style="stroke: #000000; stroke-width: 0.8"/>
      </g>
     </g>
     <g id="text_10">
      <!-- 0.00010 -->
      <g transform="translate(9.246875 251.208755) scale(0.1 -0.1)">
       <use xlink:href="#DejaVuSans-30"/>
       <use xlink:href="#DejaVuSans-2e" x="63.623047"/>
       <use xlink:href="#DejaVuSans-30" x="95.410156"/>
       <use xlink:href="#DejaVuSans-30" x="159.033203"/>
       <use xlink:href="#DejaVuSans-30" x="222.65625"/>
       <use xlink:href="#DejaVuSans-31" x="286.279297"/>
       <use xlink:href="#DejaVuSans-30" x="349.902344"/>
      </g>
     </g>
    </g>
    <g id="ytick_4">
     <g id="line2d_11">
      <g>
       <use xlink:href="#m75f9a7aa78" x="57.6" y="217.322304" style="stroke: #000000; stroke-width: 0.8"/>
      </g>
     </g>
     <g id="text_11">
      <!-- 0.00015 -->
      <g transform="translate(9.246875 221.121523) scale(0.1 -0.1)">
       <use xlink:href="#DejaVuSans-30"/>
       <use xlink:href="#DejaVuSans-2e" x="63.623047"/>
       <use xlink:href="#DejaVuSans-30" x="95.410156"/>
       <use xlink:href="#DejaVuSans-30" x="159.033203"/>
       <use xlink:href="#DejaVuSans-30" x="222.65625"/>
       <use xlink:href="#DejaVuSans-31" x="286.279297"/>
       <use xlink:href="#DejaVuSans-35" x="349.902344"/>
      </g>
     </g>
    </g>
    <g id="ytick_5">
     <g id="line2d_12">
      <g>
       <use xlink:href="#m75f9a7aa78" x="57.6" y="187.235072" style="stroke: #000000; stroke-width: 0.8"/>
      </g>
     </g>
     <g id="text_12">
      <!-- 0.00020 -->
      <g transform="translate(9.246875 191.034291) scale(0.1 -0.1)">
       <use xlink:href="#DejaVuSans-30"/>
       <use xlink:href="#DejaVuSans-2e" x="63.623047"/>
       <use xlink:href="#DejaVuSans-30" x="95.410156"/>
       <use xlink:href="#DejaVuSans-30" x="159.033203"/>
       <use xlink:href="#DejaVuSans-30" x="222.65625"/>
       <use xlink:href="#DejaVuSans-32" x="286.279297"/>
       <use xlink:href="#DejaVuSans-30" x="349.902344"/>
      </g>
     </g>
    </g>
    <g id="ytick_6">
     <g id="line2d_13">
      <g>
       <use xlink:href="#m75f9a7aa78" x="57.6" y="157.14784" style="stroke: #000000; stroke-width: 0.8"/>
      </g>
     </g>
     <g id="text_13">
      <!-- 0.00025 -->
      <g transform="translate(9.246875 160.947059) scale(0.1 -0.1)">
       <use xlink:href="#DejaVuSans-30"/>
       <use xlink:href="#DejaVuSans-2e" x="63.623047"/>
       <use xlink:href="#DejaVuSans-30" x="95.410156"/>
       <use xlink:href="#DejaVuSans-30" x="159.033203"/>
       <use xlink:href="#DejaVuSans-30" x="222.65625"/>
       <use xlink:href="#DejaVuSans-32" x="286.279297"/>
       <use xlink:href="#DejaVuSans-35" x="349.902344"/>
      </g>
     </g>
    </g>
    <g id="ytick_7">
     <g id="line2d_14">
      <g>
       <use xlink:href="#m75f9a7aa78" x="57.6" y="127.060608" style="stroke: #000000; stroke-width: 0.8"/>
      </g>
     </g>
     <g id="text_14">
      <!-- 0.00030 -->
      <g transform="translate(9.246875 130.859827) scale(0.1 -0.1)">
       <use xlink:href="#DejaVuSans-30"/>
       <use xlink:href="#DejaVuSans-2e" x="63.623047"/>
       <use xlink:href="#DejaVuSans-30" x="95.410156"/>
       <use xlink:href="#DejaVuSans-30" x="159.033203"/>
       <use xlink:href="#DejaVuSans-30" x="222.65625"/>
       <use xlink:href="#DejaVuSans-33" x="286.279297"/>
       <use xlink:href="#DejaVuSans-30" x="349.902344"/>
      </g>
     </g>
    </g>
    <g id="ytick_8">
     <g id="line2d_15">
      <g>
       <use xlink:href="#m75f9a7aa78" x="57.6" y="96.973376" style="stroke: #000000; stroke-width: 0.8"/>
      </g>
     </g>
     <g id="text_15">
      <!-- 0.00035 -->
      <g transform="translate(9.246875 100.772595) scale(0.1 -0.1)">
       <use xlink:href="#DejaVuSans-30"/>
       <use xlink:href="#DejaVuSans-2e" x="63.623047"/>
       <use xlink:href="#DejaVuSans-30" x="95.410156"/>
       <use xlink:href="#DejaVuSans-30" x="159.033203"/>
       <use xlink:href="#DejaVuSans-30" x="222.65625"/>
       <use xlink:href="#DejaVuSans-33" x="286.279297"/>
       <use xlink:href="#DejaVuSans-35" x="349.902344"/>
      </g>
     </g>
    </g>
    <g id="ytick_9">
     <g id="line2d_16">
      <g>
       <use xlink:href="#m75f9a7aa78" x="57.6" y="66.886144" style="stroke: #000000; stroke-width: 0.8"/>
      </g>
     </g>
     <g id="text_16">
      <!-- 0.00040 -->
      <g transform="translate(9.246875 70.685363) scale(0.1 -0.1)">
       <use xlink:href="#DejaVuSans-30"/>
       <use xlink:href="#DejaVuSans-2e" x="63.623047"/>
       <use xlink:href="#DejaVuSans-30" x="95.410156"/>
       <use xlink:href="#DejaVuSans-30" x="159.033203"/>
       <use xlink:href="#DejaVuSans-30" x="222.65625"/>
       <use xlink:href="#DejaVuSans-34" x="286.279297"/>
       <use xlink:href="#DejaVuSans-30" x="349.902344"/>
      </g>
     </g>
    </g>
   </g>
   <g id="line2d_17">
    <path d="M 73.832727 307.584 
L 74.050653 307.583675 
L 74.105134 297.578647 
L 74.159616 307.198355 
L 74.32306 307.400029 
L 75.576131 307.302288 
L 76.338871 307.027049 
L 76.992647 306.553926 
L 77.700905 305.739199 
L 78.409163 304.576964 
L 79.226384 302.782564 
L 80.152567 300.157175 
L 81.187714 296.500938 
L 82.386304 291.379742 
L 83.748338 284.529211 
L 85.38278 275.090069 
L 87.398591 262.032264 
L 90.068179 243.150038 
L 101.236862 162.427053 
L 104.069893 144.449307 
L 106.630518 129.591204 
L 109.027699 116.95681 
L 111.315917 106.075404 
L 113.495172 96.783801 
L 115.565465 88.911915 
L 117.526794 82.292569 
L 119.433643 76.615205 
L 121.28601 71.790353 
L 123.029414 67.846477 
L 124.718337 64.55508 
L 126.352778 61.844308 
L 127.932738 59.647649 
L 129.458217 57.903923 
L 130.929214 56.557152 
L 132.34573 55.556329 
L 133.707764 54.855146 
L 135.069799 54.397934 
L 136.431833 54.172994 
L 137.793868 54.168852 
L 139.210384 54.38671 
L 140.681381 54.839681 
L 142.261341 55.568426 
L 143.895782 56.569591 
L 145.693668 57.941105 
L 147.600516 59.681441 
L 149.670809 61.875496 
L 151.959027 64.633972 
L 154.46517 68.012966 
L 157.243721 72.141332 
L 160.349159 77.160791 
L 163.94493 83.412594 
L 168.139997 91.171095 
L 173.370209 101.33876 
L 180.997602 116.706444 
L 195.653094 146.277873 
L 202.463266 159.466638 
L 208.456218 170.600174 
L 214.0678 180.561048 
L 219.406976 189.587726 
L 224.528225 197.81537 
L 229.540512 205.451813 
L 234.443837 212.52255 
L 239.292679 219.129147 
L 244.087041 225.290928 
L 248.881402 231.093093 
L 253.675764 236.546436 
L 258.470125 241.663207 
L 263.264487 246.456705 
L 268.11333 250.990174 
L 272.962172 255.222247 
L 277.865497 259.210831 
L 282.877784 263.001807 
L 287.944552 266.556627 
L 293.120283 269.917345 
L 298.404977 273.084611 
L 303.853115 276.089109 
L 309.410216 278.900241 
L 315.185242 281.570571 
L 321.123713 284.070519 
L 327.280109 286.420651 
L 333.708912 288.635145 
L 340.410121 290.706867 
L 347.438219 292.64549 
L 354.847687 294.456606 
L 362.693006 296.142668 
L 371.028657 297.703913 
L 379.909122 299.13927 
L 389.497845 300.461036 
L 398.487273 301.515434 
L 398.487273 301.515434 
" clip-path="url(#pf56841bf77)" style="fill: none; stroke: #ff7f0e; stroke-width: 1.5; stroke-linecap: square"/>
   </g>
   <g id="patch_58">
    <path d="M 57.6 307.584 
L 57.6 41.472 
" style="fill: none; stroke: #000000; stroke-width: 0.8; stroke-linejoin: miter; stroke-linecap: square"/>
   </g>
   <g id="patch_59">
    <path d="M 414.72 307.584 
L 414.72 41.472 
" style="fill: none; stroke: #000000; stroke-width: 0.8; stroke-linejoin: miter; stroke-linecap: square"/>
   </g>
   <g id="patch_60">
    <path d="M 57.6 307.584 
L 414.72 307.584 
" style="fill: none; stroke: #000000; stroke-width: 0.8; stroke-linejoin: miter; stroke-linecap: square"/>
   </g>
   <g id="patch_61">
    <path d="M 57.6 41.472 
L 414.72 41.472 
" style="fill: none; stroke: #000000; stroke-width: 0.8; stroke-linejoin: miter; stroke-linecap: square"/>
   </g>
   <g id="legend_1">
    <g id="patch_62">
     <path d="M 145.554375 64.150125 
L 407.72 64.150125 
Q 409.72 64.150125 409.72 62.150125 
L 409.72 48.472 
Q 409.72 46.472 407.72 46.472 
L 145.554375 46.472 
Q 143.554375 46.472 143.554375 48.472 
L 143.554375 62.150125 
Q 143.554375 64.150125 145.554375 64.150125 
z
" style="fill: #ffffff; opacity: 0.8; stroke: #cccccc; stroke-linejoin: miter"/>
    </g>
    <g id="line2d_18">
     <path d="M 147.554375 54.570438 
L 157.554375 54.570438 
L 167.554375 54.570438 
" style="fill: none; stroke: #ff7f0e; stroke-width: 1.5; stroke-linecap: square"/>
    </g>
    <g id="text_17">
     <!-- states 20 cross entropy: 8.34 sh entropy: 8.15 -->
     <g transform="translate(175.554375 58.070438) scale(0.1 -0.1)">
      <defs>
       <path id="DejaVuSans-73" d="M 2834 3397 
L 2834 2853 
Q 2591 2978 2328 3040 
Q 2066 3103 1784 3103 
Q 1356 3103 1142 2972 
Q 928 2841 928 2578 
Q 928 2378 1081 2264 
Q 1234 2150 1697 2047 
L 1894 2003 
Q 2506 1872 2764 1633 
Q 3022 1394 3022 966 
Q 3022 478 2636 193 
Q 2250 -91 1575 -91 
Q 1294 -91 989 -36 
Q 684 19 347 128 
L 347 722 
Q 666 556 975 473 
Q 1284 391 1588 391 
Q 1994 391 2212 530 
Q 2431 669 2431 922 
Q 2431 1156 2273 1281 
Q 2116 1406 1581 1522 
L 1381 1569 
Q 847 1681 609 1914 
Q 372 2147 372 2553 
Q 372 3047 722 3315 
Q 1072 3584 1716 3584 
Q 2034 3584 2315 3537 
Q 2597 3491 2834 3397 
z
" transform="scale(0.015625)"/>
       <path id="DejaVuSans-74" d="M 1172 4494 
L 1172 3500 
L 2356 3500 
L 2356 3053 
L 1172 3053 
L 1172 1153 
Q 1172 725 1289 603 
Q 1406 481 1766 481 
L 2356 481 
L 2356 0 
L 1766 0 
Q 1100 0 847 248 
Q 594 497 594 1153 
L 594 3053 
L 172 3053 
L 172 3500 
L 594 3500 
L 594 4494 
L 1172 4494 
z
" transform="scale(0.015625)"/>
       <path id="DejaVuSans-61" d="M 2194 1759 
Q 1497 1759 1228 1600 
Q 959 1441 959 1056 
Q 959 750 1161 570 
Q 1363 391 1709 391 
Q 2188 391 2477 730 
Q 2766 1069 2766 1631 
L 2766 1759 
L 2194 1759 
z
M 3341 1997 
L 3341 0 
L 2766 0 
L 2766 531 
Q 2569 213 2275 61 
Q 1981 -91 1556 -91 
Q 1019 -91 701 211 
Q 384 513 384 1019 
Q 384 1609 779 1909 
Q 1175 2209 1959 2209 
L 2766 2209 
L 2766 2266 
Q 2766 2663 2505 2880 
Q 2244 3097 1772 3097 
Q 1472 3097 1187 3025 
Q 903 2953 641 2809 
L 641 3341 
Q 956 3463 1253 3523 
Q 1550 3584 1831 3584 
Q 2591 3584 2966 3190 
Q 3341 2797 3341 1997 
z
" transform="scale(0.015625)"/>
       <path id="DejaVuSans-65" d="M 3597 1894 
L 3597 1613 
L 953 1613 
Q 991 1019 1311 708 
Q 1631 397 2203 397 
Q 2534 397 2845 478 
Q 3156 559 3463 722 
L 3463 178 
Q 3153 47 2828 -22 
Q 2503 -91 2169 -91 
Q 1331 -91 842 396 
Q 353 884 353 1716 
Q 353 2575 817 3079 
Q 1281 3584 2069 3584 
Q 2775 3584 3186 3129 
Q 3597 2675 3597 1894 
z
M 3022 2063 
Q 3016 2534 2758 2815 
Q 2500 3097 2075 3097 
Q 1594 3097 1305 2825 
Q 1016 2553 972 2059 
L 3022 2063 
z
" transform="scale(0.015625)"/>
       <path id="DejaVuSans-20" transform="scale(0.015625)"/>
       <path id="DejaVuSans-63" d="M 3122 3366 
L 3122 2828 
Q 2878 2963 2633 3030 
Q 2388 3097 2138 3097 
Q 1578 3097 1268 2742 
Q 959 2388 959 1747 
Q 959 1106 1268 751 
Q 1578 397 2138 397 
Q 2388 397 2633 464 
Q 2878 531 3122 666 
L 3122 134 
Q 2881 22 2623 -34 
Q 2366 -91 2075 -91 
Q 1284 -91 818 406 
Q 353 903 353 1747 
Q 353 2603 823 3093 
Q 1294 3584 2113 3584 
Q 2378 3584 2631 3529 
Q 2884 3475 3122 3366 
z
" transform="scale(0.015625)"/>
       <path id="DejaVuSans-72" d="M 2631 2963 
Q 2534 3019 2420 3045 
Q 2306 3072 2169 3072 
Q 1681 3072 1420 2755 
Q 1159 2438 1159 1844 
L 1159 0 
L 581 0 
L 581 3500 
L 1159 3500 
L 1159 2956 
Q 1341 3275 1631 3429 
Q 1922 3584 2338 3584 
Q 2397 3584 2469 3576 
Q 2541 3569 2628 3553 
L 2631 2963 
z
" transform="scale(0.015625)"/>
       <path id="DejaVuSans-6f" d="M 1959 3097 
Q 1497 3097 1228 2736 
Q 959 2375 959 1747 
Q 959 1119 1226 758 
Q 1494 397 1959 397 
Q 2419 397 2687 759 
Q 2956 1122 2956 1747 
Q 2956 2369 2687 2733 
Q 2419 3097 1959 3097 
z
M 1959 3584 
Q 2709 3584 3137 3096 
Q 3566 2609 3566 1747 
Q 3566 888 3137 398 
Q 2709 -91 1959 -91 
Q 1206 -91 779 398 
Q 353 888 353 1747 
Q 353 2609 779 3096 
Q 1206 3584 1959 3584 
z
" transform="scale(0.015625)"/>
       <path id="DejaVuSans-6e" d="M 3513 2113 
L 3513 0 
L 2938 0 
L 2938 2094 
Q 2938 2591 2744 2837 
Q 2550 3084 2163 3084 
Q 1697 3084 1428 2787 
Q 1159 2491 1159 1978 
L 1159 0 
L 581 0 
L 581 3500 
L 1159 3500 
L 1159 2956 
Q 1366 3272 1645 3428 
Q 1925 3584 2291 3584 
Q 2894 3584 3203 3211 
Q 3513 2838 3513 2113 
z
" transform="scale(0.015625)"/>
       <path id="DejaVuSans-70" d="M 1159 525 
L 1159 -1331 
L 581 -1331 
L 581 3500 
L 1159 3500 
L 1159 2969 
Q 1341 3281 1617 3432 
Q 1894 3584 2278 3584 
Q 2916 3584 3314 3078 
Q 3713 2572 3713 1747 
Q 3713 922 3314 415 
Q 2916 -91 2278 -91 
Q 1894 -91 1617 61 
Q 1341 213 1159 525 
z
M 3116 1747 
Q 3116 2381 2855 2742 
Q 2594 3103 2138 3103 
Q 1681 3103 1420 2742 
Q 1159 2381 1159 1747 
Q 1159 1113 1420 752 
Q 1681 391 2138 391 
Q 2594 391 2855 752 
Q 3116 1113 3116 1747 
z
" transform="scale(0.015625)"/>
       <path id="DejaVuSans-79" d="M 2059 -325 
Q 1816 -950 1584 -1140 
Q 1353 -1331 966 -1331 
L 506 -1331 
L 506 -850 
L 844 -850 
Q 1081 -850 1212 -737 
Q 1344 -625 1503 -206 
L 1606 56 
L 191 3500 
L 800 3500 
L 1894 763 
L 2988 3500 
L 3597 3500 
L 2059 -325 
z
" transform="scale(0.015625)"/>
       <path id="DejaVuSans-3a" d="M 750 794 
L 1409 794 
L 1409 0 
L 750 0 
L 750 794 
z
M 750 3309 
L 1409 3309 
L 1409 2516 
L 750 2516 
L 750 3309 
z
" transform="scale(0.015625)"/>
       <path id="DejaVuSans-38" d="M 2034 2216 
Q 1584 2216 1326 1975 
Q 1069 1734 1069 1313 
Q 1069 891 1326 650 
Q 1584 409 2034 409 
Q 2484 409 2743 651 
Q 3003 894 3003 1313 
Q 3003 1734 2745 1975 
Q 2488 2216 2034 2216 
z
M 1403 2484 
Q 997 2584 770 2862 
Q 544 3141 544 3541 
Q 544 4100 942 4425 
Q 1341 4750 2034 4750 
Q 2731 4750 3128 4425 
Q 3525 4100 3525 3541 
Q 3525 3141 3298 2862 
Q 3072 2584 2669 2484 
Q 3125 2378 3379 2068 
Q 3634 1759 3634 1313 
Q 3634 634 3220 271 
Q 2806 -91 2034 -91 
Q 1263 -91 848 271 
Q 434 634 434 1313 
Q 434 1759 690 2068 
Q 947 2378 1403 2484 
z
M 1172 3481 
Q 1172 3119 1398 2916 
Q 1625 2713 2034 2713 
Q 2441 2713 2670 2916 
Q 2900 3119 2900 3481 
Q 2900 3844 2670 4047 
Q 2441 4250 2034 4250 
Q 1625 4250 1398 4047 
Q 1172 3844 1172 3481 
z
" transform="scale(0.015625)"/>
       <path id="DejaVuSans-68" d="M 3513 2113 
L 3513 0 
L 2938 0 
L 2938 2094 
Q 2938 2591 2744 2837 
Q 2550 3084 2163 3084 
Q 1697 3084 1428 2787 
Q 1159 2491 1159 1978 
L 1159 0 
L 581 0 
L 581 4863 
L 1159 4863 
L 1159 2956 
Q 1366 3272 1645 3428 
Q 1925 3584 2291 3584 
Q 2894 3584 3203 3211 
Q 3513 2838 3513 2113 
z
" transform="scale(0.015625)"/>
      </defs>
      <use xlink:href="#DejaVuSans-73"/>
      <use xlink:href="#DejaVuSans-74" x="52.099609"/>
      <use xlink:href="#DejaVuSans-61" x="91.308594"/>
      <use xlink:href="#DejaVuSans-74" x="152.587891"/>
      <use xlink:href="#DejaVuSans-65" x="191.796875"/>
      <use xlink:href="#DejaVuSans-73" x="253.320312"/>
      <use xlink:href="#DejaVuSans-20" x="305.419922"/>
      <use xlink:href="#DejaVuSans-32" x="337.207031"/>
      <use xlink:href="#DejaVuSans-30" x="400.830078"/>
      <use xlink:href="#DejaVuSans-20" x="464.453125"/>
      <use xlink:href="#DejaVuSans-63" x="496.240234"/>
      <use xlink:href="#DejaVuSans-72" x="551.220703"/>
      <use xlink:href="#DejaVuSans-6f" x="590.083984"/>
      <use xlink:href="#DejaVuSans-73" x="651.265625"/>
      <use xlink:href="#DejaVuSans-73" x="703.365234"/>
      <use xlink:href="#DejaVuSans-20" x="755.464844"/>
      <use xlink:href="#DejaVuSans-65" x="787.251953"/>
      <use xlink:href="#DejaVuSans-6e" x="848.775391"/>
      <use xlink:href="#DejaVuSans-74" x="912.154297"/>
      <use xlink:href="#DejaVuSans-72" x="951.363281"/>
      <use xlink:href="#DejaVuSans-6f" x="990.226562"/>
      <use xlink:href="#DejaVuSans-70" x="1051.408203"/>
      <use xlink:href="#DejaVuSans-79" x="1114.884766"/>
      <use xlink:href="#DejaVuSans-3a" x="1166.814453"/>
      <use xlink:href="#DejaVuSans-20" x="1200.505859"/>
      <use xlink:href="#DejaVuSans-38" x="1232.292969"/>
      <use xlink:href="#DejaVuSans-2e" x="1295.916016"/>
      <use xlink:href="#DejaVuSans-33" x="1327.703125"/>
      <use xlink:href="#DejaVuSans-34" x="1391.326172"/>
      <use xlink:href="#DejaVuSans-20" x="1454.949219"/>
      <use xlink:href="#DejaVuSans-73" x="1486.736328"/>
      <use xlink:href="#DejaVuSans-68" x="1538.835938"/>
      <use xlink:href="#DejaVuSans-20" x="1602.214844"/>
      <use xlink:href="#DejaVuSans-65" x="1634.001953"/>
      <use xlink:href="#DejaVuSans-6e" x="1695.525391"/>
      <use xlink:href="#DejaVuSans-74" x="1758.904297"/>
      <use xlink:href="#DejaVuSans-72" x="1798.113281"/>
      <use xlink:href="#DejaVuSans-6f" x="1836.976562"/>
      <use xlink:href="#DejaVuSans-70" x="1898.158203"/>
      <use xlink:href="#DejaVuSans-79" x="1961.634766"/>
      <use xlink:href="#DejaVuSans-3a" x="2013.564453"/>
      <use xlink:href="#DejaVuSans-20" x="2047.255859"/>
      <use xlink:href="#DejaVuSans-38" x="2079.042969"/>
      <use xlink:href="#DejaVuSans-2e" x="2142.666016"/>
      <use xlink:href="#DejaVuSans-31" x="2174.453125"/>
      <use xlink:href="#DejaVuSans-35" x="2238.076172"/>
     </g>
    </g>
   </g>
  </g>
 </g>
 <defs>
  <clipPath id="pf56841bf77">
   <rect x="57.6" y="41.472" width="357.12" height="266.112"/>
  </clipPath>
 </defs>
</svg>
