<?xml version="1.0" encoding="utf-8" standalone="no"?>
<!DOCTYPE svg PUBLIC "-//W3C//DTD SVG 1.1//EN"
  "http://www.w3.org/Graphics/SVG/1.1/DTD/svg11.dtd">
<svg xmlns:xlink="http://www.w3.org/1999/xlink" width="460.8pt" height="345.6pt" viewBox="0 0 460.8 345.6" xmlns="http://www.w3.org/2000/svg" version="1.1">
 <metadata>
  <rdf:RDF xmlns:dc="http://purl.org/dc/elements/1.1/" xmlns:cc="http://creativecommons.org/ns#" xmlns:rdf="http://www.w3.org/1999/02/22-rdf-syntax-ns#">
   <cc:Work>
    <dc:type rdf:resource="http://purl.org/dc/dcmitype/StillImage"/>
    <dc:date>2024-04-30T21:57:22.116087</dc:date>
    <dc:format>image/svg+xml</dc:format>
    <dc:creator>
     <cc:Agent>
      <dc:title>Matplotlib v3.8.4, https://matplotlib.org/</dc:title>
     </cc:Agent>
    </dc:creator>
   </cc:Work>
  </rdf:RDF>
 </metadata>
 <defs>
  <style type="text/css">*{stroke-linejoin: round; stroke-linecap: butt}</style>
 </defs>
 <g id="figure_1">
  <g id="patch_1">
   <path d="M 0 345.6 
L 460.8 345.6 
L 460.8 0 
L 0 0 
z
" style="fill: #ffffff"/>
  </g>
  <g id="axes_1">
   <g id="patch_2">
    <path d="M 57.6 307.584 
L 414.72 307.584 
L 414.72 41.472 
L 57.6 41.472 
z
" style="fill: #ffffff"/>
   </g>
   <g id="patch_3">
    <path d="M 80.588418 307.584 
L 86.368398 307.584 
L 86.368398 290.934567 
L 80.588418 290.934567 
z
" clip-path="url(#pfb09bd0cda)" style="fill: #1f77b4"/>
   </g>
   <g id="patch_4">
    <path d="M 86.368398 307.584 
L 92.148377 307.584 
L 92.148377 258.804083 
L 86.368398 258.804083 
z
" clip-path="url(#pfb09bd0cda)" style="fill: #1f77b4"/>
   </g>
   <g id="patch_5">
    <path d="M 92.148377 307.584 
L 97.928356 307.584 
L 97.928356 167.086156 
L 92.148377 167.086156 
z
" clip-path="url(#pfb09bd0cda)" style="fill: #1f77b4"/>
   </g>
   <g id="patch_6">
    <path d="M 97.928356 307.584 
L 103.708335 307.584 
L 103.708335 136.416149 
L 97.928356 136.416149 
z
" clip-path="url(#pfb09bd0cda)" style="fill: #1f77b4"/>
   </g>
   <g id="patch_7">
    <path d="M 103.708335 307.584 
L 109.488314 307.584 
L 109.488314 122.395574 
L 103.708335 122.395574 
z
" clip-path="url(#pfb09bd0cda)" style="fill: #1f77b4"/>
   </g>
   <g id="patch_8">
    <path d="M 109.488314 307.584 
L 115.268293 307.584 
L 115.268293 79.749659 
L 109.488314 79.749659 
z
" clip-path="url(#pfb09bd0cda)" style="fill: #1f77b4"/>
   </g>
   <g id="patch_9">
    <path d="M 115.268293 307.584 
L 121.048273 307.584 
L 121.048273 101.656807 
L 115.268293 101.656807 
z
" clip-path="url(#pfb09bd0cda)" style="fill: #1f77b4"/>
   </g>
   <g id="patch_10">
    <path d="M 121.048273 307.584 
L 126.828252 307.584 
L 126.828252 90.26509 
L 121.048273 90.26509 
z
" clip-path="url(#pfb09bd0cda)" style="fill: #1f77b4"/>
   </g>
   <g id="patch_11">
    <path d="M 126.828252 307.584 
L 132.608231 307.584 
L 132.608231 85.88366 
L 126.828252 85.88366 
z
" clip-path="url(#pfb09bd0cda)" style="fill: #1f77b4"/>
   </g>
   <g id="patch_12">
    <path d="M 132.608231 307.584 
L 138.38821 307.584 
L 138.38821 99.320044 
L 132.608231 99.320044 
z
" clip-path="url(#pfb09bd0cda)" style="fill: #1f77b4"/>
   </g>
   <g id="patch_13">
    <path d="M 138.38821 307.584 
L 144.168189 307.584 
L 144.168189 85.007374 
L 138.38821 85.007374 
z
" clip-path="url(#pfb09bd0cda)" style="fill: #1f77b4"/>
   </g>
   <g id="patch_14">
    <path d="M 144.168189 307.584 
L 149.948168 307.584 
L 149.948168 79.457563 
L 144.168189 79.457563 
z
" clip-path="url(#pfb09bd0cda)" style="fill: #1f77b4"/>
   </g>
   <g id="patch_15">
    <path d="M 149.948168 307.584 
L 155.728148 307.584 
L 155.728148 81.794326 
L 149.948168 81.794326 
z
" clip-path="url(#pfb09bd0cda)" style="fill: #1f77b4"/>
   </g>
   <g id="patch_16">
    <path d="M 155.728148 307.584 
L 161.508127 307.584 
L 161.508127 69.818418 
L 155.728148 69.818418 
z
" clip-path="url(#pfb09bd0cda)" style="fill: #1f77b4"/>
   </g>
   <g id="patch_17">
    <path d="M 161.508127 307.584 
L 167.288106 307.584 
L 167.288106 62.516035 
L 161.508127 62.516035 
z
" clip-path="url(#pfb09bd0cda)" style="fill: #1f77b4"/>
   </g>
   <g id="patch_18">
    <path d="M 167.288106 307.584 
L 173.068085 307.584 
L 173.068085 89.972994 
L 167.288106 89.972994 
z
" clip-path="url(#pfb09bd0cda)" style="fill: #1f77b4"/>
   </g>
   <g id="patch_19">
    <path d="M 173.068085 307.584 
L 178.848064 307.584 
L 178.848064 90.26509 
L 173.068085 90.26509 
z
" clip-path="url(#pfb09bd0cda)" style="fill: #1f77b4"/>
   </g>
   <g id="patch_20">
    <path d="M 178.848064 307.584 
L 184.628043 307.584 
L 184.628043 103.701474 
L 178.848064 103.701474 
z
" clip-path="url(#pfb09bd0cda)" style="fill: #1f77b4"/>
   </g>
   <g id="patch_21">
    <path d="M 184.628043 307.584 
L 190.408023 307.584 
L 190.408023 108.667094 
L 184.628043 108.667094 
z
" clip-path="url(#pfb09bd0cda)" style="fill: #1f77b4"/>
   </g>
   <g id="patch_22">
    <path d="M 190.408023 307.584 
L 196.188002 307.584 
L 196.188002 124.148146 
L 190.408023 124.148146 
z
" clip-path="url(#pfb09bd0cda)" style="fill: #1f77b4"/>
   </g>
   <g id="patch_23">
    <path d="M 196.188002 307.584 
L 201.967981 307.584 
L 201.967981 138.16872 
L 196.188002 138.16872 
z
" clip-path="url(#pfb09bd0cda)" style="fill: #1f77b4"/>
   </g>
   <g id="patch_24">
    <path d="M 201.967981 307.584 
L 207.74796 307.584 
L 207.74796 146.055294 
L 201.967981 146.055294 
z
" clip-path="url(#pfb09bd0cda)" style="fill: #1f77b4"/>
   </g>
   <g id="patch_25">
    <path d="M 207.74796 307.584 
L 213.527939 307.584 
L 213.527939 154.526058 
L 207.74796 154.526058 
z
" clip-path="url(#pfb09bd0cda)" style="fill: #1f77b4"/>
   </g>
   <g id="patch_26">
    <path d="M 213.527939 307.584 
L 219.307918 307.584 
L 219.307918 179.354159 
L 213.527939 179.354159 
z
" clip-path="url(#pfb09bd0cda)" style="fill: #1f77b4"/>
   </g>
   <g id="patch_27">
    <path d="M 219.307918 307.584 
L 225.087898 307.584 
L 225.087898 174.972729 
L 219.307918 174.972729 
z
" clip-path="url(#pfb09bd0cda)" style="fill: #1f77b4"/>
   </g>
   <g id="patch_28">
    <path d="M 225.087898 307.584 
L 230.867877 307.584 
L 230.867877 193.666829 
L 225.087898 193.666829 
z
" clip-path="url(#pfb09bd0cda)" style="fill: #1f77b4"/>
   </g>
   <g id="patch_29">
    <path d="M 230.867877 307.584 
L 236.647856 307.584 
L 236.647856 211.192548 
L 230.867877 211.192548 
z
" clip-path="url(#pfb09bd0cda)" style="fill: #1f77b4"/>
   </g>
   <g id="patch_30">
    <path d="M 236.647856 307.584 
L 242.427835 307.584 
L 242.427835 213.821406 
L 236.647856 213.821406 
z
" clip-path="url(#pfb09bd0cda)" style="fill: #1f77b4"/>
   </g>
   <g id="patch_31">
    <path d="M 242.427835 307.584 
L 248.207814 307.584 
L 248.207814 226.673599 
L 242.427835 226.673599 
z
" clip-path="url(#pfb09bd0cda)" style="fill: #1f77b4"/>
   </g>
   <g id="patch_32">
    <path d="M 248.207814 307.584 
L 253.987794 307.584 
L 253.987794 237.481126 
L 248.207814 237.481126 
z
" clip-path="url(#pfb09bd0cda)" style="fill: #1f77b4"/>
   </g>
   <g id="patch_33">
    <path d="M 253.987794 307.584 
L 259.767773 307.584 
L 259.767773 244.491413 
L 253.987794 244.491413 
z
" clip-path="url(#pfb09bd0cda)" style="fill: #1f77b4"/>
   </g>
   <g id="patch_34">
    <path d="M 259.767773 307.584 
L 265.547752 307.584 
L 265.547752 247.704462 
L 259.767773 247.704462 
z
" clip-path="url(#pfb09bd0cda)" style="fill: #1f77b4"/>
   </g>
   <g id="patch_35">
    <path d="M 265.547752 307.584 
L 271.327731 307.584 
L 271.327731 250.625415 
L 265.547752 250.625415 
z
" clip-path="url(#pfb09bd0cda)" style="fill: #1f77b4"/>
   </g>
   <g id="patch_36">
    <path d="M 271.327731 307.584 
L 277.10771 307.584 
L 277.10771 258.219893 
L 271.327731 258.219893 
z
" clip-path="url(#pfb09bd0cda)" style="fill: #1f77b4"/>
   </g>
   <g id="patch_37">
    <path d="M 277.10771 307.584 
L 282.887689 307.584 
L 282.887689 266.398561 
L 277.10771 266.398561 
z
" clip-path="url(#pfb09bd0cda)" style="fill: #1f77b4"/>
   </g>
   <g id="patch_38">
    <path d="M 282.887689 307.584 
L 288.667669 307.584 
L 288.667669 274.57723 
L 282.887689 274.57723 
z
" clip-path="url(#pfb09bd0cda)" style="fill: #1f77b4"/>
   </g>
   <g id="patch_39">
    <path d="M 288.667669 307.584 
L 294.447648 307.584 
L 294.447648 270.779991 
L 288.667669 270.779991 
z
" clip-path="url(#pfb09bd0cda)" style="fill: #1f77b4"/>
   </g>
   <g id="patch_40">
    <path d="M 294.447648 307.584 
L 300.227627 307.584 
L 300.227627 280.127041 
L 294.447648 280.127041 
z
" clip-path="url(#pfb09bd0cda)" style="fill: #1f77b4"/>
   </g>
   <g id="patch_41">
    <path d="M 300.227627 307.584 
L 306.007606 307.584 
L 306.007606 289.474091 
L 300.227627 289.474091 
z
" clip-path="url(#pfb09bd0cda)" style="fill: #1f77b4"/>
   </g>
   <g id="patch_42">
    <path d="M 306.007606 307.584 
L 311.787585 307.584 
L 311.787585 283.047994 
L 306.007606 283.047994 
z
" clip-path="url(#pfb09bd0cda)" style="fill: #1f77b4"/>
   </g>
   <g id="patch_43">
    <path d="M 311.787585 307.584 
L 317.567564 307.584 
L 317.567564 283.632185 
L 311.787585 283.632185 
z
" clip-path="url(#pfb09bd0cda)" style="fill: #1f77b4"/>
   </g>
   <g id="patch_44">
    <path d="M 317.567564 307.584 
L 323.347544 307.584 
L 323.347544 287.137328 
L 317.567564 287.137328 
z
" clip-path="url(#pfb09bd0cda)" style="fill: #1f77b4"/>
   </g>
   <g id="patch_45">
    <path d="M 323.347544 307.584 
L 329.127523 307.584 
L 329.127523 293.563425 
L 323.347544 293.563425 
z
" clip-path="url(#pfb09bd0cda)" style="fill: #1f77b4"/>
   </g>
   <g id="patch_46">
    <path d="M 329.127523 307.584 
L 334.907502 307.584 
L 334.907502 291.810853 
L 329.127523 291.810853 
z
" clip-path="url(#pfb09bd0cda)" style="fill: #1f77b4"/>
   </g>
   <g id="patch_47">
    <path d="M 334.907502 307.584 
L 340.687481 307.584 
L 340.687481 292.979235 
L 334.907502 292.979235 
z
" clip-path="url(#pfb09bd0cda)" style="fill: #1f77b4"/>
   </g>
   <g id="patch_48">
    <path d="M 340.687481 307.584 
L 346.46746 307.584 
L 346.46746 297.068569 
L 340.687481 297.068569 
z
" clip-path="url(#pfb09bd0cda)" style="fill: #1f77b4"/>
   </g>
   <g id="patch_49">
    <path d="M 346.46746 307.584 
L 352.247439 307.584 
L 352.247439 297.652759 
L 346.46746 297.652759 
z
" clip-path="url(#pfb09bd0cda)" style="fill: #1f77b4"/>
   </g>
   <g id="patch_50">
    <path d="M 352.247439 307.584 
L 358.027419 307.584 
L 358.027419 297.360664 
L 352.247439 297.360664 
z
" clip-path="url(#pfb09bd0cda)" style="fill: #1f77b4"/>
   </g>
   <g id="patch_51">
    <path d="M 358.027419 307.584 
L 363.807398 307.584 
L 363.807398 299.405331 
L 358.027419 299.405331 
z
" clip-path="url(#pfb09bd0cda)" style="fill: #1f77b4"/>
   </g>
   <g id="patch_52">
    <path d="M 363.807398 307.584 
L 369.587377 307.584 
L 369.587377 301.449998 
L 363.807398 301.449998 
z
" clip-path="url(#pfb09bd0cda)" style="fill: #1f77b4"/>
   </g>
   <g id="patch_53">
    <path d="M 369.587377 307.584 
L 375.367356 307.584 
L 375.367356 302.326284 
L 369.587377 302.326284 
z
" clip-path="url(#pfb09bd0cda)" style="fill: #1f77b4"/>
   </g>
   <g id="patch_54">
    <path d="M 375.367356 307.584 
L 381.147335 307.584 
L 381.147335 297.652759 
L 375.367356 297.652759 
z
" clip-path="url(#pfb09bd0cda)" style="fill: #1f77b4"/>
   </g>
   <g id="patch_55">
    <path d="M 381.147335 307.584 
L 386.927314 307.584 
L 386.927314 302.034189 
L 381.147335 302.034189 
z
" clip-path="url(#pfb09bd0cda)" style="fill: #1f77b4"/>
   </g>
   <g id="patch_56">
    <path d="M 386.927314 307.584 
L 392.707294 307.584 
L 392.707294 302.61838 
L 386.927314 302.61838 
z
" clip-path="url(#pfb09bd0cda)" style="fill: #1f77b4"/>
   </g>
   <g id="patch_57">
    <path d="M 392.707294 307.584 
L 398.487273 307.584 
L 398.487273 303.494666 
L 392.707294 303.494666 
z
" clip-path="url(#pfb09bd0cda)" style="fill: #1f77b4"/>
   </g>
   <g id="matplotlib.axis_1">
    <g id="xtick_1">
     <g id="line2d_1">
      <defs>
       <path id="m819c39d7f5" d="M 0 0 
L 0 3.5 
" style="stroke: #000000; stroke-width: 0.8"/>
      </defs>
      <g>
       <use xlink:href="#m819c39d7f5" x="73.832727" y="307.584" style="stroke: #000000; stroke-width: 0.8"/>
      </g>
     </g>
     <g id="text_1">
      <!-- 0 -->
      <g transform="translate(70.651477 322.182437) scale(0.1 -0.1)">
       <defs>
        <path id="DejaVuSans-30" d="M 2034 4250 
Q 1547 4250 1301 3770 
Q 1056 3291 1056 2328 
Q 1056 1369 1301 889 
Q 1547 409 2034 409 
Q 2525 409 2770 889 
Q 3016 1369 3016 2328 
Q 3016 3291 2770 3770 
Q 2525 4250 2034 4250 
z
M 2034 4750 
Q 2819 4750 3233 4129 
Q 3647 3509 3647 2328 
Q 3647 1150 3233 529 
Q 2819 -91 2034 -91 
Q 1250 -91 836 529 
Q 422 1150 422 2328 
Q 422 3509 836 4129 
Q 1250 4750 2034 4750 
z
" transform="scale(0.015625)"/>
       </defs>
       <use xlink:href="#DejaVuSans-30"/>
      </g>
     </g>
    </g>
    <g id="xtick_2">
     <g id="line2d_2">
      <g>
       <use xlink:href="#m819c39d7f5" x="128.314108" y="307.584" style="stroke: #000000; stroke-width: 0.8"/>
      </g>
     </g>
     <g id="text_2">
      <!-- 1000 -->
      <g transform="translate(115.589108 322.182437) scale(0.1 -0.1)">
       <defs>
        <path id="DejaVuSans-31" d="M 794 531 
L 1825 531 
L 1825 4091 
L 703 3866 
L 703 4441 
L 1819 4666 
L 2450 4666 
L 2450 531 
L 3481 531 
L 3481 0 
L 794 0 
L 794 531 
z
" transform="scale(0.015625)"/>
       </defs>
       <use xlink:href="#DejaVuSans-31"/>
       <use xlink:href="#DejaVuSans-30" x="63.623047"/>
       <use xlink:href="#DejaVuSans-30" x="127.246094"/>
       <use xlink:href="#DejaVuSans-30" x="190.869141"/>
      </g>
     </g>
    </g>
    <g id="xtick_3">
     <g id="line2d_3">
      <g>
       <use xlink:href="#m819c39d7f5" x="182.795488" y="307.584" style="stroke: #000000; stroke-width: 0.8"/>
      </g>
     </g>
     <g id="text_3">
      <!-- 2000 -->
      <g transform="translate(170.070488 322.182437) scale(0.1 -0.1)">
       <defs>
        <path id="DejaVuSans-32" d="M 1228 531 
L 3431 531 
L 3431 0 
L 469 0 
L 469 531 
Q 828 903 1448 1529 
Q 2069 2156 2228 2338 
Q 2531 2678 2651 2914 
Q 2772 3150 2772 3378 
Q 2772 3750 2511 3984 
Q 2250 4219 1831 4219 
Q 1534 4219 1204 4116 
Q 875 4013 500 3803 
L 500 4441 
Q 881 4594 1212 4672 
Q 1544 4750 1819 4750 
Q 2544 4750 2975 4387 
Q 3406 4025 3406 3419 
Q 3406 3131 3298 2873 
Q 3191 2616 2906 2266 
Q 2828 2175 2409 1742 
Q 1991 1309 1228 531 
z
" transform="scale(0.015625)"/>
       </defs>
       <use xlink:href="#DejaVuSans-32"/>
       <use xlink:href="#DejaVuSans-30" x="63.623047"/>
       <use xlink:href="#DejaVuSans-30" x="127.246094"/>
       <use xlink:href="#DejaVuSans-30" x="190.869141"/>
      </g>
     </g>
    </g>
    <g id="xtick_4">
     <g id="line2d_4">
      <g>
       <use xlink:href="#m819c39d7f5" x="237.276868" y="307.584" style="stroke: #000000; stroke-width: 0.8"/>
      </g>
     </g>
     <g id="text_4">
      <!-- 3000 -->
      <g transform="translate(224.551868 322.182437) scale(0.1 -0.1)">
       <defs>
        <path id="DejaVuSans-33" d="M 2597 2516 
Q 3050 2419 3304 2112 
Q 3559 1806 3559 1356 
Q 3559 666 3084 287 
Q 2609 -91 1734 -91 
Q 1441 -91 1130 -33 
Q 819 25 488 141 
L 488 750 
Q 750 597 1062 519 
Q 1375 441 1716 441 
Q 2309 441 2620 675 
Q 2931 909 2931 1356 
Q 2931 1769 2642 2001 
Q 2353 2234 1838 2234 
L 1294 2234 
L 1294 2753 
L 1863 2753 
Q 2328 2753 2575 2939 
Q 2822 3125 2822 3475 
Q 2822 3834 2567 4026 
Q 2313 4219 1838 4219 
Q 1578 4219 1281 4162 
Q 984 4106 628 3988 
L 628 4550 
Q 988 4650 1302 4700 
Q 1616 4750 1894 4750 
Q 2613 4750 3031 4423 
Q 3450 4097 3450 3541 
Q 3450 3153 3228 2886 
Q 3006 2619 2597 2516 
z
" transform="scale(0.015625)"/>
       </defs>
       <use xlink:href="#DejaVuSans-33"/>
       <use xlink:href="#DejaVuSans-30" x="63.623047"/>
       <use xlink:href="#DejaVuSans-30" x="127.246094"/>
       <use xlink:href="#DejaVuSans-30" x="190.869141"/>
      </g>
     </g>
    </g>
    <g id="xtick_5">
     <g id="line2d_5">
      <g>
       <use xlink:href="#m819c39d7f5" x="291.758249" y="307.584" style="stroke: #000000; stroke-width: 0.8"/>
      </g>
     </g>
     <g id="text_5">
      <!-- 4000 -->
      <g transform="translate(279.033249 322.182437) scale(0.1 -0.1)">
       <defs>
        <path id="DejaVuSans-34" d="M 2419 4116 
L 825 1625 
L 2419 1625 
L 2419 4116 
z
M 2253 4666 
L 3047 4666 
L 3047 1625 
L 3713 1625 
L 3713 1100 
L 3047 1100 
L 3047 0 
L 2419 0 
L 2419 1100 
L 313 1100 
L 313 1709 
L 2253 4666 
z
" transform="scale(0.015625)"/>
       </defs>
       <use xlink:href="#DejaVuSans-34"/>
       <use xlink:href="#DejaVuSans-30" x="63.623047"/>
       <use xlink:href="#DejaVuSans-30" x="127.246094"/>
       <use xlink:href="#DejaVuSans-30" x="190.869141"/>
      </g>
     </g>
    </g>
    <g id="xtick_6">
     <g id="line2d_6">
      <g>
       <use xlink:href="#m819c39d7f5" x="346.239629" y="307.584" style="stroke: #000000; stroke-width: 0.8"/>
      </g>
     </g>
     <g id="text_6">
      <!-- 5000 -->
      <g transform="translate(333.514629 322.182437) scale(0.1 -0.1)">
       <defs>
        <path id="DejaVuSans-35" d="M 691 4666 
L 3169 4666 
L 3169 4134 
L 1269 4134 
L 1269 2991 
Q 1406 3038 1543 3061 
Q 1681 3084 1819 3084 
Q 2600 3084 3056 2656 
Q 3513 2228 3513 1497 
Q 3513 744 3044 326 
Q 2575 -91 1722 -91 
Q 1428 -91 1123 -41 
Q 819 9 494 109 
L 494 744 
Q 775 591 1075 516 
Q 1375 441 1709 441 
Q 2250 441 2565 725 
Q 2881 1009 2881 1497 
Q 2881 1984 2565 2268 
Q 2250 2553 1709 2553 
Q 1456 2553 1204 2497 
Q 953 2441 691 2322 
L 691 4666 
z
" transform="scale(0.015625)"/>
       </defs>
       <use xlink:href="#DejaVuSans-35"/>
       <use xlink:href="#DejaVuSans-30" x="63.623047"/>
       <use xlink:href="#DejaVuSans-30" x="127.246094"/>
       <use xlink:href="#DejaVuSans-30" x="190.869141"/>
      </g>
     </g>
    </g>
    <g id="xtick_7">
     <g id="line2d_7">
      <g>
       <use xlink:href="#m819c39d7f5" x="400.721009" y="307.584" style="stroke: #000000; stroke-width: 0.8"/>
      </g>
     </g>
     <g id="text_7">
      <!-- 6000 -->
      <g transform="translate(387.996009 322.182437) scale(0.1 -0.1)">
       <defs>
        <path id="DejaVuSans-36" d="M 2113 2584 
Q 1688 2584 1439 2293 
Q 1191 2003 1191 1497 
Q 1191 994 1439 701 
Q 1688 409 2113 409 
Q 2538 409 2786 701 
Q 3034 994 3034 1497 
Q 3034 2003 2786 2293 
Q 2538 2584 2113 2584 
z
M 3366 4563 
L 3366 3988 
Q 3128 4100 2886 4159 
Q 2644 4219 2406 4219 
Q 1781 4219 1451 3797 
Q 1122 3375 1075 2522 
Q 1259 2794 1537 2939 
Q 1816 3084 2150 3084 
Q 2853 3084 3261 2657 
Q 3669 2231 3669 1497 
Q 3669 778 3244 343 
Q 2819 -91 2113 -91 
Q 1303 -91 875 529 
Q 447 1150 447 2328 
Q 447 3434 972 4092 
Q 1497 4750 2381 4750 
Q 2619 4750 2861 4703 
Q 3103 4656 3366 4563 
z
" transform="scale(0.015625)"/>
       </defs>
       <use xlink:href="#DejaVuSans-36"/>
       <use xlink:href="#DejaVuSans-30" x="63.623047"/>
       <use xlink:href="#DejaVuSans-30" x="127.246094"/>
       <use xlink:href="#DejaVuSans-30" x="190.869141"/>
      </g>
     </g>
    </g>
   </g>
   <g id="matplotlib.axis_2">
    <g id="ytick_1">
     <g id="line2d_8">
      <defs>
       <path id="mac96eec642" d="M 0 0 
L -3.5 0 
" style="stroke: #000000; stroke-width: 0.8"/>
      </defs>
      <g>
       <use xlink:href="#mac96eec642" x="57.6" y="307.584" style="stroke: #000000; stroke-width: 0.8"/>
      </g>
     </g>
     <g id="text_8">
      <!-- 0.00000 -->
      <g transform="translate(9.246875 311.383219) scale(0.1 -0.1)">
       <defs>
        <path id="DejaVuSans-2e" d="M 684 794 
L 1344 794 
L 1344 0 
L 684 0 
L 684 794 
z
" transform="scale(0.015625)"/>
       </defs>
       <use xlink:href="#DejaVuSans-30"/>
       <use xlink:href="#DejaVuSans-2e" x="63.623047"/>
       <use xlink:href="#DejaVuSans-30" x="95.410156"/>
       <use xlink:href="#DejaVuSans-30" x="159.033203"/>
       <use xlink:href="#DejaVuSans-30" x="222.65625"/>
       <use xlink:href="#DejaVuSans-30" x="286.279297"/>
       <use xlink:href="#DejaVuSans-30" x="349.902344"/>
      </g>
     </g>
    </g>
    <g id="ytick_2">
     <g id="line2d_9">
      <g>
       <use xlink:href="#mac96eec642" x="57.6" y="277.890669" style="stroke: #000000; stroke-width: 0.8"/>
      </g>
     </g>
     <g id="text_9">
      <!-- 0.00005 -->
      <g transform="translate(9.246875 281.689888) scale(0.1 -0.1)">
       <use xlink:href="#DejaVuSans-30"/>
       <use xlink:href="#DejaVuSans-2e" x="63.623047"/>
       <use xlink:href="#DejaVuSans-30" x="95.410156"/>
       <use xlink:href="#DejaVuSans-30" x="159.033203"/>
       <use xlink:href="#DejaVuSans-30" x="222.65625"/>
       <use xlink:href="#DejaVuSans-30" x="286.279297"/>
       <use xlink:href="#DejaVuSans-35" x="349.902344"/>
      </g>
     </g>
    </g>
    <g id="ytick_3">
     <g id="line2d_10">
      <g>
       <use xlink:href="#mac96eec642" x="57.6" y="248.197338" style="stroke: #000000; stroke-width: 0.8"/>
      </g>
     </g>
     <g id="text_10">
      <!-- 0.00010 -->
      <g transform="translate(9.246875 251.996557) scale(0.1 -0.1)">
       <use xlink:href="#DejaVuSans-30"/>
       <use xlink:href="#DejaVuSans-2e" x="63.623047"/>
       <use xlink:href="#DejaVuSans-30" x="95.410156"/>
       <use xlink:href="#DejaVuSans-30" x="159.033203"/>
       <use xlink:href="#DejaVuSans-30" x="222.65625"/>
       <use xlink:href="#DejaVuSans-31" x="286.279297"/>
       <use xlink:href="#DejaVuSans-30" x="349.902344"/>
      </g>
     </g>
    </g>
    <g id="ytick_4">
     <g id="line2d_11">
      <g>
       <use xlink:href="#mac96eec642" x="57.6" y="218.504007" style="stroke: #000000; stroke-width: 0.8"/>
      </g>
     </g>
     <g id="text_11">
      <!-- 0.00015 -->
      <g transform="translate(9.246875 222.303226) scale(0.1 -0.1)">
       <use xlink:href="#DejaVuSans-30"/>
       <use xlink:href="#DejaVuSans-2e" x="63.623047"/>
       <use xlink:href="#DejaVuSans-30" x="95.410156"/>
       <use xlink:href="#DejaVuSans-30" x="159.033203"/>
       <use xlink:href="#DejaVuSans-30" x="222.65625"/>
       <use xlink:href="#DejaVuSans-31" x="286.279297"/>
       <use xlink:href="#DejaVuSans-35" x="349.902344"/>
      </g>
     </g>
    </g>
    <g id="ytick_5">
     <g id="line2d_12">
      <g>
       <use xlink:href="#mac96eec642" x="57.6" y="188.810676" style="stroke: #000000; stroke-width: 0.8"/>
      </g>
     </g>
     <g id="text_12">
      <!-- 0.00020 -->
      <g transform="translate(9.246875 192.609894) scale(0.1 -0.1)">
       <use xlink:href="#DejaVuSans-30"/>
       <use xlink:href="#DejaVuSans-2e" x="63.623047"/>
       <use xlink:href="#DejaVuSans-30" x="95.410156"/>
       <use xlink:href="#DejaVuSans-30" x="159.033203"/>
       <use xlink:href="#DejaVuSans-30" x="222.65625"/>
       <use xlink:href="#DejaVuSans-32" x="286.279297"/>
       <use xlink:href="#DejaVuSans-30" x="349.902344"/>
      </g>
     </g>
    </g>
    <g id="ytick_6">
     <g id="line2d_13">
      <g>
       <use xlink:href="#mac96eec642" x="57.6" y="159.117345" style="stroke: #000000; stroke-width: 0.8"/>
      </g>
     </g>
     <g id="text_13">
      <!-- 0.00025 -->
      <g transform="translate(9.246875 162.916563) scale(0.1 -0.1)">
       <use xlink:href="#DejaVuSans-30"/>
       <use xlink:href="#DejaVuSans-2e" x="63.623047"/>
       <use xlink:href="#DejaVuSans-30" x="95.410156"/>
       <use xlink:href="#DejaVuSans-30" x="159.033203"/>
       <use xlink:href="#DejaVuSans-30" x="222.65625"/>
       <use xlink:href="#DejaVuSans-32" x="286.279297"/>
       <use xlink:href="#DejaVuSans-35" x="349.902344"/>
      </g>
     </g>
    </g>
    <g id="ytick_7">
     <g id="line2d_14">
      <g>
       <use xlink:href="#mac96eec642" x="57.6" y="129.424014" style="stroke: #000000; stroke-width: 0.8"/>
      </g>
     </g>
     <g id="text_14">
      <!-- 0.00030 -->
      <g transform="translate(9.246875 133.223232) scale(0.1 -0.1)">
       <use xlink:href="#DejaVuSans-30"/>
       <use xlink:href="#DejaVuSans-2e" x="63.623047"/>
       <use xlink:href="#DejaVuSans-30" x="95.410156"/>
       <use xlink:href="#DejaVuSans-30" x="159.033203"/>
       <use xlink:href="#DejaVuSans-30" x="222.65625"/>
       <use xlink:href="#DejaVuSans-33" x="286.279297"/>
       <use xlink:href="#DejaVuSans-30" x="349.902344"/>
      </g>
     </g>
    </g>
    <g id="ytick_8">
     <g id="line2d_15">
      <g>
       <use xlink:href="#mac96eec642" x="57.6" y="99.730682" style="stroke: #000000; stroke-width: 0.8"/>
      </g>
     </g>
     <g id="text_15">
      <!-- 0.00035 -->
      <g transform="translate(9.246875 103.529901) scale(0.1 -0.1)">
       <use xlink:href="#DejaVuSans-30"/>
       <use xlink:href="#DejaVuSans-2e" x="63.623047"/>
       <use xlink:href="#DejaVuSans-30" x="95.410156"/>
       <use xlink:href="#DejaVuSans-30" x="159.033203"/>
       <use xlink:href="#DejaVuSans-30" x="222.65625"/>
       <use xlink:href="#DejaVuSans-33" x="286.279297"/>
       <use xlink:href="#DejaVuSans-35" x="349.902344"/>
      </g>
     </g>
    </g>
    <g id="ytick_9">
     <g id="line2d_16">
      <g>
       <use xlink:href="#mac96eec642" x="57.6" y="70.037351" style="stroke: #000000; stroke-width: 0.8"/>
      </g>
     </g>
     <g id="text_16">
      <!-- 0.00040 -->
      <g transform="translate(9.246875 73.83657) scale(0.1 -0.1)">
       <use xlink:href="#DejaVuSans-30"/>
       <use xlink:href="#DejaVuSans-2e" x="63.623047"/>
       <use xlink:href="#DejaVuSans-30" x="95.410156"/>
       <use xlink:href="#DejaVuSans-30" x="159.033203"/>
       <use xlink:href="#DejaVuSans-30" x="222.65625"/>
       <use xlink:href="#DejaVuSans-34" x="286.279297"/>
       <use xlink:href="#DejaVuSans-30" x="349.902344"/>
      </g>
     </g>
    </g>
   </g>
   <g id="line2d_17">
    <path d="M 73.832727 307.584 
L 74.105134 307.583796 
L 74.268578 307.399189 
L 75.467169 307.25118 
L 76.175427 306.911472 
L 76.829203 306.346206 
L 77.537461 305.423282 
L 78.3002 304.047573 
L 79.171903 301.986039 
L 80.152567 299.061092 
L 81.296676 294.890675 
L 82.60423 289.225924 
L 84.129708 281.576699 
L 85.982075 271.070069 
L 88.270293 256.731096 
L 91.484695 235.053378 
L 100.637566 172.595204 
L 103.797486 152.933306 
L 106.630518 136.673846 
L 109.245624 122.945438 
L 111.697287 111.252734 
L 113.985505 101.391436 
L 116.16476 92.947326 
L 118.235052 85.773892 
L 120.250863 79.569235 
L 122.157712 74.390941 
L 124.010079 69.984962 
L 125.807964 66.277569 
L 127.496887 63.287219 
L 129.131328 60.830389 
L 130.711288 58.8482 
L 132.236767 57.286018 
L 133.707764 56.093423 
L 135.12428 55.224094 
L 136.540796 54.617008 
L 137.902831 54.269955 
L 139.264865 54.144734 
L 140.681381 54.239099 
L 142.152378 54.567751 
L 143.677857 55.14392 
L 145.257817 55.979223 
L 146.94674 57.124383 
L 148.799107 58.660119 
L 150.760436 60.581517 
L 152.88521 62.977294 
L 155.22791 65.962044 
L 157.788534 69.591961 
L 160.621566 73.999558 
L 163.835968 79.425184 
L 167.48622 86.036261 
L 171.790249 94.307584 
L 177.183906 105.179188 
L 185.574038 122.659637 
L 197.88683 148.247785 
L 204.697003 161.864498 
L 210.635473 173.249906 
L 216.138093 183.325202 
L 221.368305 192.441845 
L 226.380592 200.738503 
L 231.283916 208.428823 
L 236.078278 215.53869 
L 240.818158 222.172325 
L 245.503557 228.349422 
L 250.134474 234.091799 
L 254.765391 239.483976 
L 259.396309 244.538026 
L 264.027226 249.267149 
L 268.712625 253.73551 
L 273.452505 257.947265 
L 278.246866 261.907776 
L 283.095709 265.623446 
L 287.999033 269.101555 
L 293.01132 272.384374 
L 298.13257 275.472279 
L 303.362783 278.366985 
L 308.756439 281.09779 
L 314.31354 283.661646 
L 320.088566 286.079 
L 326.081518 288.34388 
L 332.292396 290.45266 
L 338.830161 292.435111 
L 345.694815 294.281166 
L 352.940839 295.996254 
L 360.622713 297.582771 
L 368.79492 299.04108 
L 377.566423 300.378114 
L 387.046183 301.595662 
L 397.397645 302.697628 
L 398.487273 302.801466 
L 398.487273 302.801466 
" clip-path="url(#pfb09bd0cda)" style="fill: none; stroke: #ff7f0e; stroke-width: 1.5; stroke-linecap: square"/>
   </g>
   <g id="patch_58">
    <path d="M 57.6 307.584 
L 57.6 41.472 
" style="fill: none; stroke: #000000; stroke-width: 0.8; stroke-linejoin: miter; stroke-linecap: square"/>
   </g>
   <g id="patch_59">
    <path d="M 414.72 307.584 
L 414.72 41.472 
" style="fill: none; stroke: #000000; stroke-width: 0.8; stroke-linejoin: miter; stroke-linecap: square"/>
   </g>
   <g id="patch_60">
    <path d="M 57.6 307.584 
L 414.72 307.584 
" style="fill: none; stroke: #000000; stroke-width: 0.8; stroke-linejoin: miter; stroke-linecap: square"/>
   </g>
   <g id="patch_61">
    <path d="M 57.6 41.472 
L 414.72 41.472 
" style="fill: none; stroke: #000000; stroke-width: 0.8; stroke-linejoin: miter; stroke-linecap: square"/>
   </g>
   <g id="legend_1">
    <g id="patch_62">
     <path d="M 145.554375 183.367062 
L 407.72 183.367062 
Q 409.72 183.367062 409.72 181.367062 
L 409.72 167.688937 
Q 409.72 165.688937 407.72 165.688937 
L 145.554375 165.688937 
Q 143.554375 165.688937 143.554375 167.688937 
L 143.554375 181.367062 
Q 143.554375 183.367062 145.554375 183.367062 
z
" style="fill: #ffffff; opacity: 0.8; stroke: #cccccc; stroke-linejoin: miter"/>
    </g>
    <g id="line2d_18">
     <path d="M 147.554375 173.787375 
L 157.554375 173.787375 
L 167.554375 173.787375 
" style="fill: none; stroke: #ff7f0e; stroke-width: 1.5; stroke-linecap: square"/>
    </g>
    <g id="text_17">
     <!-- states 12 cross entropy: 8.34 sh entropy: 8.15 -->
     <g transform="translate(175.554375 177.287375) scale(0.1 -0.1)">
      <defs>
       <path id="DejaVuSans-73" d="M 2834 3397 
L 2834 2853 
Q 2591 2978 2328 3040 
Q 2066 3103 1784 3103 
Q 1356 3103 1142 2972 
Q 928 2841 928 2578 
Q 928 2378 1081 2264 
Q 1234 2150 1697 2047 
L 1894 2003 
Q 2506 1872 2764 1633 
Q 3022 1394 3022 966 
Q 3022 478 2636 193 
Q 2250 -91 1575 -91 
Q 1294 -91 989 -36 
Q 684 19 347 128 
L 347 722 
Q 666 556 975 473 
Q 1284 391 1588 391 
Q 1994 391 2212 530 
Q 2431 669 2431 922 
Q 2431 1156 2273 1281 
Q 2116 1406 1581 1522 
L 1381 1569 
Q 847 1681 609 1914 
Q 372 2147 372 2553 
Q 372 3047 722 3315 
Q 1072 3584 1716 3584 
Q 2034 3584 2315 3537 
Q 2597 3491 2834 3397 
z
" transform="scale(0.015625)"/>
       <path id="DejaVuSans-74" d="M 1172 4494 
L 1172 3500 
L 2356 3500 
L 2356 3053 
L 1172 3053 
L 1172 1153 
Q 1172 725 1289 603 
Q 1406 481 1766 481 
L 2356 481 
L 2356 0 
L 1766 0 
Q 1100 0 847 248 
Q 594 497 594 1153 
L 594 3053 
L 172 3053 
L 172 3500 
L 594 3500 
L 594 4494 
L 1172 4494 
z
" transform="scale(0.015625)"/>
       <path id="DejaVuSans-61" d="M 2194 1759 
Q 1497 1759 1228 1600 
Q 959 1441 959 1056 
Q 959 750 1161 570 
Q 1363 391 1709 391 
Q 2188 391 2477 730 
Q 2766 1069 2766 1631 
L 2766 1759 
L 2194 1759 
z
M 3341 1997 
L 3341 0 
L 2766 0 
L 2766 531 
Q 2569 213 2275 61 
Q 1981 -91 1556 -91 
Q 1019 -91 701 211 
Q 384 513 384 1019 
Q 384 1609 779 1909 
Q 1175 2209 1959 2209 
L 2766 2209 
L 2766 2266 
Q 2766 2663 2505 2880 
Q 2244 3097 1772 3097 
Q 1472 3097 1187 3025 
Q 903 2953 641 2809 
L 641 3341 
Q 956 3463 1253 3523 
Q 1550 3584 1831 3584 
Q 2591 3584 2966 3190 
Q 3341 2797 3341 1997 
z
" transform="scale(0.015625)"/>
       <path id="DejaVuSans-65" d="M 3597 1894 
L 3597 1613 
L 953 1613 
Q 991 1019 1311 708 
Q 1631 397 2203 397 
Q 2534 397 2845 478 
Q 3156 559 3463 722 
L 3463 178 
Q 3153 47 2828 -22 
Q 2503 -91 2169 -91 
Q 1331 -91 842 396 
Q 353 884 353 1716 
Q 353 2575 817 3079 
Q 1281 3584 2069 3584 
Q 2775 3584 3186 3129 
Q 3597 2675 3597 1894 
z
M 3022 2063 
Q 3016 2534 2758 2815 
Q 2500 3097 2075 3097 
Q 1594 3097 1305 2825 
Q 1016 2553 972 2059 
L 3022 2063 
z
" transform="scale(0.015625)"/>
       <path id="DejaVuSans-20" transform="scale(0.015625)"/>
       <path id="DejaVuSans-63" d="M 3122 3366 
L 3122 2828 
Q 2878 2963 2633 3030 
Q 2388 3097 2138 3097 
Q 1578 3097 1268 2742 
Q 959 2388 959 1747 
Q 959 1106 1268 751 
Q 1578 397 2138 397 
Q 2388 397 2633 464 
Q 2878 531 3122 666 
L 3122 134 
Q 2881 22 2623 -34 
Q 2366 -91 2075 -91 
Q 1284 -91 818 406 
Q 353 903 353 1747 
Q 353 2603 823 3093 
Q 1294 3584 2113 3584 
Q 2378 3584 2631 3529 
Q 2884 3475 3122 3366 
z
" transform="scale(0.015625)"/>
       <path id="DejaVuSans-72" d="M 2631 2963 
Q 2534 3019 2420 3045 
Q 2306 3072 2169 3072 
Q 1681 3072 1420 2755 
Q 1159 2438 1159 1844 
L 1159 0 
L 581 0 
L 581 3500 
L 1159 3500 
L 1159 2956 
Q 1341 3275 1631 3429 
Q 1922 3584 2338 3584 
Q 2397 3584 2469 3576 
Q 2541 3569 2628 3553 
L 2631 2963 
z
" transform="scale(0.015625)"/>
       <path id="DejaVuSans-6f" d="M 1959 3097 
Q 1497 3097 1228 2736 
Q 959 2375 959 1747 
Q 959 1119 1226 758 
Q 1494 397 1959 397 
Q 2419 397 2687 759 
Q 2956 1122 2956 1747 
Q 2956 2369 2687 2733 
Q 2419 3097 1959 3097 
z
M 1959 3584 
Q 2709 3584 3137 3096 
Q 3566 2609 3566 1747 
Q 3566 888 3137 398 
Q 2709 -91 1959 -91 
Q 1206 -91 779 398 
Q 353 888 353 1747 
Q 353 2609 779 3096 
Q 1206 3584 1959 3584 
z
" transform="scale(0.015625)"/>
       <path id="DejaVuSans-6e" d="M 3513 2113 
L 3513 0 
L 2938 0 
L 2938 2094 
Q 2938 2591 2744 2837 
Q 2550 3084 2163 3084 
Q 1697 3084 1428 2787 
Q 1159 2491 1159 1978 
L 1159 0 
L 581 0 
L 581 3500 
L 1159 3500 
L 1159 2956 
Q 1366 3272 1645 3428 
Q 1925 3584 2291 3584 
Q 2894 3584 3203 3211 
Q 3513 2838 3513 2113 
z
" transform="scale(0.015625)"/>
       <path id="DejaVuSans-70" d="M 1159 525 
L 1159 -1331 
L 581 -1331 
L 581 3500 
L 1159 3500 
L 1159 2969 
Q 1341 3281 1617 3432 
Q 1894 3584 2278 3584 
Q 2916 3584 3314 3078 
Q 3713 2572 3713 1747 
Q 3713 922 3314 415 
Q 2916 -91 2278 -91 
Q 1894 -91 1617 61 
Q 1341 213 1159 525 
z
M 3116 1747 
Q 3116 2381 2855 2742 
Q 2594 3103 2138 3103 
Q 1681 3103 1420 2742 
Q 1159 2381 1159 1747 
Q 1159 1113 1420 752 
Q 1681 391 2138 391 
Q 2594 391 2855 752 
Q 3116 1113 3116 1747 
z
" transform="scale(0.015625)"/>
       <path id="DejaVuSans-79" d="M 2059 -325 
Q 1816 -950 1584 -1140 
Q 1353 -1331 966 -1331 
L 506 -1331 
L 506 -850 
L 844 -850 
Q 1081 -850 1212 -737 
Q 1344 -625 1503 -206 
L 1606 56 
L 191 3500 
L 800 3500 
L 1894 763 
L 2988 3500 
L 3597 3500 
L 2059 -325 
z
" transform="scale(0.015625)"/>
       <path id="DejaVuSans-3a" d="M 750 794 
L 1409 794 
L 1409 0 
L 750 0 
L 750 794 
z
M 750 3309 
L 1409 3309 
L 1409 2516 
L 750 2516 
L 750 3309 
z
" transform="scale(0.015625)"/>
       <path id="DejaVuSans-38" d="M 2034 2216 
Q 1584 2216 1326 1975 
Q 1069 1734 1069 1313 
Q 1069 891 1326 650 
Q 1584 409 2034 409 
Q 2484 409 2743 651 
Q 3003 894 3003 1313 
Q 3003 1734 2745 1975 
Q 2488 2216 2034 2216 
z
M 1403 2484 
Q 997 2584 770 2862 
Q 544 3141 544 3541 
Q 544 4100 942 4425 
Q 1341 4750 2034 4750 
Q 2731 4750 3128 4425 
Q 3525 4100 3525 3541 
Q 3525 3141 3298 2862 
Q 3072 2584 2669 2484 
Q 3125 2378 3379 2068 
Q 3634 1759 3634 1313 
Q 3634 634 3220 271 
Q 2806 -91 2034 -91 
Q 1263 -91 848 271 
Q 434 634 434 1313 
Q 434 1759 690 2068 
Q 947 2378 1403 2484 
z
M 1172 3481 
Q 1172 3119 1398 2916 
Q 1625 2713 2034 2713 
Q 2441 2713 2670 2916 
Q 2900 3119 2900 3481 
Q 2900 3844 2670 4047 
Q 2441 4250 2034 4250 
Q 1625 4250 1398 4047 
Q 1172 3844 1172 3481 
z
" transform="scale(0.015625)"/>
       <path id="DejaVuSans-68" d="M 3513 2113 
L 3513 0 
L 2938 0 
L 2938 2094 
Q 2938 2591 2744 2837 
Q 2550 3084 2163 3084 
Q 1697 3084 1428 2787 
Q 1159 2491 1159 1978 
L 1159 0 
L 581 0 
L 581 4863 
L 1159 4863 
L 1159 2956 
Q 1366 3272 1645 3428 
Q 1925 3584 2291 3584 
Q 2894 3584 3203 3211 
Q 3513 2838 3513 2113 
z
" transform="scale(0.015625)"/>
      </defs>
      <use xlink:href="#DejaVuSans-73"/>
      <use xlink:href="#DejaVuSans-74" x="52.099609"/>
      <use xlink:href="#DejaVuSans-61" x="91.308594"/>
      <use xlink:href="#DejaVuSans-74" x="152.587891"/>
      <use xlink:href="#DejaVuSans-65" x="191.796875"/>
      <use xlink:href="#DejaVuSans-73" x="253.320312"/>
      <use xlink:href="#DejaVuSans-20" x="305.419922"/>
      <use xlink:href="#DejaVuSans-31" x="337.207031"/>
      <use xlink:href="#DejaVuSans-32" x="400.830078"/>
      <use xlink:href="#DejaVuSans-20" x="464.453125"/>
      <use xlink:href="#DejaVuSans-63" x="496.240234"/>
      <use xlink:href="#DejaVuSans-72" x="551.220703"/>
      <use xlink:href="#DejaVuSans-6f" x="590.083984"/>
      <use xlink:href="#DejaVuSans-73" x="651.265625"/>
      <use xlink:href="#DejaVuSans-73" x="703.365234"/>
      <use xlink:href="#DejaVuSans-20" x="755.464844"/>
      <use xlink:href="#DejaVuSans-65" x="787.251953"/>
      <use xlink:href="#DejaVuSans-6e" x="848.775391"/>
      <use xlink:href="#DejaVuSans-74" x="912.154297"/>
      <use xlink:href="#DejaVuSans-72" x="951.363281"/>
      <use xlink:href="#DejaVuSans-6f" x="990.226562"/>
      <use xlink:href="#DejaVuSans-70" x="1051.408203"/>
      <use xlink:href="#DejaVuSans-79" x="1114.884766"/>
      <use xlink:href="#DejaVuSans-3a" x="1166.814453"/>
      <use xlink:href="#DejaVuSans-20" x="1200.505859"/>
      <use xlink:href="#DejaVuSans-38" x="1232.292969"/>
      <use xlink:href="#DejaVuSans-2e" x="1295.916016"/>
      <use xlink:href="#DejaVuSans-33" x="1327.703125"/>
      <use xlink:href="#DejaVuSans-34" x="1391.326172"/>
      <use xlink:href="#DejaVuSans-20" x="1454.949219"/>
      <use xlink:href="#DejaVuSans-73" x="1486.736328"/>
      <use xlink:href="#DejaVuSans-68" x="1538.835938"/>
      <use xlink:href="#DejaVuSans-20" x="1602.214844"/>
      <use xlink:href="#DejaVuSans-65" x="1634.001953"/>
      <use xlink:href="#DejaVuSans-6e" x="1695.525391"/>
      <use xlink:href="#DejaVuSans-74" x="1758.904297"/>
      <use xlink:href="#DejaVuSans-72" x="1798.113281"/>
      <use xlink:href="#DejaVuSans-6f" x="1836.976562"/>
      <use xlink:href="#DejaVuSans-70" x="1898.158203"/>
      <use xlink:href="#DejaVuSans-79" x="1961.634766"/>
      <use xlink:href="#DejaVuSans-3a" x="2013.564453"/>
      <use xlink:href="#DejaVuSans-20" x="2047.255859"/>
      <use xlink:href="#DejaVuSans-38" x="2079.042969"/>
      <use xlink:href="#DejaVuSans-2e" x="2142.666016"/>
      <use xlink:href="#DejaVuSans-31" x="2174.453125"/>
      <use xlink:href="#DejaVuSans-35" x="2238.076172"/>
     </g>
    </g>
   </g>
  </g>
 </g>
 <defs>
  <clipPath id="pfb09bd0cda">
   <rect x="57.6" y="41.472" width="357.12" height="266.112"/>
  </clipPath>
 </defs>
</svg>
